<svg xmlns="http://www.w3.org/2000/svg" xmlns:xlink="http://www.w3.org/1999/xlink" width="271.91" height="195.785" enable-background="new 0 0 271.91 195.785" overflow="visible" space="preserve" viewBox="0 0 271.91 195.785"><switch><g><g id="Layer_1"><g><path fill-rule="evenodd" stroke="#000" stroke-miterlimit="10" stroke-width=".036" d="M0.0,168.8c-0.0-7.8,1.4-16.7,4.5-27.3c3.0-10.6,9.0-26.5,13.9-35.5 c4.8-9.0,9.5-15.0,14.6-18.2l178.8-2.5l-3.8-75.9c0.2-3.0,2.3-5.2,6.4-6.8 c4.1-1.5,11.7-2.9,18-2.4c6.0,0.5,12.2,2.3,18.5,5.6l5.3,83.7c2.6,1.8,4.9,7.5,7.1,17.2 c2.1,9.7,4.7,27.0,5.8,40.5c0.9,13.3,4.7,31.5,0.6,39.6c-4.1,7.8-0.3,6.7-24.5,8.1 c-24.5,1.3-84.7,0.6-120.1,0.1c-35.3-0.6-71.0-2.1-90.2-3.4c-19.0-1.2-17.2-0.5-23.1-4.2 C6.2,183.5,2.1,177.4,0.0,168.8z" clip-rule="evenodd"/><path fill="#545454" fill-rule="evenodd" stroke="#000" stroke-miterlimit="10" stroke-width=".036" d="M34.8,93.6c-5.7,1.7-11.0,8.4-15.8,20.7c-4.8,12.2-9.0,29.3-12.9,52.1 c28.4,0.7,61.3,1.7,100.1,3.0c38.8,1.2,81.8,2.7,131.0,4.6c6.8-12.5,11.5-25.5,14.0-39.4 c2.4-13.9,2.7-28.2,0.8-43.5C179.6,92.0,107.2,92.8,34.8,93.6z" clip-rule="evenodd"/><path fill="#FFF" fill-rule="evenodd" stroke="#000" stroke-miterlimit="10" stroke-width=".036" d="M43.3,98.1l-21.2,57.6l111.7,3.2c4.5-13.7,7.6-25.4,9.8-35.8c2.0-10.4,2.8-19.0,2.5-26.2 C111.9,97.2,77.6,97.7,43.3,98.1z" clip-rule="evenodd"/><path fill-rule="evenodd" stroke="#000" stroke-miterlimit="10" stroke-width=".036" d="M163.7,101.7c0.2,3.7,4.4,6.8,9.4,6.7c5.0-0.0,8.8-3.2,8.6-7.0 c-0.2-3.8-4.4-6.8-9.4-6.7C167.3,94.7,163.4,97.9,163.7,101.7z" clip-rule="evenodd"/><path fill="#FFF" fill-rule="evenodd" stroke="#000" stroke-miterlimit="10" stroke-width=".036" d="M165.0,101.5c0.1,3.1,3.7,5.6,7.8,5.6c4.1-0.0,7.3-2.6,7.1-5.8c-0.1-3.1-3.7-5.6-7.8-5.5 C168.1,95.8,164.8,98.4,165.0,101.5z" clip-rule="evenodd"/><path fill-rule="evenodd" stroke="#000" stroke-miterlimit="10" stroke-width=".036" d="M185.8,99.9c0.2,3.7,4.4,6.8,9.4,6.7c5.0-0.0,8.8-3.2,8.6-7.0c-0.2-3.7-4.5-6.8-9.5-6.7 C189.4,92.9,185.6,96.1,185.8,99.9z" clip-rule="evenodd"/><path fill="#FFF" fill-rule="evenodd" stroke="#000" stroke-miterlimit="10" stroke-width=".036" d="M187.2,99.8c0.1,3.1,3.7,5.6,7.8,5.5c4.1-0.0,7.3-2.6,7.1-5.8c-0.1-3.1-3.7-5.6-7.8-5.5 C190.2,94.0,187.0,96.6,187.2,99.8z" clip-rule="evenodd"/><path fill-rule="evenodd" stroke="#000" stroke-miterlimit="10" stroke-width=".036" d="M209.9,102.0c0.2,3.7,4.4,6.8,9.4,6.7c5.0-0.0,8.8-3.2,8.6-7.0c-0.2-3.8-4.5-6.8-9.5-6.7 S209.7,98.2,209.9,102.0z" clip-rule="evenodd"/><path fill="#FFF" fill-rule="evenodd" stroke="#000" stroke-miterlimit="10" stroke-width=".036" d="M211.3,101.8c0.1,3.1,3.7,5.6,7.8,5.6c4.1-0.0,7.3-2.6,7.1-5.8c-0.1-3.1-3.7-5.6-7.8-5.5 C214.3,96.1,211.1,98.7,211.3,101.8z" clip-rule="evenodd"/><path fill-rule="evenodd" stroke="#000" stroke-miterlimit="10" stroke-width=".036" d="M219.3,115.6c0.2,3.7,4.4,6.8,9.4,6.7s8.8-3.2,8.6-7.0c-0.2-3.8-4.4-6.8-9.4-6.7 S219.0,111.8,219.3,115.6z" clip-rule="evenodd"/><path fill="#FFF" fill-rule="evenodd" stroke="#000" stroke-miterlimit="10" stroke-width=".036" d="M220.6,115.5c0.1,3.1,3.7,5.6,7.8,5.6c4.1-0.0,7.3-2.6,7.1-5.8c-0.1-3.1-3.7-5.6-7.8-5.5 C223.7,109.7,220.4,112.3,220.6,115.5z" clip-rule="evenodd"/><path fill-rule="evenodd" stroke="#000" stroke-miterlimit="10" stroke-width=".036" d="M216.7,135.8c0.2,3.7,4.4,6.8,9.4,6.7c5.0-0.0,8.8-3.2,8.6-7.0 c-0.2-3.8-4.4-6.8-9.4-6.7C220.4,128.9,216.5,132.0,216.7,135.8z" clip-rule="evenodd"/><path fill="#FFF" fill-rule="evenodd" stroke="#000" stroke-miterlimit="10" stroke-width=".036" d="M218.1,135.7c0.1,3.1,3.7,5.6,7.8,5.6c4.1-0.0,7.3-2.6,7.1-5.8c-0.2-3.1-3.7-5.6-7.8-5.5 C221.1,129.9,217.9,132.5,218.1,135.7z" clip-rule="evenodd"/><path fill-rule="evenodd" stroke="#000" stroke-miterlimit="10" stroke-width=".036" d="M195.9,154.2c0.2,3.7,4.4,6.8,9.4,6.7s8.8-3.2,8.6-7.0c-0.2-3.8-4.4-6.8-9.4-6.7 C199.6,147.2,195.7,150.4,195.9,154.2z" clip-rule="evenodd"/><path fill="#FFF" fill-rule="evenodd" stroke="#000" stroke-miterlimit="10" stroke-width=".036" d="M197.3,154.0c0.1,3.1,3.7,5.6,7.8,5.6c4.1-0.0,7.3-2.7,7.2-5.8 c-0.2-3.1-3.7-5.6-7.8-5.5C200.3,148.3,197.1,150.9,197.3,154.0z" clip-rule="evenodd"/><path fill-rule="evenodd" stroke="#000" stroke-miterlimit="10" stroke-width=".036" d="M172.3,154.6c0.2,3.8,4.4,6.8,9.4,6.7c5.0-0.1,8.8-3.2,8.6-7.0c-0.2-3.7-4.4-6.8-9.4-6.7 S172.1,150.8,172.3,154.6z" clip-rule="evenodd"/><path fill="#FFF" fill-rule="evenodd" stroke="#000" stroke-miterlimit="10" stroke-width=".036" d="M173.7,154.4c0.1,3.1,3.7,5.6,7.8,5.5c4.1-0.0,7.3-2.6,7.1-5.8c-0.1-3.1-3.7-5.6-7.8-5.6 C176.7,148.6,173.5,151.3,173.7,154.4z" clip-rule="evenodd"/><path fill-rule="evenodd" stroke="#000" stroke-miterlimit="10" stroke-width=".036" d="M151.6,151.3c0.2,3.8,4.4,6.8,9.4,6.7c5.0-0.1,8.8-3.2,8.6-7.0c-0.2-3.8-4.4-6.8-9.4-6.7 C155.2,144.4,151.4,147.5,151.6,151.3z" clip-rule="evenodd"/><path fill="#FFF" fill-rule="evenodd" stroke="#000" stroke-miterlimit="10" stroke-width=".036" d="M153.0,151.2c0.1,3.1,3.7,5.6,7.8,5.5c4.1-0.0,7.3-2.6,7.2-5.8c-0.2-3.1-3.7-5.6-7.8-5.6 C156.0,145.4,152.8,148.1,153.0,151.2z" clip-rule="evenodd"/><path fill-rule="evenodd" stroke="#000" stroke-miterlimit="10" stroke-width=".036" d="M164.5,126.2c0.6,10.3,12.1,18.5,25.7,18.3c13.6-0.2,24.1-8.7,23.5-19.1 s-12.1-18.5-25.7-18.3C174.4,107.3,163.8,115.9,164.5,126.2z" clip-rule="evenodd"/><path fill="#FFF" fill-rule="evenodd" stroke="#000" stroke-miterlimit="10" stroke-width=".036" d="M168.2,125.9c0.5,8.6,10.0,15.4,21.3,15.2c11.2-0.1,20.0-7.3,19.4-15.8 c-0.5-8.5-10.0-15.3-21.3-15.1C176.4,110.2,167.7,117.3,168.2,125.9z" clip-rule="evenodd"/><path fill="#545454" fill-rule="evenodd" stroke="#000" stroke-miterlimit="10" stroke-width=".036" d="M216.7,84.0l-4.5-74.5c5.3-2.5,10.4-4.0,15.5-4.1c5.1-0.3,11.1-1.6,14.5,2.9 c3.1,4.6,3.5,11.7,4.8,24.6c1.3,13.0,2.3,30.2,3.1,52.6C239.1,85.1,227.9,84.6,216.7,84.0 z" clip-rule="evenodd"/><path fill="#545454" fill-rule="evenodd" stroke="#000" stroke-miterlimit="10" stroke-width=".036" d="M265.9,134.9c0.5,18.5,0.2,32.0-0.6,41.0c-0.9,8.8-2.0,9.6-5.0,12.0 c-3.1,2.4-7.7,3.3-13.8,2.6c4.1-0.7,7.7-5.7,11.0-15.0C260.8,166.2,263.5,152.9,265.9,134.9z" clip-rule="evenodd"/><path fill="#545454" fill-rule="evenodd" stroke="#000" stroke-miterlimit="10" stroke-width=".036" d="M10.7,182.8c-0.5,1.3,1.3,2.7,5.7,3.8c4.3,1.0,7.3,2.0,20.3,2.8 c12.9,0.7,23.7,1.2,56.9,1.9c33.3,0.5,79.4,0.9,140.7,1.2c-38.3-1.4-75.2-2.9-112.8-4.5 C84.0,186.4,47.6,184.6,10.7,182.8z" clip-rule="evenodd"/><path fill="#545454" fill-rule="evenodd" stroke="#000" stroke-miterlimit="10" stroke-width=".036" d="M5.9,170.8c-0.2,2.3-0.2,4.1,0.3,5.6c0.5,1.4,1.4,2.2,2.8,2.7l233.8,7.2 c3.8-3.7,7.2-9.7,10.5-18.5c3.1-8.8,7.5-22.1,8.6-33.7c0.9-11.6,0-23.0-2.8-34.9 l-3.3-5.2c2.3,12.8,1.8,25.8-1.0,39.9c-3.0,14.0-8.3,28.4-16.5,43.7 c-64.5-1.6-115.1-3.0-154.2-4.2C45.1,172.3,19.6,171.5,5.9,170.8z" clip-rule="evenodd"/></g></g></g></switch></svg>