<svg xmlns="http://www.w3.org/2000/svg" xmlns:xlink="http://www.w3.org/1999/xlink" width="361.445" height="386.886" enable-background="new 0 0 361.445 386.886" overflow="visible" space="preserve" viewBox="0 0 361.445 386.886"><metadata><rdf:RDF xmlns:cc="http://web.resource.org/cc/" xmlns:dc="http://purl.org/dc/elements/1.1/" xmlns:rdf="http://www.w3.org/1999/02/22-rdf-syntax-ns#"><cc:Work><dc:title>Straw Tote</dc:title><dc:description/><dc:subject><rdf:Bag><rdf:li/><rdf:li>people</rdf:li><rdf:li>clothing</rdf:li><rdf:li>fruit</rdf:li></rdf:Bag></dc:subject><dc:publisher><cc:Agent rdf:about="http://www.openclipart.org"><dc:title>Linda Kim</dc:title></cc:Agent></dc:publisher><dc:creator><cc:Agent><dc:title>Linda Kim</dc:title></cc:Agent></dc:creator><dc:rights><cc:Agent><dc:title>Linda Kim</dc:title></cc:Agent></dc:rights><dc:date/><dc:format>image/svg+xml</dc:format><dc:type rdf:resource="http://purl.org/dc/dcmitype/StillImage"/><cc:license rdf:resource="http://web.resource.org/cc/PublicDomain"/><dc:language>en</dc:language></cc:Work><cc:License rdf:about="http://web.resource.org/cc/PublicDomain"><cc:permits rdf:resource="http://web.resource.org/cc/Reproduction"/><cc:permits rdf:resource="http://web.resource.org/cc/Distribution"/><cc:permits rdf:resource="http://web.resource.org/cc/DerivativeWorks"/></cc:License></rdf:RDF></metadata><switch><g><g id="Handbag"><path id="Bananas" fill="#FFDE76" d="M163.599,321.481c-0.271-0.273-4.761-1.172-6.714-1.348 c-0.957-0.085-2.824-0.501-4.153-0.924c-1.324-0.423-3.107-0.905-3.96-1.076c-0.855-0.173-1.816-0.624-2.131-1.012 c-0.321-0.386-0.852-0.699-1.181-0.699c-0.328,0-1.013-0.462-1.523-1.023c-0.915-1.01-0.907-1.034,0.291-2.002 c3.785-3.048,6.503-5.745,7.526-7.47c0.633-1.075,1.672-2.523,2.307-3.219c0.625-0.692,1.565-1.993,2.073-2.888 c0.915-1.595,0.915-1.614,0-1.242c-9.004,3.694-19.232,4.524-27.098,2.2c-1.77-0.528-3.457-0.953-3.747-0.953 c-0.29,0-1.146-0.234-1.902-0.523c-0.753-0.289-1.48-0.541-1.618-0.567c-0.134-0.022-1.559-0.666-3.169-1.429 c-1.614-0.763-3.152-1.385-3.419-1.385s-1.127-0.555-1.906-1.221c-0.779-0.673-1.601-1.225-1.831-1.225 c-0.227,0-0.413-0.215-0.413-0.484s-0.379-0.894-0.855-1.387c-0.467-0.493-1.291-1.646-1.827-2.555 c-2.35-3.985-3.079-5.33-2.855-5.33c0.129,0-0.224-0.646-0.783-1.436c-0.563-0.786-0.971-1.608-0.916-1.827 c0.064-0.219-0.062-0.905-0.269-1.521c-0.23-0.68-0.165-1.387,0.167-1.785c0.408-0.491,0.401-0.711-0.025-0.854 c-0.388-0.124-0.287-0.473,0.29-1.056c0.706-0.703,1.396-0.819,3.61-0.601c7.967,0.783,9.465,0.785,12.442,0.042 c1.687-0.425,3.817-0.745,4.735-0.716c0.913,0.032,2.544-0.183,3.615-0.48c1.788-0.484,6.271-1.422,8.054-1.674 c0.408-0.059,1.798-0.732,3.096-1.49c1.298-0.764,3.343-1.572,4.553-1.803c1.208-0.221,2.779-0.729,3.498-1.121 c0.717-0.395,1.849-0.967,2.523-1.263c1.639-0.733,5.698-2.767,13.91-6.957c5.838-2.979,12.317-7.27,16.144-10.684 c0.554-0.498,1.124-0.794,1.257-0.661c0.138,0.138,0.527-0.244,0.865-0.847c0.651-1.163,5.068-4.759,5.844-4.759 c0.252,0,0.528-0.19,0.621-0.415c0.153-0.393,5.08-4.992,9.588-8.948c1.124-0.986,2.053-1.976,2.065-2.195 c0.012-0.222,0.999-1.389,2.192-2.597c1.193-1.205,2.172-2.333,2.176-2.503c0-0.167,1.416-1.546,3.14-3.059 c2.641-2.317,3.668-2.884,6.471-3.566c1.829-0.446,3.437-0.964,3.569-1.155c0.135-0.191,1.583-1.129,3.219-2.086 c4.38-2.567,4.471-2.763,2.474-5.384c-1.951-2.547-3.521-6.938-4.183-11.662c-0.396-2.854-0.31-3.818,0.632-7.08l1.088-3.776 l2.101,0.161c1.149,0.089,3.015,0.56,4.142,1.042c1.125,0.48,3.028,1.04,4.222,1.238c1.194,0.199,2.722,0.637,3.393,0.978 c1.495,0.755,11.605,2.548,16.596,2.941c2.015,0.159,6.625,0.366,10.251,0.463c10.896,0.292,11.907,0.713,12.374,5.191 c0.174,1.676,0.073,3.889-0.234,5.104c-0.297,1.18-0.419,2.459-0.27,2.84c0.144,0.381-0.161,1.079-0.681,1.55 c-0.517,0.467-0.941,1.327-0.941,1.898c0,1.205-3.58,5.151-4.671,5.151c-0.404,0-1.269,0.347-1.917,0.775 c-0.789,0.515-2.699,0.849-5.718,0.986c-7.86,0.37-7.748,0.333-7.415,2.577c0.547,3.68,0.815,6.581,0.99,10.548 c0.104,2.414,0.246,5.49,0.308,6.833c0.066,1.343,0.341,2.77,0.608,3.175c0.268,0.403,0.545,1.497,0.62,2.438 c1.052,13.611,0.759,23.474-0.857,28.927c-0.302,1.01-0.423,2.037-0.267,2.285c0.151,0.245,0.051,0.587-0.223,0.754 c-0.271,0.166-0.494,0.844-0.494,1.505c0,0.659-0.203,1.577-0.446,2.046c-1.063,2.014-2.526,6.087-2.281,6.337 c0.148,0.148-0.129,1.061-0.62,2.024c-0.489,0.968-1.309,2.627-1.824,3.681c-1.383,2.857-10.18,12.951-11.304,12.975 c-0.202,0-1.243,1.092-2.317,2.417c-1.072,1.323-2.226,2.419-2.559,2.432c-0.336,0.011-1.436,0.75-2.438,1.644 c-3.263,2.883-6.336,4.627-9.241,5.25c-5.75,1.23-7.107,0.392-6.688-4.124c0.155-1.646,0.512-3.869,0.789-4.94 c0.66-2.557,0.834-4.641,0.386-4.641c-0.197,0-1.559,1.154-3.026,2.563c-6.459,6.202-7.574,7.199-8.07,7.199 c-0.295,0-0.65,0.315-0.794,0.699c-0.275,0.705-4.167,2.71-5.928,3.046c-0.535,0.103-2.292,0.823-3.91,1.599 c-1.615,0.776-4.256,1.663-5.865,1.977c-3.231,0.622-5.912,1.372-7.156,1.991c-0.447,0.224-1.519,0.206-2.383-0.041 c-0.945-0.274-1.898-0.274-2.398-0.005C174.216,321.705,163.997,321.875,163.599,321.481z M174.86,315.235 c1.806-0.653,4.604-1.746,6.213-2.428c1.61-0.684,3.383-1.251,3.938-1.258c1.025-0.011,3.577-1.096,7.533-3.196 c6.808-3.622,8.807-4.623,9.218-4.623c0.252,0,1.712-1.209,3.252-2.684c1.535-1.478,3.092-2.687,3.459-2.687 c0.368,0,0.668-0.315,0.668-0.701s1.208-2.086,2.69-3.781c1.484-1.694,3.1-3.852,3.598-4.79 c2.121-4.024,3.137-5.64,3.771-6.005c0.374-0.211,0.679-1.002,0.679-1.76c0-0.747,0.654-2.331,1.452-3.51 c0.802-1.183,1.461-2.511,1.465-2.949c0.008-0.44,0.774-2.349,1.712-4.248c1.651-3.335,6.868-15.395,7.955-18.378 c0.292-0.81,0.681-2.226,0.867-3.156c0.185-0.93,0.771-2.689,1.303-3.904c0.528-1.216,1.064-2.83,1.188-3.585 c0.125-0.75,0.62-2.544,1.094-3.987c1.172-3.546,1.361-9.042,0.315-9.042c-0.417,0-0.757-0.289-0.757-0.649 c0-0.353-0.534-1.145-1.183-1.753c-1.518-1.428-2.004-3.326-1.111-4.369c0.37-0.436,1.415-2.113,2.319-3.722 c1.969-3.508,3.341-4.798,4.284-4.019c0.477,0.401,0.756,0.36,1.081-0.164c0.349-0.556,1.375-0.652,4.969-0.474 c2.487,0.122,6.952,0.234,9.919,0.24l5.387,0.024l2.301-2.162c1.573-1.469,2.471-2.796,2.819-4.15 c0.281-1.092,0.723-2.661,0.971-3.484c0.575-1.887,0.582-3.007,0.02-3.356c-0.572-0.353-9.14-1.315-13.229-1.485 c-6.864-0.294-13.622-1.236-17.814-2.496c-5.854-1.759-9.38-2.485-10.928-2.263c-1.234,0.183-1.272,0.289-1.152,3.205 c0.223,5.526,0.356,6.086,2.003,8.286c1.626,2.169,1.668,2.189,5.33,2.534c2.906,0.269,3.872,0.562,4.528,1.372 c1.229,1.523,0.459,4.885-1.73,7.559c-4.037,4.928-4.642,5.836-4.642,6.964c0,0.696-0.491,1.727-1.097,2.298 c-1.049,0.986-2.216,3.029-3.553,6.215c-0.34,0.803-0.852,2.012-1.137,2.685c-0.766,1.789-1.914,5.831-2.255,7.915 c-0.163,0.998-0.614,2.135-1.01,2.528c-0.387,0.39-0.711,1.136-0.711,1.646c0,0.512-0.414,1.31-0.92,1.769 c-0.508,0.459-1.052,1.505-1.219,2.325c-0.164,0.819-1.865,3.456-3.779,5.858c-3.87,4.852-5.095,6.604-6.527,9.358 c-0.539,1.027-2.074,3.041-3.414,4.473c-1.349,1.424-2.908,3.11-3.472,3.739c-0.567,0.629-1.829,1.696-2.803,2.362 c-0.975,0.672-2.698,2.048-3.835,3.052c-1.13,1.01-2.34,1.829-2.685,1.829c-0.349,0-0.629,0.222-0.629,0.493 c0,0.266-0.277,0.488-0.612,0.495c-0.333,0.005-1.525,0.609-2.647,1.343c-1.117,0.732-3.736,2.415-5.816,3.734 c-2.085,1.323-4.428,2.973-5.215,3.663c-2.019,1.776-8.481,8.198-11.12,11.056c-1.223,1.321-3.631,3.642-5.355,5.155 c-2.943,2.587-3.101,2.828-2.521,3.902c0.897,1.671,4.092,3.343,6.54,3.409c1.149,0.032,2.755,0.226,3.559,0.434 C170.786,316.542,171.427,316.475,174.86,315.235z M224.362,306.762c2.269-1.494,12.973-12.896,15.298-16.283 c3.324-4.862,6.658-15.762,8.261-27.019c0.656-4.631,0.819-10.979,0.272-10.983c-0.136,0-0.247-2.032-0.247-4.512 c0-4.256-1.026-10.49-1.624-9.89c-0.153,0.153-0.341,0.872-0.415,1.606c-0.083,0.73-0.263,2.096-0.412,3.038 c-0.147,0.938-0.274,2.253-0.276,2.929c-0.008,1.297-2.148,6.127-2.928,6.609c-0.256,0.159-0.347,0.479-0.207,0.713 c0.149,0.229,0.036,0.556-0.233,0.726c-0.274,0.167-0.497,0.812-0.497,1.434c0,0.624-0.33,1.407-0.73,1.74 c-0.402,0.337-0.734,0.879-0.734,1.205c0,0.328-0.438,0.994-0.974,1.484c-0.539,0.482-0.976,1.242-0.976,1.688 c0,0.442-0.327,1.233-0.721,1.755c-0.393,0.52-0.722,1.442-0.729,2.043c-0.008,0.604-0.26,1.102-0.557,1.102 c-0.33,0-0.426,0.465-0.242,1.199c0.222,0.867,0.063,1.33-0.569,1.672c-0.481,0.254-0.904,0.9-0.948,1.435 c-0.037,0.532-0.527,1.91-1.084,3.059c-0.552,1.152-1.009,2.449-1.009,2.892c0,0.438-0.549,1.313-1.218,1.948 c-0.673,0.629-1.221,1.545-1.221,2.033c0,0.881-1.628,4.711-4.424,10.414c-0.79,1.605-1.435,3.253-1.439,3.658 c0,0.399-0.344,1.39-0.763,2.191c-0.957,1.829-1.393,10.989-0.526,10.98C222.797,307.629,223.638,307.242,224.362,306.762z M146.27,294.681c3.038-0.953,7.657-2.583,10.274-3.63c2.617-1.048,4.766-1.686,4.766-1.414c0,0.266,0.217,0.347,0.496,0.176 c0.271-0.169,0.381-0.486,0.24-0.71c-0.259-0.423,10.969-6.358,12.029-6.358c0.331,0,1.46-0.598,2.511-1.325 c1.044-0.726,2.176-1.358,2.504-1.407c0.332-0.05,1.573-0.99,2.759-2.085c1.185-1.1,3.115-2.5,4.291-3.109 c1.172-0.609,2.723-1.654,3.44-2.326c0.719-0.671,2.54-2.1,4.05-3.174c4.763-3.391,14.891-13.367,16.292-16.039 c0.698-1.342,2.133-3.572,3.177-4.961c1.046-1.383,1.901-2.933,1.901-3.448c0.005-0.512,0.336-1.562,0.734-2.333 c0.397-0.764,0.73-1.659,0.73-1.98c0-0.323,0.423-1.042,0.942-1.598c0.522-0.564,0.859-1.113,0.745-1.221 c-0.108-0.11,0.032-1.034,0.31-2.045c0.431-1.566,0.384-1.944-0.333-2.463c-0.522-0.381-0.689-0.856-0.445-1.253 c0.218-0.348,0.438-1.315,0.498-2.146c0.056-0.832,0.271-2.007,0.467-2.611c0.302-0.893,0.186-1.097-0.601-1.097 c-0.979,0-7.904,4.367-10.213,6.443c-2.453,2.199-12.121,12.219-12.563,13.007c-0.242,0.441-0.787,1.009-1.216,1.261 c-0.419,0.252-1.757,1.358-2.97,2.458c-7.082,6.441-19.094,14.211-29.292,18.939c-1.476,0.686-4.141,1.926-5.927,2.754 c-1.78,0.828-3.429,1.51-3.661,1.51c-0.229,0-1.062,0.34-1.853,0.749c-0.787,0.409-2.437,0.969-3.661,1.237 c-1.223,0.268-3.543,1.12-5.153,1.887c-3.165,1.514-7.423,2.708-12.446,3.488c-5.047,0.78-8.506,1.545-9.003,1.985 c-0.259,0.228-0.86,0.409-1.344,0.409c-0.489,0-0.88,0.188-0.88,0.414c0,2.1,7.022,10.462,9.762,11.63 c2.344,0.999,7.529,2.012,10.59,2.066C139.861,296.392,142.685,295.801,146.27,294.681z"/><path id="Apple" fill="#FC7859" d="M153.358,262.941c-1.664-0.267-2.542-0.791-3.9-2.316c-2.202-2.479-4.67-5.936-5.146-7.221 c-0.345-0.922-0.845-5.579-0.946-8.783c-0.025-0.808-0.236-1.602-0.471-1.769c-0.23-0.167-0.176-0.76,0.115-1.308 c0.298-0.556,0.542-1.558,0.542-2.236c0-0.875,0.755-1.873,2.65-3.512c4.461-3.851,6.17-4.601,10.457-4.585 c2.05,0.004,4.611,0.24,5.688,0.519c4.415,1.157,4.146,1.186,4.146-0.482c0-0.842-0.276-1.976-0.609-2.53 c-0.507-0.83-0.48-1.097,0.167-1.579c1.139-0.845,1.542-3.79,0.678-4.93c-0.52-0.69-0.568-1.106-0.17-1.581 c0.288-0.355,0.403-0.978,0.248-1.393c-0.221-0.571-0.887-0.165-2.824,1.734c-2.129,2.084-2.738,2.433-3.793,2.166 c-0.694-0.174-2.139-0.418-3.215-0.54c-2.131-0.25-3.274-1.287-2.801-2.547c0.167-0.446,2.127-2.645,4.354-4.888 c2.231-2.244,4.336-4.653,4.669-5.353c0.337-0.706,1.112-1.529,1.732-1.833c1.48-0.742,3.518-2.681,3.518-3.352 c0-1.143,3.011-4.174,4.146-4.174c2.785,0,3.453,1.416,1.802,3.83c-0.488,0.711-0.914,1.821-0.953,2.466 c-0.058,1.075,0.094,1.003,1.879-0.858c1.074-1.112,2.193-2.02,2.49-2.02c0.292,0,1.761-1.044,3.253-2.321 c4.634-3.959,8.021-6.466,8.821-6.521c2.774-0.205,4.134,0.682,3.782,2.468c-0.466,2.355-0.771,4.183-1.301,7.809 c-0.288,2-0.792,3.952-1.119,4.345c-0.323,0.394-0.537,0.847-0.472,1.006c0.52,1.238-0.813,3.814-3.348,6.487 c-1.579,1.667-2.874,3.208-2.874,3.419c0,0.215,1.104,0.39,2.458,0.39c2.726,0,6.926,1.79,8.421,3.59 c2.039,2.456,2.954,4.919,2.934,7.919c-0.024,3.64-0.713,5.087-2.426,5.087c-1.696,0-2.884-1.492-3.842-4.813 c-1.545-5.397-3.399-6.723-7.948-5.665c-2.121,0.493-3.033,1.027-4.292,2.503c-2.042,2.386-4.377,6.743-4.801,8.949 c-0.574,3.003-1.304,4.394-2.306,4.394c-0.527,0-1.322,0.196-1.774,0.438c-1.053,0.563-4.814-0.653-6.335-2.054l-1.112-1.028 l-0.288,1.094c-0.405,1.546-1.355,1.046-1.537-0.812c-0.124-1.257-0.529-1.747-2.093-2.543 c-3.966-2.028-7.818,0.325-8.723,5.327c-0.539,2.962-0.016,8.69,0.844,9.303c0.219,0.152,1.205,1.379,2.199,2.722 c0.986,1.338,2.567,2.989,3.504,3.659c2.184,1.569,2.429,2.239,1.241,3.427C157.667,263.451,156.938,263.523,153.358,262.941z M177.675,218.56c1.233-0.779,2.701-1.55,3.266-1.72c1.347-0.399,3.897-3.611,4.746-5.973c1.51-4.171,1.847-5.587,1.562-6.486 c-0.279-0.87-0.55-0.789-3.572,1.065c-4.455,2.731-5.794,4.056-6.769,6.678c-0.457,1.23-1.12,2.669-1.473,3.196 c-0.656,0.982-0.908,4.649-0.317,4.649C175.29,219.97,176.446,219.334,177.675,218.56z"/><path id="Bag" fill="#D7FCA2" d="M117.691,386.853c-0.065-0.063-4.939-0.247-10.833-0.416 c-11.282-0.312-14.823-0.756-23.159-2.895c-5.161-1.325-8.094-2.601-10.114-4.401c-0.604-0.534-2.073-1.744-3.27-2.687 c-1.197-0.938-2.189-1.982-2.206-2.315c-0.018-0.338-0.238-0.613-0.498-0.613c-0.252,0-1.244-1.041-2.197-2.316 c-2.58-3.444-3.793-4.893-5.103-6.105c-2.793-2.597-6.23-7.82-7.293-11.115c-0.312-0.951-1.211-2.438-2.005-3.307 c-1.918-2.097-12.216-23.018-12.216-24.811c0-0.365-0.221-0.663-0.493-0.663c-0.269,0-0.488-0.246-0.488-0.546 s-0.767-2.187-1.708-4.191c-0.938-2.007-1.705-4.054-1.705-4.551s-0.189-1.023-0.42-1.165 c-0.634-0.391-3.749-6.998-4.734-10.046c-0.479-1.481-1.272-3.619-1.765-4.755c-0.488-1.144-0.891-2.268-0.891-2.511 c0-0.629-1.321-3.082-1.844-3.429c-0.25-0.157-1.066-2.268-1.817-4.682c-0.753-2.417-1.573-4.656-1.821-4.98 c-0.248-0.317-0.564-1.291-0.702-2.153c-0.131-0.861-0.455-2.025-0.718-2.586c-1.091-2.364-2.09-3.985-2.772-4.487 c-0.627-0.462-0.972-1.871-1.114-4.583c-0.052-0.988-1.347-5.263-2.143-7.083c-0.353-0.801-1.075-2.451-1.606-3.66 c-0.531-1.209-1.509-3.514-2.173-5.124c-0.667-1.61-1.515-2.933-1.891-2.937c-0.411-0.008-0.659-0.488-0.625-1.218 c0.025-0.665-0.204-1.428-0.516-1.699c-0.544-0.47-2.325-6.633-2.15-7.431c0.048-0.211-0.19-1.04-0.523-1.846 c-1.201-2.906-2.073-5.388-2.184-6.213c-0.06-0.464-0.263-0.997-0.449-1.179c-0.182-0.182-0.333-0.86-0.333-1.509 c0-0.642-0.236-1.606-0.522-2.147c-0.291-0.534-0.577-3.525-0.642-6.637c-0.118-5.587-0.103-5.676,1.198-6.922 c1.35-1.29,1.431-1.447,1.431-2.741c0-0.442,0.616-0.863,1.526-1.046c0.872-0.176,1.627-0.678,1.755-1.164 c0.126-0.475,0.589-0.979,1.035-1.125c0.445-0.149,2.235-1.168,3.981-2.263c2.272-1.432,3.497-1.912,4.313-1.709 c0.69,0.171,1.021,0.093,0.843-0.197c-0.349-0.564,1.391-1.635,1.872-1.161c0.174,0.179,0.652-0.159,1.069-0.744 c0.411-0.591,1.12-1.075,1.571-1.079c0.455-0.008,1.375-0.445,2.047-0.969c0.67-0.523,1.604-0.96,2.075-0.967 c0.471-0.003,0.854-0.23,0.854-0.498c0-0.268,0.318-0.486,0.707-0.486c0.39,0,0.881-0.292,1.098-0.651 c0.213-0.36,1.383-1.143,2.594-1.74c1.213-0.596,2.548-1.675,2.962-2.398c0.417-0.721,1.291-1.562,1.947-1.862 c0.653-0.3,2.173-1.006,3.38-1.565c1.209-0.556,3.187-1.265,4.394-1.565c1.209-0.3,3.016-1.075,4.018-1.726 c1-0.653,2.001-1.188,2.228-1.188c0.507,0,3.626-1.594,6.203-3.173c1.071-0.657,3.433-1.662,5.238-2.226 c1.806-0.565,3.816-1.453,4.471-1.964c0.651-0.512,1.395-0.929,1.654-0.929c0.934,0,13.712-5.725,14.264-6.394 c0.463-0.567,2.381-1.416,3.188-1.416c0.448,0,1.482-0.56,2.296-1.249c0.814-0.686,2.115-1.372,2.886-1.529 c0.775-0.151,1.528-0.471,1.67-0.703c0.143-0.234,0.689-0.422,1.208-0.422c0.523,0,0.954-0.205,0.954-0.453 s0.813-0.723,1.817-1.054c1-0.329,2.48-1,3.292-1.498c0.812-0.492,2.083-0.9,2.83-0.905c1.159,0,1.503-0.366,2.546-2.718 c0.664-1.497,1.375-2.617,1.581-2.487c0.209,0.126,0.356-2.109,0.329-4.969c-0.023-2.861,0.123-5.794,0.33-6.521 c0.298-1.05,0.081-1.724-1.019-3.249c-0.768-1.056-1.631-2.069-1.914-2.244c-0.285-0.178-0.523-0.718-0.523-1.2 c0-0.523-1.077-1.595-2.669-2.65c-3.189-2.117-4.277-3.643-4.351-6.073l-0.056-1.809l2.683,0.073 c13.44,0.378,17.621,0.341,20.015-0.186c1.48-0.322,6.199-0.723,10.493-0.89c10.319-0.393,21.01-1.914,30.266-4.304 c2.685-0.69,5.327-1.265,5.879-1.273c0.549-0.006,1.227-0.24,1.505-0.519c0.678-0.674,10.468-3.384,13.25-3.665 c1.213-0.125,3.545-0.469,5.185-0.769c1.634-0.301,3.467-0.574,4.076-0.608c0.6-0.033,1.097-0.188,1.097-0.341 c0-0.678,12.742-4.845,14.811-4.845c0.396,0,4.747-1.234,9.671-2.743c4.925-1.509,9.169-2.793,9.44-2.852 c0.609-0.149,1.958-0.641,4.147-1.524c2.299-0.93,11.506-3.623,12.389-3.623c0.386,0,1.265,0.668,1.954,1.484 c1.23,1.465,1.234,1.505,0.415,3.295c-0.455,0.998-1.242,2.574-1.747,3.512c-2.276,4.211-5.525,16.184-4.164,15.347 c0.26-0.161,1.213,3.352,1.543,5.688c0.056,0.418,0.489,1.149,0.96,1.62c0.467,0.471,0.853,1.25,0.853,1.736 c0,0.484,0.332,1.153,0.734,1.486c0.4,0.333,0.73,0.887,0.73,1.224c0,0.333,0.305,0.86,0.676,1.172 c0.366,0.303,0.809,1.242,0.979,2.079l0.3,1.524l3.295-0.312c1.811-0.17,3.954-0.329,4.758-0.353 c0.805-0.021,1.19-0.151,0.853-0.289c-1.307-0.527-0.044-0.993,1.789-0.66c1.06,0.198,2.198,0.182,2.531-0.021 c0.333-0.207,3.152-0.242,6.259-0.081c3.105,0.159,6.64,0.27,7.849,0.248c1.205-0.029,7.578-0.186,14.156-0.353 c6.573-0.167,13.933-0.285,16.348-0.26c16.936,0.17,27.381,0.108,33.926-0.208c4.163-0.203,10.423-0.401,13.91-0.453 l6.346-0.082l1.466,1.461c0.811,0.81,2.186,1.995,3.06,2.645l1.594,1.18l-0.232,4.304c-0.126,2.37-0.463,4.735-0.746,5.262 c-0.28,0.524-0.618,2.119-0.756,3.543c-0.137,1.427-0.376,3.57-0.53,4.769c-0.155,1.201-0.36,6.606-0.449,12.02 c-0.088,5.413-0.504,12.891-0.914,16.614c-0.417,3.725-0.727,7.323-0.694,7.989c0.138,2.916-0.668,17.094-1.119,19.704 c-0.275,1.573-0.372,3.189-0.216,3.59c0.155,0.403,0.055,1.567-0.223,2.596c-0.274,1.022-0.615,3.028-0.757,4.46 c-0.504,5.148-0.67,6.563-1.189,10.166c-0.293,2.013-0.748,6.188-1.019,9.274c-0.268,3.087-0.59,6.602-0.721,7.811 c-0.129,1.208-0.346,3.403-0.481,4.88c-0.134,1.477-0.353,3.451-0.486,4.394c-0.129,0.938-0.323,2.844-0.43,4.231 c-0.104,1.387-0.356,3.036-0.557,3.662c-0.201,0.623-0.408,2.014-0.467,3.088c-0.207,3.88-0.806,9.778-1.066,10.494 c-0.149,0.403-0.343,1.284-0.425,1.952c-0.081,0.673-0.304,2.43-0.5,3.907c-0.189,1.474-0.4,3.258-0.462,3.963 c-0.065,0.703-0.242,1.689-0.394,2.195c-0.158,0.507-0.408,1.686-0.557,2.63c-0.156,0.938-0.502,2.39-0.771,3.231 c-0.271,0.841-0.56,3.036-0.648,4.881c-0.116,2.415-0.656,4.632-1.936,7.916c-0.976,2.511-1.775,4.996-1.775,5.521 c0,1.181-2.63,9.066-4.127,12.37c-0.608,1.341-1.383,3.155-1.72,4.027c-0.34,0.874-1.377,2.252-2.3,3.065 c-0.925,0.813-2.122,2.474-2.657,3.685c-0.643,1.453-1.421,2.373-2.284,2.704c-0.721,0.268-1.858,0.992-2.531,1.605 c-1.623,1.475-4.868,3.395-5.188,3.065c-0.146-0.14-1.286,0.248-2.536,0.865c-1.254,0.614-3.656,1.587-5.343,2.161 c-1.688,0.569-3.994,1.461-5.128,1.98c-4.836,2.204-8.316,3.487-8.888,3.267c-0.341-0.132-0.809-0.046-1.042,0.184 c-0.233,0.234-0.975,0.535-1.647,0.68c-0.67,0.14-2.167,0.484-3.324,0.771c-1.16,0.28-2.296,0.392-2.53,0.252 c-0.232-0.146-0.552-0.058-0.711,0.199c-0.154,0.256-1.541,0.604-3.082,0.786c-1.538,0.178-4.103,0.648-5.7,1.045 c-1.599,0.401-3.404,0.631-4.013,0.518c-0.608-0.118-1.168-0.037-1.246,0.173c-0.073,0.21-4.093,0.738-8.924,1.177 c-4.832,0.432-10.653,1.108-12.934,1.496c-5.136,0.874-11.111,1.702-11.598,1.602c-0.199-0.044-0.691,0.055-1.092,0.217 c-0.836,0.336-12.682,2.191-17.815,2.792c-1.881,0.221-6.714,0.548-10.74,0.733c-4.025,0.185-10.069,0.763-13.425,1.293 c-9.79,1.542-12.301,1.899-14.777,2.107c-1.283,0.105-3.041,0.41-3.908,0.677c-0.86,0.268-3.762,0.846-6.447,1.291 c-7.626,1.26-15.32,2.666-18.795,3.444c-1.744,0.39-4.17,0.797-5.4,0.909c-1.225,0.107-3.205,0.462-4.394,0.789 c-1.188,0.321-3.154,0.663-4.359,0.751c-3.644,0.268-6.869,0.625-10.983,1.214 C125.119,386.363,117.878,387.044,117.691,386.853z M108.592,369.63c0-0.268,1.246-0.456,2.807-0.423 c1.542,0.035,4.89-0.176,7.442-0.465c2.551-0.285,4.968-0.499,5.368-0.474c0.404,0.026,2.897-0.113,5.544-0.313 c3.324-0.243,4.707-0.195,4.49,0.166c-0.391,0.625,1.995,0.414,3.401-0.3c0.895-0.458,7.509-0.892,11.447-0.754 c0.936,0.033,1.858-0.204,2.055-0.523c0.256-0.408,2.895-0.616,8.798-0.697c4.643-0.063,9.866-0.164,11.613-0.226 c1.745-0.063,3.832-0.067,4.638-0.015c1.79,0.122,9.225-0.616,13.092-1.298c2.128-0.379,3.084-0.356,3.8,0.084 c0.753,0.469,1.036,0.46,1.349-0.044c0.217-0.353,0.593-0.585,0.84-0.526c0.242,0.06,1.212-0.03,2.15-0.197 c0.938-0.166,4.49-0.42,7.886-0.567c3.399-0.145,6.475-0.377,6.835-0.515c0.358-0.138,2.411-0.456,4.56-0.71 c2.147-0.256,5.552-0.78,7.566-1.165c6.159-1.179,15.624-2.798,17.499-2.982c2.53-0.254,3.135-0.43,3.876-1.122 c0.857-0.795,1.313-0.769,2.05,0.125c0.938,1.124,2.122,0.93,1.802-0.291c-0.219-0.833-0.088-0.981,0.674-0.78 c0.52,0.134,0.944,0.077,0.944-0.129c0-0.668,8.223-1.517,8.608-0.883c0.427,0.679,1.152,0.388,1.19-0.48 c0.022-0.488,0.145-0.6,0.282-0.258c0.184,0.455,0.496,0.429,1.323-0.112c0.593-0.388,2.34-0.786,3.878-0.874 c1.538-0.095,3.059-0.428,3.373-0.74c0.315-0.32,1.354-0.579,2.308-0.583c0.956-0.005,2.921-0.322,4.368-0.708 c1.453-0.388,2.769-0.679,2.933-0.648c0.159,0.028,0.618-0.085,1.023-0.254c0.398-0.171,1.278-0.39,1.948-0.491 c0.672-0.101,1.773-0.405,2.444-0.679c0.671-0.271,3.414-1.106,6.099-1.85c2.686-0.747,5.091-1.549,5.343-1.776 c0.257-0.234,0.774-0.423,1.152-0.423c0.381,0,2.037-0.636,3.684-1.413c1.654-0.776,4.309-2.019,5.899-2.761 c1.594-0.743,3.853-2.308,5.017-3.469c1.164-1.163,2.325-2.121,2.576-2.121c0.252,0,0.694-0.438,0.979-0.975 c0.326-0.606,1.022-0.975,1.854-0.975c0.908,0,1.49-0.354,1.831-1.098c0.275-0.605,0.741-1.055,1.031-0.997 c0.293,0.055,1.224-0.662,2.068-1.587c0.847-0.929,1.861-1.688,2.259-1.688s0.718-0.292,0.718-0.648 c0-0.815,2.333-3.044,2.75-2.625c0.76,0.758,2.131-0.905,4.224-5.12c2.975-5.999,4.525-9.553,5.196-11.896 c0.616-2.16,3.182-14.902,3.682-18.271c0.178-1.209,0.655-3.843,1.057-5.858c0.746-3.755,3.07-22.717,3.319-27.088 c0.077-1.343,0.374-4.415,0.662-6.833c0.291-2.417,0.64-7.359,0.783-10.982c0.146-3.623,0.486-7.357,0.767-8.295 c0.274-0.938,0.62-4.783,0.762-8.543c0.143-3.762,0.356-7.933,0.471-9.275c0.26-2.981,0.986-35.627,0.916-40.877 c-0.031-2.084,0.09-3.786,0.26-3.786c0.176,0,0.266-2.681,0.207-5.959c-0.104-5.72-0.152-5.976-1.231-6.385 c-3.434-1.302-13.08-0.142-21.624,2.6c-1.882,0.604-3.906,1.156-4.504,1.226c-1.879,0.227-10.101,2.259-10.997,2.718 c-0.472,0.246-2.01,0.568-3.416,0.722c-2.35,0.256-3.914,0.547-8.661,1.599c-0.938,0.211-2.146,0.608-2.683,0.895 c-2.503,1.319-17.241,2.85-24.653,2.561c-1.209-0.049-4.283-0.13-6.829-0.186c-8.356-0.177-12.531-1.579-16.104-5.39 c-0.666-0.712-1.919-1.732-2.788-2.27c-0.863-0.533-2.394-2.336-3.396-3.993c-1.005-1.664-2.218-3.311-2.694-3.66 c-1.03-0.746-3.705-4.512-4.921-6.929c-2.531-5.042-4.388-7.026-11.172-11.958c-3.844-2.795-3.274-2.646-7.249-1.887 c-2.017,0.382-4.76,0.802-6.103,0.938c-1.342,0.138-2.986,0.382-3.659,0.554c-0.672,0.167-1.532,0.362-1.906,0.436 c-0.373,0.076-0.815,0.345-0.975,0.601c-0.275,0.434-2.373,0.81-7.236,1.288c-2.922,0.289-13.067,3.534-13.797,4.411 c-0.338,0.405-1.027,0.738-1.535,0.738c-1.023,0-6.202,1.238-8.477,2.028c-3.113,1.086-7.785,2.28-8.111,2.077 c-0.192-0.117-0.861-0.016-1.482,0.222c-0.632,0.237-2.493,0.556-4.138,0.703c-1.647,0.157-4.283,0.612-5.858,1.018 c-1.573,0.403-4.231,0.848-5.908,0.99c-1.674,0.133-5.08,0.596-7.563,1.023c-2.484,0.422-5.014,0.853-5.61,0.957 c-0.6,0.103-1.286,0.304-1.522,0.455c-0.239,0.145-1.686,0.386-3.212,0.535c-4.397,0.426-8.88,2.139-11.167,4.268 c-1.844,1.709-6.691,8.309-6.9,9.396c-0.709,3.619-1.806,7.831-2.38,9.169c-1.558,3.595-1.808,4.411-2.103,6.955 c-0.174,1.468-0.504,2.669-0.736,2.669c-0.232,0-0.421,0.324-0.421,0.722c0,1.01-6.173,8.912-7.741,9.906 c-0.709,0.451-1.461,1.092-1.672,1.425c-0.211,0.339-1.42,1.208-2.687,1.939c-1.263,0.73-4.053,2.526-6.203,3.99 c-2.145,1.461-5.552,3.408-7.561,4.322c-2.017,0.917-4.543,2.08-5.616,2.582c-1.078,0.5-2.562,1.063-3.293,1.246 c-0.738,0.18-1.343,0.496-1.343,0.703c0,0.509-2.26,1.362-4.639,1.751c-1.073,0.174-2.456,0.634-3.072,1.023 c-0.616,0.386-1.713,0.794-2.441,0.908c-2.172,0.333-2.759,0.482-3.329,0.841c-0.298,0.19-1.84,0.471-3.415,0.635 c-1.579,0.167-3.534,0.593-4.337,0.949c-2.398,1.068-6.596,2.199-9.992,2.695c-1.755,0.26-4.288,0.812-5.629,1.227 c-4.2,1.31-10.128,2.319-13.177,2.243c-1.608-0.041-3.875,0.056-5.035,0.209c-2.365,0.322-2.35,0.211-0.804,5.828 c1.79,6.494,4.332,16.109,5.417,20.485c0.662,2.674,1.84,6.845,2.619,9.272c0.779,2.425,1.883,6.388,2.457,8.803 c0.571,2.417,1.538,5.379,2.154,6.589c0.612,1.209,1.606,3.845,2.218,5.862c0.605,2.007,1.61,4.66,2.228,5.89 c0.616,1.229,1.546,3.972,2.062,6.102c0.515,2.125,1.664,5.517,2.551,7.528c0.887,2.014,1.895,4.739,2.244,6.049 c0.349,1.315,1.395,3.624,2.321,5.13c0.93,1.507,2.795,5.703,4.149,9.326c2.313,6.194,7.615,17.345,9.043,19.014 c0.36,0.41,1.449,2.373,2.425,4.355c3.685,7.458,12.584,19.171,17.532,23.069c2.208,1.739,5.885,2.925,9.055,2.925 c1.427,0,3.411,0.276,4.394,0.604c1.228,0.414,4.603,0.563,10.689,0.478c5.229-0.072,9.014,0.068,9.18,0.338 C107.765,370.256,108.592,370.242,108.592,369.63z M29.518,207.552c0.943-0.341,2.042-0.735,2.44-0.88 c0.403-0.144,0.953-0.281,1.224-0.304c0.268-0.021,0.749-0.204,1.068-0.403c1.112-0.697,6.532-2.267,8.75-2.532 c1.229-0.145,2.695-0.512,3.266-0.819c0.57-0.304,2.84-0.539,5.042-0.516c2.999,0.029,4.788-0.238,7.092-1.065 c4.165-1.482,10.516-4.597,12.607-6.18c0.938-0.713,2.588-1.699,3.662-2.191c1.073-0.494,2.129-1.188,2.344-1.536 c0.215-0.354,1.29-1.101,2.387-1.66c1.101-0.556,2.445-1.436,2.991-1.943c0.542-0.508,1.434-1.064,1.979-1.238 c0.544-0.174,1.271-0.56,1.612-0.86c0.345-0.301,2.042-1.755,3.766-3.229c1.736-1.48,3.164-2.9,3.185-3.16 c0.023-0.264,1.383-1.834,3.026-3.493c3.273-3.303,3.692-4.709,0.916-3.111c-0.938,0.546-3.355,1.799-5.368,2.795 c-2.011,0.994-3.768,1.947-3.905,2.118c-0.136,0.17-3.317,1.846-7.079,3.731c-3.759,1.879-7.489,3.781-8.295,4.225 c-1.982,1.09-16.857,8.117-17.19,8.117c-0.144,0-2.265,0.969-4.716,2.147c-8.973,4.315-14.766,7.082-17.384,8.299 c-4.277,1.979-7.323,3.773-7.323,4.309C25.616,208.704,26.834,208.512,29.518,207.552z M280.314,157.242 c4.111-0.531,8.061-1.189,8.776-1.46c0.714-0.275,2.072-0.442,3.018-0.372c0.945,0.071,2.265-0.114,2.938-0.411 c1.782-0.787,5.92-1.895,11.472-3.063c5.665-1.197,10.123-2.381,12.2-3.241c1.253-0.523,0.62-0.581-4.394-0.422 c-3.221,0.108-10.028,0.326-15.129,0.486c-5.103,0.163-11.691,0.523-14.644,0.804c-2.951,0.283-6.854,0.587-8.667,0.678 c-1.817,0.097-3.53,0.315-3.817,0.494c-0.284,0.174-2.476,0.393-4.876,0.478c-2.39,0.093-4.56,0.296-4.812,0.448 c-0.256,0.161-1.396,0.079-2.54-0.177c-1.745-0.393-2.279-0.319-3.399,0.477c-0.727,0.52-1.664,0.946-2.077,0.946 c-1.107,0-1.549,1.038-0.656,1.54c0.43,0.24,1.095,0.751,1.483,1.141c0.594,0.592,5.892,2.185,9.352,2.803 C266.251,158.703,272.614,158.236,280.314,157.242z M120.795,140.053c3.623-0.629,7.534-1.188,8.686-1.242 c1.159-0.057,2.65-0.312,3.326-0.567c0.678-0.26,2.013-0.467,2.97-0.467c2.107,0,7.218-0.806,10.888-1.712 c1.478-0.368,4.769-1.009,7.322-1.427c5.544-0.913,5.552-0.917,10.488-2.236c2.153-0.579,4.505-1.124,5.234-1.217 c0.736-0.093,1.833-0.328,2.446-0.523c0.61-0.194,1.44-0.39,1.846-0.434c0.4-0.048,1.056-0.211,1.46-0.364 c0.955-0.366,6.182-1.453,8.053-1.679c0.805-0.091,2.658-0.392,4.115-0.659c1.46-0.267,3.777-0.49,5.15-0.49 c1.376,0,2.707-0.203,2.963-0.459c0.255-0.251,1.671-0.591,3.148-0.75c1.473-0.159,3.845-0.618,5.265-1.023 c1.416-0.401,2.791-0.6,3.055-0.434c0.264,0.163,1.627-0.248,3.037-0.905c1.403-0.661,3.544-1.358,4.749-1.554 c1.208-0.191,2.442-0.552,2.748-0.794c0.303-0.245,2.388-0.686,4.635-0.982c2.251-0.297,4.351-0.609,4.679-0.7 c0.485-0.134,2.584-3.602,2.584-4.272c0-0.108-0.935-0.004-2.075,0.229c-1.139,0.23-3.375,0.653-4.967,0.936 c-1.593,0.277-3.045,0.605-3.231,0.719c-0.187,0.114-1.521,0.341-2.968,0.504c-1.441,0.161-3.393,0.486-4.329,0.72 c-3.327,0.829-9.53,2.061-10.253,2.034c-0.404-0.01-1.171,0.157-1.71,0.372c-0.537,0.223-2.491,0.654-4.339,0.963 c-1.853,0.312-4.596,0.972-6.104,1.465c-4.187,1.369-8.511,2.64-9.32,2.745c-0.404,0.05-1.833,0.354-3.175,0.674 c-1.343,0.319-3.011,0.657-3.708,0.746c-0.696,0.093-2.343,0.533-3.659,0.986c-1.32,0.451-3.383,1.007-4.593,1.233 c-1.205,0.231-3.623,0.775-5.368,1.209c-1.744,0.434-4.162,0.982-5.37,1.213c-1.208,0.232-3.154,0.771-4.332,1.193 c-1.174,0.422-2.549,0.767-3.053,0.767c-0.507,0-1.309,0.197-1.775,0.434c-0.817,0.426-4.236,1.253-7.153,1.74 c-0.787,0.126-4.633,0.37-8.544,0.536c-3.908,0.169-8.212,0.409-9.554,0.531c-1.343,0.122-3.627,0.301-5.074,0.39 c-2.828,0.174-3.611,0.827-3.142,2.629C112.193,141.465,112.596,141.461,120.795,140.053z"/><path id="Handle" fill="#FFB8B8" d="M95.64,156.143c-1.237-0.459-2.613-0.845-3.056-0.852 c-1.629-0.033-8.621-6.273-12.083-10.783c-2.601-3.388-7.597-11.201-7.597-11.879c0-0.244-0.492-1.141-1.092-1.994 c-1.287-1.833-6.562-13.305-6.562-14.271c0-0.372-0.306-1.313-0.683-2.096c-0.368-0.779-0.747-2.03-0.836-2.78 c-0.092-0.75-0.284-1.691-0.433-2.094c-0.764-2.1-2.673-10.352-2.934-12.692c-0.652-5.899-0.106-17.374,1.022-21.372 c0.353-1.263,0.998-3.619,1.428-5.23c0.431-1.606,0.924-3.148,1.093-3.412c0.18-0.271,0.678-1.699,1.12-3.177 c0.441-1.476,1.178-3.266,1.636-3.979c0.46-0.711,0.837-1.509,0.837-1.772c0-0.653,4.679-7.21,8.158-11.434 c1.583-1.918,3.449-4.272,4.147-5.229c0.707-0.961,1.621-2.077,2.039-2.479c4.132-3.99,6.888-6.408,7.777-6.815 c0.586-0.275,1.574-0.913,2.193-1.42c0.62-0.508,2.851-1.951,4.952-3.208c2.104-1.257,4.335-2.598,4.957-2.981 c0.614-0.386,2.134-1.21,3.374-1.842c1.241-0.63,4.074-2.183,6.304-3.445c4.525-2.564,12.191-6.158,13.146-6.158 c0.338,0,1.069-0.308,1.615-0.686c0.549-0.374,1.905-1.023,3.024-1.439c1.111-0.411,3.137-1.214,4.5-1.786 c1.363-0.564,3.571-1.35,4.9-1.74c1.329-0.393,2.645-0.86,2.911-1.042c0.267-0.176,1.306-0.48,2.305-0.667 c1.002-0.189,4.451-0.917,7.668-1.62c8.399-1.829,10.111-2.173,12.384-2.499c1.116-0.156,3.345-0.515,4.954-0.798 c4.414-0.771,24.682-0.548,28.323,0.312c1.635,0.386,3.614,0.8,4.403,0.917c0.789,0.118,1.601,0.325,1.803,0.459 c0.2,0.129,1.629,0.374,3.17,0.54c10.443,1.124,27.595,6.705,32.041,10.426c0.88,0.73,2.518,1.991,3.636,2.795 c1.123,0.806,2.531,1.906,3.13,2.44c1.461,1.316,5.438,5.68,5.438,5.973c0,0.13,0.508,0.668,1.129,1.194 c0.616,0.527,1.123,1.205,1.123,1.503c0,0.301,0.438,1.044,0.962,1.652c1,1.152,1.821,2.548,2.608,4.446 c0.255,0.6,0.651,1.096,0.878,1.096c0.596,0,2.757,4.136,2.757,5.273c0,0.522,0.309,1.228,0.68,1.569 c0.379,0.333,0.644,0.856,0.592,1.157c-0.046,0.3,0.258,1.4,0.679,2.451c0.423,1.046,0.668,2.004,0.548,2.138 c-0.117,0.126,0,0.661,0.26,1.191c0.259,0.529,0.564,1.761,0.677,2.743c0.112,0.978,0.398,1.854,0.633,1.943 c0.243,0.093,0.438,0.734,0.438,1.431c0,0.696,0.185,1.943,0.411,2.765c0.97,3.553,2.804,15.451,2.571,16.714 c-0.138,0.761-0.378,3.394-0.526,5.856c-0.329,5.335-0.396,5.899-0.764,6.294c-0.158,0.17-0.163,0.639-0.022,1.039 c0.302,0.856-0.596,6.863-1.444,9.67c-0.327,1.071-0.729,2.609-0.896,3.415c-0.714,3.481-4.061,11.019-6.021,13.581 c-0.259,0.34-1.037,1.761-1.733,3.159c-1.747,3.518-5.772,8.462-8.461,10.374c-1.238,0.884-2.415,1.899-2.612,2.255 c-0.199,0.358-0.73,0.649-1.187,0.649c-0.45,0-1.073,0.329-1.381,0.734c-1.932,2.521-8.105-1.943-8.105-5.858 c0-0.672,0.513-1.581,1.237-2.189c1.482-1.25,7.894-6.298,8.217-6.473c1.108-0.6,6.313-13.918,8.373-21.427 c3.99-14.56,4.305-16.248,4.565-24.585c0.249-8.045-0.127-11.367-1.882-16.763c-0.378-1.171-0.567-2.348-0.414-2.617 c0.156-0.271,0.078-0.631-0.163-0.806c-0.246-0.167-1.174-2.13-2.061-4.355c-0.884-2.229-2.433-5.358-3.44-6.953 c-1.001-1.594-1.825-2.999-1.825-3.126c0-0.122-0.506-0.815-1.125-1.538c-0.62-0.723-1.126-1.517-1.126-1.753 c0-1.468-4.78-6.141-7.381-7.212c-0.557-0.229-2.354-1.534-4.001-2.902c-1.646-1.37-3.267-2.486-3.601-2.486 c-0.333,0-1.006-0.386-1.492-0.856c-1.318-1.267-3.352-2.421-5.846-3.299c-1.222-0.43-2.521-0.909-2.894-1.062 c-0.373-0.155-1.183-0.351-1.803-0.436c-0.618-0.085-2.742-0.379-4.727-0.657c-1.981-0.275-5.222-0.62-7.203-0.767 c-4.724-0.349-8.479-0.791-8.868-1.042c-0.332-0.215-11.548-1.517-17.921-2.081c-2.107-0.186-4.335-0.178-4.952,0.023 c-0.62,0.195-2.748,0.614-4.732,0.93c-5.926,0.934-9.689,1.81-13.728,3.188c-1.119,0.382-2.513,0.694-3.101,0.69 c-1.17,0-7.905,2.143-14.011,4.463c-4.579,1.74-11.768,4.089-13.957,4.564c-0.87,0.182-2.249,0.757-3.065,1.269 c-0.82,0.507-1.755,0.926-2.078,0.926c-1.791,0-14.178,7.931-20.297,12.993c-3.792,3.136-16.068,16.28-17.083,18.289 c-0.326,0.649-1.119,2.166-1.762,3.375c-0.64,1.209-1.58,3.018-2.085,4.027c-0.509,1.007-1.134,1.831-1.392,1.831 c-0.257,0-0.356,0.194-0.221,0.434c0.135,0.233-0.032,0.682-0.374,0.99c-0.341,0.309-1.074,1.705-1.628,3.104 c-0.55,1.404-1.261,2.714-1.576,2.914c-1.08,0.68-1.575,4.961-1.492,12.814c0.044,4.292,0.044,9.128,0,10.738 c-0.083,3.076-0.066,3.229,0.704,6.342c0.263,1.075,0.482,2.284,0.486,2.685c0,1.075,0.814,4.869,1.46,6.836 c1.305,3.975,1.29,3.942,3.717,9.03c1.649,3.454,7.992,12.909,9.464,14.106c1.322,1.075,4.091,2.758,9.188,5.581 c1.682,0.934,2.255,1.044,3.134,0.614c2.463-1.218,7.205-0.033,6.605,1.651c-0.121,0.353-0.007,0.794,0.262,0.971 c0.269,0.182,0.345,0.583,0.167,0.891c-0.175,0.313-0.268,1.372-0.204,2.358c0.066,0.986-0.064,1.918-0.287,2.065 c-0.221,0.152-0.335,1.326-0.25,2.613c0.25,3.642-0.468,4.291-4.715,4.291C99.257,156.982,97.005,156.652,95.64,156.143z"/></g></g></switch></svg>