<svg xmlns="http://www.w3.org/2000/svg" xmlns:cc="http://web.resource.org/cc/" xmlns:xlink="http://www.w3.org/1999/xlink" id="svg1" width="793.333" height="778.667"><defs id="defs3"><linearGradient id="linearGradient1545"><stop id="stop1546" offset="0" stop-color="#fff" stop-opacity="1"/><stop id="stop1547" offset="1" stop-color="#fff" stop-opacity="0"/></linearGradient><linearGradient id="linearGradient1541"><stop id="stop1542" offset="0" stop-color="#000" stop-opacity="1"/><stop id="stop1543" offset="1" stop-color="#fff" stop-opacity="1"/></linearGradient><radialGradient id="radialGradient1544" cx=".358" cy=".336" r=".755" fx=".358" fy=".336" spreadMethod="reflect" xlink:href="#linearGradient1545"/><radialGradient id="radialGradient1691" cx=".288" cy=".18" r=".5" fx=".288" fy=".18" xlink:href="#linearGradient1545"/><radialGradient id="radialGradient1696" cx=".371" cy=".188" r=".5" fx=".371" fy=".188" xlink:href="#linearGradient1545"/></defs><text id="text1636" x="6.96" y="-22.576" fill="#000" fill-opacity="1" stroke="none" stroke-linecap="butt" stroke-linejoin="miter" stroke-opacity="1" stroke-width="1.333" font-family="Sans" font-size="12" font-stretch="normal" font-style="normal" font-variant="normal" font-weight="normal" text-anchor="start" writing-mode="lr" xml:space="preserve"><tspan id="tspan1637">author: sergio rivera</tspan></text><g id="g1749"><path id="path914" fill="#ffa100" fill-opacity=".994" fill-rule="evenodd" stroke="#000" stroke-dasharray="8.986 4.493 2.246 4.493" stroke-dashoffset="0" stroke-linecap="butt" stroke-linejoin="miter" stroke-miterlimit="4" stroke-opacity="1" stroke-width="4.493" d="M 430.8,217.9 L 302.7,334.3 L 332.7,516.4 L 166.8,435.7 L 2.9,520.5 L 28.3,337.7 L -102.8,219.6 L 78.7,219.8 L 161.5,55.9 L 248.3,217.7 L 430.8,217.9 z" transform="matrix(0.671459,0.000000,0.000000,0.714761,258.9105,143.6694)"/><path id="path1690" fill="url(#radialGradient1691)" fill-opacity="1" fill-rule="evenodd" stroke="none" stroke-linecap="butt" stroke-linejoin="miter" stroke-miterlimit="4" stroke-opacity="1" stroke-width="3.112" d="M 548.1,299.4 L 462.2,382.6 L 417.3,422.8 L 370.9,422.6 L 285.8,440.7 L 277.9,385.1 L 189.8,300.6 L 311.8,300.8 L 367.3,183.6 L 425.6,299.3 L 548.1,299.4 z"/><path id="path1538" fill="#ffc500" fill-opacity="1" fill-rule="evenodd" stroke="#000" stroke-linecap="butt" stroke-linejoin="miter" stroke-opacity="1" stroke-width=".749" d="M 891.5,313.4 L 820.7,377.7 L 837.3,481.5 L 745.5,435.5 L 654.9,483.9 L 669.0,379.7 L 596.4,314.3 L 696.8,314.4 L 742.6,219.0 L 790.6,313.2 L 891.5,313.4 z" transform="translate(-375.0000,0.000000)"/><path id="path1695" fill="url(#radialGradient1696)" fill-opacity="1" fill-rule="evenodd" stroke="#000" stroke-dasharray="5.6 .7" stroke-dashoffset="0" stroke-linecap="butt" stroke-linejoin="miter" stroke-miterlimit="4" stroke-opacity="1" stroke-width=".7" d="M 891.5,313.4 L 820.7,377.7 L 837.3,481.5 L 745.5,435.5 L 654.9,483.9 L 669.0,379.7 L 596.4,314.3 L 696.8,314.4 L 742.6,219.0 L 790.6,313.2 L 891.5,313.4 z" transform="translate(-375.0000,0.000000)"/><g id="g1686"><path id="path1539" fill="#ffe500" fill-opacity=".75" fill-rule="evenodd" stroke="#000" stroke-linecap="butt" stroke-linejoin="miter" stroke-opacity="1" stroke-width="1.081" d="M 484.9,323.8 L 429.3,374.7 L 442.3,456.9 L 370.2,420.5 L 299.0,458.8 L 310.1,376.3 L 253.0,324.5 L 332.0,324.6 L 367.9,249.1 L 405.6,323.7 L 484.9,323.8 z"/><path id="path1540" fill="url(#radialGradient1544)" fill-opacity="1" fill-rule="evenodd" stroke="none" stroke-linecap="butt" stroke-linejoin="miter" stroke-opacity="1" stroke-width="1.081" d="M 464.4,325.3 L 429.3,374.7 L 373.6,384.8 L 310.3,372.5 L 253.0,324.5 L 332.0,324.6 L 367.9,249.1 L 405.6,323.7 L 464.4,325.3 z"/></g></g></svg>