<svg xmlns="http://www.w3.org/2000/svg" xmlns:xlink="http://www.w3.org/1999/xlink" id="svg948" width="106.667" height="106.667"><defs id="defs950"><linearGradient id="linearGradient975"><stop id="stop976" offset="0" stop-color="#000" stop-opacity=".25"/><stop id="stop977" offset="1" stop-color="#fff" stop-opacity="0"/></linearGradient><radialGradient id="radialGradient978" cx=".541" cy=".492" r=".678" fx=".541" fy=".492" xlink:href="#linearGradient975"/></defs><g id="g996"><path id="path972" fill="#ff9" fill-opacity="1" fill-rule="evenodd" stroke="#000" stroke-width="1.333" d="M 27.2,9.6 C 97.7,-3.4 108.4,99.1 32.1,92.5 C 48.6,86.8 75.8,38.1 27.2,9.6 z"/><path id="path981" fill-opacity=".05" fill-rule="evenodd" stroke-width="1.333" d="M 27.6,9.5 C 78.3,15.2 84.5,78.7 32.6,92.3 C 49.0,86.6 76.3,37.9 27.6,9.5 z"/><path id="path982" fill-opacity=".05" fill-rule="evenodd" stroke-width="1.333" d="M 28.1,9.0 C 75.1,18.5 80.0,76.2 33.0,91.9 C 49.5,86.1 76.7,37.5 28.1,9.0 z"/><path id="path983" fill-opacity=".05" fill-rule="evenodd" stroke-width="1.333" d="M 27.2,9.9 C 70.1,23.0 77.1,71.3 32.2,92.7 C 48.7,87.0 75.9,38.3 27.2,9.9 z"/><path id="path984" fill="#fff" fill-opacity=".5" fill-rule="evenodd" stroke-width="1.333" d="M 27.2,10.3 C 96.5,-2.0 106.4,97.7 32.1,92.3 C 84.5,96.1 109.2,12.3 27.2,10.3 z"/></g></svg>