<svg xmlns="http://www.w3.org/2000/svg" xmlns:xlink="http://www.w3.org/1999/xlink" id="svg548" width="400pt" height="400pt"><path id="path1261" fill="#00f" fill-rule="evenodd" stroke="#000" stroke-dasharray="none" stroke-linejoin="bevel" stroke-opacity="1" stroke-width="3.75" d="M 152.5 325 C 152.5 326.2 246.2 25 246.2 25 L 342.5 321.2 C 342.5 321.2 318.7 373.7 251.2 377.5 C 181.2 377.5 148.7 326.2 152.5 325 z" font-size="12" transform="translate(0.000000,-0.625000)"/><g id="g1286" fill="red" fill-opacity="1" stroke="#000" stroke-dasharray="none" stroke-linejoin="bevel" stroke-opacity="1" stroke-width="3.75"><g id="g1274" fill="red" fill-opacity="1" stroke="#000" stroke-dasharray="none" stroke-linejoin="bevel" stroke-opacity="1" stroke-width="3.75"><path id="path1262" fill="red" fill-opacity="1" fill-rule="evenodd" stroke="#000" stroke-dasharray="none" stroke-linecap="butt" stroke-linejoin="bevel" stroke-opacity="1" stroke-width="3.75" d="M 152.5 322.5 C 152.5 322.5 207.5 327.5 251.2 315 C 297.5 295 320 251.2 318.7 251.2 C 317.5 251.2 308.7 215 308.7 215 C 308.7 215 281.2 266.2 240 280 C 208.7 286.2 163.7 288.7 165 287.5 L 152.5 322.5 z"/><path id="path1265" fill="red" fill-opacity="1" fill-rule="evenodd" stroke="#000" stroke-dasharray="none" stroke-linecap="butt" stroke-linejoin="bevel" stroke-opacity="1" stroke-width="3.75" d="M 190 362.5 C 198.7 356.2 278.7 372.5 301.2 343.7 C 323.7 325 332.5 296.2 331.2 291.2 C 330 286.2 332.5 291.2 332.5 291.2 L 343.7 321.2 C 343.7 321.2 291.2 412.5 190 362.5 z"/></g><g id="g1282" fill="red" fill-opacity="1" stroke="#000" stroke-dasharray="none" stroke-linejoin="bevel" stroke-opacity="1" stroke-width="3.75"><path id="path1263" fill="red" fill-opacity="1" fill-rule="evenodd" stroke="#000" stroke-dasharray="none" stroke-linecap="butt" stroke-linejoin="bevel" stroke-opacity="1" stroke-width="3.75" d="M 178.7 246.2 C 178.7 246.2 215 241.2 245 228.7 C 275 216.2 295 171.2 292.5 170 L 283.7 138.7 C 283.7 137.5 270 181.2 240 193.7 C 210 206.2 188.7 211.2 188.7 211.2 C 187.5 211.2 176.2 247.5 178.7 246.2 z"/><path id="path1264" fill="red" fill-opacity="1" fill-rule="evenodd" stroke="#000" stroke-dasharray="none" stroke-linejoin="bevel" stroke-opacity="1" stroke-width="3.75" d="M 207.5 147.5 C 206.2 147.5 223.7 146.2 248.7 133.7 C 262.5 126.2 271.2 102.5 271.2 102.5 L 263.1 76.8 C 263.1 75.6 261.2 93.7 242.5 110 C 223.7 116.2 217.5 116.2 217.5 116.2 L 207.5 147.5 z" font-size="12"/><path id="path1266" fill="red" fill-opacity="1" fill-rule="evenodd" stroke="#000" stroke-dasharray="none" stroke-linejoin="bevel" stroke-opacity="1" stroke-width="3.75" d="M 238.1 51.8 C 238.1 51.8 242.5 53.1 245.6 50.6 C 248.7 48.1 251.8 42.5 251.8 42.5 L 245.6 23.7 L 238.1 51.8 z" font-size="12"/></g></g><path id="path560" fill="#fff" fill-opacity=".5" fill-rule="evenodd" stroke="none" stroke-linecap="butt" stroke-linejoin="miter" stroke-opacity="1" stroke-width="1pt" d="M 244.3 46.0 C 244.3 46.0 156.4 313.2 157.2 325.7 C 164.6 340.5 183.8 355.3 211.1 367.1 C 193.3 302.9 203.7 245.3 244.3 46.0 z"/></svg>