<svg xmlns="http://www.w3.org/2000/svg" xmlns:xlink="http://www.w3.org/1999/xlink" id="svg548" width="210mm" height="140mm"><metadata><rdf:RDF xmlns:cc="http://web.resource.org/cc/" xmlns:dc="http://purl.org/dc/elements/1.1/" xmlns:rdf="http://www.w3.org/1999/02/22-rdf-syntax-ns#"><cc:Work><dc:title>Clipart by Steve Hall - United States - Alabama</dc:title><dc:description/><dc:subject><rdf:Bag><rdf:li/><rdf:li>america</rdf:li><rdf:li>flag</rdf:li><rdf:li>0xa120760</rdf:li><rdf:li>unitedstates</rdf:li><rdf:li>north_america</rdf:li><rdf:li>sign</rdf:li></rdf:Bag></dc:subject><dc:publisher><cc:Agent rdf:about="http://www.openclipart.org"><dc:title>Steve Hall</dc:title></cc:Agent></dc:publisher><dc:creator><cc:Agent><dc:title>Steve Hall</dc:title></cc:Agent></dc:creator><dc:rights><cc:Agent><dc:title>Steve Hall</dc:title></cc:Agent></dc:rights><dc:date/><dc:format>image/svg+xml</dc:format><dc:type rdf:resource="http://purl.org/dc/dcmitype/StillImage"/><cc:license rdf:resource="http://web.resource.org/cc/PublicDomain"/><dc:language>en</dc:language></cc:Work><cc:License rdf:about="http://web.resource.org/cc/PublicDomain"><cc:permits rdf:resource="http://web.resource.org/cc/Reproduction"/><cc:permits rdf:resource="http://web.resource.org/cc/Distribution"/><cc:permits rdf:resource="http://web.resource.org/cc/DerivativeWorks"/></cc:License></rdf:RDF></metadata><rect id="rect552" width="744.13" height="496.093" x=".042" y=".052" fill="#fff" fill-opacity="1" fill-rule="evenodd" stroke-width="1pt" font-size="12"/><path id="path554" fill="#930" fill-opacity="1" fill-rule="evenodd" stroke="#930" stroke-linecap="butt" stroke-linejoin="miter" stroke-opacity="1" stroke-width="1pt" d="M 0.625002 442.313 L 298.751 249.812 L 0.625002 55.4364 C 0.625002 55.4364 1.25 1.06121 0.937503 0.748711 C 0.625002 0.436211 58.4377 0.748711 58.4377 0.748711 L 372.501 200.437 L 685.628 0.748711 L 744.378 0.748711 L 745.315 55.4364 C 745.315 55.4364 445.002 247.937 445.314 247.937 C 445.627 247.937 744.69 436.063 744.69 436.063 C 744.69 436.063 744.69 497 744.69 496.688 C 744.69 496.375 681.877 496.688 681.877 496.688 L 373.126 295.437 L 57.344 496.219 L 0.156251 496.219 L 0.781254 442.313"/></svg>