<svg xmlns="http://www.w3.org/2000/svg" xmlns:xlink="http://www.w3.org/1999/xlink" id="svg661" width="210mm" height="140mm"><metadata><rdf:RDF xmlns:cc="http://web.resource.org/cc/" xmlns:dc="http://purl.org/dc/elements/1.1/" xmlns:rdf="http://www.w3.org/1999/02/22-rdf-syntax-ns#"><cc:Work><dc:title>Clipart by Chris Hilker - United States - Colorado</dc:title><dc:description/><dc:subject><rdf:Bag><rdf:li/><rdf:li>america</rdf:li><rdf:li>flag</rdf:li><rdf:li>unitedstates</rdf:li><rdf:li>0xa121e1c</rdf:li><rdf:li>north_america</rdf:li><rdf:li>sign</rdf:li></rdf:Bag></dc:subject><dc:publisher><cc:Agent rdf:about="http://www.openclipart.org"><dc:title>Chris Hilker</dc:title></cc:Agent></dc:publisher><dc:creator><cc:Agent><dc:title>Chris Hilker</dc:title></cc:Agent></dc:creator><dc:rights><cc:Agent><dc:title>Chris Hilker</dc:title></cc:Agent></dc:rights><dc:date/><dc:format>image/svg+xml</dc:format><dc:type rdf:resource="http://purl.org/dc/dcmitype/StillImage"/><cc:license rdf:resource="http://web.resource.org/cc/PublicDomain"/><dc:language>en</dc:language></cc:Work><cc:License rdf:about="http://web.resource.org/cc/PublicDomain"><cc:permits rdf:resource="http://web.resource.org/cc/Reproduction"/><cc:permits rdf:resource="http://web.resource.org/cc/Distribution"/><cc:permits rdf:resource="http://web.resource.org/cc/DerivativeWorks"/></cc:License></rdf:RDF></metadata><rect id="rect568" width="744.094" height="496.063" x="0" y="0" fill="#fff" fill-rule="evenodd" stroke-width="1pt" font-size="12"/><rect id="rect584" width="496.063" height="110.236" x="63.692" y="173.52" fill="#192f5d" fill-rule="evenodd" stroke-width="1pt" font-size="12" transform="matrix(1.500000,0.000000,0.000000,1.500053,-95.53807,70.41378)"/><rect id="rect556" width="496.063" height="110.236" x="21.639" y="13.137" fill="#192f5d" fill-rule="evenodd" stroke-width="1pt" font-size="12" transform="matrix(1.500000,0.000000,0.000000,1.500053,-32.45842,-19.70667)"/><path id="path559" fill="#bd3d44" fill-rule="evenodd" stroke-width="1pt" d="M 408.883148,167.754120 A 52.056000,52.056000 0 1 1 407.380096,108.909676 L 365.208527,139.428268 z" font-size="12" transform="matrix(3.175298,8.203826e-2,-8.204342e-2,3.175410,-834.0459,-224.6716)"/><path id="path562" fill="#fff500" fill-rule="evenodd" stroke-width="1pt" d="M 165.847931 203.343536 A 57.010227 57.010231 0 1 0 51.827480,203.343536 A 57.0102 57.0102 0 1 0 165.848 203.344 L 108.837708 203.343536 z" font-size="12" transform="matrix(1.450233,0.000000,0.000000,1.450284,156.3255,-46.87440)"/></svg>