<svg xmlns="http://www.w3.org/2000/svg" xmlns:cc="http://web.resource.org/cc/" xmlns:xlink="http://www.w3.org/1999/xlink" id="svg1" width="210mm" height="297mm"><metadata/><g id="layer1" display="none"><image id="image1101" width="667.474" height="261.65" x="7.093" y="751.122" xlink:href="/home/angelo/Desktop/telefono.jpg"/></g><g id="layer2" display="block"><path id="path1105" fill="#00cd00" fill-opacity="1" fill-rule="evenodd" stroke="#000" stroke-linecap="butt" stroke-linejoin="miter" stroke-miterlimit="4" stroke-opacity="1" stroke-width="0" d="M 113.95200,88.250339 L 128.71938,88.250339 L 139.94259,26.227349 L 90.324195,26.227349 C 90.324195,26.227349 92.096280,23.864569 90.324195,26.227349 C 31.845373,166.22210 86.189328,250.10082 86.189328,250.10082 C 134.03563,251.28220 131.08216,244.78456 131.08216,244.78456 C 125.76590,188.66852 119.26826,189.84991 119.26826,189.84991 C 94.459060,188.66851 92.096280,176.26392 92.096280,176.26392 L 98.593927,99.473549 C 105.09157,87.659649 113.95200,88.250339 113.95200,88.250339 z"/><path id="path2353" fill="none" fill-opacity=".75" fill-rule="evenodd" stroke="#00cd00" stroke-linecap="butt" stroke-linejoin="miter" stroke-miterlimit="4" stroke-opacity="1" stroke-width="3.438" d="M 158.25414,248.91942 C 158.25414,248.91942 666.25198,248.91942 666.25198,248.91942 C 688.69839,250.10082 683.38214,229.42648 683.38214,229.42648 L 683.38214,74.073659 C 683.38214,52.209959 663.88920,53.990019 663.88920,53.990019 L 441.19712,53.990019"/><text id="text2354" x="151.218" y="895.237" fill="#000" fill-opacity="1" fill-rule="nonzero" stroke="none" stroke-dashoffset="0" stroke-linecap="butt" stroke-linejoin="miter" stroke-miterlimit="4" stroke-opacity="1" stroke-width="1.333" marker="none" marker-end="none" marker-mid="none" marker-start="none" color="#000" display="block" font-family="BARTOLO" font-size="110" font-stretch="normal" font-style="normal" font-variant="normal" font-weight="normal" letter-spacing="0" space="preserve" text-anchor="start" transform="translate(23.57564,-713.0664)" visibility="visible" writing-mode="lr"><tspan id="tspan2355" x="151.218" y="895.237" stroke-dashoffset="0" marker="none" marker-end="none" marker-mid="none" marker-start="none" font-family="BARTOLO">800 000000</tspan></text><text id="text2357" x="151.218" y="895.237" fill="#000" fill-opacity="1" fill-rule="nonzero" stroke="none" stroke-dashoffset="0" stroke-linecap="butt" stroke-linejoin="miter" stroke-miterlimit="4" stroke-opacity="1" stroke-width="1.333" marker="none" marker-end="none" marker-mid="none" marker-start="none" color="#000" display="block" font-family="BARTOLO" font-size="56" font-stretch="normal" font-style="normal" font-variant="normal" font-weight="normal" letter-spacing="0" space="preserve" text-anchor="start" transform="translate(2.759786e-2,-826.2799)" visibility="visible" writing-mode="lr"><tspan id="tspan2360" x="151.218" y="895.237" stroke-dashoffset="0" marker="none" marker-end="none" marker-mid="none" marker-start="none">Numero Verde</tspan></text></g></svg>