<svg xmlns="http://www.w3.org/2000/svg" xmlns:cc="http://web.resource.org/cc/" xmlns:xlink="http://www.w3.org/1999/xlink" id="svg18453" width="1056" height="816"><path id="path48999" stroke="#000" stroke-miterlimit="4" stroke-opacity="1" stroke-width="7.541" marker-start="none" d="M 501.0,395.4 C 541.1,340.1 549.8,299.7 563.4,303.6 C 574.0,306.6 568.9,315.7 596.9,322.1 C 623.9,328.2 651.4,306.1 657.1,279.4 C 664.8,253.3 652.4,220.4 624.8,212.3 C 597.4,202.4 564.9,218.4 555.1,245.7 C 541.0,276.8 533.8,317.9 488.2,353.2 L 453.3,380.3 L 332.3,551.1 C 318.7,573.2 310.6,602.6 328.2,630.6 L 501.0,395.4 z M 630.8,292.3 C 607.5,315.5 566.3,301.4 566.3,270.3 C 564.7,241.8 599.4,215.8 625.2,232.1 C 646.9,243.5 646.8,276.4 630.8,292.3 z"/><path id="path49000" stroke="#000" stroke-miterlimit="4" stroke-opacity="1" stroke-width="7.541" marker-start="none" d="M 439.2,396.9 C 399.2,341.5 390.6,301.1 377.0,304.9 C 366.4,307.9 371.5,317.0 343.4,323.4 C 316.4,329.5 288.9,307.3 283.3,280.6 C 275.7,254.4 288.1,221.5 315.8,213.5 C 343.2,203.7 375.7,219.8 385.4,247.1 C 399.4,278.2 406.5,319.4 452.0,354.7 L 486.9,381.9 L 607.6,553.0 C 621.0,575.1 629.1,604.5 611.5,632.5 L 439.2,396.9 z M 309.6,293.5 C 332.8,316.8 374.1,302.7 374.1,271.7 C 375.8,243.1 341.2,217.1 315.3,233.3 C 293.6,244.7 293.7,277.6 309.6,293.5 z"/></svg>