<svg xmlns="http://www.w3.org/2000/svg" xmlns:cc="http://web.resource.org/cc/" xmlns:svg="http://www.w3.org/2000/svg" xmlns:xlink="http://www.w3.org/1999/xlink" id="svg1" width="807.04" height="297mm"><defs id="defs3"><linearGradient id="linearGradient411"><stop id="stop412" offset="0" stop-color="#fff" stop-opacity="1"/><stop id="stop413" offset="1" stop-color="#ffa906" stop-opacity="1"/></linearGradient><linearGradient id="linearGradient248"><stop id="stop249" offset="0" stop-color="#fff" stop-opacity="1"/><stop id="stop250" offset="1" stop-color="#d52005" stop-opacity="1"/></linearGradient><radialGradient id="radialGradient253" cx="176.256" cy="367.238" r="44.669" fx="176.256" fy="367.238" gradientTransform="matrix(1.149950,0.000000,0.000000,0.544042,26.52697,86.63015)" gradientUnits="userSpaceOnUse" xlink:href="#linearGradient248"/><radialGradient id="radialGradient85" cx="176.256" cy="367.238" r="44.669" fx="176.256" fy="367.238" gradientTransform="matrix(1.295620,0.000000,0.000000,0.771831,71.32555,154.9486)" gradientUnits="userSpaceOnUse" xlink:href="#linearGradient248"/><radialGradient id="radialGradient410" cx="176.256" cy="367.238" r="44.669" fx="176.256" fy="367.238" gradientTransform="matrix(1.149950,0.000000,0.000000,0.544042,37.83132,33.58667)" gradientUnits="userSpaceOnUse" xlink:href="#linearGradient411"/><radialGradient id="radialGradient9" cx="176.256" cy="367.238" r="44.669" fx="176.256" fy="367.238" gradientTransform="matrix(1.530071,0.000000,0.000000,0.544042,-22.26517,136.1838)" gradientUnits="userSpaceOnUse" xlink:href="#linearGradient248"/></defs><path id="path86" fill="#000" fill-opacity="1" fill-rule="evenodd" stroke="none" stroke-linecap="butt" stroke-linejoin="miter" stroke-opacity="1" stroke-width=".412" d="M 207.9,268.9 L 259.1,268.9 C 262.1,268.9 264.5,270.8 264.5,273.2 C 264.5,276.6 262.1,281.8 262.1,285.3 C 262.1,288.7 264.5,290.4 264.5,293.8 C 264.5,296.1 262.1,298.0 259.1,298.0 L 207.9,298.0 C 205.0,298.0 202.6,296.1 202.6,293.8 L 202.6,273.2 C 202.6,270.8 205.0,268.9 207.9,268.9 z"/><path id="rect51" fill="url(#radialGradient253)" fill-opacity="1" fill-rule="evenodd" stroke="none" stroke-linecap="butt" stroke-linejoin="miter" stroke-opacity="1" stroke-width=".412" d="M 205.2,271.8 L 254.8,271.8 C 257.7,271.8 260.0,273.6 260.0,275.9 C 260.0,279.3 257.6,280.9 257.6,284.3 C 257.6,287.6 260.0,292.6 260.0,295.9 C 260.0,298.2 257.7,300.1 254.8,300.1 L 205.2,300.1 C 202.3,300.1 200.0,298.2 200.0,295.9 C 200.0,292.6 202.0,289.9 202.0,286.5 C 202.0,283.2 200.0,279.3 200.0,275.9 C 200.0,273.6 202.3,271.8 205.2,271.8 z"/></svg>