<svg xmlns="http://www.w3.org/2000/svg" xmlns:xlink="http://www.w3.org/1999/xlink" width="455.148" height="454.788" enable-background="new 0 0 455.148 454.788" overflow="visible" space="preserve" viewBox="0 0 455.148 454.788"><switch><g><g id="Layer_1"><path fill="#E5E5E5" fill-rule="evenodd" d="M227.3,0H18C8.0,0,0,8.0,0,18v418.7 c0,9.9,8.0,18,18,18h418.7c9.9,0,18-8.0,18-18V18c0-9.9-8.0-18-18-18H227.3z" clip-rule="evenodd"/><linearGradient id="XMLID_1_" x1="424.367" x2="455.148" y1="227.736" y2="227.736" gradientUnits="userSpaceOnUse"><stop offset="0" stop-color="#E5E5E5"/><stop offset=".17" stop-color="#E2E2E2"/><stop offset=".306" stop-color="#D8D8D8"/><stop offset=".431" stop-color="#C7C7C7"/><stop offset=".548" stop-color="#B0B0B0"/><stop offset=".661" stop-color="#919191"/><stop offset=".771" stop-color="#6B6B6B"/><stop offset=".877" stop-color="#3E3E3E"/><stop offset=".979" stop-color="#0C0C0C"/><stop offset="1" stop-color="#000"/></linearGradient><path fill="url(#XMLID_1_)" fill-rule="evenodd" d="M449.7,449.9l-25.3-25.3 c0.8-0.8,1.5-1.8,2.3-2.7c0.5-1.0,1.3-2.0,1.8-3.1c0.4-1.1,0.6-2.1,0.9-3.3 c0.1-1.1,0.2-2.5,0.3-3.8l-0.1-369.3l0.1,1.9c-0.0-1.3-0.1-2.7-0.3-3.8 c-0.2-1.2-0.4-2.2-0.9-3.3c-0.4-1.1-1.2-2.1-1.8-3.1c-0.7-1.0-1.4-1.9-2.3-2.7l25.3-25.3 c0.6,0.5,1.2,1.3,1.9,2.2c0.6,0.7,1.2,2.0,1.9,3.2c0.4,1.2,1.1,2.9,1.3,4.5 c0.1,1.4,0.1,2.9,0.1,4.6c-0.0,1.6-0.0,3.8,0,5.9v402.9c0.0,2.1,0.0,4.2,0,5.9 c0.0,1.6-0.0,3.1-0.1,4.6c-0.2,1.5-0.8,3.1-1.3,4.6c-0.6,1.2-1.2,2.3-1.9,3.2 C451.0,448.5,450.4,449.3,449.7,449.9z" clip-rule="evenodd"/><linearGradient id="XMLID_2_" x1="30.852" x2=".071" y1="227.376" y2="227.376" gradientUnits="userSpaceOnUse"><stop offset="0" stop-color="#E5E5E5"/><stop offset=".268" stop-color="#E2E2E2"/><stop offset=".482" stop-color="#D8D8D8"/><stop offset=".679" stop-color="#C7C7C7"/><stop offset=".864" stop-color="#B0B0B0"/><stop offset="1" stop-color="#999"/></linearGradient><path fill="url(#XMLID_2_)" fill-rule="evenodd" d="M5.4,449.6l25.3-25.3 c-0.9-0.8-1.6-1.8-2.3-2.7c-0.6-1.0-1.4-2.0-1.8-3.1c-0.4-1.1-0.7-2.1-0.9-3.3 c-0.2-1.1-0.3-2.5-0.3-3.8l0.1-369.3l-0.1,1.9c-0.0-1.3,0.0-2.7,0.3-3.8 c0.1-1.2,0.5-2.2,0.9-3.3c0.3-1.1,1.1-2.1,1.8-3.1c0.6-1.0,1.4-1.9,2.3-2.7L5.4,5.1 C4.7,5.7,4.1,6.4,3.4,7.4c-0.7,0.8-1.4,1.9-1.9,3.2c-0.5,1.3-1.1,2.9-1.3,4.6 C0,16.7,0,18.2,0.0,19.9c-0.0,1.6-0.0,3.8,0,5.9v402.9c-0.0,2.1-0.0,4.2,0,5.9 C0,436.4,0,437.9,0.2,439.4c0.1,1.5,0.8,3.1,1.3,4.6c0.5,1.2,1.1,2.3,1.9,3.2 C4.1,448.2,4.7,448.9,5.4,449.6z" clip-rule="evenodd"/><linearGradient id="XMLID_3_" x1="227.736" x2="227.736" y1="30.852" y2=".072" gradientUnits="userSpaceOnUse"><stop offset="0" stop-color="#E5E5E5"/><stop offset=".268" stop-color="#E2E2E2"/><stop offset=".482" stop-color="#D8D8D8"/><stop offset=".679" stop-color="#C7C7C7"/><stop offset=".864" stop-color="#B0B0B0"/><stop offset="1" stop-color="#999"/></linearGradient><path fill="url(#XMLID_3_)" fill-rule="evenodd" d="M449.9,5.4l-25.3,25.3 c-0.8-0.9-1.7-1.6-2.7-2.3c-1.0-0.6-2.0-1.4-3.1-1.8c-1.1-0.4-2.1-0.7-3.3-0.9 c-1.2-0.2-2.5-0.3-3.8-0.3L42.0,25.5l1.9-0.1c-1.3,0.0-2.7,0-3.8,0.2 c-1.2,0.1-2.2,0.4-3.3,0.9c-1.1,0.3-2.1,1.1-3.1,1.8c-1.0,0.6-1.9,1.4-2.7,2.3L5.5,5.4 C6.0,4.7,6.8,4.0,7.7,3.4C8.5,2.7,9.7,2.1,11.0,1.5c1.2-0.5,2.9-1.1,4.5-1.3 C17.0,0,18.5,0,20.3,0.0c1.6-0.0,3.8-0.0,5.9,0h402.9c2.1-0.0,4.2-0.0,5.9,0 C436.8,0,438.3,0,439.8,0.2c1.5,0.1,3.1,0.8,4.6,1.3c1.2,0.5,2.3,1.1,3.2,1.9 C448.5,4.1,449.3,4.7,449.9,5.4z" clip-rule="evenodd"/><linearGradient id="XMLID_4_" x1="227.376" x2="227.376" y1="423.899" y2="454.68" gradientUnits="userSpaceOnUse"><stop offset="0" stop-color="#E5E5E5"/><stop offset=".17" stop-color="#E2E2E2"/><stop offset=".306" stop-color="#D8D8D8"/><stop offset=".431" stop-color="#C7C7C7"/><stop offset=".548" stop-color="#B0B0B0"/><stop offset=".661" stop-color="#919191"/><stop offset=".771" stop-color="#6B6B6B"/><stop offset=".877" stop-color="#3E3E3E"/><stop offset=".979" stop-color="#0C0C0C"/><stop offset="1" stop-color="#000"/></linearGradient><path fill="url(#XMLID_4_)" fill-rule="evenodd" d="M449.6,449.2l-25.3-25.3 c-0.8,0.8-1.8,1.6-2.7,2.3c-1.0,0.6-2.0,1.2-3.1,1.8c-1.1,0.3-2.1,0.7-3.3,0.9 c-1.2,0.1-2.5,0.2-3.8,0.3l-369.3-0.1l1.9,0.1c-1.3-0.0-2.7-0.1-3.8-0.3 c-1.2-0.2-2.2-0.5-3.3-0.9c-1.1-0.5-2.1-1.1-3.1-1.8c-1.0-0.7-1.9-1.4-2.7-2.3L5.1,449.2 c0.5,0.6,1.3,1.3,2.2,2.0c0.7,0.6,2.0,1.2,3.2,1.9c1.2,0.4,2.9,1.0,4.5,1.3 c1.4,0.1,2.9,0.1,4.6,0.1c1.6-0.0,3.8-0.0,5.9,0h402.9c2.1-0.0,4.2-0.0,5.9,0 c1.6,0,3.1,0,4.6-0.1c1.5-0.2,3.1-0.9,4.6-1.3c1.2-0.6,2.3-1.2,3.2-1.8 C448.2,450.6,448.9,449.9,449.6,449.2z" clip-rule="evenodd"/><g><path fill="#7F7F7F" fill-rule="evenodd" d="M373.6,215.2h15.9v131.5h-15.9 V215.2z" clip-rule="evenodd"/><path fill="#7F7F7F" fill-rule="evenodd" d="M381.6,156.9 c18.4,0,33.3,14.9,33.3,33.3c0,18.4-14.9,33.3-33.3,33.3c-18.4,0-33.3-14.9-33.3-33.3 C348.3,171.9,363.2,156.9,381.6,156.9" clip-rule="evenodd"/><path fill="gray" fill-rule="evenodd" d="M68.5,285.3l-24.9-13.1 l0.3-16.3l3.0-2.8l-0.2-88.3c0-3.2,0.5-5.8,1.5-8.5c0.8-2.7,2.3-5.1,4.5-7.0 c2.0-1.9,1.3-2.5,8.5-4.6c7.3-2.2,19.2-4.7,34.7-8.1c15.4-3.4,40.1-9.0,56.9-12.0 c16.6-3.1,28.1-4.6,42.6-6.0c14.5-1.4,28.7-2.2,43.8-2.4c14.9-0.2,32.5-0.2,45.6,0.7 c13.1,0.8,24.8,2.2,32.2,4.6c7.2,2.2,7.8,5.0,11.2,9.5c3.2,4.5,6.7,3.9,8.4,17.7 c1.6,13.8,1.2,42.0,1.5,64.5c0.1,22.3,0.0,44.9-0.3,68.7l3.6,5.6l-0.6,24.8l-46.9,1.7 c-1.6,4.4-3.6,7.9-6.0,10.6c-2.4,2.6-4.8,4.7-8.5,5.3c-3.7,0.4-10.1,0.3-13.7-2.1 c-3.6-2.5-6.2-6.7-7.9-12.7l-68.8,4.2l-28.3-7.0c-2.9,5.0-5.7,7.8-8.8,8.8 c-3.0,0.7-7.0-0.7-9.4-3.5c-2.5-2.8-4.3-7.3-5.5-13.4l-54.2-15.5 c-1.4,3.4-3.0,5.6-5.1,6.3c-2.0,0.6-5.5-0.5-7.0-2.1C69.3,291.1,68.6,288.8,68.5,285.3z" clip-rule="evenodd"/><path fill="#17057A" fill-rule="evenodd" d="M63.9,280.6L39,267.4l0.2-16.3 l3.0-2.8l-0.3-88.3h-0.0c0-3.0,0.5-5.9,1.5-8.4c0.8-2.7,2.3-5.1,4.5-7.0 c2.0-1.9,1.3-2.5,8.5-4.6c7.3-2.1,19.2-4.8,34.7-8.1c15.4-3.4,40.1-9.0,56.9-12.0 c16.6-3.0,28.0-4.6,42.6-6.0c14.4-1.4,28.7-2.2,43.8-2.4c14.9-0.2,32.5-0.2,45.6,0.7 c13.1,0.8,24.8,2.2,32.2,4.6c7.2,2.2,7.8,5.0,11.2,9.5c3.3,4.5,6.8,3.9,8.5,17.7 c1.6,13.9,1.2,41.9,1.5,64.5c0.2,22.3,0.0,44.9-0.2,68.7l3.6,5.6l-0.6,24.8l-46.9,1.7 c-1.6,4.3-3.6,7.9-6.0,10.6c-2.4,2.6-4.8,4.7-8.5,5.3c-3.7,0.4-10.1,0.3-13.7-2.1 c-3.6-2.5-6.2-6.7-7.9-12.7l-68.8,4.2l-28.3-7.0c-2.9,4.9-5.7,7.9-8.8,8.8 c-3.0,0.9-7.0-0.7-9.4-3.5c-2.5-2.8-4.3-7.2-5.5-13.4l-54.2-15.6 c-1.4,3.5-3.0,5.6-5.1,6.4c-2.0,0.6-5.5-0.5-7.0-2.1C64.7,286.3,64.0,284.0,63.9,280.6z" clip-rule="evenodd"/><path fill="#3D258E" fill-rule="evenodd" d="M196.4,115.3 c-18.8,2.7-37.8,5.7-57.7,9.4c-20.0,3.6-46.5,9.0-61.0,12.3c-14.4,3.1-19.3,3.5-24.6,6.5 c-5.3,2.9-7.5,6.6-7.0,11.1c21.1-2.7,42.3-5.3,64.4-7.9c22.1-2.6,44.1-5.1,67.2-7.5 c1.1-5.3,3.4-10.0,6.5-14.0C187.4,121.1,191.3,118.0,196.4,115.3z" clip-rule="evenodd"/><path fill="#3D258E" fill-rule="evenodd" d="M181.2,140.5 c0.3-2.4,1.4-5.2,3.3-8.1c1.8-3.1,4.3-6.8,7.9-9.5c3.4-2.6,6.1-4.5,13.1-6.0 c6.8-1.4,16.8-2.1,28.0-2.5c11.1-0.5,26.9-0.1,38.3,0c11.3,0.1,21.1-0.5,28.9,1.0 c7.5,1.5,12.0,3.8,16.4,8.1c4.3,4.3,7.4,10.1,9.4,17.7c-22.5,0.5-45.2,0.8-69.7,0.7 C232.5,141.8,207.7,141.3,181.2,140.5z" clip-rule="evenodd"/><path fill="#3D258E" fill-rule="evenodd" d="M181.8,145.1l0.2,80.1l148.0-0.3 l-0.8-78.3L181.8,145.1z" clip-rule="evenodd"/><path fill="#3D258E" fill-rule="evenodd" d="M204.5,244.0 c4.3,0,7.9,4.1,7.9,9.2s-3.5,9.2-7.9,9.2c-4.3,0-7.9-4.1-7.9-9.2S200.1,244.0,204.5,244.0" clip-rule="evenodd"/><path fill="#3D258E" fill-rule="evenodd" d="M222.5,244.4 c4.3,0,7.8,4.1,7.8,9.2c0,5.0-3.5,9.2-7.8,9.2s-7.8-4.1-7.8-9.2 C214.6,248.5,218.2,244.4,222.5,244.4" clip-rule="evenodd"/><path fill="#3D258E" fill-rule="evenodd" d="M304.8,243.0 c4.0,0,7.3,3.8,7.3,8.5c0,4.7-3.2,8.5-7.3,8.5s-7.3-3.8-7.3-8.5 C297.5,246.9,300.8,243.0,304.8,243.0" clip-rule="evenodd"/><path fill="#3D258E" fill-rule="evenodd" d="M321.0,243.0 c4.0,0,7.3,3.8,7.3,8.5c0,4.7-3.2,8.5-7.3,8.5c-4.0,0-7.3-3.8-7.3-8.5 C313.7,246.9,317.0,243.0,321.0,243.0" clip-rule="evenodd"/><path fill="#3D258E" fill-rule="evenodd" d="M181.8,229.1l0.2,11.3 l148.0-0.0l-0.8-11.0L181.8,229.1z" clip-rule="evenodd"/><path fill="#3D258E" fill-rule="evenodd" d="M181.8,263.9l0.2,20.5 l148.0-0.1l-0.8-20.0L181.8,263.9z" clip-rule="evenodd"/><path fill="#3D258E" fill-rule="evenodd" d="M126.6,148.6v54.6l25.2,1.7v-58.5 L126.6,148.6z" clip-rule="evenodd"/><path fill="#3D258E" fill-rule="evenodd" d="M98.4,152.2v49.2l24.0,1.0v-52.8 L98.4,152.2z" clip-rule="evenodd"/><path fill="#3D258E" fill-rule="evenodd" d="M71.7,156.0l0.5,44.1l19.9,0.2 l0.4-46.9L71.7,156.0z" clip-rule="evenodd"/><path fill="#3D258E" fill-rule="evenodd" d="M45.6,158.7v40.4l20.1,0.2v-42.2 L45.6,158.7z" clip-rule="evenodd"/><path fill="#3D258E" fill-rule="evenodd" d="M46.5,203.6l106.0,5.6l0.2,20.5 l-106.3-9.9V203.6z" clip-rule="evenodd"/><path fill="#3D258E" fill-rule="evenodd" d="M46.5,225.3v42.5l14.6,7.8h-0.0 c-0.9-12.0-0.9-20.9,0-26.9c0.9-6.0,3.3-7.7,5.4-9.2c2.0-1.7,4.5-2.8,6.7-0.3 c2.0,2.5,5.0,8.3,6.0,15.2c1.0,6.8,1.0,15.0,0,25.1l53.2,16.3 c-1.7-10.7-2.0-19.3-0.8-26.2c1.0-6.9,4.7-12.7,7.6-14.9c2.8-2.1,6.7-0.3,9.1,1.7 c2.1,2.0,3.8,5.5,4.5,10.6v-30.4C117.6,232.8,82.1,229.0,46.5,225.3z" clip-rule="evenodd"/><path fill="#3D258E" fill-rule="evenodd" d="M157.1,145.8l20.1-1.7v163.4 l-19.8-6.0L157.1,145.8z" clip-rule="evenodd"/><path fill="#483093" fill-rule="evenodd" d="M184.0,148.9h61.8 c-7.1,1.5-11.8,4.1-14.3,7.7c-2.4,3.5,3.5,11.2-0.5,13.7c-4.2,2.3-21.1-2.4-24.5,0.5 c-3.3,2.9,7.7,12.1,4.1,17.2c-3.8,5.0-12.5,9.3-26.6,13.1 C184.0,183.9,184.0,166.4,184.0,148.9z" clip-rule="evenodd"/><path fill="#483093" fill-rule="evenodd" d="M252.0,119.1 c6.8,0.6,26.7-1.0,36.3,0.6c9.2,1.6,21.2,8.4,19.4,9.5c-2.0,0.9-25.4-3.9-31.1-3.6 c-5.6,0.2,4.3,4.2-2.5,5.3c-7.1,1.1-33.4,2.3-39.3,1.1c-5.8-1.3,4.7-6.6,4.1-8.9 c-0.8-2.3-10.2-3.4-8.7-4.7c1.6-1.4,14.6-3.0,18.4-2.9 C252.0,115.6,245.4,118.4,252.0,119.1z" clip-rule="evenodd"/><path fill="#483093" fill-rule="evenodd" d="M89.9,136.4 c10.1-2.6,33.2-6.6,47.5-8.9c14.1-2.3,31.3-5.5,36.8-4.7c5.1,0.8,0.6,7.7-5.1,9.5 c-5.8,1.6-22.7-1.0-29.1,0.6c-6.3,1.5-2.1,7.4-9.1,8.9c-7.2,1.2-26.3-0.9-33.7-0.6 c-7.3,0.2-6.9,2.0-10.2,2.4c-3.4,0.3-10.2,0.4-9.7-0.6C77.7,141.8,79.8,138.9,89.9,136.4z" clip-rule="evenodd"/><path fill="#17057A" fill-rule="evenodd" d="M370.3,211.9h15.9v131.5h-15.9 V211.9z" clip-rule="evenodd"/><path fill="#3D258E" fill-rule="evenodd" d="M373.1,215.6h10.3v123.1h-10.3 V215.6z" clip-rule="evenodd"/><path fill="#17057A" fill-rule="evenodd" d="M378.3,153.6 c18.4,0,33.3,14.9,33.3,33.3s-14.9,33.3-33.3,33.3c-18.4,0-33.3-14.9-33.3-33.3 S359.9,153.6,378.3,153.6" clip-rule="evenodd"/><path fill="#3D258E" fill-rule="evenodd" d="M378.2,157.6 c16.2,0,29.4,13.1,29.4,29.4s-13.1,29.4-29.4,29.4s-29.4-13.1-29.4-29.4 S361.9,157.6,378.2,157.6" clip-rule="evenodd"/></g></g></g></switch></svg>