<svg xmlns="http://www.w3.org/2000/svg" xmlns:xlink="http://www.w3.org/1999/xlink" id="svg1" width="1000" height="500"><metadata><rdf:RDF xmlns:cc="http://web.resource.org/cc/" xmlns:dc="http://purl.org/dc/elements/1.1/" xmlns:rdf="http://www.w3.org/1999/02/22-rdf-syntax-ns#"><cc:Work><dc:title>Canada - Newfoundland</dc:title><dc:description/><dc:subject><rdf:Bag><rdf:li/><rdf:li>america</rdf:li><rdf:li>flag</rdf:li><rdf:li>canada</rdf:li><rdf:li>north_america</rdf:li><rdf:li>sign</rdf:li></rdf:Bag></dc:subject><dc:publisher><cc:Agent rdf:about="http://www.openclipart.org"><dc:title>Robert Crosbie</dc:title></cc:Agent></dc:publisher><dc:creator><cc:Agent><dc:title>Robert Crosbie</dc:title></cc:Agent></dc:creator><dc:rights><cc:Agent><dc:title>Robert Crosbie</dc:title></cc:Agent></dc:rights><dc:date/><dc:format>image/svg+xml</dc:format><dc:type rdf:resource="http://purl.org/dc/dcmitype/StillImage"/><cc:license rdf:resource="http://web.resource.org/cc/PublicDomain"/><dc:language>en</dc:language></cc:Work><cc:License rdf:about="http://web.resource.org/cc/PublicDomain"><cc:permits rdf:resource="http://web.resource.org/cc/Reproduction"/><cc:permits rdf:resource="http://web.resource.org/cc/Distribution"/><cc:permits rdf:resource="http://web.resource.org/cc/DerivativeWorks"/></cc:License></rdf:RDF></metadata><rect id="rect565" width="1000" height="500" x="0" y="0" fill="#fff" fill-opacity="1" fill-rule="evenodd" stroke-width="1pt" font-size="12"/><g id="NFLD_flag"><rect id="rect564" width="1000" height="500" x="0" y="0" fill="none" fill-rule="evenodd" stroke="#000" stroke-dasharray="none" stroke-opacity="1" stroke-width="1.25" font-size="12"/><g id="past"><path id="path568" fill="#21219c" fill-opacity="1" fill-rule="evenodd" stroke="#21219c" stroke-opacity="1" stroke-width="1" d="M 30 50 L 30 220 L 340 220 L 30 50 z"/><path id="path569" fill="#21219c" fill-opacity="1" fill-rule="evenodd" stroke="#21219c" stroke-opacity="1" stroke-width="1pt" d="M 400 190 L 400 30 L 110 30 L 400 190 z"/><path id="path570" fill="#21219c" fill-opacity="1" fill-rule="evenodd" stroke="#21219c" stroke-opacity="1" stroke-width="1" d="M 30 280 L 30 450 L 340 280 L 30 280 z"/><path id="path571" fill="#21219c" fill-opacity="1" fill-rule="evenodd" stroke="#21219c" stroke-opacity="1" stroke-width="1" d="M 400 310 L 400 470 L 110 470 L 400 310 z"/></g><g id="future"><path id="path572" fill="#c00" fill-rule="evenodd" stroke="#c00" stroke-width="1" d="M 460 30 L 460 200 L 970 30 L 460 30 z"/><path id="path576" fill="#fff" fill-rule="evenodd" stroke="#fff" stroke-width="1" d="M 480 50 L 480 175 L 850 50 L 480 50 z"/><path id="path573" fill="#c00" fill-rule="evenodd" stroke="#d62929" stroke-opacity="1" stroke-width="1" d="M 460 300 L 460 470 L 970 470 L 460 300 z"/><path id="path577" fill="#fff" fill-rule="evenodd" stroke="#fff" stroke-opacity="1" stroke-width="1" d="M 480 330 L 480 450 L 850 450 L 480 330 z"/><path id="path574" fill="#c00" fill-opacity="1" fill-rule="evenodd" stroke="#c00" stroke-width="1" d="M 460 220 L 950 220 L 975 250 L 950 280 L 460 280 L 490 250 L 460 220 z"/><path id="path575" fill="#ff0" fill-opacity="1" fill-rule="evenodd" stroke="#ff0" stroke-width="1" d="M 490 230 L 940 230 L 960 250 L 940 270 L 490 270 L 510 250 L 490 230 z"/></g></g></svg>