<svg xmlns="http://www.w3.org/2000/svg" xmlns:xlink="http://www.w3.org/1999/xlink" id="svg548" width="400pt" height="400pt"><g id="g827"><path id="path1610" fill="#000" fill-opacity=".25" fill-rule="evenodd" stroke="none" stroke-dasharray="none" stroke-linecap="butt" stroke-linejoin="miter" stroke-opacity="1" stroke-width="3.75" d="M 67.8,286.9 L 65.8,65.8 L 475.9,66.8 L 473.9,434.0 C 473.9,434.0 350.2,527.5 281.1,432.0 C 211.9,336.6 198.3,336.6 173.9,325.9 C 149.6,315.2 67.8,287.9 67.8,286.9 z"/><path id="path617" fill="#fff" fill-opacity="1" fill-rule="evenodd" stroke="#000" stroke-dasharray="none" stroke-linecap="butt" stroke-linejoin="round" stroke-opacity="1" stroke-width="10" d="M 442.1 260.3 L 444.1 39.2 L 34.0 40.2 L 36.0 407.4 C 36.0 407.4 159.7 500.9 228.8 405.5 C 298.0 310.0 311.6 310.0 336.0 299.3 C 360.3 288.6 442.1 261.3 442.1 260.3 z" transform="matrix(-1.000000,0.000000,0.000000,1.000000,493.8213,8.766060)"/></g></svg>