<svg xmlns="http://www.w3.org/2000/svg" xmlns:cc="http://web.resource.org/cc/" xmlns:svg="http://www.w3.org/2000/svg" xmlns:xlink="http://www.w3.org/1999/xlink" id="svg1" width="807.04" height="297mm"><metadata/><defs id="defs3"><linearGradient id="linearGradient411"><stop id="stop412" offset="0" stop-color="#fff" stop-opacity="1"/><stop id="stop413" offset="1" stop-color="#ffa906" stop-opacity="1"/></linearGradient><linearGradient id="linearGradient248"><stop id="stop249" offset="0" stop-color="#fff" stop-opacity="1"/><stop id="stop250" offset="1" stop-color="#d52005" stop-opacity="1"/></linearGradient><radialGradient id="radialGradient253" cx="176.256" cy="367.238" r="44.669" fx="176.256" fy="367.238" gradientTransform="matrix(1.149950,0.000000,0.000000,0.544042,26.52697,86.63015)" gradientUnits="userSpaceOnUse" xlink:href="#linearGradient248"/><radialGradient id="radialGradient85" cx="176.256" cy="367.238" r="44.669" fx="176.256" fy="367.238" gradientTransform="matrix(1.295620,0.000000,0.000000,0.771831,71.32555,154.9486)" gradientUnits="userSpaceOnUse" xlink:href="#linearGradient248"/><radialGradient id="radialGradient410" cx="176.256" cy="367.238" r="44.669" fx="176.256" fy="367.238" gradientTransform="matrix(1.149950,0.000000,0.000000,0.544042,37.83132,33.58667)" gradientUnits="userSpaceOnUse" xlink:href="#linearGradient411"/><radialGradient id="radialGradient9" cx="176.256" cy="367.238" r="44.669" fx="176.256" fy="367.238" gradientTransform="matrix(1.530071,0.000000,0.000000,0.544042,-22.26517,136.1838)" gradientUnits="userSpaceOnUse" xlink:href="#linearGradient248"/></defs><path id="path86" fill="#000" fill-opacity="1" fill-rule="evenodd" stroke="none" stroke-linecap="butt" stroke-linejoin="miter" stroke-opacity="1" stroke-width=".412" d="M 207.98645,268.99051 L 259.14150,268.99051 C 262.12181,268.99051 264.52113,270.89122 264.52113,273.25219 C 264.52113,276.68253 262.18146,281.88741 262.18146,285.31775 C 262.18146,288.74809 264.52113,290.40389 264.52113,293.83423 C 264.52113,296.19520 262.12181,298.09591 259.14150,298.09591 L 207.98645,298.09591 C 205.00613,298.09591 202.60682,296.19520 202.60682,293.83423 L 202.60682,273.25219 C 202.60682,270.89122 205.00613,268.99051 207.98645,268.99051 z"/><path id="rect51" fill="url(#radialGradient253)" fill-opacity="1" fill-rule="evenodd" stroke="none" stroke-linecap="butt" stroke-linejoin="miter" stroke-opacity="1" stroke-width=".412" d="M 205.28046,271.84902 L 254.81899,271.84902 C 257.70513,271.84902 260.02862,273.69424 260.02862,275.98630 C 260.02862,279.31651 257.68296,280.97431 257.68296,284.30453 C 257.68296,287.63475 260.02862,292.63738 260.02862,295.96759 C 260.02862,298.25965 257.70513,300.10488 254.81899,300.10488 L 205.28046,300.10488 C 202.39433,300.10488 200.07083,298.25965 200.07083,295.96759 C 200.07083,292.63738 202.00033,289.92010 202.00033,286.58989 C 202.00033,283.25967 200.07083,279.31651 200.07083,275.98630 C 200.07083,273.69424 202.39433,271.84902 205.28046,271.84902 z"/></svg>