<svg xmlns="http://www.w3.org/2000/svg" xmlns:xlink="http://www.w3.org/1999/xlink" width="455.148" height="454.788" enable-background="new 0 0 455.148 454.788" overflow="visible" space="preserve" viewBox="0 0 455.148 454.788"><metadata><rdf:RDF xmlns:cc="http://web.resource.org/cc/" xmlns:dc="http://purl.org/dc/elements/1.1/" xmlns:rdf="http://www.w3.org/1999/02/22-rdf-syntax-ns#"><cc:Work><dc:title>Hotel Icon Bus Stop</dc:title><dc:description>Part of Hotel Icons Collection</dc:description><dc:subject><rdf:Bag><rdf:li>icon</rdf:li><rdf:li>symbol</rdf:li><rdf:li>hotel</rdf:li></rdf:Bag></dc:subject><dc:publisher><cc:Agent rdf:about="http://www.openclipart.org/"><dc:title>Open Clip Art Library</dc:title></cc:Agent></dc:publisher><dc:creator><cc:Agent><dc:title>Gerald G.</dc:title></cc:Agent></dc:creator><dc:rights><cc:Agent><dc:title>Gerald G.</dc:title></cc:Agent></dc:rights><dc:date/><dc:format>image/svg+xml</dc:format><dc:type rdf:resource="http://purl.org/dc/dcmitype/StillImage"/><cc:license rdf:resource="http://web.resource.org/cc/PublicDomain"/><dc:language>en</dc:language></cc:Work><cc:License rdf:about="http://web.resource.org/cc/PublicDomain"><cc:permits rdf:resource="http://web.resource.org/cc/Reproduction"/><cc:permits rdf:resource="http://web.resource.org/cc/Distribution"/><cc:permits rdf:resource="http://web.resource.org/cc/DerivativeWorks"/></cc:License></rdf:RDF></metadata><switch><g><g id="Layer_1"><path fill="#E5E5E5" fill-rule="evenodd" d="M227.394,0H18C8.059,0,0,8.059,0,18v418.788 c0,9.94,8.059,18,18,18h418.787c9.941,0,18-8.06,18-18V18c0-9.941-8.059-18-18-18H227.394z" clip-rule="evenodd"/><linearGradient id="XMLID_1_" x1="424.367" x2="455.148" y1="227.736" y2="227.736" gradientUnits="userSpaceOnUse"><stop offset="0" stop-color="#E5E5E5"/><stop offset=".17" stop-color="#E2E2E2"/><stop offset=".306" stop-color="#D8D8D8"/><stop offset=".431" stop-color="#C7C7C7"/><stop offset=".548" stop-color="#B0B0B0"/><stop offset=".661" stop-color="#919191"/><stop offset=".771" stop-color="#6B6B6B"/><stop offset=".877" stop-color="#3E3E3E"/><stop offset=".979" stop-color="#0C0C0C"/><stop offset="1" stop-color="#000"/></linearGradient><path fill="url(#XMLID_1_)" fill-rule="evenodd" d="M449.748,449.964l-25.381-25.344 c0.865-0.828,1.584-1.8,2.305-2.772c0.576-1.08,1.367-2.088,1.836-3.168c0.469-1.188,0.648-2.16,0.936-3.348 c0.18-1.188,0.289-2.521,0.324-3.853l-0.145-369.396l0.145,1.908c-0.035-1.368-0.145-2.7-0.324-3.852 c-0.287-1.296-0.467-2.268-0.936-3.348c-0.469-1.188-1.26-2.196-1.836-3.168c-0.721-1.044-1.439-1.908-2.305-2.736l25.381-25.38 c0.684,0.576,1.295,1.332,1.98,2.268c0.611,0.792,1.295,2.016,1.908,3.276c0.432,1.296,1.115,2.916,1.367,4.572 c0.145,1.44,0.145,2.952,0.145,4.68c-0.037,1.692-0.037,3.816,0,5.976v402.912c0.035,2.124,0.035,4.248,0,5.977 c0.035,1.656-0.072,3.168-0.18,4.68c-0.289,1.584-0.865,3.168-1.332,4.608c-0.613,1.224-1.297,2.304-1.908,3.24 C451.043,448.596,450.432,449.352,449.748,449.964z" clip-rule="evenodd"/><linearGradient id="XMLID_2_" x1="30.852" x2=".071" y1="227.376" y2="227.376" gradientUnits="userSpaceOnUse"><stop offset="0" stop-color="#E5E5E5"/><stop offset=".268" stop-color="#E2E2E2"/><stop offset=".482" stop-color="#D8D8D8"/><stop offset=".679" stop-color="#C7C7C7"/><stop offset=".864" stop-color="#B0B0B0"/><stop offset="1" stop-color="#999"/></linearGradient><path fill="url(#XMLID_2_)" fill-rule="evenodd" d="M5.472,449.604l25.38-25.344 c-0.9-0.828-1.62-1.8-2.304-2.771c-0.684-1.08-1.476-2.089-1.836-3.168c-0.432-1.188-0.792-2.16-0.936-3.349 c-0.252-1.188-0.36-2.52-0.324-3.852l0.144-369.396l-0.144,1.908c-0.036-1.368,0.072-2.7,0.324-3.852 c0.144-1.296,0.504-2.268,0.936-3.348c0.36-1.188,1.152-2.196,1.836-3.168c0.684-1.044,1.404-1.908,2.304-2.736L5.472,5.148 C4.752,5.724,4.14,6.48,3.492,7.416c-0.72,0.828-1.404,1.908-1.908,3.24c-0.54,1.368-1.188,2.952-1.368,4.608 C0,16.704,0,18.216,0.072,19.944c-0.036,1.692-0.036,3.816,0,5.976v402.912c-0.036,2.124-0.036,4.248,0,5.976 C0,436.464,0,437.976,0.216,439.488c0.18,1.584,0.828,3.168,1.368,4.607c0.504,1.225,1.188,2.304,1.908,3.24 C4.14,448.235,4.752,448.992,5.472,449.604z" clip-rule="evenodd"/><linearGradient id="XMLID_3_" x1="227.736" x2="227.736" y1="30.852" y2=".072" gradientUnits="userSpaceOnUse"><stop offset="0" stop-color="#E5E5E5"/><stop offset=".268" stop-color="#E2E2E2"/><stop offset=".482" stop-color="#D8D8D8"/><stop offset=".679" stop-color="#C7C7C7"/><stop offset=".864" stop-color="#B0B0B0"/><stop offset="1" stop-color="#999"/></linearGradient><path fill="url(#XMLID_3_)" fill-rule="evenodd" d="M449.963,5.472l-25.344,25.38 c-0.828-0.9-1.799-1.62-2.771-2.304c-1.08-0.684-2.088-1.476-3.168-1.836c-1.115-0.432-2.123-0.792-3.313-0.936 c-1.223-0.252-2.52-0.36-3.887-0.324L42.084,25.596l1.908-0.144c-1.368,0.036-2.7,0-3.852,0.288 c-1.296,0.144-2.268,0.468-3.348,0.972c-1.188,0.36-2.196,1.152-3.168,1.836c-1.044,0.684-1.908,1.404-2.736,2.304L5.508,5.472 C6.084,4.788,6.84,4.068,7.776,3.456C8.568,2.7,9.792,2.124,11.052,1.584c1.296-0.54,2.916-1.188,4.572-1.368 C17.064,0,18.576,0,20.304,0.072c1.692-0.036,3.816-0.036,5.976,0h402.912c2.125-0.036,4.248-0.036,5.977,0 C436.824,0,438.336,0,439.848,0.216c1.584,0.18,3.168,0.828,4.607,1.368c1.225,0.504,2.305,1.188,3.24,1.908 C448.596,4.14,449.352,4.752,449.963,5.472z" clip-rule="evenodd"/><linearGradient id="XMLID_4_" x1="227.376" x2="227.376" y1="423.899" y2="454.68" gradientUnits="userSpaceOnUse"><stop offset="0" stop-color="#E5E5E5"/><stop offset=".17" stop-color="#E2E2E2"/><stop offset=".306" stop-color="#D8D8D8"/><stop offset=".431" stop-color="#C7C7C7"/><stop offset=".548" stop-color="#B0B0B0"/><stop offset=".661" stop-color="#919191"/><stop offset=".771" stop-color="#6B6B6B"/><stop offset=".877" stop-color="#3E3E3E"/><stop offset=".979" stop-color="#0C0C0C"/><stop offset="1" stop-color="#000"/></linearGradient><path fill="url(#XMLID_4_)" fill-rule="evenodd" d="M449.604,449.28l-25.344-25.381 c-0.828,0.828-1.801,1.656-2.771,2.341c-1.08,0.647-2.088,1.296-3.168,1.8c-1.117,0.396-2.125,0.72-3.313,0.972 c-1.225,0.18-2.52,0.288-3.889,0.324l-369.396-0.18l1.908,0.18c-1.368-0.036-2.7-0.145-3.852-0.324 c-1.296-0.252-2.268-0.576-3.348-0.972c-1.188-0.504-2.196-1.152-3.168-1.8c-1.044-0.721-1.908-1.44-2.736-2.305L5.148,449.28 c0.576,0.647,1.332,1.367,2.268,2.016c0.792,0.612,2.016,1.296,3.276,1.908c1.296,0.468,2.916,1.044,4.572,1.332 c1.44,0.144,2.952,0.144,4.68,0.144c1.692-0.036,3.816-0.036,5.976,0h402.912c2.123-0.036,4.248-0.036,5.977,0 c1.654,0,3.168,0,4.68-0.144c1.584-0.252,3.168-0.937,4.607-1.368c1.225-0.648,2.305-1.224,3.24-1.872 C448.236,450.647,448.992,449.928,449.604,449.28z" clip-rule="evenodd"/><g><path fill="#7F7F7F" fill-rule="evenodd" d="M373.656,215.26h15.949v131.544h-15.949 V215.26z" clip-rule="evenodd"/><path fill="#7F7F7F" fill-rule="evenodd" d="M381.686,156.972 c18.4,0,33.336,14.935,33.336,33.336c0,18.402-14.936,33.336-33.336,33.336c-18.402,0-33.336-14.935-33.336-33.336 C348.35,171.907,363.283,156.972,381.686,156.972" clip-rule="evenodd"/><path fill="gray" fill-rule="evenodd" d="M68.557,285.389l-24.984-13.141 l0.324-16.309l3.023-2.807l-0.287-88.309c0-3.204,0.504-5.868,1.512-8.532c0.899-2.7,2.375-5.112,4.572-7.092 c2.051-1.944,1.332-2.556,8.531-4.608c7.309-2.232,19.26-4.752,34.74-8.136c15.408-3.492,40.176-9.036,56.951-12.06 c16.633-3.132,28.117-4.644,42.625-6.048c14.508-1.44,28.764-2.268,43.884-2.484c14.939-0.252,32.58-0.288,45.684,0.72 c13.104,0.828,24.84,2.232,32.291,4.608c7.236,2.268,7.885,5.004,11.27,9.576c3.24,4.536,6.768,3.924,8.496,17.748 c1.619,13.824,1.295,42.084,1.547,64.512c0.18,22.356,0.072,44.964-0.324,68.796l3.672,5.688l-0.611,24.84l-46.908,1.766 c-1.656,4.428-3.637,7.92-6.084,10.619c-2.484,2.664-4.859,4.717-8.531,5.328c-3.781,0.469-10.152,0.359-13.717-2.125 c-3.637-2.555-6.229-6.768-7.92-12.779l-68.832,4.248l-28.332-7.057c-2.916,5.076-5.725,7.885-8.82,8.857 c-3.096,0.791-7.02-0.721-9.432-3.564c-2.521-2.844-4.356-7.381-5.508-13.465l-54.217-15.588 c-1.476,3.492-3.06,5.617-5.148,6.373c-2.051,0.684-5.508-0.576-7.02-2.125C69.348,291.148,68.665,288.809,68.557,285.389z" clip-rule="evenodd"/><path fill="#17057A" fill-rule="evenodd" d="M63.949,280.637L39,267.496l0.288-16.309 l3.06-2.844l-0.323-88.308h-0.001c0-3.06,0.505-5.94,1.513-8.496c0.899-2.7,2.376-5.112,4.572-7.092 c2.052-1.944,1.331-2.556,8.532-4.608c7.308-2.196,19.26-4.824,34.74-8.172c15.407-3.492,40.176-9.036,56.951-12.06 c16.633-3.06,28.08-4.608,42.66-6.012c14.473-1.44,28.764-2.268,43.847-2.484c14.941-0.252,32.58-0.288,45.686,0.72 c13.104,0.828,24.84,2.232,32.291,4.608c7.236,2.268,7.885,5.004,11.268,9.576c3.313,4.536,6.805,3.96,8.533,17.712 c1.619,13.932,1.295,41.976,1.512,64.548c0.215,22.356,0.072,44.964-0.289,68.796l3.637,5.688l-0.611,24.805l-46.908,1.764 c-1.656,4.393-3.637,7.992-6.084,10.656c-2.484,2.664-4.861,4.717-8.533,5.328c-3.779,0.469-10.15,0.359-13.715-2.125 c-3.637-2.555-6.229-6.768-7.92-12.779l-68.833,4.248l-28.332-7.092c-2.916,4.969-5.724,7.92-8.819,8.855 c-3.097,0.9-7.021-0.791-9.433-3.527c-2.521-2.881-4.356-7.271-5.508-13.465l-54.216-15.623 c-1.477,3.564-3.061,5.652-5.148,6.408c-2.052,0.684-5.508-0.576-7.02-2.125C64.741,286.396,64.057,284.057,63.949,280.637z" clip-rule="evenodd"/><path fill="#3D258E" fill-rule="evenodd" d="M196.465,115.36 c-18.828,2.7-37.801,5.796-57.744,9.432c-20.088,3.636-46.549,9.036-61.057,12.312c-14.4,3.132-19.367,3.564-24.624,6.588 c-5.364,2.952-7.596,6.624-7.092,11.16c21.132-2.772,42.3-5.328,64.476-7.956c22.176-2.664,44.137-5.148,67.284-7.596 c1.188-5.328,3.42-10.044,6.552-14.004C187.428,121.192,191.352,118.06,196.465,115.36z" clip-rule="evenodd"/><path fill="#3D258E" fill-rule="evenodd" d="M181.237,140.56 c0.324-2.484,1.439-5.256,3.348-8.172c1.801-3.168,4.393-6.876,7.92-9.576c3.492-2.664,6.192-4.572,13.104-6.012 c6.876-1.404,16.812-2.196,28.008-2.52c11.16-0.504,26.963-0.18,38.375,0c11.34,0.108,21.168-0.504,28.945,1.08 c7.559,1.512,12.023,3.816,16.451,8.172c4.32,4.356,7.416,10.116,9.432,17.712c-22.535,0.54-45.287,0.828-69.768,0.72 C232.5,141.856,207.733,141.388,181.237,140.56z" clip-rule="evenodd"/><path fill="#3D258E" fill-rule="evenodd" d="M181.848,145.168l0.289,80.136l148.031-0.36 l-0.898-78.372L181.848,145.168z" clip-rule="evenodd"/><path fill="#3D258E" fill-rule="evenodd" d="M204.565,244.092 c4.371,0,7.92,4.129,7.92,9.217s-3.549,9.215-7.92,9.215c-4.372,0-7.92-4.127-7.92-9.215S200.193,244.092,204.565,244.092" clip-rule="evenodd"/><path fill="#3D258E" fill-rule="evenodd" d="M222.565,244.453 c4.352,0,7.884,4.129,7.884,9.215c0,5.088-3.533,9.217-7.884,9.217s-7.885-4.129-7.885-9.217 C214.68,248.582,218.213,244.453,222.565,244.453" clip-rule="evenodd"/><path fill="#3D258E" fill-rule="evenodd" d="M304.885,243.096 c4.033,0,7.309,3.822,7.309,8.533c0,4.709-3.275,8.531-7.309,8.531s-7.309-3.822-7.309-8.531 C297.576,246.918,300.852,243.096,304.885,243.096" clip-rule="evenodd"/><path fill="#3D258E" fill-rule="evenodd" d="M321.084,243.096 c4.035,0,7.309,3.822,7.309,8.533c0,4.709-3.273,8.531-7.309,8.531c-4.033,0-7.307-3.822-7.307-8.531 C313.777,246.918,317.051,243.096,321.084,243.096" clip-rule="evenodd"/><path fill="#3D258E" fill-rule="evenodd" d="M181.848,229.192l0.289,11.341 l148.031-0.037l-0.898-11.088L181.848,229.192z" clip-rule="evenodd"/><path fill="#3D258E" fill-rule="evenodd" d="M181.848,263.969l0.289,20.555 l148.031-0.107l-0.898-20.088L181.848,263.969z" clip-rule="evenodd"/><path fill="#3D258E" fill-rule="evenodd" d="M126.697,148.696v54.612l25.272,1.764v-58.5 L126.697,148.696z" clip-rule="evenodd"/><path fill="#3D258E" fill-rule="evenodd" d="M98.401,152.26v49.284l24.048,1.044v-52.812 L98.401,152.26z" clip-rule="evenodd"/><path fill="#3D258E" fill-rule="evenodd" d="M71.725,156.004l0.576,44.172l19.979,0.288 l0.468-46.98L71.725,156.004z" clip-rule="evenodd"/><path fill="#3D258E" fill-rule="evenodd" d="M45.661,158.74v40.428l20.124,0.252v-42.228 L45.661,158.74z" clip-rule="evenodd"/><path fill="#3D258E" fill-rule="evenodd" d="M46.596,203.668l106.021,5.688l0.288,20.556 l-106.309-9.936V203.668z" clip-rule="evenodd"/><path fill="#3D258E" fill-rule="evenodd" d="M46.596,225.304v42.551l14.617,7.813h-0.001 c-0.936-12.023-0.936-20.916,0-26.963c0.937-6.014,3.312-7.74,5.472-9.217c2.017-1.764,4.537-2.809,6.732-0.359 c2.053,2.52,5.004,8.387,6.084,15.264c1.008,6.805,1.008,15.012,0,25.164l53.28,16.309 c-1.765-10.766-2.017-19.369-0.899-26.244c1.079-6.949,4.787-12.709,7.631-14.904c2.809-2.16,6.769-0.396,9.108,1.799 c2.196,2.053,3.853,5.545,4.572,10.621v-30.492C117.661,232.865,82.128,229.084,46.596,225.304z" clip-rule="evenodd"/><path fill="#3D258E" fill-rule="evenodd" d="M157.153,145.853l20.124-1.764v163.476 l-19.8-6.012L157.153,145.853z" clip-rule="evenodd"/><path fill="#483093" fill-rule="evenodd" d="M184.081,148.948h61.884 c-7.164,1.548-11.844,4.176-14.328,7.74c-2.412,3.564,3.527,11.232-0.504,13.716c-4.248,2.376-21.132-2.484-24.552,0.576 c-3.348,2.988,7.74,12.132,4.104,17.28c-3.852,5.04-12.527,9.36-26.604,13.104 C184.081,183.904,184.081,166.444,184.081,148.948z" clip-rule="evenodd"/><path fill="#483093" fill-rule="evenodd" d="M252.084,119.176 c6.805,0.612,26.785-1.08,36.324,0.612c9.252,1.656,21.277,8.496,19.404,9.54c-2.088,0.936-25.488-3.924-31.176-3.6 c-5.615,0.252,4.32,4.212-2.557,5.364c-7.164,1.116-33.443,2.34-39.383,1.188c-5.833-1.368,4.752-6.66,4.104-8.928 c-0.863-2.376-10.296-3.456-8.713-4.752c1.656-1.404,14.652-3.096,18.434-2.988 C252.049,115.648,245.461,118.457,252.084,119.176z" clip-rule="evenodd"/><path fill="#483093" fill-rule="evenodd" d="M89.977,136.457 c10.151-2.664,33.264-6.66,47.556-8.928c14.185-2.376,31.319-5.58,36.828-4.752c5.184,0.828,0.612,7.704-5.112,9.504 c-5.867,1.656-22.716-1.008-29.16,0.612c-6.371,1.548-2.16,7.488-9.18,8.928c-7.271,1.296-26.352-0.9-33.768-0.612 c-7.381,0.288-6.948,2.016-10.225,2.412c-3.42,0.36-10.224,0.432-9.72-0.612C77.701,141.82,79.825,138.94,89.977,136.457z" clip-rule="evenodd"/><path fill="#17057A" fill-rule="evenodd" d="M370.309,211.912h15.947v131.545h-15.947 V211.912z" clip-rule="evenodd"/><path fill="#3D258E" fill-rule="evenodd" d="M373.117,215.656h10.332v123.119h-10.332 V215.656z" clip-rule="evenodd"/><path fill="#17057A" fill-rule="evenodd" d="M378.324,153.612 c18.402,0,33.336,14.935,33.336,33.336s-14.934,33.336-33.336,33.336c-18.4,0-33.336-14.935-33.336-33.336 S359.924,153.612,378.324,153.612" clip-rule="evenodd"/><path fill="#3D258E" fill-rule="evenodd" d="M378.205,157.62 c16.256,0,29.447,13.193,29.447,29.448s-13.191,29.448-29.447,29.448s-29.449-13.192-29.449-29.448 S361.949,157.62,378.205,157.62" clip-rule="evenodd"/></g></g></g></switch></svg>