<svg xmlns="http://www.w3.org/2000/svg" xmlns:xlink="http://www.w3.org/1999/xlink" id="svg548" width="400pt" height="400pt"><metadata><rdf:RDF xmlns:cc="http://web.resource.org/cc/" xmlns:dc="http://purl.org/dc/elements/1.1/" xmlns:rdf="http://www.w3.org/1999/02/22-rdf-syntax-ns#"><cc:Work><dc:title>Clipart by Nicu Buculei - fc23</dc:title><dc:description/><dc:subject><rdf:Bag><rdf:li>flowchart</rdf:li><rdf:li/><rdf:li>shape</rdf:li></rdf:Bag></dc:subject><dc:publisher><cc:Agent rdf:about="http://www.openclipart.org"><dc:title>Nicu Buculei</dc:title></cc:Agent></dc:publisher><dc:creator><cc:Agent><dc:title>Nicu Buculei</dc:title></cc:Agent></dc:creator><dc:rights><cc:Agent><dc:title>Nicu Buculei</dc:title></cc:Agent></dc:rights><dc:date/><dc:format>image/svg+xml</dc:format><dc:type rdf:resource="http://purl.org/dc/dcmitype/StillImage"/><cc:license rdf:resource="http://web.resource.org/cc/PublicDomain"/><dc:language>en</dc:language></cc:Work><cc:License rdf:about="http://web.resource.org/cc/PublicDomain"><cc:permits rdf:resource="http://web.resource.org/cc/Reproduction"/><cc:permits rdf:resource="http://web.resource.org/cc/Distribution"/><cc:permits rdf:resource="http://web.resource.org/cc/DerivativeWorks"/></cc:License></rdf:RDF></metadata><g id="g827"><path id="path1610" fill="#000" fill-opacity=".25" fill-rule="evenodd" stroke="none" stroke-dasharray="none" stroke-linecap="butt" stroke-linejoin="miter" stroke-opacity="1" stroke-width="3.75" d="M 67.803530,286.96041 L 65.855530,65.860213 L 475.91233,66.834213 L 473.96433,434.03541 C 473.96433,434.03541 350.26553,527.53941 281.11053,432.08741 C 211.95653,336.63441 198.32053,336.63441 173.97053,325.92041 C 149.62053,315.20641 67.803530,287.93441 67.803530,286.96041 z"/><path id="path617" fill="#fff" fill-opacity="1" fill-rule="evenodd" stroke="#000" stroke-dasharray="none" stroke-linecap="butt" stroke-linejoin="round" stroke-opacity="1" stroke-width="10" d="M 442.199 260.395 L 444.147 39.2948 L 34.0902 40.2688 L 36.0382 407.47 C 36.0382 407.47 159.737 500.974 228.892 405.522 C 298.046 310.069 311.682 310.069 336.032 299.355 C 360.382 288.641 442.199 261.369 442.199 260.395 z" transform="matrix(-1.000000,0.000000,0.000000,1.000000,493.8213,8.766060)"/></g></svg>