<svg xmlns="http://www.w3.org/2000/svg" xmlns:xlink="http://www.w3.org/1999/xlink" id="svg665" width="1133.854" height="200mm"><rect id="rect560" width="1062.992" height="708.661" x="0" y=".001" fill="#fff" fill-opacity="1" fill-rule="evenodd" stroke-width="1pt" font-size="12"/><rect id="rect668" width="322.195" height="322.207" x="0" y="-.115" fill="#006" fill-opacity="1" fill-rule="evenodd" stroke-width="1pt" font-size="12"/><rect id="rect669" width="1063.018" height="65.239" x="0" y="643.423" fill="#c00" fill-opacity="1" fill-rule="evenodd" stroke-width="1pt" font-size="12"/><rect id="rect670" width="1063.018" height="64.473" x="0" y="644.189" fill="#c00" fill-opacity="1" fill-rule="evenodd" stroke-width="1pt" font-size="12"/><rect id="rect672" width="1063.018" height="63.97" x="3.341" y="515.58" fill="#c00" fill-opacity="1" fill-rule="evenodd" stroke-width="1pt" font-size="12"/><rect id="rect673" width="1060.339" height="64.649" x="3.341" y="386.469" fill="#c00" fill-opacity="1" fill-rule="evenodd" stroke-width="1pt" font-size="12"/><rect id="rect675" width="740.853" height="64.363" x="322.088" y="-.038" fill="#c00" fill-opacity="1" fill-rule="evenodd" stroke-width="1pt" font-size="12"/><rect id="rect676" width="740.853" height="64.781" x="322.088" y="257.458" fill="#c00" fill-opacity="1" fill-rule="evenodd" stroke-width="1pt" font-size="12"/><rect id="rect677" width="740.853" height="64.363" x="322.088" y="129.127" fill="#c00" fill-opacity="1" fill-rule="evenodd" stroke-width="1pt" font-size="12"/><path id="path205" fill="#fff" fill-opacity="1" fill-rule="evenodd" stroke-width=".113" d="M 266.1 534.4 L 255.7 527.0 L 245.4 534.5 L 249.2 522.3 L 238.9 514.7 L 251.7 514.6 L 255.6 502.5 L 259.7 514.6 L 272.5 514.6 L 262.2 522.2 L 266.1 534.4 z" font-size="12" transform="matrix(6.745325,0.000000,0.000000,5.771256,-1565.221,-2838.881)"/></svg>