<svg xmlns="http://www.w3.org/2000/svg" xmlns:xlink="http://www.w3.org/1999/xlink" id="svg548" width="744.094" height="496.063" x="0" y="0" version="1"><g id="g589" font-size="12" transform="matrix(4.133858,0.000000,0.000000,4.133858,0.000000,-1.525879e-5)"><rect id="rect583" width="180" height="120" x="0" y="0" fill="#09f" fill-rule="evenodd" stroke-width="1pt"/><path id="path584" fill="#090" fill-rule="evenodd" stroke-width="1pt" d="M 0 7.1e-15 L 180 7.1e-15 L 0 120 L 0 7.1e-15 z"/><path id="path586" fill-rule="evenodd" stroke-width="1pt" d="M 0 120 L 40 120 L 180 25 L 180 7.1e-15 L 140 7.1e-15 L 0 95 L 0 120 z"/><path id="path587" fill="#ff0" fill-rule="evenodd" stroke-width="1pt" d="M 0 91.4 L 137.1 7.1e-15 L 150.7 7.1e-15 L 0 100.4 L 0 91.4 z"/><path id="path588" fill="#ff0" fill-rule="evenodd" stroke-width="1pt" d="M -0.7 95.4 L 150 -4.9 L 150 4.0 L 12.8 95.4 L -0.7 95.4 z" transform="translate(30.00000,24.53000)"/></g></svg>