<svg xmlns="http://www.w3.org/2000/svg" xmlns:xlink="http://www.w3.org/1999/xlink" id="svg378" width="1062.99" height="708.661" x="0" y="0" version="1"><rect id="rect171" width="1062.99" height="708.661" x="0" y="0" fill="#660057" fill-opacity="1" fill-rule="evenodd" stroke-width="1pt" font-size="12"/><path id="path193" fill="#fff" fill-rule="evenodd" stroke-width="1pt" d="M 216.6 708.3 L 0 708.6 L 0 -2.4e-14 L 215.6 0.1 L 354.7 44.8 L 216.6 88.4 L 216.6 88.4 L 354.7 133.4 L 216.6 177.0 L 216.6 177.0 L 354.7 222.0 L 216.6 265.6 L 216.6 265.6 L 354.7 310.6 L 216.6 354.2 L 216.6 354.2 L 354.7 399.1 L 216.6 442.8 L 216.6 442.8 L 354.7 487.7 L 216.6 531.3 L 216.6 531.3 L 354.7 576.3 L 216.6 619.9 L 216.6 619.9 L 354.7 664.9 L 216.6 708.5" font-size="12"/></svg>