<svg xmlns="http://www.w3.org/2000/svg" xmlns:xlink="http://www.w3.org/1999/xlink" id="svg378" width="1062.99" height="708.661" x="0" y="0" version="1"><rect id="rect149" width="1062.99" height="708.661" x="0" y="0" fill="#fff" fill-rule="evenodd" stroke-width="1pt" font-size="12"/><rect id="rect148" width="1062.99" height="354.331" x="0" y="0" fill="#df0000" fill-rule="evenodd" stroke-width="1pt" font-size="12"/><path id="path141" fill="#fff" fill-rule="evenodd" stroke-width=".524" d="M 263.3 473.6 C 240.2 478.9 222.9 496.1 218.1 519.4 C 211.4 551.1 232.1 582.2 263.9 588.8 C 231.8 597.9 198.6 579.5 189.5 547.7 C 180.5 515.9 198.9 482.7 230.7 473.6 C 241.9 470.5 252.2 470.4 263.3 473.6 z" font-size="12" transform="matrix(2.11676,0,0,2.11676,-312.396,-943.158)"/><polygon id="polygon142" fill="#fff" fill-rule="evenodd" stroke-width=".524" points="266.186 534.45 255.778 527.018 245.421 534.523 249.273 522.327 238.935 514.796 251.725 514.691 255.692 502.532 259.744 514.663 272.534 514.679 262.249 522.281 266.186 534.45" font-size="12" transform="matrix(1.83411,0,0,1.83411,-255.129,-795.563)"/><polygon id="polygon144" fill="#fff" fill-rule="evenodd" stroke-width=".524" points="266.186 534.45 255.778 527.018 245.421 534.523 249.273 522.327 238.935 514.796 251.725 514.691 255.692 502.532 259.744 514.663 272.534 514.679 262.249 522.281 266.186 534.45" font-size="12" transform="matrix(1.83411,0,0,1.83411,-229.205,-718.704)"/><polygon id="polygon145" fill="#fff" fill-rule="evenodd" stroke-width=".524" points="266.186 534.45 255.778 527.018 245.421 534.523 249.273 522.327 238.935 514.796 251.725 514.691 255.692 502.532 259.744 514.663 272.534 514.679 262.249 522.281 266.186 534.45" font-size="12" transform="matrix(1.83411,0,0,1.83411,-142.945,-719.269)"/><polygon id="polygon146" fill="#fff" fill-rule="evenodd" stroke-width=".524" points="266.186 534.45 255.778 527.018 245.421 534.523 249.273 522.327 238.935 514.796 251.725 514.691 255.692 502.532 259.744 514.663 272.534 514.679 262.249 522.281 266.186 534.45" font-size="12" transform="matrix(1.83411,0,0,1.83411,-117.224,-795.502)"/><polygon id="polygon147" fill="#fff" fill-rule="evenodd" stroke-width=".524" points="266.186 534.45 255.778 527.018 245.421 534.523 249.273 522.327 238.935 514.796 251.725 514.691 255.692 502.532 259.744 514.663 272.534 514.679 262.249 522.281 266.186 534.45" font-size="12" transform="matrix(1.83411,0,0,1.83411,-185.512,-846.078)"/></svg>