<svg xmlns="http://www.w3.org/2000/svg" xmlns:xlink="http://www.w3.org/1999/xlink" id="svg548" width="210mm" height="140mm"><rect id="rect552" width="744.13" height="496.093" x=".042" y=".052" fill="#fff" fill-opacity="1" fill-rule="evenodd" stroke-width="1pt" font-size="12"/><path id="path554" fill="#930" fill-opacity="1" fill-rule="evenodd" stroke="#930" stroke-linecap="butt" stroke-linejoin="miter" stroke-opacity="1" stroke-width="1pt" d="M 0.6 442.3 L 298.7 249.8 L 0.6 55.4 C 0.6 55.4 1.2 1.0 0.9 0.7 C 0.6 0.4 58.4 0.7 58.4 0.7 L 372.5 200.4 L 685.6 0.7 L 744.3 0.7 L 745.3 55.4 C 745.3 55.4 445.0 247.9 445.3 247.9 C 445.6 247.9 744.6 436.0 744.6 436.0 C 744.6 436.0 744.6 497 744.6 496.6 C 744.6 496.3 681.8 496.6 681.8 496.6 L 373.1 295.4 L 57.3 496.2 L 0.1 496.2 L 0.7 442.3"/></svg>