<svg xmlns="http://www.w3.org/2000/svg" xmlns:xlink="http://www.w3.org/1999/xlink" id="svg661" width="210mm" height="140mm"><rect id="rect568" width="744.094" height="496.063" x="0" y="0" fill="#fff" fill-rule="evenodd" stroke-width="1pt" font-size="12"/><rect id="rect584" width="496.063" height="110.236" x="63.692" y="173.52" fill="#192f5d" fill-rule="evenodd" stroke-width="1pt" font-size="12" transform="matrix(1.500000,0.000000,0.000000,1.500053,-95.53807,70.41378)"/><rect id="rect556" width="496.063" height="110.236" x="21.639" y="13.137" fill="#192f5d" fill-rule="evenodd" stroke-width="1pt" font-size="12" transform="matrix(1.500000,0.000000,0.000000,1.500053,-32.45842,-19.70667)"/><path id="path559" fill="#bd3d44" fill-rule="evenodd" stroke-width="1pt" d="M 408.8,167.7 A 52.0,52.0 0 1 1 407.3,108.9 L 365.2,139.4 z" font-size="12" transform="matrix(3.175298,8.203826e-2,-8.204342e-2,3.175410,-834.0459,-224.6716)"/><path id="path562" fill="#fff500" fill-rule="evenodd" stroke-width="1pt" d="M 165.8 203.3 A 57.0 57.0 0 1 0 51.8,203.3 A 57.0 57.0 0 1 0 165.8 203.3 L 108.8 203.3 z" font-size="12" transform="matrix(1.450233,0.000000,0.000000,1.450284,156.3255,-46.87440)"/></svg>