<svg xmlns="http://www.w3.org/2000/svg" xmlns:xlink="http://www.w3.org/1999/xlink" id="svg548" width="400pt" height="400pt"><metadata><rdf:RDF xmlns:cc="http://web.resource.org/cc/" xmlns:dc="http://purl.org/dc/elements/1.1/" xmlns:rdf="http://www.w3.org/1999/02/22-rdf-syntax-ns#"><cc:Work><dc:title>Clipart by Nicu Buculei - book_01</dc:title><dc:description/><dc:subject><rdf:Bag><rdf:li>office</rdf:li><rdf:li/></rdf:Bag></dc:subject><dc:publisher><cc:Agent rdf:about="http://www.openclipart.org"><dc:title>Nicu Buculei</dc:title></cc:Agent></dc:publisher><dc:creator><cc:Agent><dc:title>Nicu Buculei</dc:title></cc:Agent></dc:creator><dc:rights><cc:Agent><dc:title>Nicu Buculei</dc:title></cc:Agent></dc:rights><dc:date/><dc:format>image/svg+xml</dc:format><dc:type rdf:resource="http://purl.org/dc/dcmitype/StillImage"/><cc:license rdf:resource="http://web.resource.org/cc/PublicDomain"/><dc:language>en</dc:language></cc:Work><cc:License rdf:about="http://web.resource.org/cc/PublicDomain"><cc:permits rdf:resource="http://web.resource.org/cc/Reproduction"/><cc:permits rdf:resource="http://web.resource.org/cc/Distribution"/><cc:permits rdf:resource="http://web.resource.org/cc/DerivativeWorks"/></cc:License></rdf:RDF></metadata><g id="g832"><path id="path588" fill="#fff" fill-rule="evenodd" stroke="#000" stroke-dasharray="none" stroke-linejoin="round" stroke-opacity="1" stroke-width="10" d="M 98.359 20.9239 L 96.6631 472.866 C 96.6631 472.866 429.897 476.258 429.049 476.258 C 428.201 476.258 430.744 76.8868 433.288 79.4305 C 433.288 80.2784 364.607 20.076 364.607 20.076 L 98.359 20.9239 z"/><path id="path589" fill="#eeebff" fill-rule="evenodd" stroke="#000" stroke-dasharray="none" stroke-linejoin="round" stroke-opacity="1" stroke-width="10" d="M 369.695 22.6197 L 368.846 81.9743 L 437.527 81.9743 C 440.919 76.8867 373.086 24.3156 369.695 22.6197 z" transform="translate(-5.087504,-1.695824)"/><path id="path800" fill="#92ffff" fill-opacity=".247" fill-rule="evenodd" stroke="none" stroke-dasharray="none" stroke-linejoin="round" stroke-opacity="1" stroke-width="10" d="M 147.76647,467.18188 C 147.76647,467.18188 408.84247,470.34648 416.75387,464.01738 C 424.66517,457.68818 418.33607,240.91608 421.50057,225.09328 C 405.67787,362.75148 454.72847,484.58688 147.76647,467.18188 z"/></g></svg>