<svg xmlns="http://www.w3.org/2000/svg" xmlns:cc="http://web.resource.org/cc/" xmlns:xlink="http://www.w3.org/1999/xlink" id="svg1" width="793.333" height="778.667"><metadata/><defs id="defs3"><linearGradient id="linearGradient1545"><stop id="stop1546" offset="0" stop-color="#fff" stop-opacity="1"/><stop id="stop1547" offset="1" stop-color="#fff" stop-opacity="0"/></linearGradient><linearGradient id="linearGradient1541"><stop id="stop1542" offset="0" stop-color="#000" stop-opacity="1"/><stop id="stop1543" offset="1" stop-color="#fff" stop-opacity="1"/></linearGradient><radialGradient id="radialGradient1544" cx=".358" cy=".336" r=".755" fx=".358" fy=".336" spreadMethod="reflect" xlink:href="#linearGradient1545"/><radialGradient id="radialGradient1691" cx=".288" cy=".18" r=".5" fx=".288" fy=".18" xlink:href="#linearGradient1545"/><radialGradient id="radialGradient1696" cx=".371" cy=".188" r=".5" fx=".371" fy=".188" xlink:href="#linearGradient1545"/></defs><text id="text1636" x="6.96" y="-22.576" fill="#000" fill-opacity="1" stroke="none" stroke-linecap="butt" stroke-linejoin="miter" stroke-opacity="1" stroke-width="1.333" font-family="Sans" font-size="12" font-stretch="normal" font-style="normal" font-variant="normal" font-weight="normal" text-anchor="start" writing-mode="lr" xml:space="preserve"><tspan id="tspan1637">author: sergio rivera</tspan></text><g id="g1749"><path id="path914" fill="#ffa100" fill-opacity=".994" fill-rule="evenodd" stroke="#000" stroke-dasharray="8.986 4.493 2.246 4.493" stroke-dashoffset="0" stroke-linecap="butt" stroke-linejoin="miter" stroke-miterlimit="4" stroke-opacity="1" stroke-width="4.493" d="M 430.80406,217.98225 L 302.78044,334.37084 L 332.77467,516.44333 L 166.82642,435.75118 L 2.9339187,520.54089 L 28.395885,337.77948 L -102.88949,219.61224 L 78.795123,219.85162 L 161.54880,55.919385 L 248.37410,217.74497 L 430.80406,217.98225 z" transform="matrix(0.671459,0.000000,0.000000,0.714761,258.9105,143.6694)"/><path id="path1690" fill="url(#radialGradient1691)" fill-opacity="1" fill-rule="evenodd" stroke="none" stroke-linecap="butt" stroke-linejoin="miter" stroke-miterlimit="4" stroke-opacity="1" stroke-width="3.112" d="M 548.17776,299.47461 L 462.21515,382.66464 L 417.35505,422.80295 L 370.92760,422.62735 L 285.88051,440.73173 L 277.97717,385.10100 L 189.82443,300.63966 L 311.81819,300.81076 L 367.38390,183.63840 L 425.68352,299.30501 L 548.17776,299.47461 z"/><path id="path1538" fill="#ffc500" fill-opacity="1" fill-rule="evenodd" stroke="#000" stroke-linecap="butt" stroke-linejoin="miter" stroke-opacity="1" stroke-width=".749" d="M 891.59065,313.41946 L 820.78241,377.77559 L 837.37184,481.57028 L 745.58798,435.56983 L 654.94112,483.90619 L 669.02381,379.71876 L 596.41154,314.34868 L 696.89899,314.48514 L 742.66899,219.03780 L 790.69096,313.28420 L 891.59065,313.41946 z" transform="translate(-375.0000,0.000000)"/><path id="path1695" fill="url(#radialGradient1696)" fill-opacity="1" fill-rule="evenodd" stroke="#000" stroke-dasharray="5.6 .7" stroke-dashoffset="0" stroke-linecap="butt" stroke-linejoin="miter" stroke-miterlimit="4" stroke-opacity="1" stroke-width=".7" d="M 891.59065,313.41946 L 820.78241,377.77559 L 837.37184,481.57028 L 745.58798,435.56983 L 654.94112,483.90619 L 669.02381,379.71876 L 596.41154,314.34868 L 696.89899,314.48514 L 742.66899,219.03780 L 790.69096,313.28420 L 891.59065,313.41946 z" transform="translate(-375.0000,0.000000)"/><g id="g1686"><path id="path1539" fill="#ffe500" fill-opacity=".75" fill-rule="evenodd" stroke="#000" stroke-linecap="butt" stroke-linejoin="miter" stroke-opacity="1" stroke-width="1.081" d="M 484.92956,323.84266 L 429.31119,374.79872 L 442.34183,456.98156 L 370.24755,420.55920 L 299.04638,458.83109 L 310.10803,376.33729 L 253.07263,324.57840 L 332.00339,324.68645 L 367.95476,249.11290 L 405.67499,323.73556 L 484.92956,323.84266 z"/><path id="path1540" fill="url(#radialGradient1544)" fill-opacity="1" fill-rule="evenodd" stroke="none" stroke-linecap="butt" stroke-linejoin="miter" stroke-opacity="1" stroke-width="1.081" d="M 464.46971,325.35821 L 429.31119,374.79872 L 373.60485,384.82115 L 310.38661,372.54843 L 253.07263,324.57840 L 332.00339,324.68645 L 367.95476,249.11290 L 405.67499,323.73556 L 464.46971,325.35821 z"/></g></g></svg>