<svg xmlns="http://www.w3.org/2000/svg" xmlns:xlink="http://www.w3.org/1999/xlink" id="svg378" width="1062.99" height="708.661" x="0" y="0" version="1"><metadata><rdf:RDF xmlns:cc="http://web.resource.org/cc/" xmlns:dc="http://purl.org/dc/elements/1.1/" xmlns:rdf="http://www.w3.org/1999/02/22-rdf-syntax-ns#"><cc:Work><dc:title>Bahrain</dc:title><dc:description/><dc:subject><rdf:Bag><rdf:li/><rdf:li>asia</rdf:li><rdf:li>united_nations_member</rdf:li><rdf:li>flag</rdf:li><rdf:li>arab</rdf:li><rdf:li>sign</rdf:li></rdf:Bag></dc:subject><dc:publisher><cc:Agent rdf:about="http://www.openclipart.org"><dc:title>Lauris Kaplinski</dc:title></cc:Agent></dc:publisher><dc:creator><cc:Agent><dc:title>Lauris Kaplinski</dc:title></cc:Agent></dc:creator><dc:rights><cc:Agent><dc:title>Lauris Kaplinski</dc:title></cc:Agent></dc:rights><dc:date/><dc:format>image/svg+xml</dc:format><dc:type rdf:resource="http://purl.org/dc/dcmitype/StillImage"/><cc:license rdf:resource="http://web.resource.org/cc/PublicDomain"/><dc:language>en</dc:language></cc:Work><cc:License rdf:about="http://web.resource.org/cc/PublicDomain"><cc:permits rdf:resource="http://web.resource.org/cc/Reproduction"/><cc:permits rdf:resource="http://web.resource.org/cc/Distribution"/><cc:permits rdf:resource="http://web.resource.org/cc/DerivativeWorks"/></cc:License></rdf:RDF></metadata><rect id="rect171" width="1062.99" height="708.661" x="0" y="0" fill="#e10011" fill-rule="evenodd" stroke-width="1pt" font-size="12"/><path id="path193" fill="#fff" fill-rule="evenodd" stroke-width="1pt" d="M 216.658 708.323 L 0 708.661 L 0 -2.43694e-14 L 215.645 0.112762 L 354.782 44.8555 L 216.661 88.4698 L 216.661 88.4698 L 354.782 133.438 L 216.661 177.053 L 216.661 177.053 L 354.782 222.021 L 216.661 265.635 L 216.661 265.635 L 354.782 310.603 L 216.661 354.218 L 216.661 354.218 L 354.782 399.187 L 216.661 442.801 L 216.661 442.801 L 354.782 487.77 L 216.661 531.384 L 216.661 531.384 L 354.782 576.352 L 216.661 619.967 L 216.661 619.967 L 354.782 664.935 L 216.661 708.55" font-size="12"/></svg>