<svg xmlns="http://www.w3.org/2000/svg" xmlns:xlink="http://www.w3.org/1999/xlink" width="361.445" height="386.886" enable-background="new 0 0 361.445 386.886" overflow="visible" space="preserve" viewBox="0 0 361.445 386.886"><switch><g><g id="Handbag"><path id="Bananas" fill="#FFDE76" d="M163.5,321.4c-0.2-0.2-4.7-1.1-6.7-1.3 c-0.9-0.0-2.8-0.5-4.1-0.9c-1.3-0.4-3.1-0.9-3.9-1.0c-0.8-0.1-1.8-0.6-2.1-1.0 c-0.3-0.3-0.8-0.6-1.1-0.6c-0.3,0-1.0-0.4-1.5-1.0c-0.9-1.0-0.9-1.0,0.2-2.0 c3.7-3.0,6.5-5.7,7.5-7.4c0.6-1.0,1.6-2.5,2.3-3.2c0.6-0.6,1.5-1.9,2.0-2.8 c0.9-1.5,0.9-1.6,0-1.2c-9.0,3.6-19.2,4.5-27.0,2.2c-1.7-0.5-3.4-0.9-3.7-0.9 c-0.2,0-1.1-0.2-1.9-0.5c-0.7-0.2-1.4-0.5-1.6-0.5c-0.1-0.0-1.5-0.6-3.1-1.4 c-1.6-0.7-3.1-1.3-3.4-1.3s-1.1-0.5-1.9-1.2c-0.7-0.6-1.6-1.2-1.8-1.2 c-0.2,0-0.4-0.2-0.4-0.4s-0.3-0.8-0.8-1.3c-0.4-0.4-1.2-1.6-1.8-2.5 c-2.3-3.9-3.0-5.3-2.8-5.3c0.1,0-0.2-0.6-0.7-1.4c-0.5-0.7-0.9-1.6-0.9-1.8 c0.0-0.2-0.0-0.9-0.2-1.5c-0.2-0.6-0.1-1.3,0.1-1.7c0.4-0.4,0.4-0.7-0.0-0.8 c-0.3-0.1-0.2-0.4,0.2-1.0c0.7-0.7,1.3-0.8,3.6-0.6c7.9,0.7,9.4,0.7,12.4,0.0 c1.6-0.4,3.8-0.7,4.7-0.7c0.9,0.0,2.5-0.1,3.6-0.4c1.7-0.4,6.2-1.4,8.0-1.6 c0.4-0.0,1.7-0.7,3.0-1.4c1.2-0.7,3.3-1.5,4.5-1.8c1.2-0.2,2.7-0.7,3.4-1.1 c0.7-0.3,1.8-0.9,2.5-1.2c1.6-0.7,5.6-2.7,13.9-6.9c5.8-2.9,12.3-7.2,16.1-10.6 c0.5-0.4,1.1-0.7,1.2-0.6c0.1,0.1,0.5-0.2,0.8-0.8c0.6-1.1,5.0-4.7,5.8-4.7 c0.2,0,0.5-0.1,0.6-0.4c0.1-0.3,5.0-4.9,9.5-8.9c1.1-0.9,2.0-1.9,2.0-2.1 c0.0-0.2,0.9-1.3,2.1-2.5c1.1-1.2,2.1-2.3,2.1-2.5c0-0.1,1.4-1.5,3.1-3.0 c2.6-2.3,3.6-2.8,6.4-3.5c1.8-0.4,3.4-0.9,3.5-1.1c0.1-0.1,1.5-1.1,3.2-2.0 c4.3-2.5,4.4-2.7,2.4-5.3c-1.9-2.5-3.5-6.9-4.1-11.6c-0.3-2.8-0.3-3.8,0.6-7.0l1.0-3.7 l2.1,0.1c1.1,0.0,3.0,0.5,4.1,1.0c1.1,0.4,3.0,1.0,4.2,1.2c1.1,0.1,2.7,0.6,3.3,0.9 c1.4,0.7,11.6,2.5,16.5,2.9c2.0,0.1,6.6,0.3,10.2,0.4c10.8,0.2,11.9,0.7,12.3,5.1 c0.1,1.6,0.0,3.8-0.2,5.1c-0.2,1.1-0.4,2.4-0.2,2.8c0.1,0.3-0.1,1.0-0.6,1.5 c-0.5,0.4-0.9,1.3-0.9,1.8c0,1.2-3.5,5.1-4.6,5.1c-0.4,0-1.2,0.3-1.9,0.7 c-0.7,0.5-2.6,0.8-5.7,0.9c-7.8,0.3-7.7,0.3-7.4,2.5c0.5,3.6,0.8,6.5,0.9,10.5 c0.1,2.4,0.2,5.4,0.3,6.8c0.0,1.3,0.3,2.7,0.6,3.1c0.2,0.4,0.5,1.4,0.6,2.4 c1.0,13.6,0.7,23.4-0.8,28.9c-0.3,1.0-0.4,2.0-0.2,2.2c0.1,0.2,0.0,0.5-0.2,0.7 c-0.2,0.1-0.4,0.8-0.4,1.5c0,0.6-0.2,1.5-0.4,2.0c-1.0,2.0-2.5,6.0-2.2,6.3 c0.1,0.1-0.1,1.0-0.6,2.0c-0.4,0.9-1.3,2.6-1.8,3.6c-1.3,2.8-10.1,12.9-11.3,12.9 c-0.2,0-1.2,1.0-2.3,2.4c-1.0,1.3-2.2,2.4-2.5,2.4c-0.3,0.0-1.4,0.7-2.4,1.6 c-3.2,2.8-6.3,4.6-9.2,5.2c-5.7,1.2-7.1,0.3-6.6-4.1c0.1-1.6,0.5-3.8,0.7-4.9 c0.6-2.5,0.8-4.6,0.3-4.6c-0.1,0-1.5,1.1-3.0,2.5c-6.4,6.2-7.5,7.1-8.0,7.1 c-0.2,0-0.6,0.3-0.7,0.6c-0.2,0.7-4.1,2.7-5.9,3.0c-0.5,0.1-2.2,0.8-3.9,1.5 c-1.6,0.7-4.2,1.6-5.8,1.9c-3.2,0.6-5.9,1.3-7.1,1.9c-0.4,0.2-1.5,0.2-2.3-0.0 c-0.9-0.2-1.8-0.2-2.3-0.0C174.2,321.7,163.9,321.8,163.5,321.4z M174.8,315.2 c1.8-0.6,4.6-1.7,6.2-2.4c1.6-0.6,3.3-1.2,3.9-1.2c1.0-0.0,3.5-1.0,7.5-3.1 c6.8-3.6,8.8-4.6,9.2-4.6c0.2,0,1.7-1.2,3.2-2.6c1.5-1.4,3.0-2.6,3.4-2.6 c0.3,0,0.6-0.3,0.6-0.7s1.2-2.0,2.6-3.7c1.4-1.6,3.1-3.8,3.5-4.7 c2.1-4.0,3.1-5.6,3.7-6.0c0.3-0.2,0.6-1.0,0.6-1.7c0-0.7,0.6-2.3,1.4-3.5 c0.8-1.1,1.4-2.5,1.4-2.9c0.0-0.4,0.7-2.3,1.7-4.2c1.6-3.3,6.8-15.3,7.9-18.3 c0.2-0.8,0.6-2.2,0.8-3.1c0.1-0.9,0.7-2.6,1.3-3.9c0.5-1.2,1.0-2.8,1.1-3.5 c0.1-0.7,0.6-2.5,1.0-3.9c1.1-3.5,1.3-9.0,0.3-9.0c-0.4,0-0.7-0.2-0.7-0.6 c0-0.3-0.5-1.1-1.1-1.7c-1.5-1.4-2.0-3.3-1.1-4.3c0.3-0.4,1.4-2.1,2.3-3.7 c1.9-3.5,3.3-4.7,4.2-4.0c0.4,0.4,0.7,0.3,1.0-0.1c0.3-0.5,1.3-0.6,4.9-0.4 c2.4,0.1,6.9,0.2,9.9,0.2l5.3,0.0l2.3-2.1c1.5-1.4,2.4-2.7,2.8-4.1 c0.2-1.0,0.7-2.6,0.9-3.4c0.5-1.8,0.5-3.0,0.0-3.3c-0.5-0.3-9.1-1.3-13.2-1.4 c-6.8-0.2-13.6-1.2-17.8-2.4c-5.8-1.7-9.3-2.4-10.9-2.2c-1.2,0.1-1.2,0.2-1.1,3.2 c0.2,5.5,0.3,6.0,2.0,8.2c1.6,2.1,1.6,2.1,5.3,2.5c2.9,0.2,3.8,0.5,4.5,1.3 c1.2,1.5,0.4,4.8-1.7,7.5c-4.0,4.9-4.6,5.8-4.6,6.9c0,0.6-0.4,1.7-1.0,2.2 c-1.0,0.9-2.2,3.0-3.5,6.2c-0.3,0.8-0.8,2.0-1.1,2.6c-0.7,1.7-1.9,5.8-2.2,7.9 c-0.1,0.9-0.6,2.1-1.0,2.5c-0.3,0.3-0.7,1.1-0.7,1.6c0,0.5-0.4,1.3-0.9,1.7 c-0.5,0.4-1.0,1.5-1.2,2.3c-0.1,0.8-1.8,3.4-3.7,5.8c-3.8,4.8-5.0,6.6-6.5,9.3 c-0.5,1.0-2.0,3.0-3.4,4.4c-1.3,1.4-2.9,3.1-3.4,3.7c-0.5,0.6-1.8,1.6-2.8,2.3 c-0.9,0.6-2.6,2.0-3.8,3.0c-1.1,1.0-2.3,1.8-2.6,1.8c-0.3,0-0.6,0.2-0.6,0.4 c0,0.2-0.2,0.4-0.6,0.4c-0.3,0.0-1.5,0.6-2.6,1.3c-1.1,0.7-3.7,2.4-5.8,3.7 c-2.0,1.3-4.4,2.9-5.2,3.6c-2.0,1.7-8.4,8.1-11.1,11.0c-1.2,1.3-3.6,3.6-5.3,5.1 c-2.9,2.5-3.1,2.8-2.5,3.9c0.8,1.6,4.0,3.3,6.5,3.4c1.1,0.0,2.7,0.2,3.5,0.4 C170.7,316.5,171.4,316.4,174.8,315.2z M224.3,306.7c2.2-1.4,12.9-12.8,15.2-16.2 c3.3-4.8,6.6-15.7,8.2-27.0c0.6-4.6,0.8-10.9,0.2-10.9c-0.1,0-0.2-2.0-0.2-4.5 c0-4.2-1.0-10.4-1.6-9.8c-0.1,0.1-0.3,0.8-0.4,1.6c-0.0,0.7-0.2,2.0-0.4,3.0 c-0.1,0.9-0.2,2.2-0.2,2.9c-0.0,1.2-2.1,6.1-2.9,6.6c-0.2,0.1-0.3,0.4-0.2,0.7 c0.1,0.2,0.0,0.5-0.2,0.7c-0.2,0.1-0.4,0.8-0.4,1.4c0,0.6-0.3,1.4-0.7,1.7 c-0.4,0.3-0.7,0.8-0.7,1.2c0,0.3-0.4,0.9-0.9,1.4c-0.5,0.4-0.9,1.2-0.9,1.6 c0,0.4-0.3,1.2-0.7,1.7c-0.3,0.5-0.7,1.4-0.7,2.0c-0.0,0.6-0.2,1.1-0.5,1.1 c-0.3,0-0.4,0.4-0.2,1.1c0.2,0.8,0.0,1.3-0.5,1.6c-0.4,0.2-0.9,0.9-0.9,1.4 c-0.0,0.5-0.5,1.9-1.0,3.0c-0.5,1.1-1.0,2.4-1.0,2.8c0,0.4-0.5,1.3-1.2,1.9 c-0.6,0.6-1.2,1.5-1.2,2.0c0,0.8-1.6,4.7-4.4,10.4c-0.7,1.6-1.4,3.2-1.4,3.6 c0,0.3-0.3,1.3-0.7,2.1c-0.9,1.8-1.3,10.9-0.5,10.9C222.7,307.6,223.6,307.2,224.3,306.7z M146.2,294.6c3.0-0.9,7.6-2.5,10.2-3.6c2.6-1.0,4.7-1.6,4.7-1.4c0,0.2,0.2,0.3,0.4,0.1 c0.2-0.1,0.3-0.4,0.2-0.7c-0.2-0.4,10.9-6.3,12.0-6.3c0.3,0,1.4-0.5,2.5-1.3 c1.0-0.7,2.1-1.3,2.5-1.4c0.3-0.0,1.5-0.9,2.7-2.0c1.1-1.1,3.1-2.5,4.2-3.1 c1.1-0.6,2.7-1.6,3.4-2.3c0.7-0.6,2.5-2.1,4.0-3.1c4.7-3.3,14.8-13.3,16.2-16.0 c0.6-1.3,2.1-3.5,3.1-4.9c1.0-1.3,1.9-2.9,1.9-3.4c0.0-0.5,0.3-1.5,0.7-2.3 c0.3-0.7,0.7-1.6,0.7-1.9c0-0.3,0.4-1.0,0.9-1.5c0.5-0.5,0.8-1.1,0.7-1.2 c-0.1-0.1,0.0-1.0,0.3-2.0c0.4-1.5,0.3-1.9-0.3-2.4c-0.5-0.3-0.6-0.8-0.4-1.2 c0.2-0.3,0.4-1.3,0.4-2.1c0.0-0.8,0.2-2.0,0.4-2.6c0.3-0.8,0.1-1.0-0.6-1.0 c-0.9,0-7.9,4.3-10.2,6.4c-2.4,2.1-12.1,12.2-12.5,13.0c-0.2,0.4-0.7,1.0-1.2,1.2 c-0.4,0.2-1.7,1.3-2.9,2.4c-7.0,6.4-19.0,14.2-29.2,18.9c-1.4,0.6-4.1,1.9-5.9,2.7 c-1.7,0.8-3.4,1.5-3.6,1.5c-0.2,0-1.0,0.3-1.8,0.7c-0.7,0.4-2.4,0.9-3.6,1.2 c-1.2,0.2-3.5,1.1-5.1,1.8c-3.1,1.5-7.4,2.7-12.4,3.4c-5.0,0.7-8.5,1.5-9.0,1.9 c-0.2,0.2-0.8,0.4-1.3,0.4c-0.4,0-0.8,0.1-0.8,0.4c0,2.1,7.0,10.4,9.7,11.6 c2.3,0.9,7.5,2.0,10.5,2.0C139.8,296.3,142.6,295.8,146.2,294.6z"/><path id="Apple" fill="#FC7859" d="M153.3,262.9c-1.6-0.2-2.5-0.7-3.9-2.3c-2.2-2.4-4.6-5.9-5.1-7.2 c-0.3-0.9-0.8-5.5-0.9-8.7c-0.0-0.8-0.2-1.6-0.4-1.7c-0.2-0.1-0.1-0.7,0.1-1.3 c0.2-0.5,0.5-1.5,0.5-2.2c0-0.8,0.7-1.8,2.6-3.5c4.4-3.8,6.1-4.6,10.4-4.5 c2.0,0.0,4.6,0.2,5.6,0.5c4.4,1.1,4.1,1.1,4.1-0.4c0-0.8-0.2-1.9-0.6-2.5 c-0.5-0.8-0.4-1.0,0.1-1.5c1.1-0.8,1.5-3.7,0.6-4.9c-0.5-0.6-0.5-1.1-0.1-1.5 c0.2-0.3,0.4-0.9,0.2-1.3c-0.2-0.5-0.8-0.1-2.8,1.7c-2.1,2.0-2.7,2.4-3.7,2.1 c-0.6-0.1-2.1-0.4-3.2-0.5c-2.1-0.2-3.2-1.2-2.8-2.5c0.1-0.4,2.1-2.6,4.3-4.8 c2.2-2.2,4.3-4.6,4.6-5.3c0.3-0.7,1.1-1.5,1.7-1.8c1.4-0.7,3.5-2.6,3.5-3.3 c0-1.1,3.0-4.1,4.1-4.1c2.7,0,3.4,1.4,1.8,3.8c-0.4,0.7-0.9,1.8-0.9,2.4 c-0.0,1.0,0.0,1.0,1.8-0.8c1.0-1.1,2.1-2.0,2.4-2.0c0.2,0,1.7-1.0,3.2-2.3 c4.6-3.9,8.0-6.4,8.8-6.5c2.7-0.2,4.1,0.6,3.7,2.4c-0.4,2.3-0.7,4.1-1.3,7.8 c-0.2,2-0.7,3.9-1.1,4.3c-0.3,0.3-0.5,0.8-0.4,1.0c0.5,1.2-0.8,3.8-3.3,6.4 c-1.5,1.6-2.8,3.2-2.8,3.4c0,0.2,1.1,0.3,2.4,0.3c2.7,0,6.9,1.7,8.4,3.5 c2.0,2.4,2.9,4.9,2.9,7.9c-0.0,3.6-0.7,5.0-2.4,5.0c-1.6,0-2.8-1.4-3.8-4.8 c-1.5-5.3-3.3-6.7-7.9-5.6c-2.1,0.4-3.0,1.0-4.2,2.5c-2.0,2.3-4.3,6.7-4.8,8.9 c-0.5,3.0-1.3,4.3-2.3,4.3c-0.5,0-1.3,0.1-1.7,0.4c-1.0,0.5-4.8-0.6-6.3-2.0l-1.1-1.0 l-0.2,1.0c-0.4,1.5-1.3,1.0-1.5-0.8c-0.1-1.2-0.5-1.7-2.0-2.5 c-3.9-2.0-7.8,0.3-8.7,5.3c-0.5,2.9-0.0,8.6,0.8,9.3c0.2,0.1,1.2,1.3,2.1,2.7 c0.9,1.3,2.5,2.9,3.5,3.6c2.1,1.5,2.4,2.2,1.2,3.4C157.6,263.4,156.9,263.5,153.3,262.9z M177.6,218.5c1.2-0.7,2.7-1.5,3.2-1.7c1.3-0.3,3.8-3.6,4.7-5.9c1.5-4.1,1.8-5.5,1.5-6.4 c-0.2-0.8-0.5-0.7-3.5,1.0c-4.4,2.7-5.7,4.0-6.7,6.6c-0.4,1.2-1.1,2.6-1.4,3.1 c-0.6,0.9-0.9,4.6-0.3,4.6C175.2,219.9,176.4,219.3,177.6,218.5z"/><path id="Bag" fill="#D7FCA2" d="M117.6,386.8c-0.0-0.0-4.9-0.2-10.8-0.4 c-11.2-0.3-14.8-0.7-23.1-2.8c-5.1-1.3-8.0-2.6-10.1-4.4c-0.6-0.5-2.0-1.7-3.2-2.6 c-1.1-0.9-2.1-1.9-2.2-2.3c-0.0-0.3-0.2-0.6-0.4-0.6c-0.2,0-1.2-1.0-2.1-2.3 c-2.5-3.4-3.7-4.8-5.1-6.1c-2.7-2.5-6.2-7.8-7.2-11.1c-0.3-0.9-1.2-2.4-2.0-3.3 c-1.9-2.0-12.2-23.0-12.2-24.8c0-0.3-0.2-0.6-0.4-0.6c-0.2,0-0.4-0.2-0.4-0.5 s-0.7-2.1-1.7-4.1c-0.9-2.0-1.7-4.0-1.7-4.5s-0.1-1.0-0.4-1.1 c-0.6-0.3-3.7-6.9-4.7-10.0c-0.4-1.4-1.2-3.6-1.7-4.7c-0.4-1.1-0.8-2.2-0.8-2.5 c0-0.6-1.3-3.0-1.8-3.4c-0.2-0.1-1.0-2.2-1.8-4.6c-0.7-2.4-1.5-4.6-1.8-4.9 c-0.2-0.3-0.5-1.2-0.7-2.1c-0.1-0.8-0.4-2.0-0.7-2.5c-1.0-2.3-2.0-3.9-2.7-4.4 c-0.6-0.4-0.9-1.8-1.1-4.5c-0.0-0.9-1.3-5.2-2.1-7.0c-0.3-0.8-1.0-2.4-1.6-3.6 c-0.5-1.2-1.5-3.5-2.1-5.1c-0.6-1.6-1.5-2.9-1.8-2.9c-0.4-0.0-0.6-0.4-0.6-1.2 c0.0-0.6-0.2-1.4-0.5-1.6c-0.5-0.4-2.3-6.6-2.1-7.4c0.0-0.2-0.1-1.0-0.5-1.8 c-1.2-2.9-2.0-5.3-2.1-6.2c-0.0-0.4-0.2-0.9-0.4-1.1c-0.1-0.1-0.3-0.8-0.3-1.5 c0-0.6-0.2-1.6-0.5-2.1c-0.2-0.5-0.5-3.5-0.6-6.6c-0.1-5.5-0.1-5.6,1.1-6.9 c1.3-1.2,1.4-1.4,1.4-2.7c0-0.4,0.6-0.8,1.5-1.0c0.8-0.1,1.6-0.6,1.7-1.1 c0.1-0.4,0.5-0.9,1.0-1.1c0.4-0.1,2.2-1.1,3.9-2.2c2.2-1.4,3.4-1.9,4.3-1.7 c0.6,0.1,1.0,0.0,0.8-0.1c-0.3-0.5,1.3-1.6,1.8-1.1c0.1,0.1,0.6-0.1,1.0-0.7 c0.4-0.5,1.1-1.0,1.5-1.0c0.4-0.0,1.3-0.4,2.0-0.9c0.6-0.5,1.6-0.9,2.0-0.9 c0.4-0.0,0.8-0.2,0.8-0.4c0-0.2,0.3-0.4,0.7-0.4c0.3,0,0.8-0.2,1.0-0.6 c0.2-0.3,1.3-1.1,2.5-1.7c1.2-0.5,2.5-1.6,2.9-2.3c0.4-0.7,1.2-1.5,1.9-1.8 c0.6-0.3,2.1-1.0,3.3-1.5c1.2-0.5,3.1-1.2,4.3-1.5c1.2-0.3,3.0-1.0,4.0-1.7 c1-0.6,2.0-1.1,2.2-1.1c0.5,0,3.6-1.5,6.2-3.1c1.0-0.6,3.4-1.6,5.2-2.2 c1.8-0.5,3.8-1.4,4.4-1.9c0.6-0.5,1.3-0.9,1.6-0.9c0.9,0,13.7-5.7,14.2-6.3 c0.4-0.5,2.3-1.4,3.1-1.4c0.4,0,1.4-0.5,2.2-1.2c0.8-0.6,2.1-1.3,2.8-1.5 c0.7-0.1,1.5-0.4,1.6-0.7c0.1-0.2,0.6-0.4,1.2-0.4c0.5,0,0.9-0.2,0.9-0.4 s0.8-0.7,1.8-1.0c1-0.3,2.4-1,3.2-1.4c0.8-0.4,2.0-0.9,2.8-0.9c1.1,0,1.5-0.3,2.5-2.7 c0.6-1.4,1.3-2.6,1.5-2.4c0.2,0.1,0.3-2.1,0.3-4.9c-0.0-2.8,0.1-5.7,0.3-6.5 c0.2-1.0,0.0-1.7-1.0-3.2c-0.7-1.0-1.6-2.0-1.9-2.2c-0.2-0.1-0.5-0.7-0.5-1.2 c0-0.5-1.0-1.5-2.6-2.6c-3.1-2.1-4.2-3.6-4.3-6.0l-0.0-1.8l2.6,0.0 c13.4,0.3,17.6,0.3,20.0-0.1c1.4-0.3,6.1-0.7,10.4-0.8c10.3-0.3,21.0-1.9,30.2-4.3 c2.6-0.6,5.3-1.2,5.8-1.2c0.5-0.0,1.2-0.2,1.5-0.5c0.6-0.6,10.4-3.3,13.2-3.6 c1.2-0.1,3.5-0.4,5.1-0.7c1.6-0.3,3.4-0.5,4.0-0.6c0.6-0.0,1.0-0.1,1.0-0.3 c0-0.6,12.7-4.8,14.8-4.8c0.3,0,4.7-1.2,9.6-2.7c4.9-1.5,9.1-2.7,9.4-2.8 c0.6-0.1,1.9-0.6,4.1-1.5c2.2-0.9,11.5-3.6,12.3-3.6c0.3,0,1.2,0.6,1.9,1.4 c1.2,1.4,1.2,1.5,0.4,3.2c-0.4,0.9-1.2,2.5-1.7,3.5c-2.2,4.2-5.5,16.1-4.1,15.3 c0.2-0.1,1.2,3.3,1.5,5.6c0.0,0.4,0.4,1.1,0.9,1.6c0.4,0.4,0.8,1.2,0.8,1.7 c0,0.4,0.3,1.1,0.7,1.4c0.4,0.3,0.7,0.8,0.7,1.2c0,0.3,0.3,0.8,0.6,1.1 c0.3,0.3,0.8,1.2,0.9,2.0l0.3,1.5l3.2-0.3c1.8-0.1,3.9-0.3,4.7-0.3 c0.8-0.0,1.1-0.1,0.8-0.2c-1.3-0.5-0.0-0.9,1.7-0.6c1.0,0.1,2.1,0.1,2.5-0.0 c0.3-0.2,3.1-0.2,6.2-0.0c3.1,0.1,6.6,0.2,7.8,0.2c1.2-0.0,7.5-0.1,14.1-0.3 c6.5-0.1,13.9-0.2,16.3-0.2c16.9,0.1,27.3,0.1,33.9-0.2c4.1-0.2,10.4-0.4,13.9-0.4 l6.3-0.0l1.4,1.4c0.8,0.8,2.1,1.9,3.0,2.6l1.5,1.1l-0.2,4.3c-0.1,2.3-0.4,4.7-0.7,5.2 c-0.2,0.5-0.6,2.1-0.7,3.5c-0.1,1.4-0.3,3.5-0.5,4.7c-0.1,1.2-0.3,6.6-0.4,12.0 c-0.0,5.4-0.5,12.8-0.9,16.6c-0.4,3.7-0.7,7.3-0.6,7.9c0.1,2.9-0.6,17.0-1.1,19.7 c-0.2,1.5-0.3,3.1-0.2,3.5c0.1,0.4,0.0,1.5-0.2,2.5c-0.2,1.0-0.6,3.0-0.7,4.4 c-0.5,5.1-0.6,6.5-1.1,10.1c-0.2,2.0-0.7,6.1-1.0,9.2c-0.2,3.0-0.5,6.6-0.7,7.8 c-0.1,1.2-0.3,3.4-0.4,4.8c-0.1,1.4-0.3,3.4-0.4,4.3c-0.1,0.9-0.3,2.8-0.4,4.2 c-0.1,1.3-0.3,3.0-0.5,3.6c-0.2,0.6-0.4,2.0-0.4,3.0c-0.2,3.8-0.8,9.7-1.0,10.4 c-0.1,0.4-0.3,1.2-0.4,1.9c-0.0,0.6-0.3,2.4-0.5,3.9c-0.1,1.4-0.4,3.2-0.4,3.9 c-0.0,0.7-0.2,1.6-0.3,2.1c-0.1,0.5-0.4,1.6-0.5,2.6c-0.1,0.9-0.5,2.3-0.7,3.2 c-0.2,0.8-0.5,3.0-0.6,4.8c-0.1,2.4-0.6,4.6-1.9,7.9c-0.9,2.5-1.7,4.9-1.7,5.5 c0,1.1-2.6,9.0-4.1,12.3c-0.6,1.3-1.3,3.1-1.7,4.0c-0.3,0.8-1.3,2.2-2.3,3.0 c-0.9,0.8-2.1,2.4-2.6,3.6c-0.6,1.4-1.4,2.3-2.2,2.7c-0.7,0.2-1.8,0.9-2.5,1.6 c-1.6,1.4-4.8,3.3-5.1,3.0c-0.1-0.1-1.2,0.2-2.5,0.8c-1.2,0.6-3.6,1.5-5.3,2.1 c-1.6,0.5-3.9,1.4-5.1,1.9c-4.8,2.2-8.3,3.4-8.8,3.2c-0.3-0.1-0.8-0.0-1.0,0.1 c-0.2,0.2-0.9,0.5-1.6,0.6c-0.6,0.1-2.1,0.4-3.3,0.7c-1.1,0.2-2.2,0.3-2.5,0.2 c-0.2-0.1-0.5-0.0-0.7,0.1c-0.1,0.2-1.5,0.6-3.0,0.7c-1.5,0.1-4.1,0.6-5.7,1.0 c-1.5,0.4-3.4,0.6-4.0,0.5c-0.6-0.1-1.1-0.0-1.2,0.1c-0.0,0.2-4.0,0.7-8.9,1.1 c-4.8,0.4-10.6,1.1-12.9,1.4c-5.1,0.8-11.1,1.7-11.5,1.6c-0.1-0.0-0.6,0.0-1.0,0.2 c-0.8,0.3-12.6,2.1-17.8,2.7c-1.8,0.2-6.7,0.5-10.7,0.7c-4.0,0.1-10.0,0.7-13.4,1.2 c-9.7,1.5-12.3,1.8-14.7,2.1c-1.2,0.1-3.0,0.4-3.9,0.6c-0.8,0.2-3.7,0.8-6.4,1.2 c-7.6,1.2-15.3,2.6-18.7,3.4c-1.7,0.3-4.1,0.7-5.4,0.9c-1.2,0.1-3.2,0.4-4.3,0.7 c-1.1,0.3-3.1,0.6-4.3,0.7c-3.6,0.2-6.8,0.6-10.9,1.2 C125.1,386.3,117.8,387.0,117.6,386.8z M108.5,369.6c0-0.2,1.2-0.4,2.8-0.4 c1.5,0.0,4.8-0.1,7.4-0.4c2.5-0.2,4.9-0.4,5.3-0.4c0.4,0.0,2.8-0.1,5.5-0.3 c3.3-0.2,4.7-0.1,4.4,0.1c-0.3,0.6,1.9,0.4,3.4-0.3c0.8-0.4,7.5-0.8,11.4-0.7 c0.9,0.0,1.8-0.2,2.0-0.5c0.2-0.4,2.8-0.6,8.7-0.6c4.6-0.0,9.8-0.1,11.6-0.2 c1.7-0.0,3.8-0.0,4.6-0.0c1.7,0.1,9.2-0.6,13.0-1.2c2.1-0.3,3.0-0.3,3.8,0.0 c0.7,0.4,1.0,0.4,1.3-0.0c0.2-0.3,0.5-0.5,0.8-0.5c0.2,0.0,1.2-0.0,2.1-0.1 c0.9-0.1,4.4-0.4,7.8-0.5c3.3-0.1,6.4-0.3,6.8-0.5c0.3-0.1,2.4-0.4,4.5-0.7 c2.1-0.2,5.5-0.7,7.5-1.1c6.1-1.1,15.6-2.7,17.4-2.9c2.5-0.2,3.1-0.4,3.8-1.1 c0.8-0.7,1.3-0.7,2.0,0.1c0.9,1.1,2.1,0.9,1.8-0.2c-0.2-0.8-0.0-0.9,0.6-0.7 c0.5,0.1,0.9,0.0,0.9-0.1c0-0.6,8.2-1.5,8.6-0.8c0.4,0.6,1.1,0.3,1.1-0.4 c0.0-0.4,0.1-0.6,0.2-0.2c0.1,0.4,0.4,0.4,1.3-0.1c0.5-0.3,2.3-0.7,3.8-0.8 c1.5-0.0,3.0-0.4,3.3-0.7c0.3-0.3,1.3-0.5,2.3-0.5c0.9-0.0,2.9-0.3,4.3-0.7 c1.4-0.3,2.7-0.6,2.9-0.6c0.1,0.0,0.6-0.0,1.0-0.2c0.3-0.1,1.2-0.3,1.9-0.4 c0.6-0.1,1.7-0.4,2.4-0.6c0.6-0.2,3.4-1.1,6.0-1.8c2.6-0.7,5.0-1.5,5.3-1.7 c0.2-0.2,0.7-0.4,1.1-0.4c0.3,0,2.0-0.6,3.6-1.4c1.6-0.7,4.3-2.0,5.8-2.7 c1.5-0.7,3.8-2.3,5.0-3.4c1.1-1.1,2.3-2.1,2.5-2.1c0.2,0,0.6-0.4,0.9-0.9 c0.3-0.6,1.0-0.9,1.8-0.9c0.9,0,1.4-0.3,1.8-1.0c0.2-0.6,0.7-1.0,1.0-0.9 c0.2,0.0,1.2-0.6,2.0-1.5c0.8-0.9,1.8-1.6,2.2-1.6s0.7-0.2,0.7-0.6 c0-0.8,2.3-3.0,2.7-2.6c0.7,0.7,2.1-0.9,4.2-5.1c2.9-5.9,4.5-9.5,5.1-11.8 c0.6-2.1,3.1-14.9,3.6-18.2c0.1-1.2,0.6-3.8,1.0-5.8c0.7-3.7,3.0-22.7,3.3-27.0 c0.0-1.3,0.3-4.4,0.6-6.8c0.2-2.4,0.6-7.3,0.7-10.9c0.1-3.6,0.4-7.3,0.7-8.2 c0.2-0.9,0.6-4.7,0.7-8.5c0.1-3.7,0.3-7.9,0.4-9.2c0.2-2.9,0.9-35.6,0.9-40.8 c-0.0-2.0,0.0-3.7,0.2-3.7c0.1,0,0.2-2.6,0.2-5.9c-0.1-5.7-0.1-5.9-1.2-6.3 c-3.4-1.3-13.0-0.1-21.6,2.6c-1.8,0.6-3.9,1.1-4.5,1.2c-1.8,0.2-10.1,2.2-10.9,2.7 c-0.4,0.2-2.0,0.5-3.4,0.7c-2.3,0.2-3.9,0.5-8.6,1.5c-0.9,0.2-2.1,0.6-2.6,0.8 c-2.5,1.3-17.2,2.8-24.6,2.5c-1.2-0.0-4.2-0.1-6.8-0.1c-8.3-0.1-12.5-1.5-16.1-5.3 c-0.6-0.7-1.9-1.7-2.7-2.2c-0.8-0.5-2.3-2.3-3.3-3.9c-1.0-1.6-2.2-3.3-2.6-3.6 c-1.0-0.7-3.7-4.5-4.9-6.9c-2.5-5.0-4.3-7.0-11.1-11.9c-3.8-2.7-3.2-2.6-7.2-1.8 c-2.0,0.3-4.7,0.8-6.1,0.9c-1.3,0.1-2.9,0.3-3.6,0.5c-0.6,0.1-1.5,0.3-1.9,0.4 c-0.3,0.0-0.8,0.3-0.9,0.6c-0.2,0.4-2.3,0.8-7.2,1.2c-2.9,0.2-13.0,3.5-13.7,4.4 c-0.3,0.4-1.0,0.7-1.5,0.7c-1.0,0-6.2,1.2-8.4,2.0c-3.1,1.0-7.7,2.2-8.1,2.0 c-0.1-0.1-0.8-0.0-1.4,0.2c-0.6,0.2-2.4,0.5-4.1,0.7c-1.6,0.1-4.2,0.6-5.8,1.0 c-1.5,0.4-4.2,0.8-5.9,0.9c-1.6,0.1-5.0,0.5-7.5,1.0c-2.4,0.4-5.0,0.8-5.6,0.9 c-0.6,0.1-1.2,0.3-1.5,0.4c-0.2,0.1-1.6,0.3-3.2,0.5c-4.3,0.4-8.8,2.1-11.1,4.2 c-1.8,1.7-6.6,8.3-6.9,9.3c-0.7,3.6-1.8,7.8-2.3,9.1c-1.5,3.5-1.8,4.4-2.1,6.9 c-0.1,1.4-0.5,2.6-0.7,2.6c-0.2,0-0.4,0.3-0.4,0.7c0,1.0-6.1,8.9-7.7,9.9 c-0.7,0.4-1.4,1.0-1.6,1.4c-0.2,0.3-1.4,1.2-2.6,1.9c-1.2,0.7-4.0,2.5-6.2,3.9 c-2.1,1.4-5.5,3.4-7.5,4.3c-2.0,0.9-4.5,2.0-5.6,2.5c-1.0,0.5-2.5,1.0-3.2,1.2 c-0.7,0.1-1.3,0.4-1.3,0.7c0,0.5-2.2,1.3-4.6,1.7c-1.0,0.1-2.4,0.6-3.0,1.0 c-0.6,0.3-1.7,0.7-2.4,0.9c-2.1,0.3-2.7,0.4-3.3,0.8c-0.2,0.1-1.8,0.4-3.4,0.6 c-1.5,0.1-3.5,0.5-4.3,0.9c-2.3,1.0-6.5,2.1-9.9,2.6c-1.7,0.2-4.2,0.8-5.6,1.2 c-4.2,1.3-10.1,2.3-13.1,2.2c-1.6-0.0-3.8,0.0-5.0,0.2c-2.3,0.3-2.3,0.2-0.8,5.8 c1.7,6.4,4.3,16.1,5.4,20.4c0.6,2.6,1.8,6.8,2.6,9.2c0.7,2.4,1.8,6.3,2.4,8.8 c0.5,2.4,1.5,5.3,2.1,6.5c0.6,1.2,1.6,3.8,2.2,5.8c0.6,2.0,1.6,4.6,2.2,5.8 c0.6,1.2,1.5,3.9,2.0,6.1c0.5,2.1,1.6,5.5,2.5,7.5c0.8,2.0,1.8,4.7,2.2,6.0 c0.3,1.3,1.3,3.6,2.3,5.1c0.9,1.5,2.7,5.7,4.1,9.3c2.3,6.1,7.6,17.3,9.0,19.0 c0.3,0.4,1.4,2.3,2.4,4.3c3.6,7.4,12.5,19.1,17.5,23.0c2.2,1.7,5.8,2.9,9.0,2.9 c1.4,0,3.4,0.2,4.3,0.6c1.2,0.4,4.6,0.5,10.6,0.4c5.2-0.0,9.0,0.0,9.1,0.3 C107.7,370.2,108.5,370.2,108.5,369.6z M29.5,207.5c0.9-0.3,2.0-0.7,2.4-0.8 c0.4-0.1,0.9-0.2,1.2-0.3c0.2-0.0,0.7-0.2,1.0-0.4c1.1-0.6,6.5-2.2,8.7-2.5 c1.2-0.1,2.6-0.5,3.2-0.8c0.5-0.3,2.8-0.5,5.0-0.5c2.9,0.0,4.7-0.2,7.0-1.0 c4.1-1.4,10.5-4.5,12.6-6.1c0.9-0.7,2.5-1.6,3.6-2.1c1.0-0.4,2.1-1.1,2.3-1.5 c0.2-0.3,1.2-1.1,2.3-1.6c1.1-0.5,2.4-1.4,2.9-1.9c0.5-0.5,1.4-1.0,1.9-1.2 c0.5-0.1,1.2-0.5,1.6-0.8c0.3-0.3,2.0-1.7,3.7-3.2c1.7-1.4,3.1-2.9,3.1-3.1 c0.0-0.2,1.3-1.8,3.0-3.4c3.2-3.3,3.6-4.7,0.9-3.1c-0.9,0.5-3.3,1.7-5.3,2.7 c-2.0,0.9-3.7,1.9-3.9,2.1c-0.1,0.1-3.3,1.8-7.0,3.7c-3.7,1.8-7.4,3.7-8.2,4.2 c-1.9,1.0-16.8,8.1-17.1,8.1c-0.1,0-2.2,0.9-4.7,2.1c-8.9,4.3-14.7,7.0-17.3,8.2 c-4.2,1.9-7.3,3.7-7.3,4.3C25.6,208.7,26.8,208.5,29.5,207.5z M280.3,157.2 c4.1-0.5,8.0-1.1,8.7-1.4c0.7-0.2,2.0-0.4,3.0-0.3c0.9,0.0,2.2-0.1,2.9-0.4 c1.7-0.7,5.9-1.8,11.4-3.0c5.6-1.1,10.1-2.3,12.2-3.2c1.2-0.5,0.6-0.5-4.3-0.4 c-3.2,0.1-10.0,0.3-15.1,0.4c-5.1,0.1-11.6,0.5-14.6,0.8c-2.9,0.2-6.8,0.5-8.6,0.6 c-1.8,0.0-3.5,0.3-3.8,0.4c-0.2,0.1-2.4,0.3-4.8,0.4c-2.3,0.0-4.5,0.2-4.8,0.4 c-0.2,0.1-1.3,0.0-2.5-0.1c-1.7-0.3-2.2-0.3-3.3,0.4c-0.7,0.5-1.6,0.9-2.0,0.9 c-1.1,0-1.5,1.0-0.6,1.5c0.4,0.2,1.0,0.7,1.4,1.1c0.5,0.5,5.8,2.1,9.3,2.8 C266.2,158.7,272.6,158.2,280.3,157.2z M120.7,140.0c3.6-0.6,7.5-1.1,8.6-1.2 c1.1-0.0,2.6-0.3,3.3-0.5c0.6-0.2,2.0-0.4,2.9-0.4c2.1,0,7.2-0.8,10.8-1.7 c1.4-0.3,4.7-1.0,7.3-1.4c5.5-0.9,5.5-0.9,10.4-2.2c2.1-0.5,4.5-1.1,5.2-1.2 c0.7-0.0,1.8-0.3,2.4-0.5c0.6-0.1,1.4-0.3,1.8-0.4c0.4-0.0,1.0-0.2,1.4-0.3 c0.9-0.3,6.1-1.4,8.0-1.6c0.8-0.0,2.6-0.3,4.1-0.6c1.4-0.2,3.7-0.4,5.1-0.4 c1.3,0,2.7-0.2,2.9-0.4c0.2-0.2,1.6-0.5,3.1-0.7c1.4-0.1,3.8-0.6,5.2-1.0 c1.4-0.4,2.7-0.6,3.0-0.4c0.2,0.1,1.6-0.2,3.0-0.9c1.4-0.6,3.5-1.3,4.7-1.5 c1.2-0.1,2.4-0.5,2.7-0.7c0.3-0.2,2.3-0.6,4.6-0.9c2.2-0.2,4.3-0.6,4.6-0.7 c0.4-0.1,2.5-3.6,2.5-4.2c0-0.1-0.9-0.0-2.0,0.2c-1.1,0.2-3.3,0.6-4.9,0.9 c-1.5,0.2-3.0,0.6-3.2,0.7c-0.1,0.1-1.5,0.3-2.9,0.5c-1.4,0.1-3.3,0.4-4.3,0.7 c-3.3,0.8-9.5,2.0-10.2,2.0c-0.4-0.0-1.1,0.1-1.7,0.3c-0.5,0.2-2.4,0.6-4.3,0.9 c-1.8,0.3-4.5,0.9-6.1,1.4c-4.1,1.3-8.5,2.6-9.3,2.7c-0.4,0.0-1.8,0.3-3.1,0.6 c-1.3,0.3-3.0,0.6-3.7,0.7c-0.6,0.0-2.3,0.5-3.6,0.9c-1.3,0.4-3.3,1.0-4.5,1.2 c-1.2,0.2-3.6,0.7-5.3,1.2c-1.7,0.4-4.1,0.9-5.3,1.2c-1.2,0.2-3.1,0.7-4.3,1.1 c-1.1,0.4-2.5,0.7-3.0,0.7c-0.5,0-1.3,0.1-1.7,0.4c-0.8,0.4-4.2,1.2-7.1,1.7 c-0.7,0.1-4.6,0.3-8.5,0.5c-3.9,0.1-8.2,0.4-9.5,0.5c-1.3,0.1-3.6,0.3-5.0,0.3 c-2.8,0.1-3.6,0.8-3.1,2.6C112.1,141.4,112.5,141.4,120.7,140.0z"/><path id="Handle" fill="#FFB8B8" d="M95.6,156.1c-1.2-0.4-2.6-0.8-3.0-0.8 c-1.6-0.0-8.6-6.2-12.0-10.7c-2.6-3.3-7.5-11.2-7.5-11.8c0-0.2-0.4-1.1-1.0-1.9 c-1.2-1.8-6.5-13.3-6.5-14.2c0-0.3-0.3-1.3-0.6-2.0c-0.3-0.7-0.7-2.0-0.8-2.7 c-0.0-0.7-0.2-1.6-0.4-2.0c-0.7-2.1-2.6-10.3-2.9-12.6c-0.6-5.8-0.1-17.3,1.0-21.3 c0.3-1.2,0.9-3.6,1.4-5.2c0.4-1.6,0.9-3.1,1.0-3.4c0.1-0.2,0.6-1.6,1.1-3.1 c0.4-1.4,1.1-3.2,1.6-3.9c0.4-0.7,0.8-1.5,0.8-1.7c0-0.6,4.6-7.2,8.1-11.4 c1.5-1.9,3.4-4.2,4.1-5.2c0.7-0.9,1.6-2.0,2.0-2.4c4.1-3.9,6.8-6.4,7.7-6.8 c0.5-0.2,1.5-0.9,2.1-1.4c0.6-0.5,2.8-1.9,4.9-3.2c2.1-1.2,4.3-2.5,4.9-2.9 c0.6-0.3,2.1-1.2,3.3-1.8c1.2-0.6,4.0-2.1,6.3-3.4c4.5-2.5,12.1-6.1,13.1-6.1 c0.3,0,1.0-0.3,1.6-0.6c0.5-0.3,1.9-1.0,3.0-1.4c1.1-0.4,3.1-1.2,4.5-1.7 c1.3-0.5,3.5-1.3,4.9-1.7c1.3-0.3,2.6-0.8,2.9-1.0c0.2-0.1,1.3-0.4,2.3-0.6 c1.0-0.1,4.4-0.9,7.6-1.6c8.3-1.8,10.1-2.1,12.3-2.4c1.1-0.1,3.3-0.5,4.9-0.7 c4.4-0.7,24.6-0.5,28.3,0.3c1.6,0.3,3.6,0.8,4.4,0.9c0.7,0.1,1.6,0.3,1.8,0.4 c0.2,0.1,1.6,0.3,3.1,0.5c10.4,1.1,27.5,6.7,32.0,10.4c0.8,0.7,2.5,1.9,3.6,2.7 c1.1,0.8,2.5,1.9,3.1,2.4c1.4,1.3,5.4,5.6,5.4,5.9c0,0.1,0.5,0.6,1.1,1.1 c0.6,0.5,1.1,1.2,1.1,1.5c0,0.3,0.4,1.0,0.9,1.6c1,1.1,1.8,2.5,2.6,4.4 c0.2,0.6,0.6,1.0,0.8,1.0c0.5,0,2.7,4.1,2.7,5.2c0,0.5,0.3,1.2,0.6,1.5 c0.3,0.3,0.6,0.8,0.5,1.1c-0.0,0.3,0.2,1.4,0.6,2.4c0.4,1.0,0.6,2.0,0.5,2.1 c-0.1,0.1,0,0.6,0.2,1.1c0.2,0.5,0.5,1.7,0.6,2.7c0.1,0.9,0.3,1.8,0.6,1.9 c0.2,0.0,0.4,0.7,0.4,1.4c0,0.6,0.1,1.9,0.4,2.7c0.9,3.5,2.8,15.4,2.5,16.7 c-0.1,0.7-0.3,3.3-0.5,5.8c-0.3,5.3-0.3,5.8-0.7,6.2c-0.1,0.1-0.1,0.6-0.0,1.0 c0.3,0.8-0.5,6.8-1.4,9.6c-0.3,1.0-0.7,2.6-0.8,3.4c-0.7,3.4-4.0,11.0-6.0,13.5 c-0.2,0.3-1.0,1.7-1.7,3.1c-1.7,3.5-5.7,8.4-8.4,10.3c-1.2,0.8-2.4,1.8-2.6,2.2 c-0.1,0.3-0.7,0.6-1.1,0.6c-0.4,0-1.0,0.3-1.3,0.7c-1.9,2.5-8.1-1.9-8.1-5.8 c0-0.6,0.5-1.5,1.2-2.1c1.4-1.2,7.8-6.2,8.2-6.4c1.1-0.6,6.3-13.9,8.3-21.4 c3.9-14.5,4.3-16.2,4.5-24.5c0.2-8.0-0.1-11.3-1.8-16.7c-0.3-1.1-0.5-2.3-0.4-2.6 c0.1-0.2,0.0-0.6-0.1-0.8c-0.2-0.1-1.1-2.1-2.0-4.3c-0.8-2.2-2.4-5.3-3.4-6.9 c-1.0-1.5-1.8-2.9-1.8-3.1c0-0.1-0.5-0.8-1.1-1.5c-0.6-0.7-1.1-1.5-1.1-1.7 c0-1.4-4.7-6.1-7.3-7.2c-0.5-0.2-2.3-1.5-4.0-2.9c-1.6-1.3-3.2-2.4-3.6-2.4 c-0.3,0-1.0-0.3-1.4-0.8c-1.3-1.2-3.3-2.4-5.8-3.2c-1.2-0.4-2.5-0.9-2.8-1.0 c-0.3-0.1-1.1-0.3-1.8-0.4c-0.6-0.0-2.7-0.3-4.7-0.6c-1.9-0.2-5.2-0.6-7.2-0.7 c-4.7-0.3-8.4-0.7-8.8-1.0c-0.3-0.2-11.5-1.5-17.9-2.0c-2.1-0.1-4.3-0.1-4.9,0.0 c-0.6,0.1-2.7,0.6-4.7,0.9c-5.9,0.9-9.6,1.8-13.7,3.1c-1.1,0.3-2.5,0.6-3.1,0.6 c-1.1,0-7.9,2.1-14.0,4.4c-4.5,1.7-11.7,4.0-13.9,4.5c-0.8,0.1-2.2,0.7-3.0,1.2 c-0.8,0.5-1.7,0.9-2.0,0.9c-1.7,0-14.1,7.9-20.2,12.9c-3.7,3.1-16.0,16.2-17.0,18.2 c-0.3,0.6-1.1,2.1-1.7,3.3c-0.6,1.2-1.5,3.0-2.0,4.0c-0.5,1.0-1.1,1.8-1.3,1.8 c-0.2,0-0.3,0.1-0.2,0.4c0.1,0.2-0.0,0.6-0.3,0.9c-0.3,0.3-1.0,1.7-1.6,3.1 c-0.5,1.4-1.2,2.7-1.5,2.9c-1.0,0.6-1.5,4.9-1.4,12.8c0.0,4.2,0.0,9.1,0,10.7 c-0.0,3.0-0.0,3.2,0.7,6.3c0.2,1.0,0.4,2.2,0.4,2.6c0,1.0,0.8,4.8,1.4,6.8 c1.3,3.9,1.2,3.9,3.7,9.0c1.6,3.4,7.9,12.9,9.4,14.1c1.3,1.0,4.0,2.7,9.1,5.5 c1.6,0.9,2.2,1.0,3.1,0.6c2.4-1.2,7.2-0.0,6.6,1.6c-0.1,0.3-0.0,0.7,0.2,0.9 c0.2,0.1,0.3,0.5,0.1,0.8c-0.1,0.3-0.2,1.3-0.2,2.3c0.0,0.9-0.0,1.9-0.2,2.0 c-0.2,0.1-0.3,1.3-0.2,2.6c0.2,3.6-0.4,4.2-4.7,4.2C99.2,156.9,97.0,156.6,95.6,156.1z"/></g></g></switch></svg>