<svg xmlns="http://www.w3.org/2000/svg" xmlns:xlink="http://www.w3.org/1999/xlink" width="448.15" height="667.005" enable-background="new 0 0 448.15 667.005" overflow="visible" space="preserve" viewBox="0 0 448.15 667.005"><metadata><rdf:RDF xmlns:cc="http://web.resource.org/cc/" xmlns:dc="http://purl.org/dc/elements/1.1/" xmlns:rdf="http://www.w3.org/1999/02/22-rdf-syntax-ns#"><cc:Work><dc:title>Gallows</dc:title><dc:description/><dc:subject><rdf:Bag><rdf:li>tools</rdf:li><rdf:li>weapons</rdf:li></rdf:Bag></dc:subject><dc:publisher><cc:Agent rdf:about="http://www.openclipart.org/"><dc:title>Open Clip Art Library</dc:title></cc:Agent></dc:publisher><dc:creator><cc:Agent><dc:title>Frouke</dc:title></cc:Agent></dc:creator><dc:rights><cc:Agent><dc:title>Frouke</dc:title></cc:Agent></dc:rights><dc:date/><dc:format>image/svg+xml</dc:format><dc:type rdf:resource="http://purl.org/dc/dcmitype/StillImage"/><cc:license rdf:resource="http://web.resource.org/cc/PublicDomain"/><dc:language>en</dc:language></cc:Work><cc:License rdf:about="http://web.resource.org/cc/PublicDomain"><cc:permits rdf:resource="http://web.resource.org/cc/Reproduction"/><cc:permits rdf:resource="http://web.resource.org/cc/Distribution"/><cc:permits rdf:resource="http://web.resource.org/cc/DerivativeWorks"/></cc:License></rdf:RDF></metadata><switch><g><g id="Layer_1"><polygon fill="#FFF" stroke="#000" points="22.55 .502 22.55 34.501 22.55 37.502 273.55 36.502 272.55 1.502"/><polygon fill="#FFF" stroke="#000" points="22.55 37.502 273.55 33.502 260.55 54.502 28.55 54.502"/><polygon fill="#FFF" stroke="#000" points="200.55 40.502 202.55 260.502 210.55 259.502 209.55 39.502"/><path fill="#FFF" stroke="#000" d="M210.55,259.502"/><path fill="#FFF" stroke="#000" d="M205.55,251.002c-30.223,1.119-28.541,102.363,1,100 C221.536,349.803,232.55,250.002,205.55,251.002z"/><path fill="#FFF" stroke="#000" d="M202.55,261.502c-16,1-11,83,1,83S220.543,260.378,202.55,261.502z"/><polygon fill="#FFF" stroke="#000" points="75.55 154.502 134.55 53.502 157.55 51.502 74.55 199.502"/><polygon fill="#FFF" stroke="#000" points="46.55 53.502 49.55 545.502 2.55 645.502 .55 666.502 446.55 664.502 447.629 637.577 362.55 535.502 75.55 539.502 75.55 54.502"/><polyline fill="#FFF" stroke="#000" points=".55 666.502 446.55 664.502 447.629 637.577 3.652 639.077 .652 663.076"/><polyline fill="#FFF" stroke="#000" points="75.55 539.502 75.648 603.079 50.149 603.079 49.55 545.502"/></g></g></switch></svg>