<svg xmlns="http://www.w3.org/2000/svg" xmlns:xlink="http://www.w3.org/1999/xlink" width="495.684" height="495.684" enable-background="new 0 0 495.684 495.684" overflow="visible" space="preserve" viewBox="0 0 495.684 495.684"><switch><g><g id="Layer_1"><g><path fill="#F0A04A" d="M0,0l30.9,30.9h154.9V0H0z"/><path fill="#F0A04A" d="M185.8,30.9V0l185.8,185.8l-15.4,15.4L185.8,30.9z"/><path fill="#D58A2B" d="M0,0v185.8h30.9V30.9L0,0z"/><path fill="#D58A2B" d="M0,185.8l61.9,61.9l15.4-15.4L30.9,185.8H0z"/><path fill="#F0A04A" d="M30.9,30.9l30.9,30.9v123.9H30.9V30.9z"/><path fill="#F0A04A" d="M61.9,185.8l30.9,30.9l-15.4,15.4L30.9,185.8H61.9z"/><path fill="#D58A2B" d="M30.9,30.9l30.9,30.9h123.9l154.9,154.9l15.4-15.5L185.8,30.9 H30.9z"/><path fill="#7FC0DB" d="M61.9,61.9l30.9,30.9h92.9l139.4,139.3l15.4-15.4L185.8,61.9 H61.9z"/><path fill="#1C7AB5" d="M92.9,92.9l-30.9-30.9v123.9l30.9,30.9l15.5-15.5l-15.5-15.4 V92.9z"/><path fill="#7FC0DB" d="M92.9,92.9l30.9,30.9v61.9l-15.4,15.4l-15.5-15.4v-77.4V92.9z"/><path fill="#1C7AB5" d="M92.9,92.9h92.9l139.4,139.3l-15.5,15.4L185.8,123.9h-61.9 L92.9,92.9z"/><path fill="#F0A04A" d="M0,495.6l30.9-30.9V309.7H0V495.6z"/><path fill="#F0A04A" d="M30.9,309.7H0l185.8-185.8l15.4,15.4L30.9,309.7z"/><path fill="#D18836" d="M0,495.6h185.8v-30.9H30.9L0,495.6z"/><path fill="#D18836" d="M185.8,495.6l61.9-61.9l-15.4-15.4l-46.4,46.4V495.6z"/><path fill="#F0A04A" d="M30.9,464.6l30.9-30.9h123.9v30.9H30.9z"/><path fill="#F0A04A" d="M185.8,433.6l30.9-30.9l15.4,15.4l-46.4,46.4V433.6z"/><path fill="#D18836" d="M30.9,464.6l30.9-30.9V309.7l154.9-154.8l-15.5-15.5L30.9,309.7 V464.6z"/><path fill="#7FC0DB" d="M61.9,433.6l30.9-30.9v-92.9l139.4-139.3l-15.4-15.4L61.9,309.7 V433.6z"/><path fill="#1C7AB5" d="M92.9,402.7l-30.9,30.9h123.9l30.9-30.9l-15.5-15.4l-15.4,15.4 H92.9z"/><path fill="#7FC0DB" d="M92.9,402.7l30.9-30.9h61.9l15.4,15.5l-15.4,15.4h-77.4H92.9z"/><path fill="#1C7AB5" d="M92.9,402.7v-92.9l139.4-139.3l15.4,15.4L123.9,309.7v61.9 L92.9,402.7z"/><path fill="#D58A2B" d="M495.6,495.6l-30.9-30.9H309.7v30.9H495.6z"/><path fill="#D58A2B" d="M309.7,464.6v30.9L123.9,309.7l15.4-15.4L309.7,464.6z"/><path fill="#F0A04A" d="M495.6,495.6V309.7h-30.9v154.9L495.6,495.6z"/><path fill="#F0A04A" d="M495.6,309.7l-61.9-61.9l-15.4,15.4l46.4,46.4H495.6z"/><path fill="#D58A2B" d="M464.6,464.6l-30.9-30.9V309.7h30.9V464.6z"/><path fill="#D58A2B" d="M433.6,309.7l-30.9-30.9l15.4-15.5l46.4,46.4H433.6z"/><path fill="#F5A13B" d="M464.6,464.6l-30.9-30.9H309.7L154.9,278.8L139.3,294.3L309.7,464.6 L464.6,464.6z"/><path fill="#1C7AB5" d="M433.6,433.6l-30.9-30.9H309.7L170.3,263.3l-15.4,15.5l154.8,154.8 H433.6z"/><path fill="#7FC0DB" d="M402.7,402.7l30.9,30.9V309.7l-30.9-30.9L387.2,294.3l15.4,15.4 V402.7z"/><path fill="#1C7AB5" d="M402.7,402.7l-30.9-30.9v-61.9l15.5-15.4l15.4,15.4v77.4V402.7 z"/><path fill="#7FC0DB" d="M402.7,402.7H309.7L170.3,263.3l15.4-15.4L309.7,371.7h61.9 L402.7,402.7z"/><path fill="#D18836" d="M495.6,0l-30.9,30.9v154.9h30.9V0z"/><path fill="#D18836" d="M464.6,185.8h30.9L309.7,371.7l-15.4-15.4L464.6,185.8z"/><path fill="#F0A04A" d="M495.6,0H309.7v30.9h154.9L495.6,0z"/><path fill="#F0A04A" d="M309.7,0l-61.9,61.9l15.4,15.4L309.7,30.9V0z"/><path fill="#D18836" d="M464.6,30.9l-30.9,30.9H309.7V30.9H464.6z"/><path fill="#D18836" d="M309.7,61.9l-30.9,30.9l-15.5-15.5L309.7,30.9V61.9z"/><path fill="#F0A04A" d="M464.6,30.9l-30.9,30.9v123.9L278.8,340.7l15.4,15.4 l170.3-170.3V30.9z"/><path fill="#1C7AB5" d="M433.6,61.9l-30.9,30.9v92.9L263.3,325.2l15.5,15.4l154.8-154.9 L433.6,61.9z"/><path fill="#7FC0DB" d="M402.7,92.9l30.9-30.9H309.7l-30.9,30.9l15.4,15.4l15.4-15.4 H402.7z"/><path fill="#1C7AB5" d="M402.7,92.9l-30.9,30.9H309.7l-15.4-15.4l15.4-15.4h77.4H402.7z"/><path fill="#7FC0DB" d="M402.7,92.9v92.9L263.3,325.2l-15.4-15.5l123.9-123.9v-61.9 L402.7,92.9z"/></g></g></g></switch></svg>