<svg xmlns="http://www.w3.org/2000/svg" xmlns:cc="http://web.resource.org/cc/" xmlns:svg="http://www.w3.org/2000/svg" id="svg2" width="100" height="91"><g id="layer1"><g id="g5373"><g id="g2831"><rect id="rect6636" width="8" height="16" x="46" y="46" fill="#000" fill-opacity="1" fill-rule="evenodd" stroke="none" stroke-dashoffset="0" stroke-linecap="butt" stroke-linejoin="round" stroke-miterlimit="4" stroke-opacity="1" stroke-width="1.003"/><rect id="rect8270" width="3" height="26" x="46" y="63" fill="#000" fill-opacity="1" fill-rule="evenodd" stroke="none" stroke-dashoffset="0" stroke-linecap="butt" stroke-linejoin="round" stroke-miterlimit="4" stroke-opacity="1" stroke-width="1.003"/><rect id="rect9030" width="3" height="26" x="51" y="63" fill="#000" fill-opacity="1" fill-rule="evenodd" stroke="none" stroke-dashoffset="0" stroke-linecap="butt" stroke-linejoin="round" stroke-miterlimit="4" stroke-opacity="1" stroke-width="1.003"/><path id="path9032" fill="#000" fill-opacity="1" fill-rule="evenodd" stroke="none" stroke-dashoffset="0" stroke-linecap="butt" stroke-linejoin="round" stroke-miterlimit="4" stroke-opacity="1" stroke-width="1.003" d="M 72.1 19.6 A 4.9 5.3 0 1 1 62.2,19.6 A 4.9 5.3 0 1 1 72.1 19.6 z" transform="matrix(0.808081,0.000000,0.000000,0.754717,-4.262640,31.20756)"/><path id="path9034" fill="#000" fill-opacity="1" fill-rule="evenodd" stroke="none" stroke-dashoffset="0" stroke-linecap="butt" stroke-linejoin="round" stroke-miterlimit="4" stroke-opacity="1" stroke-width="1.003" d="M 72.1 19.6 A 4.9 5.3 0 1 1 62.2,19.6 A 4.9 5.3 0 1 1 72.1 19.6 z" transform="matrix(0.808081,0.000000,0.000000,0.754717,-4.262640,22.20757)"/></g><g id="g8251" transform="translate(0.000000,-10.99998)"><rect id="rect3477" width="21" height="1" x="2" y="54" fill="#000" fill-opacity="1" fill-rule="evenodd" stroke="none" stroke-dashoffset="0" stroke-linecap="butt" stroke-linejoin="round" stroke-miterlimit="4" stroke-opacity="1" stroke-width="1"/><rect id="rect5874" width="20" height="3" x="24" y="53" fill="#000" fill-opacity="1" fill-rule="evenodd" stroke="none" stroke-dashoffset="0" stroke-linecap="butt" stroke-linejoin="round" stroke-miterlimit="4" stroke-opacity="1" stroke-width="1.003" rx="0" ry="0"/><rect id="rect6634" width="21" height="1" x="24" y="54" fill="#000" fill-opacity="1" fill-rule="evenodd" stroke="none" stroke-dashoffset="0" stroke-linecap="butt" stroke-linejoin="round" stroke-miterlimit="4" stroke-opacity="1" stroke-width="1"/><path id="path6731" fill="red" fill-opacity="1" fill-rule="evenodd" stroke="none" stroke-linecap="butt" stroke-linejoin="miter" stroke-opacity="1" stroke-width="1" d="M 2.0,55.0 L 2.0,71.0 L 14.0,55.0 L 2.0,55.0 z"/><path id="path7491" fill="#ff0" fill-opacity="1" fill-rule="evenodd" stroke="none" stroke-linecap="butt" stroke-linejoin="miter" stroke-opacity="1" stroke-width="1" d="M 14.0,70.9 L 14.0,55.0 L 2.0,71.0 L 14.0,70.9 z"/></g><g id="g8258" transform="matrix(-0.707167,0.707107,0.707167,0.707107,48.63550,-25.71070)"><rect id="rect8260" width="21" height="1" x="2" y="54" fill="#000" fill-opacity="1" fill-rule="evenodd" stroke="none" stroke-dashoffset="0" stroke-linecap="butt" stroke-linejoin="round" stroke-miterlimit="4" stroke-opacity="1" stroke-width="1"/><rect id="rect8262" width="20" height="3" x="24" y="53" fill="#000" fill-opacity="1" fill-rule="evenodd" stroke="none" stroke-dashoffset="0" stroke-linecap="butt" stroke-linejoin="round" stroke-miterlimit="4" stroke-opacity="1" stroke-width="1.003" rx="0" ry="0"/><rect id="rect8264" width="21" height="1" x="24" y="54" fill="#000" fill-opacity="1" fill-rule="evenodd" stroke="none" stroke-dashoffset="0" stroke-linecap="butt" stroke-linejoin="round" stroke-miterlimit="4" stroke-opacity="1" stroke-width="1"/><path id="path8266" fill="red" fill-opacity="1" fill-rule="evenodd" stroke="none" stroke-linecap="butt" stroke-linejoin="miter" stroke-opacity="1" stroke-width="1" d="M 2.0,55.0 L 2.0,71.0 L 14.0,55.0 L 2.0,55.0 z"/><path id="path8268" fill="#ff0" fill-opacity="1" fill-rule="evenodd" stroke="none" stroke-linecap="butt" stroke-linejoin="miter" stroke-opacity="1" stroke-width="1" d="M 14.0,70.9 L 14.0,55.0 L 2.0,71.0 L 14.0,70.9 z"/></g></g></g></svg>