<svg xmlns="http://www.w3.org/2000/svg" xmlns:xlink="http://www.w3.org/1999/xlink" width="415.385" height="481.427" enable-background="new 0 0 415.385 481.427" overflow="visible" space="preserve" viewBox="0 0 415.385 481.427"><switch><g><g id="Layer_1"><g><path stroke="#000" stroke-miterlimit="10" stroke-width=".036" d="M97.8,288.7 c0.0,3.7-0.7,6.9-2.6,10.0c-1.9,2.9-4.3,6.5-8.7,7.7c-4.7,1.0-13.5,1.6-18.5-0.7 c-5.0-2.5-8.8-8.1-10.9-13.7c-2.1-5.6-2.5-11.9-1.5-19.5c-8.6-0.8-14.3-3.2-17.5-7.0 c-3.2-3.8-3.6-9.0-1.3-15.7c-8.8-6.6-13.8-12.4-15.1-18.0c-1.3-5.6,1.1-10.4,7.4-15.0 c-6.8-8.1-9.7-15.7-8.7-23.5c0.9-7.8,5.7-15.2,14.6-22.7c-7.2-7.2-11.2-15.1-11.9-24.0 c-0.8-9.0,3.2-20.9,7.4-28.8c4.2-7.7,9.9-13.2,17.5-17.0c-4.7-8.7-4.7-16.7,0-24.8 c4.8-8.0,14.0-15.6,28.4-23.0c0.0-10.6,2.5-18.3,7.4-23.5c5.0-5.1,12.1-7.7,22.0-7.5 c2.3-6.7,6.0-11.3,11.4-14.0c5.2-2.7,14.4-4.6,20.2-2.0c5.7,2.5,10.5,8.6,14.0,17.2 c3.3,8.4,5.4,19.4,6.1,33.3c0.9-0.0,1.7-1.9,2.3-5.7c0.5-3.9-0.7-11.0,1.0-17.2 c1.7-6.4,3.7-14.8,9.8-20.2c6.1-5.3,14.8-9.1,26.5-11.5c0.3-0.3,2.3-0.5,6.1-0.4 c3.7-0.0,11.2-2.2,16.4,0.7c5.1,3.0,10.0,8.5,14.6,17.0c9.4,1.5,16.8,3.6,22.5,6.0 c5.7,2.3,9.0,5.0,11.4,8.4c2.1,3.4,2.8,7.4,1.8,12.0c3.5,0.2,6.4,1.2,9.0,3.0 c2.5,1.6,4.5,3.9,6.1,7.4c1.5,3.4,2.5,8.1,3.2,13.7c5.7-1.6,11.1-1.4,16.4,1.2 c5.2,2.5,12.0,8.7,14.8,14.2c2.7,5.4,3.0,11.3,1.3,18.0c6.0,0.1,9.5,4.0,10.3,12.0 c0.8,7.9-1.0,19.6-5.5,35.5c4.1,1.2,7.1,4.2,9.4,9c2.1,4.8,4.6,13.8,3.7,19.5 c-1.1,5.5-4.4,9.9-10.0,13.5c3.9,3.1,6.2,6.8,7.1,11.3c0.7,4.3-0.6,10.8-2.1,15.2 c-1.5,4.3-3.9,8.0-7.1,11.0c-0.7,3.4,0.9,6.5,5.2,9.5c4.3,2.9,16.8,2.8,20.4,8.2 c3.4,5.5-1.1,18.7,0.5,24.5c1.7,5.5,8.6,3.4,9.5,8.7c0.7,5.3-6.4,17.6-4.7,22.7 c1.5,4.8,13.5,2.4,14.3,6.7c0.6,4.2-10.8,14.0-9.8,18.7c1.0,4.6,13.6,4.6,15.6,9.0 c1.8,4.4-4.4,12.2-4.5,17.0c-0.1,4.6,2.8,7.1,3.7,10.6c0.7,3.3,2.0,6.2,1.0,9.7 c-1.0,3.5-3.3,7.2-7.1,11.2c7.5,7.1,14.1,14.8,20.1,23.6c5.9,8.6,11.3,16.4,15.4,28.2 c3.9,11.8,6.6,25.5,8.2,42.0h-264.4H0.8c-1.7-9.5-1.0-21.1,2.6-35.5 c3.5-14.5,9.6-34.7,18.8-50.3c9.2-15.6,20.5-28.1,36.1-42.5c15.6-14.4,34.1-28.5,56.6-43.0 c-3.7-5.4-6.9-9.6-9.8-13.2C102.3,293.0,99.8,290.3,97.8,288.7z"/><path fill="#E3B79C" stroke="#000" stroke-miterlimit="10" stroke-width=".036" d="M133.6,356.4 c-2.8-5.8-5.5-12.4-7.9-20.5c-2.4-8.0-4.7-17.0-6.9-27.2c-5.8-7.1-11.0-13.8-15.9-20.5 c-5.0-6.7-9.2-10.0-13.0-19.2c-3.6-9.3-7.5-25.1-9.0-36.0c-1.5-11.0-0.7-21.2-0.5-29.0 c0.0-7.8,2.0-10.3,1.2-17.2c-0.9-7.0-6.9-13.2-6.0-24.3c0.7-11.1,4.1-29.3,11.1-41.5 c7.1-12.3,19.4-23.0,30.8-31.0c11.0-7.9,22.1-14.7,35.8-16.5c13.7-1.8,33.1,1.4,45.9,5.5 c12.6,3.9,21.9,9.7,29.7,17.7c7.7,7.9,12.8,18.9,16.7,29.8c3.8,10.8,6.4,24.0,6.3,34.5 c-0.1,10.3-5.6,17.7-7.1,27.2c-1.5,9.5-2.0,19.9-2.3,29.0c-0.5,8.7,0.6,14.9-0.2,23.8 c-1.1,9-3.7,21.3-5.8,29.3c-2.0,7.6-4.8,12.4-6.3,17.2c-1.6,4.7-0.8,6.6-3.4,11.2 c-2.7,4.5-9.7,10.5-12.4,15.5c-2.7,4.7,0.1,8.6-3.7,13.0c-4.1,4.5-19.0,11.4-20.4,13.5 c-1.5,1.8,7.5-0.3,11.7-2.4c4.1-2.4,10.4-6.7,13.2-11.0c2.6-4.2,0.7-9.5,3.1-13.7 c2.3-4.2,7.9-7.1,10.6-11.5c2.4-4.5,2.2-8.4,4.7-15.2c2.5-6.8,5.9-15.1,10.3-25.3 c-0.5,2.9-0.3,5.3,0.5,7.5c0.8,2.0,2.2,3.7,4.5,5.0c-4.9,8.6-10.5,18.9-17.0,31.4 c-6.5,12.4-13.6,26.5-21.7,42.8c-11.8,7.1-22.3,11.9-31.8,14.7c-9.5,2.7-17.5,2.7-24.9,1.7 C145.7,363.5,139.3,360.8,133.6,356.4z"/><path stroke="#000" stroke-miterlimit="10" stroke-width=".036" d="M133.6,259.7 c-2.7,3.2-4.9,6.4-7.2,9.7c-2.2,3.2-5.4,7.3-5.8,9.5c-0.4,1.8,1.8,3.0,3.4,2.2 c1.4-0.9,3.3-3.3,5.5-7.5c4.9-0.6,12.9-1.1,24.6-1.4c11.6-0.3,39.6-0.3,44.9-0.7 c5.0-0.6-10.2-1.2-13.8-2.5c-3.5-1.3-4.4-4.2-7.4-5.0c-3.2-0.7-7.4-0.2-10.6,0.5 c-3.2,0.6-6.0,3.7-7.9,3.4c-1.8-0.3-1.6-5.1-3.2-5.5c-1.6-0.3-3.3,2.1-6.3,3.2 c-3.2,1.1-9.3,2.6-12.2,3.2c-2.8,0.4-3.8,0.6-4.5-0.7C132.3,266.6,132.5,263.9,133.6,259.7z"/><path stroke="#000" stroke-miterlimit="10" stroke-width=".036" d="M149.8,278.5 c7.4-1.4,14.4-2.1,21.5-2.0c6.9,0.1,13.6,1.0,20.1,2.7c1.2,1.1,1.9,2.7,2.4,4.7 c0.3,2.0,0.3,4.3,0,7.2c-3.4-3.4-7.2-5.8-11.7-7.7c-4.5-1.8-9.5-2.9-14.9-3.2 c-5.4-0.4-14.0,0.9-16.9,0.7C147.4,280.6,147.2,279.8,149.8,278.5z"/><path stroke="#000" stroke-miterlimit="10" stroke-width=".036" d="M198.4,249.2 c-0.2,0.4,4.7,7.0,6.1,10.2c1.2,3.0,1.4,4.8,1.5,7.9c-0.0,3.0-1.5,9.9-1.0,10.2 c0.5,0.1,3.9-5.5,4.2-9.0c0-3.6-1.2-8.4-3.2-11.7C204.2,253.6,198.6,248.7,198.4,249.2z"/><path stroke="#000" stroke-miterlimit="10" stroke-width=".036" d="M170.8,181.8 c-0.3-2.5-2.8,10.9-3.7,17.0c-0.9,6.0-2.5,14.5-1.3,19.0c1.1,4.2,6.9,4.8,8.4,7.0 c1.5,2.2-0.5,4.1,0.5,6.0c1.1,1.6,5.7,0.8,5.8,3.9c-0.1,3.0-5.8,11.9-6.3,14.2 c-0.6,2.0,0.8,1.4,2.9-0.9c2.0-2.4,8.7-10.2,9.0-13.2c0.1-3.0-7.1-3.6-8.2-5.5 c-1.2-2.0,3.0-3.9,1.5-6.5c-1.6-2.6-9.1-2.1-10.6-9C167.5,206.9,171.0,184.4,170.8,181.8z"/><path stroke="#000" stroke-miterlimit="10" stroke-width=".036" d="M171.8,249.7 c-0.3-0.3-4.8,2.0-6.6,2.5c-1.9,0.2-3.3-0.7-4.2-0.2c-0.9,0.5-1.8,2.4-0.7,2.9 c1.0,0.3,4.7,0.2,6.9-0.5C169.0,253.4,172.1,250.1,171.8,249.7z"/><path stroke="#000" stroke-miterlimit="10" stroke-width=".036" d="M164.1,246.2 c-0.3-2.0-0.0-7.5,0.7-9.2c0.7-1.8,2.2-2.1,3.4-0.9c1.0,1.2,3.3,6.4,3.1,8.4 c-0.2,2.0-3.0,3.3-4.2,3.7C165.9,248.4,164.6,248.0,164.1,246.2z"/><path stroke="#000" stroke-miterlimit="10" stroke-width=".036" d="M151.1,239.9 c0.5-1.5,1.2-2.9,1.8-3.2c0.6-0.3,1.4-0.5,1.8,1.4c0.1,1.9,0.6,7.7-0.2,10.2 c-1.0,2.3-3.2,5.4-5.0,4.0c-1.7-1.6-4.2-9.0-5.0-12.7c-1.0-3.6-1.5-6.5-0.5-9 c1.0-2.6,4.7-1.8,6.3-6.2c1.4-4.6,1.7-19.9,2.3-20.5c0.5-0.5,1.8,12.9,1.0,17.5 c-0.8,4.3-4.5,6.5-5.5,9.5c-1.0,3.0-0.8,5.9-0.5,8.4c0.1,2.3,0.9,5.3,1.5,5.5 C149.7,245.0,150.5,241.3,151.1,239.9z"/><path stroke="#000" stroke-miterlimit="10" stroke-width=".036" d="M174.2,170.2 c1.6-4.6,4.5-8.5,8.2-12.0c3.8-3.5,7.9-6.9,14.0-8.5c5.9-1.6,14.5-1.9,21.5-1.2 c6.9,0.6,15.0,2.9,19.4,5.2c4.0,2.1,4.5,5.1,5.3,8.0c0.7,2.7,0.5,5.8-0.5,9 c-7.8-4.8-15.1-8.0-22.5-9.7c-7.4-1.8-13.9-2.0-21.5-0.5 C190.4,162.0,182.7,165.1,174.2,170.2z"/><path stroke="#000" stroke-miterlimit="10" stroke-width=".036" d="M153.4,162.1 c-6.6-8.4-13.0-13.9-19.6-16.5c-6.6-2.5-13.3-0.1-19.7,0.9c-6.5,0.9-13.5,1.9-18.5,4.5 c-5.0,2.6-9.6,6.9-11.1,11.0c-1.5,3.9-0.7,7.9,2.3,12.5c4.8-4.6,10.8-8.3,18.6-11.2 c7.7-3.0,19.1-6.0,27.3-6.2C140.7,156.9,147.5,158.6,153.4,162.1z"/><path stroke="#000" stroke-miterlimit="10" stroke-width=".036" d="M198.2,223.8 c2.0-1.4,12.2-5.3,18.3-7.9c6.0-2.7,16.1-7.8,17.2-7.7c0.7,0.1-7.1,5.6-11.9,8.2 c-4.9,2.5-13.3,5.6-17.2,6.9C200.4,224.6,196.2,224.9,198.2,223.8z"/><path stroke="#000" stroke-miterlimit="10" stroke-width=".036" d="M118.4,228.1 c-3.6-1.4-10.5-2.8-15.4-4.5c-5.0-1.9-13.8-6.8-13.8-6.2c0.0,0.6,8.1,7.1,14.0,9.7 c5.9,2.5,18,5.0,20.7,5.2C126.5,232.5,122.0,229.5,118.4,228.1z"/><path stroke="#000" stroke-miterlimit="10" stroke-width=".036" d="M226.1,272.7 c-1.5,7.5-3.0,14.1-5.0,19.8c-1.9,5.4-2.3,10.0-6.4,13.7c-4.1,3.8-10.1,6.5-18.3,8.7 c-2.8,5.5-6.1,10.3-9.8,14.2c-3.8,3.8-6.3,7.4-12.4,9.0c-6.2,1.4-17.9,2.4-24.4,0.2 c-6.4-2.3-12.0-7.5-14.3-13.0c-2.3-5.6-0.5-19.4,0.2-19.5c0.7-0.0,1.2,14.6,4.2,19.5 c2.7,4.8,6.9,8.0,12.7,9.5c5.7,1.4,14.8,2.5,21.7-1.2c6.8-4.1,12.9-11.5,18.8-22.7 c4.8-0.2,9.8-3.3,15.4-9.7C214.0,294.8,219.8,285.5,226.1,272.7z"/><path fill="silver" stroke="#000" stroke-miterlimit="10" stroke-width=".036" d="M93.2,287.4 c0.0,5.3-1.0,9.2-3.4,12.0c-2.4,2.6-6.8,3.9-10.9,3.9c-4.2,0-10.4,1.4-13.8-3.9 c-3.4-5.6-5.5-15.1-6.6-29.0c-6.9-1.1-11.7-2.8-15.1-5.0c-3.3-2.1-3.8-4.8-4.5-8.0 c-0.7-3.3-0.7-7.0,0-11.5c-5.7-2.3-9.6-5.2-11.7-8.7c-2.0-3.6-1.2-9-0.5-12.4 c0.7-3.5,2.4-6.3,5.0-8.5c-4.5-6.2-7.0-12.0-7.4-17.7c-0.4-5.7,2.1-10.9,4.7-16.0 c2.5-5.0,5.9-9.7,10.3-14.0c-6.6-5.7-10.6-11.9-12.4-19.2c-1.7-7.3-0.3-17.4,1.8-23.7 c2.0-6.3,6.0-10.0,10.1-14.0c3.9-4.0,8.3-7.5,13.5-10.3c-4.2-3.9-5.9-8.4-5.0-13.7 c0.7-5.4,4.3-12.3,9.8-17.7c5.4-5.4,12.7-10.1,22.3-14.5c-0.8-7.8-0.0-14.0,2.3-18.9 c2.3-4.9,7.5-8.1,11.9-10.0c4.4-1.8,9.0-2.1,14.3-1.0c2.1-6.8,5.3-11.5,10.1-14.2 c4.6-2.8,12.7-3.8,17.7-2.0c4.8,2.0,8.9,7.7,11.7,13.5c2.6,5.6,3.1,13.8,4.5,20.0 c1.2,6.0,2.1,13.4,3.4,16.2c1.2,2.5,2.9,2.2,4.2,0c1.0-2.3,1.3-7.2,2.6-13.2 c1.2-6.1,1.1-15.8,5.0-22.3c3.8-6.5,10.8-12.6,17.8-15.7c6.8-3.0,16.4-3.4,23.1-2.9 c6.5,0.3,12.1,1.9,16.2,5.0c3.9,3.0,6.4,7.2,7.4,13.0c6.3,0.2,11.9,1.1,16.9,2.7 c4.8,1.5,9.7,3.0,12.7,6.7c3.0,3.7,4.5,8.8,5.0,15.5c4.3-0.0,7.8,0.9,10.6,3.0 c2.6,2.1,4.3,5.4,5.8,9.2c1.4,3.6,2.4,7.7,2.9,12.5c5.6-1.2,10.5-1.1,15.1,0.2 c4.5,1.4,9.0,4.5,11.9,8.2c2.7,3.7,4.2,8.9,5.0,13.2c0.7,4.1,0.5,7.9-0.5,11.5 c4.0-0.0,6.9,1.0,8.7,3.5c1.7,2.4,1.9,6.5,1.8,11.0c-0.2,4.3-1.5,10.0-2.6,15.2 c-1.1,5.1-2.3,10.2-3.9,15.5c4.0,2.0,6.9,5.0,9.2,8.8c2.1,3.8,3.2,9.9,3.9,13.7 c0.5,3.6,1.6,5.2,0,8.5c-1.7,3.2-5.2,6.7-10.3,10.7c3.8,2.8,6.1,6.0,6.9,10.2 c0.6,4.1-0.8,9.5-2.4,14.2c-1.6,4.5-3.9,9-7.1,13.2c2.1,5.5,5.0,9.6,8.7,12.5 c3.6,2.8,9.8,2.4,13.2,4.5c3.2,1.9,5.5,2.5,6.6,7.5c1.0,4.9-2.1,17.2-0.7,21.7 c1.2,4.3,7.1-0.4,7.9,4.5c0.6,4.8-5.1,19.4-3.7,24.5c1.4,4.8,10.1,2.7,11.9,5.0 c1.5,2.1-0.3,4.2-1.6,8.0c-1.3,3.7-6.9,10.8-5.5,14.5c1.4,3.3,12.0,3.2,14.0,6.5 c1.8,3.2-1.7,9.7-2.6,13.2c-0.9,3.3-3.1,4.6-2.4,7.2c0.7,2.4,6.0,4.5,6.9,7.7 c0.7,3.2-0.6,8.7-2.3,11.7c-1.8,2.8-5.6,5.6-8.2,5.5c-2.8-0.3-5.3-3.2-7.7-6.7 c-2.3-3.5-4.5-8.1-6.3-14.0c-5.6-0.5-9.6-1.8-12.4-3.9c-2.8-2.2-3.4-6.4-3.9-8.7 c-0.5-2.4-0.1-4.2,1.0-5.5c-5.6,1.1-10.2,0.5-13.8-1.4c-3.7-2.1-7.0-6.0-7.9-11.0 c-0.9-5.0-0.1-11.3,2.3-19.0c-5.9,2.4-10.7,3.4-15.1,3.2c-4.5-0.3-8.1-2.5-10.6-4.7 c-2.3-2.2-3.1-5.6-3.1-8.4c-0.1-2.9,0.8-5.9,2.6-9.0c-5.9,3.1-10.5,4.7-14.3,5.0 c-3.8,0.1-5.3-1.7-7.9-3.9c-2.7-2.4-6.7-5.6-7.9-9.7c-1.2-4.1-1.2-8.8,0.2-14.5 c-3.7,0.2-6.4-0.2-8.4-1.2c-2.0-1.0-2.6-2.0-3.7-5.2c-1.2-3.3-3.2-7.2-3.1-14.5 c0.0-7.4,2.8-20.9,3.4-29.3c0.4-8.3-0.9-13.3-0.2-20.5c0.5-7.2,2.3-15.1,3.9-22.5 c1.5-7.4,5.7-12.9,5.5-21.7c-0.3-8.9-2.4-20.0-6.9-31.0c-4.5-11.0-9.5-25.3-19.4-34.3 c-9.9-9.0-25.8-15.5-39.6-19.1c-13.8-3.7-29.0-5.4-42.5-2.4c-13.6,3.0-27.4,13.1-37.7,20.2 c-10.2,6.9-17.1,12.4-23.1,21.5c-6.0,8.9-10.4,22.6-13.0,31.8c-2.5,9.0-2.8,15.7-2.3,22.2 c0.3,6.4,3.7,10.0,4.5,16.2c0.5,6.1-0.4,12.9-0.5,20.5c-0.1,7.5-0.4,17.1,0.2,24.5 c0.7,7.3,2.0,11.7,3.9,19.4c1.8,7.5,4.2,18.9,6.6,25.8C89.0,279.3,91.0,284.1,93.2,287.4z"/><path stroke="#000" stroke-miterlimit="10" stroke-width=".036" d="M259.7,203.5 c-0.8-0.5,4.6,6.4,5.3,11.9c0.3,5.4-2.8,20.0-1.9,20.7c0.8,0.3,7.7-12.0,7.3-17.5 C269.7,213.0,260.6,204.1,259.7,203.5z"/><path stroke="#000" stroke-miterlimit="10" stroke-width=".036" d="M271.4,197.0 c-0.8-0.1,5.0,3.8,6.8,7.9c1.6,3.9,2.4,15.8,3.3,16.1c0.6,0.1,3.1-10.8,1.4-14.8 C281.3,202.1,272.2,197.3,271.4,197.0z"/><path stroke="#000" stroke-miterlimit="10" stroke-width=".036" d="M287.7,188.5 c-0.5-0.1,3.3,2.5,4.6,5.4c1.0,2.7,1.7,10.6,2.2,10.9c0.4,0.0,2.0-7.4,0.9-10.1 C294.3,191.9,288.3,188.7,287.7,188.5z"/><path stroke="#000" stroke-miterlimit="10" stroke-width=".036" d="M270.3,262.9 c-1.0,0,7.4,3.2,10.9,7.8c3.3,4.5,8.0,18.7,9.1,18.9c1.0,0,0.4-14.2-2.8-18.7 C284.1,266.4,271.4,262.9,270.3,262.9z"/><path stroke="#000" stroke-miterlimit="10" stroke-width=".036" d="M287.5,255.6 c-0.6,0,4.9,2.1,7.2,5.2c2.2,2.9,5.2,12.4,6.0,12.6c0.6-0.0,0.2-9.4-1.9-12.4 C296.6,257.9,288.2,255.5,287.5,255.6z"/><path stroke="#000" stroke-miterlimit="10" stroke-width=".036" d="M300.8,249.9 c-0.3-0.0,2.4,1.0,3.6,2.6c1.0,1.5,2.6,6.2,3.0,6.3c0.3-0.0,0.0-4.7-0.9-6.2 C305.4,251.0,301.1,250.0,300.8,249.9z"/><path stroke="#000" stroke-miterlimit="10" stroke-width=".036" d="M314.3,298.8 c-0.7,0.0,5.5,0.7,8.6,3.0c3.1,2.3,8.9,10.4,9.7,10.4c0.5-0.2-2.6-9.1-5.7-11.4 C323.7,298.5,315.1,298.6,314.3,298.8z"/><path stroke="#000" stroke-miterlimit="10" stroke-width=".036" d="M326.8,288.6 c-0.5,0.0,3.9,0.5,6.3,2.2c2.2,1.6,6.7,7.7,7.2,7.7c0.4-0.2-2.0-6.7-4.2-8.4 C333.8,288.5,327.2,288.3,326.8,288.6z"/><path stroke="#000" stroke-miterlimit="10" stroke-width=".036" d="M255.2,108.3 c-0.7-0.0,5.2,2.0,7.8,5.1c2.5,3.0,6.1,12.6,7.0,12.8c0.7-0.1-0.2-9.9-2.6-12.8 C264.7,110.3,255.9,108.3,255.2,108.3z"/><path stroke="#000" stroke-miterlimit="10" stroke-width=".036" d="M269.3,96.1 c-0.4,0.0,3.6,1.3,5.5,3.6c1.8,2.1,4.2,8.9,4.9,9.0c0.4-0.1-0.1-6.9-1.8-9.0 C276.1,97.5,269.8,96.2,269.3,96.1z"/><path fill="silver" stroke="#000" stroke-miterlimit="10" stroke-width=".036" d="M115.4,314.8 c-4.8,2.2-11.3,6.3-19.3,12.5c-8.0,6.1-17.6,14.2-28.8,24.3c-1.0,7.3-0.1,14.0,3.4,20.2 c3.3,6.1,10.8,12.6,17.2,16.6c6.3,3.8,13.1,6.0,20.6,6.5c-0.5,5.8,0.4,10.9,3.0,15.4 c2.4,4.4,8.3,8.5,12.0,11.3c3.7,2.6,6.9,4.1,9.9,4.4c-5.1,4.2-6.8,10.6-5.1,19.4 c1.6,8.8,6.5,19.5,15.0,32.8h24.9c3.2-6.6,3.2-16.6,0-30.4c-3.4-13.9-13.7-37.1-19.8-51.9 c-6.1-14.6-11.7-25.7-16.3-35.6c-4.7-10.1-8.3-16.6-11.1-24.3 C118.1,328.6,116.2,321.6,115.4,314.8z"/><path fill="silver" stroke="#000" stroke-miterlimit="10" stroke-width=".036" d="M251.4,275.5 c-5.1,11.5-11.4,24.6-18.9,39.7c-7.4,15.1-14.1,32.7-25.8,50.2 c-11.8,17.3-26.3,34.7-44.3,53.1c2.2,4.6,4.2,10.8,6.4,18.6c1.9,7.8,5.2,20.9,6.0,28.0 c0.6,6.8,0.1,11.3-1.7,13.3h45.2c4.9-3.7,8.6-8.2,11.1-13.3c2.5-5.2,3.7-11.1,3.8-17.8 c8.6-1.5,13.7-6.4,15.5-14.6c1.6-8.2-0.0-19.5-5.1-34.4c9.9-7.9,16.0-15.3,18.5-22.7 c2.3-7.4,0.9-14.2-4.2-21.0c8.0-2.3,14.1-5.7,18.5-10.1c4.1-4.6,6.1-10.8,7.3-16.6 c1.2-5.8,1.2-11.9,0-18.2c-0.6-1.8-1.1-3.4-1.2-4.8c-0.2-1.5-0.2-2.5,0-3.6 c-3.8,1.6-7.4,2.1-11.1,1.6c-3.7-0.6-7.8-2.7-10.7-5.2c-3.0-2.7-6.0-6.9-6.8-10.5 c-0.9-3.7-0.3-7.3,1.7-11.3l-6.4-0.8L251.4,275.5z"/><path fill="#FFF" stroke="#000" stroke-miterlimit="10" stroke-width=".036" d="M136.9,360.7 c5.2,4.1,10.9,6.4,17.2,7.3c6.1,0.6,11.2-0.1,20.2-2.4c9.0-2.2,19.7-5.8,33.1-10.9 c-0.5,3.8-4.7,10.5-12.4,20.2c-7.8,9.7-19.0,22.1-34.0,37.7c-3.9-8.9-7.4-16.4-10.7-23.5 c-3.3-6.9-6.3-12.8-9.0-17.8L136.9,360.7z"/><path fill="#212121" stroke="#000" stroke-miterlimit="10" stroke-width=".036" d="M226.0,477.9 c4.5-3.8,7.5-8.0,9.4-12.5c1.7-4.5,2.1-9.3,1.2-14.6c7.1-1.7,12.3-4.4,15.4-8.5 c3.1-4.0,3.7-8.6,3.4-15.8c-0.5-7.4-2.4-16.5-6.0-27.9c6.6-4.1,11.5-8.4,14.6-12.9 c2.9-4.7,3.9-9.8,3.8-14.5c-0.0-4.7-1.3-9.0-3.8-13.3c8.4-2.8,14.4-6.9,18.5-12.1 c3.8-5.3,4.3-14.3,5.1-19.4c0.7-5.1,0.6-8.7-0.4-10.9c2.2,4.5,5.0,7.2,8.6,8.1 c3.5,0.7,7.5-0.2,12.4-3.2c-2.4,6.2-3.1,11.4-2.1,15.8c0.8,4.2,3.9,7.5,7.7,9.7 c3.7,2.1,8.3,3.2,14.2,3.2c-2.3,4.5-2.2,8.1,0.8,11.3c3.0,3.0,8.7,5.5,17.2,7.3 c0.8,5.5,2.4,10.1,4.7,13.7c2.1,3.7,5.1,6.3,8.6,8.1c3.4,1.5,7.3,2.1,12.0,1.6 c2.0,2.4,3.7,4.6,4.7,6.4c1.0,1.8,1.4,3.2,1.2,4.4c-6.6-1.6-13.4-1.1-20.6,1.6 c-7.2,2.6-15.6,6.8-22.3,14.5c-6.8,7.7-13.9,22.6-18.0,31.2c-4.2,8.6-9.2,23.3-6.4,19.8 c2.8-3.9,13.1-32.0,23.6-42.1c10.4-10.2,29.2-16.9,38.7-17.8c9.3-0.7,10.7,1.7,17.2,13.3 c6.3,11.7,13.1,30.0,20.6,55.9C349.1,478.2,287.6,478.0,226.0,477.9z"/><path fill="#212121" stroke="#000" stroke-miterlimit="10" stroke-width=".036" d="M60.7,355.0 c-0.3,7.1,0.7,13.2,3.4,18.6c2.6,5.2,5.9,9.0,12.4,12.9c6.3,3.8,14.9,7.4,25.8,10.5 c0.1,7.7,2.1,13.9,6.0,19.0c3.8,5.0,9.3,8.6,16.8,10.9c-3.2,2.5-3.5,8.1-1.2,16.6 c2.3,8.6,7.2,19.8,15.0,34.4H5.6c-0.0-19.8,2.5-37.1,7.7-53.1c5.2-16.0,15.5-29.9,23.6-41.7 C45.0,371.6,52.7,362.2,60.7,355.0z"/><path stroke="#000" stroke-miterlimit="10" stroke-width=".036" d="M219.0,208.1 c-2.6,1.8-8.7,6.5-11.8,7.9c-3.2,1.3-4.4,2.4-7.3,0c-2.9-2.7-7.5-10.5-10.0-15.1 c-2.5-4.5-5.1-7.7-4.8-11.7c0.2-4.0,2.1-7.9,6.4-11.9c4.2-4.1,14.2-11.7,18.9-11.9 c4.5-0.1,5.9,6.6,8.5,11.4c2.5,4.6,5.9,11.7,6.6,16.4c0.5,4.6-2.0,8.8-3.0,11.4 C221.2,207.0,221.4,206.2,219.0,208.1z"/><path fill="#FFF" stroke="#000" stroke-miterlimit="10" stroke-width=".036" d="M201.3,214.2 c-2.9-1.2-4.9-7.8-7.0-11.6c-2.1-3.8-5.4-7.8-6.0-11.1c-0.7-3.2-0.6-4.6,2.1-8.2 c2.8-3.7,10.4-11.9,14.6-13.5c4.0-1.5,6.7,0.4,9.7,4.5c2.8,3.9,7.2,14.2,7.9,19.3 c0.5,4.8-2.4,7.7-4.2,10.3c-1.8,2.5-3.9,3.8-6.6,5.5C208.7,211.2,204.2,215.2,201.3,214.2z"/><path stroke="#000" stroke-miterlimit="10" stroke-width=".036" d="M215.7,184.1 c-2.0-3.0-5.0-3.2-7.9-2.6c-2.9,0.3-7.3,1.3-9.1,5.2c-1.9,3.9-3.9,13.9-2.1,18.0 c1.9,3.9,9.1,6.3,13.1,5.5c3.8-0.8,8.6-6.3,9.7-10.6C220.2,195.2,217.6,187.1,215.7,184.1z"/><path fill="#FFF" stroke="#000" stroke-miterlimit="10" stroke-width=".036" d="M211.8,191.1 c-0.1-1.2-0.6-3.2-1.6-3.2c-1.1,0.0-4.3,1.9-4.7,3.2c-0.3,1.1,1.1,3.0,2.2,3.7 c1.0,0.3,2.7,0.3,3.5-0.3C211.9,193.8,211.8,192.2,211.8,191.1z"/><path stroke="#000" stroke-miterlimit="10" stroke-width=".036" d="M130.6,210.9 c-2.6,1.8-8.7,6.5-11.8,7.9c-3.2,1.3-4.4,2.4-7.3,0c-2.9-2.7-7.5-10.5-10.0-15.1 c-2.5-4.5-5.1-7.7-4.8-11.7c0.2-4.0,2.1-7.9,6.4-11.9c4.2-4.1,14.1-11.7,18.8-11.9 c4.5-0.0,5.9,6.6,8.5,11.4c2.5,4.6,6.0,11.7,6.7,16.4c0.5,4.6-2.0,8.8-3.0,11.4 C132.8,209.8,133.0,209.0,130.6,210.9z"/><path fill="#FFF" stroke="#000" stroke-miterlimit="10" stroke-width=".036" d="M112.9,217.0 c-2.9-1.2-4.9-7.8-7.0-11.7c-2.1-3.8-5.4-7.9-6.0-11.1c-0.7-3.3-0.6-4.5,2.1-8.2 c2.8-3.7,10.4-12.0,14.6-13.5c3.9-1.5,6.7,0.4,9.7,4.5c2.8,3.9,7.2,14.2,7.9,19.3 c0.4,4.8-2.3,7.7-4.2,10.3c-1.8,2.5-3.9,3.8-6.6,5.5C120.3,214.0,115.8,218.1,112.9,217.0z"/><path stroke="#000" stroke-miterlimit="10" stroke-width=".036" d="M128.5,185.9 c-2.0-3.0-5.0-3.1-7.9-2.6c-2.9,0.3-7.3,1.3-9.1,5.2c-1.9,3.9-3.9,13.9-2.1,18.0 c1.9,3.9,9.1,6.3,13.1,5.5c3.8-0.8,8.6-6.3,9.7-10.6C133.1,197.2,130.5,188.9,128.5,185.9z"/><path fill="#FFF" stroke="#000" stroke-miterlimit="10" stroke-width=".036" d="M125.2,193.0 c-0.0-1.1-0.7-3.3-1.6-3.2c-1.1,0-4.5,2.0-4.8,3.2c-0.4,1.2,1.2,3.0,2.3,3.8 c0.9,0.5,2.8,0.2,3.6-0.3C125.2,195.8,125.3,194.2,125.2,193.0z"/></g></g></g></switch></svg>