<svg xmlns="http://www.w3.org/2000/svg" xmlns:xlink="http://www.w3.org/1999/xlink" id="svg1" width="1000" height="500"><metadata><rdf:RDF xmlns:cc="http://web.resource.org/cc/" xmlns:dc="http://purl.org/dc/elements/1.1/" xmlns:rdf="http://www.w3.org/1999/02/22-rdf-syntax-ns#"><cc:Work><dc:title>Clipart by Daniel McRae - United Kingdom</dc:title><dc:description/><dc:subject><rdf:Bag><rdf:li>unitedkingdom</rdf:li><rdf:li/><rdf:li>europe</rdf:li><rdf:li>united_nations_member</rdf:li><rdf:li>flag</rdf:li><rdf:li>sign</rdf:li></rdf:Bag></dc:subject><dc:publisher><cc:Agent rdf:about="http://www.openclipart.org"><dc:title>Daniel McRae</dc:title></cc:Agent></dc:publisher><dc:creator><cc:Agent><dc:title>Daniel McRae</dc:title></cc:Agent></dc:creator><dc:rights><cc:Agent><dc:title>Daniel McRae</dc:title></cc:Agent></dc:rights><dc:date/><dc:format>image/svg+xml</dc:format><dc:type rdf:resource="http://purl.org/dc/dcmitype/StillImage"/><cc:license rdf:resource="http://web.resource.org/cc/PublicDomain"/><dc:language>en</dc:language></cc:Work><cc:License rdf:about="http://web.resource.org/cc/PublicDomain"><cc:permits rdf:resource="http://web.resource.org/cc/Reproduction"/><cc:permits rdf:resource="http://web.resource.org/cc/Distribution"/><cc:permits rdf:resource="http://web.resource.org/cc/DerivativeWorks"/></cc:License></rdf:RDF></metadata><g id="g578" transform="scale(16.66667,16.66667)"><rect id="rect124" width="60" height="30" x="0" y="0" fill="#006" stroke-width="1pt" font-size="12"/><g id="g584" font-size="12"><path id="path146" fill="#fff" stroke-width="1pt" d="M 0 0 L 0 3.3541 L 53.2918 30 L 60 30 L 60 26.6459 L 6.7082 0 L 0 0 z M 60 0 L 60 3.35405 L 6.7082 30 L 0 30 L 0 26.6458 L 53.2918 0 L 60 0 z" font-size="12"/><path id="path136" fill="#fff" stroke-width="1pt" d="M 25 0 L 25 30 L 35 30 L 35 0 L 25 0 z M 0 10 L 0 20 L 60 20 L 60 10 L 0 10 z" font-size="12"/><path id="path141" fill="#c00" stroke-width="1pt" d="M 0 12 L 0 18 L 60 18 L 60 12 L 0 12 z M 27 0 L 27 30 L 33 30 L 33 0 L 27 0 z" font-size="12"/><path id="path150" fill="#c00" stroke-width="1pt" d="M 0 30 L 20 20 L 24.4721 20 L 4.47214 30 L 0 30 z M 0 0 L 20 10 L 15.5279 10 L 0 2.23607 L 0 0 z M 35.5279 10 L 55.5279 0 L 60 0 L 40 10 L 35.5279 10 z M 60 30 L 40 20 L 44.4721 20 L 60 27.7639 L 60 30 z" font-size="12"/></g></g></svg>