<svg xmlns="http://www.w3.org/2000/svg" xmlns:xlink="http://www.w3.org/1999/xlink" id="svg548" width="744.094" height="496.063" x="0" y="0" version="1"><metadata><rdf:RDF xmlns:cc="http://web.resource.org/cc/" xmlns:dc="http://purl.org/dc/elements/1.1/" xmlns:rdf="http://www.w3.org/1999/02/22-rdf-syntax-ns#"><cc:Work><dc:title>tanzania</dc:title><dc:description/><dc:subject><rdf:Bag><rdf:li/><rdf:li>united_nations_member</rdf:li><rdf:li>flag</rdf:li><rdf:li>africa</rdf:li><rdf:li>sign</rdf:li></rdf:Bag></dc:subject><dc:publisher><cc:Agent rdf:about="http://www.openclipart.org"><dc:title>Russell Cloran</dc:title></cc:Agent></dc:publisher><dc:creator><cc:Agent><dc:title>Russell Cloran</dc:title></cc:Agent></dc:creator><dc:rights><cc:Agent><dc:title>Russell Cloran</dc:title></cc:Agent></dc:rights><dc:date/><dc:format>image/svg+xml</dc:format><dc:type rdf:resource="http://purl.org/dc/dcmitype/StillImage"/><cc:license rdf:resource="http://web.resource.org/cc/PublicDomain"/><dc:language>en</dc:language></cc:Work><cc:License rdf:about="http://web.resource.org/cc/PublicDomain"><cc:permits rdf:resource="http://web.resource.org/cc/Reproduction"/><cc:permits rdf:resource="http://web.resource.org/cc/Distribution"/><cc:permits rdf:resource="http://web.resource.org/cc/DerivativeWorks"/></cc:License></rdf:RDF></metadata><g id="g589" font-size="12" transform="matrix(4.133858,0.000000,0.000000,4.133858,0.000000,-1.525879e-5)"><rect id="rect583" width="180" height="120" x="0" y="0" fill="#09f" fill-rule="evenodd" stroke-width="1pt"/><path id="path584" fill="#090" fill-rule="evenodd" stroke-width="1pt" d="M 0 7.10543e-15 L 180 7.10543e-15 L 0 120 L 0 7.10543e-15 z"/><path id="path586" fill-rule="evenodd" stroke-width="1pt" d="M 0 120 L 40 120 L 180 25 L 180 7.10543e-15 L 140 7.10543e-15 L 0 95 L 0 120 z"/><path id="path587" fill="#ff0" fill-rule="evenodd" stroke-width="1pt" d="M 0 91.4561 L 137.184 7.10543e-15 L 150.705 7.10543e-15 L 0 100.47 L 0 91.4561 z"/><path id="path588" fill="#ff0" fill-rule="evenodd" stroke-width="1pt" d="M -0.704896 95.47 L 150 -4.99993 L 150 4.01395 L 12.8159 95.47 L -0.704896 95.47 z" transform="translate(30.00000,24.53000)"/></g></svg>