<svg xmlns="http://www.w3.org/2000/svg" xmlns:xlink="http://www.w3.org/1999/xlink" width="170" height="260" enable-background="new 0 0 170 260" overflow="visible" space="preserve" viewBox="0 0 170 260"><g id="Layer_1"><g><rect width="170" height="260" fill="#FFF"/><path fill-rule="evenodd" d="M55.5,40.5h-20c-2.7,0-5-2.2-5-5v-20 c0-2.7,2.2-5,5-5h20c2.7,0,5,2.2,5,5v20C60.5,38.2,58.2,40.5,55.5,40.5L55.5,40.5z M55.5,40.5" clip-rule="evenodd"/><path fill="none" stroke="#000" stroke-linecap="round" stroke-linejoin="round" stroke-miterlimit="1" d="M55.5,40.5h-20c-2.7,0-5-2.2-5-5v-20c0-2.7,2.2-5,5-5h20c2.7,0,5,2.2,5,5v20C60.5,38.2,58.2,40.5,55.5,40.5 L55.5,40.5z M55.5,40.5"/><path fill-rule="evenodd" d="M95.5,40.5h-20c-2.7,0-5-2.2-5-5v-20 c0-2.7,2.2-5,5-5h20c2.7,0,5,2.2,5,5v20C100.5,38.2,98.2,40.5,95.5,40.5L95.5,40.5z M95.5,40.5" clip-rule="evenodd"/><path fill="none" stroke="#000" stroke-linecap="round" stroke-linejoin="round" stroke-miterlimit="1" d="M95.5,40.5h-20c-2.7,0-5-2.2-5-5v-20c0-2.7,2.2-5,5-5h20c2.7,0,5,2.2,5,5v20C100.5,38.2,98.2,40.5,95.5,40.5 L95.5,40.5z M95.5,40.5"/><path fill-rule="evenodd" d="M135.5,40.5h-20c-2.7,0-5-2.2-5-5v-20 c0-2.7,2.2-5,5-5h20c2.7,0,5,2.2,5,5v20C140.5,38.2,138.2,40.5,135.5,40.5L135.5,40.5z M135.5,40.5" clip-rule="evenodd"/><path fill="none" stroke="#000" stroke-linecap="round" stroke-linejoin="round" stroke-miterlimit="1" d="M135.5,40.5h-20c-2.7,0-5-2.2-5-5v-20c0-2.7,2.2-5,5-5h20c2.7,0,5,2.2,5,5v20C140.5,38.2,138.2,40.5,135.5,40.5 L135.5,40.5z M135.5,40.5"/><path fill-rule="evenodd" d="M155.5,250.5h-140c-2.7,0-5-2.2-5-5v-10 c0-2.7,2.2-5,5-5h140c2.7,0,5,2.2,5,5v10C160.5,248.2,158.2,250.5,155.5,250.5L155.5,250.5z M155.5,250.5" clip-rule="evenodd"/><path fill="none" stroke="#000" stroke-linecap="round" stroke-linejoin="round" stroke-miterlimit="1" d="M155.5,250.5h-140c-2.7,0-5-2.2-5-5v-10c0-2.7,2.2-5,5-5h140c2.7,0,5,2.2,5,5v10 C160.5,248.2,158.2,250.5,155.5,250.5L155.5,250.5z M155.5,250.5"/><path fill-rule="evenodd" d="M145.5,230.5h-120c-2.7,0-5-2.2-5-5v-20 c0-2.7,2.2-5,5-5h120c2.7,0,5,2.2,5,5v20C150.5,228.2,148.2,230.5,145.5,230.5L145.5,230.5z M145.5,230.5" clip-rule="evenodd"/><path fill="none" stroke="#000" stroke-linecap="round" stroke-linejoin="round" stroke-miterlimit="1" d="M145.5,230.5h-120c-2.7,0-5-2.2-5-5v-20c0-2.7,2.2-5,5-5h120c2.7,0,5,2.2,5,5v20 C150.5,228.2,148.2,230.5,145.5,230.5L145.5,230.5z M145.5,230.5"/><path fill-rule="evenodd" d="M135.5,200.5h-100c-2.7,0-5-2.2-5-5l0,0 c0-2.7,2.2-5,5-5h100c2.7,0,5,2.2,5,5l0,0C140.5,198.2,138.2,200.5,135.5,200.5L135.5,200.5z M135.5,200.5" clip-rule="evenodd"/><path fill="none" stroke="#000" stroke-linecap="round" stroke-linejoin="round" stroke-miterlimit="1" d="M135.5,200.5h-100c-2.7,0-5-2.2-5-5l0,0c0-2.7,2.2-5,5-5h100c2.7,0,5,2.2,5,5l0,0 C140.5,198.2,138.2,200.5,135.5,200.5L135.5,200.5z M135.5,200.5"/><path fill-rule="evenodd" d="M135.5,90.5h-100c-2.7,0-5-2.2-5-5v-10 c0-2.7,2.2-5,5-5h100c2.7,0,5,2.2,5,5v10C140.5,88.2,138.2,90.5,135.5,90.5L135.5,90.5z M135.5,90.5" clip-rule="evenodd"/><path fill="none" stroke="#000" stroke-linecap="round" stroke-linejoin="round" stroke-miterlimit="1" d="M135.5,90.5h-100c-2.7,0-5-2.2-5-5v-10c0-2.7,2.2-5,5-5h100c2.7,0,5,2.2,5,5v10 C140.5,88.2,138.2,90.5,135.5,90.5L135.5,90.5z M135.5,90.5"/><path fill-rule="evenodd" d="M124.8,200.5h-80c-2.7,0-4.7-2.2-4.3-5l13.7-110 c0.3-2.7,2.8-5,5.6-5l0,0h50c2.7,0,5.2,2.2,5.6,5l13.7,110C129.5,198.2,127.6,200.5,124.8,200.5 L124.8,200.5z M124.8,200.5" clip-rule="evenodd"/><path fill="none" stroke="#000" stroke-linecap="round" stroke-linejoin="round" stroke-miterlimit="1" d="M124.8,200.5h-80c-2.7,0-4.7-2.2-4.3-5l13.7-110c0.3-2.7,2.8-5,5.6-5l0,0h50c2.7,0,5.2,2.2,5.6,5 l13.7,110C129.5,198.2,127.6,200.5,124.8,200.5L124.8,200.5z M124.8,200.5"/><path fill-rule="evenodd" d="M135.5,70.5h-100c-2.7,0-5-2.2-5-5v-30 c0-2.7,2.2-5,5-5h100c2.7,0,5,2.2,5,5v30C140.5,68.2,138.2,70.5,135.5,70.5L135.5,70.5z M135.5,70.5" clip-rule="evenodd"/><path fill="none" stroke="#000" stroke-linecap="round" stroke-linejoin="round" stroke-miterlimit="1" d="M135.5,70.5h-100c-2.7,0-5-2.2-5-5v-30c0-2.7,2.2-5,5-5h100c2.7,0,5,2.2,5,5v30 C140.5,68.2,138.2,70.5,135.5,70.5L135.5,70.5z M135.5,70.5"/></g></g></svg>