<svg xmlns="http://www.w3.org/2000/svg" xmlns:xlink="http://www.w3.org/1999/xlink" width="333.215" height="204.282" enable-background="new 0 0 333.215 204.282" overflow="visible" space="preserve" viewBox="0 0 333.215 204.282"><metadata><rdf:RDF xmlns:cc="http://web.resource.org/cc/" xmlns:dc="http://purl.org/dc/elements/1.1/" xmlns:rdf="http://www.w3.org/1999/02/22-rdf-syntax-ns#"><cc:Work><dc:title>Croissant</dc:title><dc:description>Croissant</dc:description><dc:subject><rdf:Bag><rdf:li>food</rdf:li><rdf:li>carbohydrate</rdf:li><rdf:li>croissant</rdf:li><rdf:li>menu</rdf:li></rdf:Bag></dc:subject><dc:publisher><cc:Agent rdf:about="http://www.openclipart.org/"><dc:title>Open Clip Art Library</dc:title></cc:Agent></dc:publisher><dc:creator><cc:Agent><dc:title>Gerald G.</dc:title></cc:Agent></dc:creator><dc:rights><cc:Agent><dc:title>Gerald G.</dc:title></cc:Agent></dc:rights><dc:date/><dc:format>image/svg+xml</dc:format><dc:type rdf:resource="http://purl.org/dc/dcmitype/StillImage"/><cc:license rdf:resource="http://web.resource.org/cc/PublicDomain"/><dc:language>en</dc:language></cc:Work><cc:License rdf:about="http://web.resource.org/cc/PublicDomain"><cc:permits rdf:resource="http://web.resource.org/cc/Reproduction"/><cc:permits rdf:resource="http://web.resource.org/cc/Distribution"/><cc:permits rdf:resource="http://web.resource.org/cc/DerivativeWorks"/></cc:License></rdf:RDF></metadata><switch><g><g id="Layer_1"><g><path fill-rule="evenodd" d="M73.487,31.463c1.648-2.964,3.626-7.572,9.551-11.193 c4.934-4.938,12.506-10.532,21.395-14.153c8.56-4.282,18.762-6.255,29.299-5.925c9.216-0.661,18.105,0,26.665,5.594 c7.567,4.608,15.141,13.167,21.4,24.36c7.237-3.621,15.791-4.938,25.668-3.951c10.216,0,21.073,2.304,31.271,8.229 c8.556,4.938,14.823,13.498,20.093,24.361c11.519,3.951,21.396,8.889,30.933,13.497c8.554,4.608,16.467,7.242,23.7,14.153 c5.929,5.599,11.857,13.167,15.145,21.401c2.965,7.898,4.946,18.766,4.607,28.963c-0.321,10.207,0,23.048-6.571,30.95 c-8.573,6.582-27.666,11.188-38.202,12.502c-10.859,1.652-19.093-1.644-23.36-3.616c-4.947-2.635-6.251-7.573-3.947-13.502 c-4.608,0.33-8.573,0.33-11.858-1.313c-3.625-2.304-6.591-4.938-8.895-9.216c-4.929,0.982-7.894,0.33-12.502,0.661 c-3.625,0-8.894-1.652-12.181-2.313c-3.946,2.313-10.536,4.617-16.127,5.599c-5.929,0.661-14.483,1.322-22.061,0.661 c3.295,6.581,5.269,11.52,5.93,17.449c-0.331,5.269-1.321,10.206-2.964,14.814c-2.304,3.946-4.609,6.581-9.548,9.216 c-5.594,2.304-12.179,4.607-23.373,5.59c-13.166,0.66-32.589,0-49.376-1.975c-16.788-2.633-37.198-3.946-51.025-11.518 c-14.484-8.556-27.32-20.415-37.197-36.872c-1.973,0-3.291-0.33-3.951-0.982c-1.317-1.982-1.643-0.66-2.304-3.625 c-1.643-3.286-2.635-6.582-2.96-12.511c-1.317-6.251-0.991-14.154,0.987-22.378c1.973-10.207,4.938-18.44,12.836-29.629 c7.903-11.524,18.766-26.338,29.955-34.237c9.22-8.229,19.097-12.836,28.313-13.828C72.832,35.084,73.162,33.437,73.487,31.463 z" clip-rule="evenodd"/><path fill="#F1B785" fill-rule="evenodd" d="M74.148,38.044 c-0.661-2.304,0.656-4.938,2.634-7.899c2.304-2.964,5.264-7.572,10.203-10.206c4.613-4.278,9.876-8.229,17.119-10.533 c7.242-3.291,16.131-5.925,25.347-6.586c7.573-1.643,17.118-0.656,23.704,1.647c5.925,2.304,10.532,6.256,15.141,11.85 c4.938,4.608,8.229,11.193,12.51,18.436c4.604-2.96,10.533-5.269,17.783-5.594c6.573-0.991,17.433-0.331,25.004,1.973 c6.27,1.317,12.181,3.951,17.788,9.215c4.93,4.282,10.537,12.511,15.466,21.07c8.556,2.96,15.468,6.912,24.361,10.533 c8.555,2.964,16.787,7.572,24.682,12.511c5.929,4.938,11.537,10.533,15.484,16.788c3.607,5.595,5.591,11.85,7.233,18.762 c0.982,6.59,0.34,13.832,0.661,20.413c0.321,4.938,0.66,9.216-0.321,14.154c-1.661,3.625-4.948,10.858-9.877,14.153 c-7.252,2.965-19.092,6.912-26.665,8.233c-7.912,1.313-12.841-0.33-17.448,0c-5.608-0.991-8.555-1.974-10.216-4.277 c-2.304-2.965-1.964-7.573-0.321-12.511c-3.625,0.652-6.59,1.313-8.895,0.652c-2.304-0.652-4.929-1.644-6.571-2.956 c-2.965-2.304-3.965-4.607-6.591-8.233c-2.965,0.33-6.59,1.643-9.555,1.313c-4.27-1.313-7.895-0.651-10.858-1.643 c-2.965-1.313-5.269-0.661-6.912-1.644c-1.965,1.313-4.607,3.286-7.894,4.608c-3.946,0.991-7.912,1.313-13.181,2.304 c-5.91,0.33-12.166,0-20.069,0.33c2.304,2.634,2.961,5.6,4.607,10.206c0.331,3.287,1.643,9.547,1.313,14.815 c-1.313,3.946-0.982,9.867-6.581,13.823c-6.256,3.286-14.815,6.25-26.996,7.572c-12.506,0-31.603-0.661-45.755-1.973 c-14.484-1.982-28.638-3.957-39.831-7.252c-12.18-5.259-21.726-9.546-29.956-16.457c-8.559-6.912-14.814-14.484-18.765-22.709 c-1.974,0-4.278-0.33-5.595-2.304c-2.303-2.634-2.964-5.269-3.291-10.537c-1.316-5.929-0.661-15.805,0.657-23.37 c1.317-8.233,4.282-16.131,8.89-23.703c3.952-9.877,11.85-18.106,18.761-26.009c6.255-7.567,13.167-14.81,20.74-19.091 C59.334,42.983,66.246,39.692,74.148,38.044z" clip-rule="evenodd"/><path fill="#A5431E" fill-rule="evenodd" d="M139.657,28.829 c-1.978-1.973-6.254-3.291-11.523-3.951c-6.581-0.987-16.458-2.635-22.052-2.305c-5.93-0.33-10.863,1.317-10.863,0.987 c-0.992-1.643,6.25-6.582,6.582-7.242c-1.317-1.643-5.595-0.331-8.891,1.317c-4.937,1.978-7.897,5.268-11.518,9.876 c-2.305,2.965-5.27,6.912-5.27,10.533c-0.325-0.657,1.648-0.987,5.925-0.987c3.295-0.331,10.538-1.317,18.105-1.647 c-5.264-1.974-8.229-4.608-6.25-5.265c0.986-1.647,9.871-2.964,14.153-2.634c2.635,0,5.595,0.657,8.891,1.973 c2.96,0,6.911-1.643,10.531-1.316C131.429,27.842,135.05,28.499,139.657,28.829z" clip-rule="evenodd"/><path fill="#A5431E" fill-rule="evenodd" d="M183.109,38.375 c0.656-0.331,1.639,7.242,2.96,12.511c0.982,4.938,1.984,9.545,1.644,13.823c-1.644,2.634-7.897-0.331-8.55,3.621 c-0.99,3.295,1.313,15.145,1.643,17.78c-0.99,0.986-3.95-0.662-4.938-4.938c-1.973-4.938,0-12.18-4.281-20.409 c-5.594-7.903-22.052-23.374-24.03-26.008c-2.304-2.634,7.903,3.621,12.842,8.559c4.277,2.96,12.18,13.167,14.81,14.154 c1.317-0.657-2.63-7.568-4.278-11.85c-2.964-4.938-10.862-12.511-9.875-12.511c0.661,0.331,10.532,8.56,14.484,13.167 c3.295,3.295,3.946,9.55,5.599,8.559C181.467,52.528,182.119,39.362,183.109,38.375z" clip-rule="evenodd"/><path fill="#A5431E" fill-rule="evenodd" d="M15.226,91.704 c4.277-6.912,12.18-18.105,23.7-24.691c11.85-7.567,39.5-14.153,43.782-14.81c2.635-0.661-16.462,4.607-25.347,10.863 c-9.875,3.946-21.726,11.849-29.298,18.761c-7.903,7.573-13.497,18.106-15.47,21.396 C10.288,103.554,10.288,97.958,15.226,91.704z" clip-rule="evenodd"/><path fill="#A5431E" fill-rule="evenodd" d="M5.35,121.663 c1.974-4.938,4.277-10.207,10.533-15.806c5.268-6.581,18.105-15.801,22.056-17.444c3.292-1.979-6.911,6.581-2.633,6.581 c3.621-1.643,14.814-10.202,23.373-11.85c7.242-1.973,23.043-2.634,22.053-0.656c-2.305,0.986-19.422,2.304-28.638,7.567 c-9.877,5.269-18.105,12.181-24.687,20.74c-6.586,7.242-10.863,16.458-12.841,23.7c-1.973,6.59-3.621,11.528-1.317,16.136 c-1.643-0.33-3.946,0.321-4.277-0.661c-1.647-0.33-1.317-2.304-1.647-3.295c-1.317-2.956-1.974-4.938-1.974-9.546 C4.688,132.191,4.688,128.244,5.35,121.663z" clip-rule="evenodd"/><path fill="#A5431E" fill-rule="evenodd" d="M99.166,195.064 c-3.621,0.661-6.256,0-9.216-1.972c-3.621-2.635-5.594-6.582-7.242-10.538c-1.977-4.938-3.621-10.528-2.304-15.466 c-0.661-5.269,2.304-10.868,7.569-15.476c4.612-5.269,18.435-13.162,26.338-14.814c7.898-2.956,15.141-1.974,21.726-0.652 c5.925,0.652,9.546,3.287,12.181,6.581c-3.621-6.581-7.572-12.841-13.167-16.126c-6.256-3.956-14.483-6.26-20.739-6.92 c-6.585-1.313-11.193-1.313-17.449,1.321c-7.898,1.973-16.788,5.269-22.713,12.511c-6.254,7.572-8.558,24.029-10.863,28.968 c-2.633,1.974-3.951-3.625-3.951-7.902c0-4.608,0.661-11.189,3.29-15.797c0.992-5.599,3.621-9.225,7.903-13.502 c4.277-3.947,9.216-8.555,16.132-10.207c6.581-2.955,14.484-4.277,23.7-3.946c7.242-0.331,14.814-0.661,22.712,3.946 c7.242,3.295,14.158,10.868,19.422,17.449c3.951,5.6,6.586,12.181,6.586,18.431c-7.572-3.946-15.802-5.259-23.373-5.259 c-8.56-0.991-17.775,0.981-24.031,4.607c-7.903,3.616-12.179,11.52-14.153,18.431c-1.978,5.93,1.317,13.823,4.607,18.762 c2.304,3.625,5.925,7.242,10.863,7.242C108.386,194.735,103.773,194.735,99.166,195.064z" clip-rule="evenodd"/><path fill="#A5431E" fill-rule="evenodd" d="M100.483,85.448 c6.256,0.331,12.841,2.304,19.752,5.925c5.595,2.964,14.483,7.903,20.409,13.497c5.925,5.595,11.85,12.837,16.457,21.731 c2.31-5.93,4.938-9.224,7.902-9.877c1.975-1.321,4.278,6.912,6.913,5.59c1.978-1.973,7.898-7.242,4.938-15.796 c-4.278-9.876-24.361-36.541-27.321-39.506c-2.965-2.96,8.229,15.145,9.546,20.083c0.656,3.291-1.979,3.291-6.586,0 c-6.256-4.938-16.458-19.092-25.678-24.69c-9.546-6.582-28.637-9.546-30.611-10.203c-2.303-0.33,6.252,1.643,13.167,5.925 c4.938,3.291,14.484,7.242,19.748,13.167c5.599,4.608,11.194,15.471,11.854,18.437c-0.33,1.643-7.902-0.662-13.827-1.648 C119.905,87.422,111.021,86.109,100.483,85.448z" clip-rule="evenodd"/><path fill="#A5431E" fill-rule="evenodd" d="M204.841,120.011 c2.304-4.277,5.269-5.59,7.571-5.269c1.965-0.321,3.286,7.572,6.573,7.242c3.304-1.643,6.269-4.277,10.215-10.528 c2.305-6.255,4.608-15.145,5.591-25.347c1.321-10.863,0-24.361-0.321-39.175c-0.339,5.925-1.982,9.215-3.625,12.511 c-1.983,1.317-5.591,0.656-7.252,3.291c-2.304,3.291-4.268,11.519-5.911,14.484c-2.966,1.316-6.591-5.926-8.233-2.635 c-2.304,3.621-2.965,11.193-3.304,20.083C205.162,101.91,205.162,110.795,204.841,120.011z" clip-rule="evenodd"/><path fill="#A5431E" fill-rule="evenodd" d="M254.222,137.459 c5.912-6.581,11.52-11.188,18.093-15.145c5.929-4.938,10.875-7.242,18.77-8.224c7.232-1.973,16.467-1.322,23.7,1.973 c5.59,2.965,9.554,9.216,11.859,18.762c0.643-6.581,0.643-11.52,0-16.127c-1.002-5.269-3.306-9.22-6.913-11.854 c-5.268-3.291-14.483-6.582-21.414-5.925c-8.214-0.986-15.466,0.33-23.038,6.586 C267.706,112.769,261.134,123.966,254.222,137.459z" clip-rule="evenodd"/><path fill="#A5431E" fill-rule="evenodd" d="M269.688,164.784 c-2.303,1.975-0.66,2.305,1.322,4.608c1.966,2.304,7.895,2.964,12.823,4.607c3.626-0.66,7.912-1.644,12.841-4.277 c3.626-2.964,13.181-6.59,14.823-10.867c1.645-5.921-1.643-16.458-4.946-20.074c-4.607-4.286-14.484-2.313-20.734-0.33 c-6.912,2.304-13.502,6.251-19.754,13.162c10.538-4.607,17.448-6.581,24.361-7.242c5.268-0.652,10.537,0,12.18,3.295 c1.322,1.644,0,8.555-2.625,11.851c-2.966,2.634-11.537,3.946-15.485,5.268C279.226,165.437,274.297,165.437,269.688,164.784z" clip-rule="evenodd"/><path fill="#691C00" fill-rule="evenodd" d="M192.66,124.949 c2.965-3.287,4.269-5.59,7.572-9.546c1.964-5.268,3.287-16.788,5.27-18.105c0.981-1.317,0.321,7.903,1.643,9.876 c0,0.661,2.965-2.96,3.946-1.974c0.321,0-1.321,5.265,0.321,6.917c1.322,0.321,7.573,0,7.252,1.643 c-1.643,1.313-8.555,3.947-13.162,7.903c-5.27,3.947-11.538,10.198-14.823,13.493c-3.627,1.313-7.238,0.331-5.931-1.643 C184.105,131.86,189.696,127.253,192.66,124.949z" clip-rule="evenodd"/><path fill="#691C00" fill-rule="evenodd" d="M140.645,144.371 c2.961,0.331,8.89,0.991,13.828,3.295c3.946,1.974,11.188,4.608,12.835,6.581c0,0.661-3.62,0-8.228-0.66 c-5.6-1.643-15.146-5.26-21.069-5.921c-5.596-1.321-13.498,0.661-13.498,0.661c-0.986-1.321,4.607-2.965,7.902-3.625 C134.39,143.389,136.693,143.719,140.645,144.371z" clip-rule="evenodd"/><path fill="#691C00" fill-rule="evenodd" d="M253.222,135.155 c-2.625,2.304-2.304,5.6-1.643,5.93c0.339-0.661,3.625-2.964,7.251-5.599c3.947-3.295,8.876-8.233,13.484-11.198 c4.286-3.617,7.25-6.912,8.894-7.233c-0.982-1.322-4.607,1.974-7.251,2.304c-2.947-0.33-2.947-2.635-4.93-1.652 c-2.965,0.661-5.59,1.974-7.894,5.268C258.17,125.279,254.222,131.86,253.222,135.155z" clip-rule="evenodd"/></g></g></g></switch></svg>