<svg xmlns="http://www.w3.org/2000/svg" xmlns:xlink="http://www.w3.org/1999/xlink" width="271.91" height="195.785" enable-background="new 0 0 271.91 195.785" overflow="visible" space="preserve" viewBox="0 0 271.91 195.785"><metadata><rdf:RDF xmlns:cc="http://web.resource.org/cc/" xmlns:dc="http://purl.org/dc/elements/1.1/" xmlns:rdf="http://www.w3.org/1999/02/22-rdf-syntax-ns#"><cc:Work><dc:title>Handheld GPS</dc:title><dc:description/><dc:subject><rdf:Bag><rdf:li>gps</rdf:li><rdf:li>hardware</rdf:li><rdf:li>geagraphy</rdf:li><rdf:li>equipment</rdf:li></rdf:Bag></dc:subject><dc:publisher><cc:Agent rdf:about="http://www.openclipart.org/"><dc:title>Open Clip Art Library</dc:title></cc:Agent></dc:publisher><dc:creator><cc:Agent><dc:title>Gerald G.</dc:title></cc:Agent></dc:creator><dc:rights><cc:Agent><dc:title>Gerald G.</dc:title></cc:Agent></dc:rights><dc:date/><dc:format>image/svg+xml</dc:format><dc:type rdf:resource="http://purl.org/dc/dcmitype/StillImage"/><cc:license rdf:resource="http://web.resource.org/cc/PublicDomain"/><dc:language>en</dc:language></cc:Work><cc:License rdf:about="http://web.resource.org/cc/PublicDomain"><cc:permits rdf:resource="http://web.resource.org/cc/Reproduction"/><cc:permits rdf:resource="http://web.resource.org/cc/Distribution"/><cc:permits rdf:resource="http://web.resource.org/cc/DerivativeWorks"/></cc:License></rdf:RDF></metadata><switch><g><g id="Layer_1"><g><path fill-rule="evenodd" stroke="#000" stroke-miterlimit="10" stroke-width=".036" d="M0.018,168.857c-0.072-7.848,1.44-16.775,4.536-27.322c3.096-10.693,9.036-26.533,13.932-35.568 c4.824-9.072,9.576-15.012,14.652-18.252l178.883-2.52l-3.887-75.96c0.215-3.096,2.303-5.22,6.406-6.804 c4.105-1.584,11.773-2.988,18-2.412c6.084,0.576,12.205,2.376,18.506,5.688l5.363,83.736c2.664,1.836,4.932,7.524,7.199,17.208 c2.16,9.721,4.717,27.035,5.869,40.572c0.971,13.393,4.715,31.5,0.684,39.6c-4.141,7.885-0.324,6.768-24.516,8.172 c-24.516,1.332-84.744,0.684-120.132,0.145c-35.388-0.684-71.064-2.125-90.216-3.492c-19.044-1.26-17.244-0.541-23.184-4.248 C6.21,183.51,2.178,177.463,0.018,168.857z" clip-rule="evenodd"/><path fill="#545454" fill-rule="evenodd" stroke="#000" stroke-miterlimit="10" stroke-width=".036" d="M34.866,93.69c-5.796,1.764-11.088,8.495-15.876,20.772c-4.86,12.275-9.072,29.34-12.924,52.164 c28.44,0.719,61.308,1.727,100.116,3.023c38.843,1.297,81.828,2.736,131.041,4.607c6.875-12.564,11.555-25.523,14.039-39.455 c2.412-13.932,2.736-28.297,0.828-43.524C179.693,92.07,107.298,92.862,34.866,93.69z" clip-rule="evenodd"/><path fill="#FFF" fill-rule="evenodd" stroke="#000" stroke-miterlimit="10" stroke-width=".036" d="M43.362,98.154l-21.204,57.6l111.78,3.205c4.537-13.717,7.667-25.453,9.828-35.893c2.053-10.439,2.844-19.045,2.52-26.208 C111.978,97.291,77.67,97.722,43.362,98.154z" clip-rule="evenodd"/><path fill-rule="evenodd" stroke="#000" stroke-miterlimit="10" stroke-width=".036" d="M163.709,101.719c0.254,3.779,4.465,6.803,9.469,6.732c5.004-0.072,8.893-3.24,8.641-7.021 c-0.217-3.815-4.465-6.839-9.469-6.768C167.346,94.771,163.494,97.902,163.709,101.719z" clip-rule="evenodd"/><path fill="#FFF" fill-rule="evenodd" stroke="#000" stroke-miterlimit="10" stroke-width=".036" d="M165.078,101.574c0.18,3.168,3.707,5.652,7.848,5.615c4.176-0.07,7.381-2.699,7.199-5.867c-0.18-3.132-3.707-5.652-7.883-5.58 C168.102,95.814,164.898,98.406,165.078,101.574z" clip-rule="evenodd"/><path fill-rule="evenodd" stroke="#000" stroke-miterlimit="10" stroke-width=".036" d="M185.85,99.955c0.252,3.779,4.465,6.803,9.469,6.73c5.004-0.07,8.891-3.238,8.676-7.055c-0.252-3.781-4.5-6.805-9.504-6.732 C189.486,92.97,185.635,96.138,185.85,99.955z" clip-rule="evenodd"/><path fill="#FFF" fill-rule="evenodd" stroke="#000" stroke-miterlimit="10" stroke-width=".036" d="M187.219,99.811c0.18,3.168,3.707,5.652,7.883,5.58c4.141-0.037,7.344-2.664,7.164-5.832c-0.18-3.132-3.707-5.652-7.883-5.58 C190.242,94.05,187.037,96.642,187.219,99.811z" clip-rule="evenodd"/><path fill-rule="evenodd" stroke="#000" stroke-miterlimit="10" stroke-width=".036" d="M209.934,102.043c0.252,3.779,4.465,6.803,9.469,6.73c5.004-0.07,8.893-3.238,8.676-7.02c-0.252-3.815-4.5-6.839-9.504-6.768 S209.719,98.227,209.934,102.043z" clip-rule="evenodd"/><path fill="#FFF" fill-rule="evenodd" stroke="#000" stroke-miterlimit="10" stroke-width=".036" d="M211.303,101.898c0.18,3.168,3.707,5.652,7.883,5.615c4.141-0.072,7.344-2.699,7.164-5.867c-0.18-3.133-3.707-5.652-7.883-5.58 C214.326,96.138,211.121,98.73,211.303,101.898z" clip-rule="evenodd"/><path fill-rule="evenodd" stroke="#000" stroke-miterlimit="10" stroke-width=".036" d="M219.33,115.686c0.217,3.781,4.465,6.805,9.469,6.732s8.855-3.24,8.639-7.02c-0.215-3.816-4.463-6.84-9.467-6.768 S219.078,111.871,219.33,115.686z" clip-rule="evenodd"/><path fill="#FFF" fill-rule="evenodd" stroke="#000" stroke-miterlimit="10" stroke-width=".036" d="M220.697,115.543c0.182,3.168,3.709,5.65,7.85,5.615c4.139-0.072,7.379-2.699,7.164-5.867c-0.182-3.133-3.709-5.652-7.85-5.58 C223.723,109.783,220.482,112.375,220.697,115.543z" clip-rule="evenodd"/><path fill-rule="evenodd" stroke="#000" stroke-miterlimit="10" stroke-width=".036" d="M216.773,135.883c0.217,3.779,4.465,6.803,9.469,6.732c5.004-0.072,8.893-3.24,8.641-7.021 c-0.217-3.814-4.465-6.84-9.469-6.768C220.41,128.934,216.559,132.066,216.773,135.883z" clip-rule="evenodd"/><path fill="#FFF" fill-rule="evenodd" stroke="#000" stroke-miterlimit="10" stroke-width=".036" d="M218.143,135.738c0.18,3.168,3.707,5.652,7.848,5.615c4.176-0.07,7.379-2.699,7.199-5.867c-0.215-3.133-3.707-5.652-7.883-5.58 C221.166,129.979,217.963,132.57,218.143,135.738z" clip-rule="evenodd"/><path fill-rule="evenodd" stroke="#000" stroke-miterlimit="10" stroke-width=".036" d="M195.967,154.242c0.215,3.779,4.463,6.805,9.467,6.732s8.893-3.24,8.641-7.02c-0.217-3.816-4.465-6.84-9.469-6.77 C199.602,147.295,195.75,150.426,195.967,154.242z" clip-rule="evenodd"/><path fill="#FFF" fill-rule="evenodd" stroke="#000" stroke-miterlimit="10" stroke-width=".036" d="M197.334,154.098c0.18,3.168,3.707,5.689,7.848,5.617c4.176-0.072,7.381-2.701,7.201-5.869 c-0.217-3.131-3.709-5.652-7.885-5.58C200.357,148.338,197.154,150.93,197.334,154.098z" clip-rule="evenodd"/><path fill-rule="evenodd" stroke="#000" stroke-miterlimit="10" stroke-width=".036" d="M172.387,154.602c0.215,3.816,4.463,6.84,9.467,6.77c5.004-0.109,8.855-3.24,8.641-7.057c-0.217-3.779-4.465-6.805-9.469-6.732 S172.135,150.822,172.387,154.602z" clip-rule="evenodd"/><path fill="#FFF" fill-rule="evenodd" stroke="#000" stroke-miterlimit="10" stroke-width=".036" d="M173.754,154.494c0.18,3.133,3.709,5.652,7.848,5.58c4.141-0.072,7.381-2.664,7.164-5.832c-0.18-3.168-3.707-5.652-7.848-5.615 C176.777,148.699,173.537,151.326,173.754,154.494z" clip-rule="evenodd"/><path fill-rule="evenodd" stroke="#000" stroke-miterlimit="10" stroke-width=".036" d="M151.65,151.398c0.215,3.816,4.463,6.84,9.467,6.768c5.004-0.107,8.893-3.24,8.641-7.057c-0.217-3.814-4.463-6.803-9.469-6.73 C155.285,144.451,151.434,147.582,151.65,151.398z" clip-rule="evenodd"/><path fill="#FFF" fill-rule="evenodd" stroke="#000" stroke-miterlimit="10" stroke-width=".036" d="M153.018,151.291c0.18,3.131,3.709,5.65,7.848,5.58c4.176-0.072,7.381-2.664,7.201-5.832c-0.217-3.168-3.744-5.652-7.885-5.617 C156.041,145.494,152.803,148.123,153.018,151.291z" clip-rule="evenodd"/><path fill-rule="evenodd" stroke="#000" stroke-miterlimit="10" stroke-width=".036" d="M164.502,126.27c0.611,10.332,12.168,18.541,25.74,18.324c13.607-0.215,24.119-8.783,23.508-19.115 s-12.168-18.541-25.74-18.324C174.402,107.371,163.891,115.938,164.502,126.27z" clip-rule="evenodd"/><path fill="#FFF" fill-rule="evenodd" stroke="#000" stroke-miterlimit="10" stroke-width=".036" d="M168.209,125.91c0.506,8.604,10.08,15.408,21.385,15.229c11.268-0.18,20.016-7.309,19.477-15.877 c-0.504-8.568-10.08-15.371-21.348-15.191C176.418,110.25,167.705,117.342,168.209,125.91z" clip-rule="evenodd"/><path fill="#545454" fill-rule="evenodd" stroke="#000" stroke-miterlimit="10" stroke-width=".036" d="M216.738,84.078l-4.5-74.556c5.363-2.52,10.439-4.032,15.516-4.14c5.111-0.324,11.125-1.656,14.545,2.952 c3.131,4.608,3.563,11.736,4.895,24.696c1.369,13.032,2.377,30.204,3.168,52.632C239.166,85.158,227.971,84.618,216.738,84.078 z" clip-rule="evenodd"/><path fill="#545454" fill-rule="evenodd" stroke="#000" stroke-miterlimit="10" stroke-width=".036" d="M265.986,134.91c0.539,18.576,0.287,32.076-0.613,41.041c-0.971,8.818-2.016,9.611-5.074,12.096 c-3.168,2.447-7.74,3.348-13.861,2.699c4.104-0.756,7.74-5.725,11.053-15.047C260.803,166.23,263.502,152.91,265.986,134.91z" clip-rule="evenodd"/><path fill="#545454" fill-rule="evenodd" stroke="#000" stroke-miterlimit="10" stroke-width=".036" d="M10.782,182.826c-0.54,1.367,1.368,2.736,5.724,3.816c4.392,1.043,7.344,2.088,20.376,2.844 c12.996,0.793,23.724,1.297,56.916,1.908c33.336,0.504,79.417,0.936,140.761,1.295c-38.34-1.439-75.277-2.916-112.896-4.57 C84.042,186.426,47.682,184.662,10.782,182.826z" clip-rule="evenodd"/><path fill="#545454" fill-rule="evenodd" stroke="#000" stroke-miterlimit="10" stroke-width=".036" d="M5.958,170.875c-0.288,2.34-0.216,4.176,0.36,5.65c0.576,1.441,1.404,2.27,2.88,2.773l233.892,7.236 c3.816-3.709,7.271-9.793,10.512-18.541c3.168-8.893,7.561-22.176,8.604-33.732c0.938-11.627,0-23.004-2.807-34.955 l-3.385-5.256c2.305,12.817,1.836,25.813-1.008,39.959c-3.061,14.041-8.352,28.404-16.561,43.777 c-64.547-1.693-115.127-3.061-154.259-4.248C45.126,172.314,19.602,171.521,5.958,170.875z" clip-rule="evenodd"/></g></g></g></switch></svg>