<svg xmlns="http://www.w3.org/2000/svg" xmlns:xlink="http://www.w3.org/1999/xlink" id="islenskifaninn" width="675" height="486" x="0" y="0" version="1"><rect id="blarfeldur" width="675" height="486" x="0" y="0" fill="#fff" fill-opacity="1" fill-rule="evenodd" stroke-width="0"/><path id="hviturkross" fill="#003897" fill-opacity="1" fill-rule="evenodd" stroke-width="0" d="M 0 189 L 189 189 L 189 0 L 297 0 L 297 189 L 675 189 L 675 297 L 297 297 L 297 486 L 189 486 L 189 297 L 0 297 L 0 189 z"/><path id="raudurkross" fill="#d72828" fill-opacity="1" fill-rule="evenodd" stroke-width="0" d="M 0 216 L 216 216 L 216 0 L 270 0 L 270 216 L 675 216 L 675 270 L 270 270 L 270 486 L 216 486 L 216 270 L 0 270 L 0 216 z" transform="translate(0.000000,2.014488)"/></svg>