<svg xmlns="http://www.w3.org/2000/svg" xmlns:xlink="http://www.w3.org/1999/xlink" id="svg548" width="400pt" height="400pt"><metadata><rdf:RDF xmlns:cc="http://web.resource.org/cc/" xmlns:dc="http://purl.org/dc/elements/1.1/" xmlns:rdf="http://www.w3.org/1999/02/22-rdf-syntax-ns#"><cc:Work><dc:title>Clipart by Nicu Buculei - clock12</dc:title><dc:description/><dc:subject><rdf:Bag><rdf:li/><rdf:li>clock</rdf:li><rdf:li>signs_and_symbols</rdf:li></rdf:Bag></dc:subject><dc:publisher><cc:Agent rdf:about="http://www.openclipart.org"><dc:title>Nicu Buculei</dc:title></cc:Agent></dc:publisher><dc:creator><cc:Agent><dc:title>Nicu Buculei</dc:title></cc:Agent></dc:creator><dc:rights><cc:Agent><dc:title>Nicu Buculei</dc:title></cc:Agent></dc:rights><dc:date/><dc:format>image/svg+xml</dc:format><dc:type rdf:resource="http://purl.org/dc/dcmitype/StillImage"/><cc:license rdf:resource="http://web.resource.org/cc/PublicDomain"/><dc:language>en</dc:language></cc:Work><cc:License rdf:about="http://web.resource.org/cc/PublicDomain"><cc:permits rdf:resource="http://web.resource.org/cc/Reproduction"/><cc:permits rdf:resource="http://web.resource.org/cc/Distribution"/><cc:permits rdf:resource="http://web.resource.org/cc/DerivativeWorks"/></cc:License></rdf:RDF></metadata><path id="path558" fill="#000" fill-opacity="1" fill-rule="evenodd" stroke="none" stroke-linecap="butt" stroke-linejoin="miter" stroke-opacity="1" stroke-width="1pt" d="M 487.185120 224.666611 A 211.851700 211.851700 0 1 0 63.481705,224.666611 A 211.852 211.852 0 1 0 487.185 224.667 L 275.333405 224.666611 z" transform="matrix(1.121161,0.000000,0.000000,1.117679,-57.20745,-0.602798)"/><path id="path551" fill="#00f" fill-opacity="1" fill-rule="evenodd" stroke="none" stroke-linecap="butt" stroke-linejoin="miter" stroke-opacity="1" stroke-width="1pt" d="M 487.185120 224.666611 A 211.851700 211.851700 0 1 0 63.481705,224.666611 A 211.852 211.852 0 1 0 487.185 224.667 L 275.333405 224.666611 z" transform="matrix(1.097561,0.000000,0.000000,1.094077,-51.95920,4.699669)"/><path id="path553" fill="#fff" fill-opacity="1" fill-rule="evenodd" stroke="none" stroke-linecap="butt" stroke-linejoin="miter" stroke-opacity="1" stroke-width="1pt" d="M 422.965240 255.669296 A 158.704224 149.108170 0 1 0 105.556793,255.669296 A 158.704 149.108 0 1 0 422.965 255.669 L 264.261017 255.669296 z" transform="matrix(1.260466,0.000000,0.000000,1.353960,-81.37948,-96.03298)"/><path id="path555" fill="#000" fill-opacity="1" fill-rule="evenodd" stroke="none" stroke-linecap="butt" stroke-linejoin="miter" stroke-opacity="1" stroke-width="1pt" d="M 266.475494 244.596893 A 16.239502 16.239502 0 1 0 233.996490,244.596893 A 16.2395 16.2395 0 1 0 266.475 244.597 L 250.235992 244.596893 z" transform="matrix(1.022727,0.000000,0.000000,1.000000,-6.056290,-0.738144)"/><path id="path556" fill="#00f" fill-opacity="1" fill-rule="evenodd" stroke="none" stroke-linecap="butt" stroke-linejoin="miter" stroke-opacity="1" stroke-width="1pt" d="M 262.046539 245.335052 A 10.703308 10.334229 0 1 0 240.639923,245.335052 A 10.7033 10.3342 0 1 0 262.047 245.335 L 251.343231 245.335052 z" transform="matrix(1.310344,0.000000,0.000000,1.346886,-79.84822,-86.47350)"/><path id="path557" fill="#fff" fill-opacity=".5" fill-rule="evenodd" stroke="none" stroke-linecap="butt" stroke-linejoin="miter" stroke-opacity="1" stroke-width="1pt" d="M 235.298 246.471 C 232.542 236.932 243.778 226.969 252.681 229.936 C 256.921 235.448 240.386 249.015 235.298 246.471 z"/><path id="path559" fill="#fff" fill-opacity=".5" fill-rule="evenodd" stroke="none" stroke-linecap="butt" stroke-linejoin="miter" stroke-opacity="1" stroke-width="1pt" d="M 37.8717 343.75 C 6.25 266.25 12.5 191.25 52.5 127.5 C 91.25 76.25 144.705 12.1027 272.5 19.1217 C 144.654 20.532 81.25 101.25 60 136.25 C 41.25 170 9.12175 217.5 37.8717 343.75 z"/><path id="path560" fill="#fff" fill-opacity=".496" fill-rule="evenodd" stroke="none" stroke-linecap="butt" stroke-linejoin="miter" stroke-opacity="1" stroke-width="1pt" d="M 253.75 453.75 C 331.25 437.5 426.25 371.25 435 327.5 C 451.25 273.75 315 212.5 413.75 128.75 C 477.5 212.5 458.377 304.741 450 325 C 439.922 351.328 390 452.5 253.75 453.75 z"/><path id="path561" fill="#000" fill-opacity=".25" fill-rule="evenodd" stroke="none" stroke-linecap="butt" stroke-linejoin="miter" stroke-opacity="1" stroke-width="1pt" d="M 122.055 405.16 C 53.6054 346.607 42.0594 248.469 56.0791 202.287 C 78.3459 147.857 112.158 45.5943 277.921 48.0684 C 117.931 30.7499 56.0791 167.649 48.6569 200.637 C 40.4099 217.131 25.5655 321.866 122.055 405.16 z"/><path id="path562" fill="#000" fill-opacity=".247" fill-rule="evenodd" stroke="none" stroke-linecap="butt" stroke-linejoin="miter" stroke-opacity="1" stroke-width="1pt" d="M 216.25 483.75 C 283.75 492.5 420 462.5 461.25 355 C 523.75 211.25 463.75 152.5 422.5 88.75 C 495 195 487.5 285 452.5 352.5 C 412.5 430 338.75 481.25 216.25 483.75 z"/><path id="path597" fill="none" fill-opacity="1" fill-rule="evenodd" stroke="#000" stroke-linecap="butt" stroke-linejoin="miter" stroke-opacity="1" stroke-width="1pt"/><path id="path601" fill="#00f" fill-opacity="1" fill-rule="evenodd" stroke="#000" stroke-linecap="butt" stroke-linejoin="miter" stroke-opacity="1" stroke-width="1pt" d="M 243.125 49.9999 L 255 49.9999 L 255 74.9999 L 243.125 74.3749 L 243.125 49.9999 z"/><path id="path602" fill="#00f" fill-opacity="1" fill-rule="evenodd" stroke="#000" stroke-linecap="butt" stroke-linejoin="miter" stroke-opacity="1" stroke-width="1pt" d="M 243.125 49.9999 L 255 49.9999 L 255 74.9999 L 243.125 74.3749 L 243.125 49.9999 z" transform="translate(1.875000,375.6251)"/><path id="path603" fill="#00f" fill-opacity="1" fill-rule="evenodd" stroke="#000" stroke-linecap="butt" stroke-linejoin="miter" stroke-opacity="1" stroke-width="1pt" d="M 243.125 49.9999 L 255 49.9999 L 255 74.9999 L 243.125 74.3749 L 243.125 49.9999 z" transform="matrix(6.123032e-17,1.000000,-1.000000,6.123032e-17,499.6874,-4.062691)"/><path id="path604" fill="#00f" fill-opacity="1" fill-rule="evenodd" stroke="#000" stroke-linecap="butt" stroke-linejoin="miter" stroke-opacity="1" stroke-width="1pt" d="M 243.125 49.9999 L 255 49.9999 L 255 74.9999 L 243.125 74.3749 L 243.125 49.9999 z" transform="matrix(6.123032e-17,1.000000,-1.000000,6.123032e-17,128.4374,-3.437691)"/><path id="path605" fill="#00f" fill-opacity="1" fill-rule="evenodd" stroke="#000" stroke-linecap="butt" stroke-linejoin="miter" stroke-opacity="1" stroke-width="1pt" d="M 243.125 49.9999 L 255 49.9999 L 255 74.9999 L 243.125 74.3749 L 243.125 49.9999 z" transform="matrix(0.841496,0.540263,-0.540263,0.841496,171.9937,-97.77775)"/><path id="path606" fill="#00f" fill-opacity="1" fill-rule="evenodd" stroke="#000" stroke-linecap="butt" stroke-linejoin="miter" stroke-opacity="1" stroke-width="1pt" d="M 243.125 49.9999 L 255 49.9999 L 255 74.9999 L 243.125 74.3749 L 243.125 49.9999 z" transform="matrix(0.841496,0.540263,-0.540263,0.841496,-28.00635,217.8473)"/><path id="path607" fill="#00f" fill-opacity="1" fill-rule="evenodd" stroke="#000" stroke-linecap="butt" stroke-linejoin="miter" stroke-opacity="1" stroke-width="1pt" d="M 243.125 49.9999 L 255 49.9999 L 255 74.9999 L 243.125 74.3749 L 243.125 49.9999 z" transform="matrix(-0.540263,0.841496,-0.841496,-0.540263,283.2587,-28.48759)"/><path id="path608" fill="#00f" fill-opacity="1" fill-rule="evenodd" stroke="#000" stroke-linecap="butt" stroke-linejoin="miter" stroke-opacity="1" stroke-width="1pt" d="M 243.125 49.9999 L 255 49.9999 L 255 74.9999 L 243.125 74.3749 L 243.125 49.9999 z" transform="matrix(-0.540263,0.841496,-0.841496,-0.540263,597.6337,172.1375)"/><path id="path609" fill="#00f" fill-opacity="1" fill-rule="evenodd" stroke="#000" stroke-linecap="butt" stroke-linejoin="miter" stroke-opacity="1" stroke-width="1pt" d="M 243.125 49.9999 L 255 49.9999 L 255 74.9999 L 243.125 74.3749 L 243.125 49.9999 z" transform="matrix(0.492743,0.870175,-0.870175,0.492743,345.7437,-86.97800)"/><path id="path611" fill="#00f" fill-opacity="1" fill-rule="evenodd" stroke="#000" stroke-linecap="butt" stroke-linejoin="miter" stroke-opacity="1" stroke-width="1pt" d="M 243.125 49.9999 L 255 49.9999 L 255 74.9999 L 243.125 74.3749 L 243.125 49.9999 z" transform="matrix(0.492743,0.870175,-0.870175,0.492743,14.49365,81.14708)"/><path id="path612" fill="#00f" fill-opacity="1" fill-rule="evenodd" stroke="#000" stroke-linecap="butt" stroke-linejoin="miter" stroke-opacity="1" stroke-width="1pt" d="M 243.125 49.9999 L 255 49.9999 L 255 74.9999 L 243.125 74.3749 L 243.125 49.9999 z" transform="matrix(-0.870175,0.492743,-0.492743,-0.870175,414.3779,14.43645)"/><path id="path613" fill="#00f" fill-opacity="1" fill-rule="evenodd" stroke="#000" stroke-linecap="butt" stroke-linejoin="miter" stroke-opacity="1" stroke-width="1pt" d="M 243.125 49.9999 L 255 49.9999 L 255 74.9999 L 243.125 74.3749 L 243.125 49.9999 z" transform="matrix(-0.870175,0.492743,-0.492743,-0.870175,586.2529,347.5615)"/><g id="g616"><path id="path614" fill="#00f" fill-opacity="1" fill-rule="evenodd" stroke="#000" stroke-linecap="butt" stroke-linejoin="miter" stroke-opacity="1" stroke-width="1pt" d="M 235.801 227.638 C 244.061 221.386 257.01 223.172 261.92 227.638 C 273.212 200.09 253.391 91.5252 249.061 79.4198 C 244.061 89.4198 222.638 200.628 235.801 227.638 z"/><path id="path615" fill="#fff" fill-opacity=".498" fill-rule="evenodd" stroke="none" stroke-linecap="butt" stroke-linejoin="miter" stroke-opacity="1" stroke-width="1pt" d="M 236.137 223.056 C 228.52 202.381 245.387 88.6647 248.651 89.2088 C 248.651 107.164 256.269 237.203 236.137 223.056 z"/></g><g id="g624" transform="matrix(0.475325,0.879810,-0.879810,0.475325,345.2252,-94.48048)"><path id="path620" fill="#00f" fill-rule="evenodd" stroke="#000" stroke-width="1pt" d="M 235.801 227.638 C 244.061 221.386 257.01 223.172 261.92 227.638 C 273.212 200.09 253.391 91.5252 249.061 79.4198 C 244.061 89.4198 222.638 200.628 235.801 227.638 z" font-size="12" transform="matrix(-1.259055,1.458564e-2,-6.503069e-3,-0.561417,567.7497,386.7605)"/><path id="path621" fill="#fff" fill-opacity=".498" fill-rule="evenodd" stroke-width="1pt" d="M 236.137 223.056 C 228.52 202.381 245.387 88.6647 248.651 89.2088 C 248.651 107.164 256.269 237.203 236.137 223.056 z" font-size="12" transform="matrix(1.259055,1.458564e-2,6.503069e-3,-0.561417,-60.53352,389.2605)"/></g></svg>