<svg xmlns="http://www.w3.org/2000/svg" xmlns:xlink="http://www.w3.org/1999/xlink" width="333.215" height="204.282" enable-background="new 0 0 333.215 204.282" overflow="visible" space="preserve" viewBox="0 0 333.215 204.282"><switch><g><g id="Layer_1"><g><path fill-rule="evenodd" d="M73.4,31.4c1.6-2.9,3.6-7.5,9.5-11.1 c4.9-4.9,12.5-10.5,21.3-14.1c8.5-4.2,18.7-6.2,29.2-5.9c9.2-0.6,18.1,0,26.6,5.5 c7.5,4.6,15.1,13.1,21.4,24.3c7.2-3.6,15.7-4.9,25.6-3.9c10.2,0,21.0,2.3,31.2,8.2 c8.5,4.9,14.8,13.4,20.0,24.3c11.5,3.9,21.3,8.8,30.9,13.4c8.5,4.6,16.4,7.2,23.7,14.1 c5.9,5.5,11.8,13.1,15.1,21.4c2.9,7.8,4.9,18.7,4.6,28.9c-0.3,10.2,0,23.0-6.5,30.9 c-8.5,6.5-27.6,11.1-38.2,12.5c-10.8,1.6-19.0-1.6-23.3-3.6c-4.9-2.6-6.2-7.5-3.9-13.5 c-4.6,0.3-8.5,0.3-11.8-1.3c-3.6-2.3-6.5-4.9-8.8-9.2c-4.9,0.9-7.8,0.3-12.5,0.6 c-3.6,0-8.8-1.6-12.1-2.3c-3.9,2.3-10.5,4.6-16.1,5.5c-5.9,0.6-14.4,1.3-22.0,0.6 c3.2,6.5,5.2,11.5,5.9,17.4c-0.3,5.2-1.3,10.2-2.9,14.8c-2.3,3.9-4.6,6.5-9.5,9.2 c-5.5,2.3-12.1,4.6-23.3,5.5c-13.1,0.6-32.5,0-49.3-1.9c-16.7-2.6-37.1-3.9-51.0-11.5 c-14.4-8.5-27.3-20.4-37.1-36.8c-1.9,0-3.2-0.3-3.9-0.9c-1.3-1.9-1.6-0.6-2.3-3.6 c-1.6-3.2-2.6-6.5-2.9-12.5c-1.3-6.2-0.9-14.1,0.9-22.3c1.9-10.2,4.9-18.4,12.8-29.6 c7.9-11.5,18.7-26.3,29.9-34.2c9.2-8.2,19.0-12.8,28.3-13.8C72.8,35.0,73.1,33.4,73.4,31.4 z" clip-rule="evenodd"/><path fill="#F1B785" fill-rule="evenodd" d="M74.1,38.0 c-0.6-2.3,0.6-4.9,2.6-7.8c2.3-2.9,5.2-7.5,10.2-10.2c4.6-4.2,9.8-8.2,17.1-10.5 c7.2-3.2,16.1-5.9,25.3-6.5c7.5-1.6,17.1-0.6,23.7,1.6c5.9,2.3,10.5,6.2,15.1,11.8 c4.9,4.6,8.2,11.1,12.5,18.4c4.6-2.9,10.5-5.2,17.7-5.5c6.5-0.9,17.4-0.3,25.0,1.9 c6.2,1.3,12.1,3.9,17.7,9.2c4.9,4.2,10.5,12.5,15.4,21.0c8.5,2.9,15.4,6.9,24.3,10.5 c8.5,2.9,16.7,7.5,24.6,12.5c5.9,4.9,11.5,10.5,15.4,16.7c3.6,5.5,5.5,11.8,7.2,18.7 c0.9,6.5,0.3,13.8,0.6,20.4c0.3,4.9,0.6,9.2-0.3,14.1c-1.6,3.6-4.9,10.8-9.8,14.1 c-7.2,2.9-19.0,6.9-26.6,8.2c-7.9,1.3-12.8-0.3-17.4,0c-5.6-0.9-8.5-1.9-10.2-4.2 c-2.3-2.9-1.9-7.5-0.3-12.5c-3.6,0.6-6.5,1.3-8.8,0.6c-2.3-0.6-4.9-1.6-6.5-2.9 c-2.9-2.3-3.9-4.6-6.5-8.2c-2.9,0.3-6.5,1.6-9.5,1.3c-4.2-1.3-7.8-0.6-10.8-1.6 c-2.9-1.3-5.2-0.6-6.9-1.6c-1.9,1.3-4.6,3.2-7.8,4.6c-3.9,0.9-7.9,1.3-13.1,2.3 c-5.9,0.3-12.1,0-20.0,0.3c2.3,2.6,2.9,5.6,4.6,10.2c0.3,3.2,1.6,9.5,1.3,14.8 c-1.3,3.9-0.9,9.8-6.5,13.8c-6.2,3.2-14.8,6.2-26.9,7.5c-12.5,0-31.6-0.6-45.7-1.9 c-14.4-1.9-28.6-3.9-39.8-7.2c-12.1-5.2-21.7-9.5-29.9-16.4c-8.5-6.9-14.8-14.4-18.7-22.7 c-1.9,0-4.2-0.3-5.5-2.3c-2.3-2.6-2.9-5.2-3.2-10.5c-1.3-5.9-0.6-15.8,0.6-23.3 c1.3-8.2,4.2-16.1,8.8-23.7c3.9-9.8,11.8-18.1,18.7-26.0c6.2-7.5,13.1-14.8,20.7-19.0 C59.3,42.9,66.2,39.6,74.1,38.0z" clip-rule="evenodd"/><path fill="#A5431E" fill-rule="evenodd" d="M139.6,28.8 c-1.9-1.9-6.2-3.2-11.5-3.9c-6.5-0.9-16.4-2.6-22.0-2.3c-5.9-0.3-10.8,1.3-10.8,0.9 c-0.9-1.6,6.2-6.5,6.5-7.2c-1.3-1.6-5.5-0.3-8.8,1.3c-4.9,1.9-7.8,5.2-11.5,9.8 c-2.3,2.9-5.2,6.9-5.2,10.5c-0.3-0.6,1.6-0.9,5.9-0.9c3.2-0.3,10.5-1.3,18.1-1.6 c-5.2-1.9-8.2-4.6-6.2-5.2c0.9-1.6,9.8-2.9,14.1-2.6c2.6,0,5.5,0.6,8.8,1.9 c2.9,0,6.9-1.6,10.5-1.3C131.4,27.8,135.0,28.4,139.6,28.8z" clip-rule="evenodd"/><path fill="#A5431E" fill-rule="evenodd" d="M183.1,38.3 c0.6-0.3,1.6,7.2,2.9,12.5c0.9,4.9,1.9,9.5,1.6,13.8c-1.6,2.6-7.8-0.3-8.5,3.6 c-0.9,3.2,1.3,15.1,1.6,17.7c-0.9,0.9-3.9-0.6-4.9-4.9c-1.9-4.9,0-12.1-4.2-20.4 c-5.5-7.9-22.0-23.3-24.0-26.0c-2.3-2.6,7.9,3.6,12.8,8.5c4.2,2.9,12.1,13.1,14.8,14.1 c1.3-0.6-2.6-7.5-4.2-11.8c-2.9-4.9-10.8-12.5-9.8-12.5c0.6,0.3,10.5,8.5,14.4,13.1 c3.2,3.2,3.9,9.5,5.5,8.5C181.4,52.5,182.1,39.3,183.1,38.3z" clip-rule="evenodd"/><path fill="#A5431E" fill-rule="evenodd" d="M15.2,91.7 c4.2-6.9,12.1-18.1,23.7-24.6c11.8-7.5,39.5-14.1,43.7-14.8c2.6-0.6-16.4,4.6-25.3,10.8 c-9.8,3.9-21.7,11.8-29.2,18.7c-7.9,7.5-13.4,18.1-15.4,21.3 C10.2,103.5,10.2,97.9,15.2,91.7z" clip-rule="evenodd"/><path fill="#A5431E" fill-rule="evenodd" d="M5.3,121.6 c1.9-4.9,4.2-10.2,10.5-15.8c5.2-6.5,18.1-15.8,22.0-17.4c3.2-1.9-6.9,6.5-2.6,6.5 c3.6-1.6,14.8-10.2,23.3-11.8c7.2-1.9,23.0-2.6,22.0-0.6c-2.3,0.9-19.4,2.3-28.6,7.5 c-9.8,5.2-18.1,12.1-24.6,20.7c-6.5,7.2-10.8,16.4-12.8,23.7c-1.9,6.5-3.6,11.5-1.3,16.1 c-1.6-0.3-3.9,0.3-4.2-0.6c-1.6-0.3-1.3-2.3-1.6-3.2c-1.3-2.9-1.9-4.9-1.9-9.5 C4.6,132.1,4.6,128.2,5.3,121.6z" clip-rule="evenodd"/><path fill="#A5431E" fill-rule="evenodd" d="M99.1,195.0 c-3.6,0.6-6.2,0-9.2-1.9c-3.6-2.6-5.5-6.5-7.2-10.5c-1.9-4.9-3.6-10.5-2.3-15.4 c-0.6-5.2,2.3-10.8,7.5-15.4c4.6-5.2,18.4-13.1,26.3-14.8c7.8-2.9,15.1-1.9,21.7-0.6 c5.9,0.6,9.5,3.2,12.1,6.5c-3.6-6.5-7.5-12.8-13.1-16.1c-6.2-3.9-14.4-6.2-20.7-6.9 c-6.5-1.3-11.1-1.3-17.4,1.3c-7.8,1.9-16.7,5.2-22.7,12.5c-6.2,7.5-8.5,24.0-10.8,28.9 c-2.6,1.9-3.9-3.6-3.9-7.9c0-4.6,0.6-11.1,3.2-15.7c0.9-5.5,3.6-9.2,7.9-13.5 c4.2-3.9,9.2-8.5,16.1-10.2c6.5-2.9,14.4-4.2,23.7-3.9c7.2-0.3,14.8-0.6,22.7,3.9 c7.2,3.2,14.1,10.8,19.4,17.4c3.9,5.6,6.5,12.1,6.5,18.4c-7.5-3.9-15.8-5.2-23.3-5.2 c-8.5-0.9-17.7,0.9-24.0,4.6c-7.9,3.6-12.1,11.5-14.1,18.4c-1.9,5.9,1.3,13.8,4.6,18.7 c2.3,3.6,5.9,7.2,10.8,7.2C108.3,194.7,103.7,194.7,99.1,195.0z" clip-rule="evenodd"/><path fill="#A5431E" fill-rule="evenodd" d="M100.4,85.4 c6.2,0.3,12.8,2.3,19.7,5.9c5.5,2.9,14.4,7.9,20.4,13.4c5.9,5.5,11.8,12.8,16.4,21.7 c2.3-5.9,4.9-9.2,7.9-9.8c1.9-1.3,4.2,6.9,6.9,5.5c1.9-1.9,7.8-7.2,4.9-15.7 c-4.2-9.8-24.3-36.5-27.3-39.5c-2.9-2.9,8.2,15.1,9.5,20.0c0.6,3.2-1.9,3.2-6.5,0 c-6.2-4.9-16.4-19.0-25.6-24.6c-9.5-6.5-28.6-9.5-30.6-10.2c-2.3-0.3,6.2,1.6,13.1,5.9 c4.9,3.2,14.4,7.2,19.7,13.1c5.5,4.6,11.1,15.4,11.8,18.4c-0.3,1.6-7.9-0.6-13.8-1.6 C119.9,87.4,111.0,86.1,100.4,85.4z" clip-rule="evenodd"/><path fill="#A5431E" fill-rule="evenodd" d="M204.8,120.0 c2.3-4.2,5.2-5.5,7.5-5.2c1.9-0.3,3.2,7.5,6.5,7.2c3.3-1.6,6.2-4.2,10.2-10.5 c2.3-6.2,4.6-15.1,5.5-25.3c1.3-10.8,0-24.3-0.3-39.1c-0.3,5.9-1.9,9.2-3.6,12.5 c-1.9,1.3-5.5,0.6-7.2,3.2c-2.3,3.2-4.2,11.5-5.9,14.4c-2.9,1.3-6.5-5.9-8.2-2.6 c-2.3,3.6-2.9,11.1-3.3,20.0C205.1,101.9,205.1,110.7,204.8,120.0z" clip-rule="evenodd"/><path fill="#A5431E" fill-rule="evenodd" d="M254.2,137.4 c5.9-6.5,11.5-11.1,18.0-15.1c5.9-4.9,10.8-7.2,18.7-8.2c7.2-1.9,16.4-1.3,23.7,1.9 c5.5,2.9,9.5,9.2,11.8,18.7c0.6-6.5,0.6-11.5,0-16.1c-1.0-5.2-3.3-9.2-6.9-11.8 c-5.2-3.2-14.4-6.5-21.4-5.9c-8.2-0.9-15.4,0.3-23.0,6.5 C267.7,112.7,261.1,123.9,254.2,137.4z" clip-rule="evenodd"/><path fill="#A5431E" fill-rule="evenodd" d="M269.6,164.7 c-2.3,1.9-0.6,2.3,1.3,4.6c1.9,2.3,7.8,2.9,12.8,4.6c3.6-0.6,7.9-1.6,12.8-4.2 c3.6-2.9,13.1-6.5,14.8-10.8c1.6-5.9-1.6-16.4-4.9-20.0c-4.6-4.2-14.4-2.3-20.7-0.3 c-6.9,2.3-13.5,6.2-19.7,13.1c10.5-4.6,17.4-6.5,24.3-7.2c5.2-0.6,10.5,0,12.1,3.2 c1.3,1.6,0,8.5-2.6,11.8c-2.9,2.6-11.5,3.9-15.4,5.2C279.2,165.4,274.2,165.4,269.6,164.7z" clip-rule="evenodd"/><path fill="#691C00" fill-rule="evenodd" d="M192.6,124.9 c2.9-3.2,4.2-5.5,7.5-9.5c1.9-5.2,3.2-16.7,5.2-18.1c0.9-1.3,0.3,7.9,1.6,9.8 c0,0.6,2.9-2.9,3.9-1.9c0.3,0-1.3,5.2,0.3,6.9c1.3,0.3,7.5,0,7.2,1.6 c-1.6,1.3-8.5,3.9-13.1,7.9c-5.2,3.9-11.5,10.1-14.8,13.4c-3.6,1.3-7.2,0.3-5.9-1.6 C184.1,131.8,189.6,127.2,192.6,124.9z" clip-rule="evenodd"/><path fill="#691C00" fill-rule="evenodd" d="M140.6,144.3 c2.9,0.3,8.8,0.9,13.8,3.2c3.9,1.9,11.1,4.6,12.8,6.5c0,0.6-3.6,0-8.2-0.6 c-5.6-1.6-15.1-5.2-21.0-5.9c-5.5-1.3-13.4,0.6-13.4,0.6c-0.9-1.3,4.6-2.9,7.9-3.6 C134.3,143.3,136.6,143.7,140.6,144.3z" clip-rule="evenodd"/><path fill="#691C00" fill-rule="evenodd" d="M253.2,135.1 c-2.6,2.3-2.3,5.6-1.6,5.9c0.3-0.6,3.6-2.9,7.2-5.5c3.9-3.2,8.8-8.2,13.4-11.1 c4.2-3.6,7.2-6.9,8.8-7.2c-0.9-1.3-4.6,1.9-7.2,2.3c-2.9-0.3-2.9-2.6-4.9-1.6 c-2.9,0.6-5.5,1.9-7.8,5.2C258.1,125.2,254.2,131.8,253.2,135.1z" clip-rule="evenodd"/></g></g></g></switch></svg>