<svg xmlns="http://www.w3.org/2000/svg" xmlns:xlink="http://www.w3.org/1999/xlink" id="svg1" width="1000" height="500"><g id="g578" transform="scale(16.66667,16.66667)"><rect id="rect124" width="60" height="30" x="0" y="0" fill="#006" stroke-width="1pt" font-size="12"/><g id="g584" font-size="12"><path id="path146" fill="#fff" stroke-width="1pt" d="M 0 0 L 0 3.3 L 53.2 30 L 60 30 L 60 26.6 L 6.7 0 L 0 0 z M 60 0 L 60 3.3 L 6.7 30 L 0 30 L 0 26.6 L 53.2 0 L 60 0 z" font-size="12"/><path id="path136" fill="#fff" stroke-width="1pt" d="M 25 0 L 25 30 L 35 30 L 35 0 L 25 0 z M 0 10 L 0 20 L 60 20 L 60 10 L 0 10 z" font-size="12"/><path id="path141" fill="#c00" stroke-width="1pt" d="M 0 12 L 0 18 L 60 18 L 60 12 L 0 12 z M 27 0 L 27 30 L 33 30 L 33 0 L 27 0 z" font-size="12"/><path id="path150" fill="#c00" stroke-width="1pt" d="M 0 30 L 20 20 L 24.4 20 L 4.4 30 L 0 30 z M 0 0 L 20 10 L 15.5 10 L 0 2.2 L 0 0 z M 35.5 10 L 55.5 0 L 60 0 L 40 10 L 35.5 10 z M 60 30 L 40 20 L 44.4 20 L 60 27.7 L 60 30 z" font-size="12"/></g></g></svg>