<svg xmlns="http://www.w3.org/2000/svg" xmlns:xlink="http://www.w3.org/1999/xlink" id="svg948" width="106.667" height="106.667"><metadata><rdf:RDF xmlns:cc="http://web.resource.org/cc/" xmlns:dc="http://purl.org/dc/elements/1.1/" xmlns:rdf="http://www.w3.org/1999/02/22-rdf-syntax-ns#"><cc:Work><dc:title>Clipart by Nicu Buculei - w_cloud</dc:title><dc:description/><dc:subject><rdf:Bag><rdf:li/><rdf:li>weather</rdf:li><rdf:li>signs_and_symbols</rdf:li></rdf:Bag></dc:subject><dc:publisher><cc:Agent rdf:about="http://www.openclipart.org"><dc:title>Nicu Buculei</dc:title></cc:Agent></dc:publisher><dc:creator><cc:Agent><dc:title>Nicu Buculei</dc:title></cc:Agent></dc:creator><dc:rights><cc:Agent><dc:title>Nicu Buculei</dc:title></cc:Agent></dc:rights><dc:date/><dc:format>image/svg+xml</dc:format><dc:type rdf:resource="http://purl.org/dc/dcmitype/StillImage"/><cc:license rdf:resource="http://web.resource.org/cc/PublicDomain"/><dc:language>en</dc:language></cc:Work><cc:License rdf:about="http://web.resource.org/cc/PublicDomain"><cc:permits rdf:resource="http://web.resource.org/cc/Reproduction"/><cc:permits rdf:resource="http://web.resource.org/cc/Distribution"/><cc:permits rdf:resource="http://web.resource.org/cc/DerivativeWorks"/></cc:License></rdf:RDF></metadata><defs id="defs950"><linearGradient id="linearGradient975"><stop id="stop976" offset="0" stop-color="#000" stop-opacity=".25"/><stop id="stop977" offset="1" stop-color="#fff" stop-opacity="0"/></linearGradient><radialGradient id="radialGradient978" cx=".541" cy=".492" r=".678" fx=".541" fy=".492" xlink:href="#linearGradient975"/></defs><g id="g996"><path id="path972" fill="#ff9" fill-opacity="1" fill-rule="evenodd" stroke="#000" stroke-width="1.333" d="M 27.214851,9.6961778 C 97.726056,-3.4989015 108.44706,99.175310 32.163005,92.577768 C 48.656854,86.804921 75.871705,38.148067 27.214851,9.6961778 z"/><path id="path981" fill-opacity=".05" fill-rule="evenodd" stroke-width="1.333" d="M 27.652139,9.5112427 C 78.370729,15.284089 84.555923,78.785408 32.600293,92.392833 C 49.094142,86.619983 76.308993,37.963132 27.652139,9.5112427 z"/><path id="path982" fill-opacity=".05" fill-rule="evenodd" stroke-width="1.333" d="M 28.111945,9.0776580 C 75.119421,18.561621 80.067572,76.290093 33.060099,91.959244 C 49.553948,86.186394 76.768797,37.529548 28.111945,9.0776580 z"/><path id="path983" fill-opacity=".05" fill-rule="evenodd" stroke-width="1.333" d="M 27.269196,9.9023553 C 70.153206,23.097434 77.163087,71.341943 32.217348,92.783941 C 48.711198,87.011091 75.926048,38.354245 27.269196,9.9023553 z"/><path id="path984" fill="#fff" fill-opacity=".5" fill-rule="evenodd" stroke-width="1.333" d="M 27.239794,10.335935 C 96.513964,-2.0344516 106.41027,97.753335 32.187948,92.392834 C 84.555915,96.103948 109.29669,12.397665 27.239794,10.335935 z"/></g></svg>