<svg xmlns="http://www.w3.org/2000/svg" xmlns:xlink="http://www.w3.org/1999/xlink" id="svg1" width="533.333" height="533.333"><defs id="defs3"><linearGradient id="linearGradient1085"><stop id="stop1086" offset="0" stop-color="#00009f" stop-opacity="1"/><stop id="stop1087" offset="1" stop-color="#00f" stop-opacity="1"/></linearGradient><radialGradient id="radialGradient1088" cx="1.8" cy="-.034" r="2.137" fx="1.8" fy="-.034" xlink:href="#linearGradient1085"/><radialGradient id="radialGradient1089" cx="-1.854" cy="-.028" r="2.137" fx="-1.854" fy="-.028" xlink:href="#linearGradient1085"/><radialGradient id="radialGradient1090" cx="-.341" cy="-1.884" r="2.137" fx="-.341" fy="-1.884" gradientTransform="scale(0.751916,1.329935)" xlink:href="#linearGradient1085"/><radialGradient id="radialGradient1091" cx="-.339" cy=".863" r="2.137" fx="-.339" fy=".863" gradientTransform="scale(0.751916,1.329935)" xlink:href="#linearGradient1085"/><radialGradient id="radialGradient1092" cx=".861" cy="-.023" r="2.137" fx=".861" fy="-.023" xlink:href="#linearGradient1085"/><radialGradient id="radialGradient1093" cx="-2.793" cy="-.032" r="2.137" fx="-2.793" fy="-.032" xlink:href="#linearGradient1085"/><radialGradient id="radialGradient1094" cx="-.341" cy="-1.175" r="2.137" fx="-.341" fy="-1.175" gradientTransform="scale(0.751916,1.329935)" xlink:href="#linearGradient1085"/><radialGradient id="radialGradient1095" cx="-.336" cy="1.569" r="2.137" fx="-.336" fy="1.569" gradientTransform="scale(0.751916,1.329935)" xlink:href="#linearGradient1085"/><radialGradient id="radialGradient1096" cx=".265" cy=".268" r=".665" fx=".265" fy=".268" gradientTransform="scale(0.867801,1.152339)" xlink:href="#linearGradient1085"/></defs><g id="g842"><path id="path1392" fill-opacity=".5" fill-rule="evenodd" stroke-width="3.824" d="M 126.5,127.7 L 126.5,226.9 C 126.3,230.0 124.0,248.1 106.1,244.6 C 86.6,240.9 99.6,208.8 71.4,222.0 C 62.2,229.7 57.1,243.0 55.4,256.1 C 55.4,256.3 55.4,256.5 55.3,256.7 C 54.4,261.3 53.9,266.6 54.1,272.2 C 54.7,287.4 59.8,304.5 70.7,313.6 C 98.8,326.8 85.8,294.6 105.3,290.9 C 124.9,287.1 125.9,309.8 125.9,309.8 L 126.5,407.5 L 228.1,407.5 C 234.3,408.7 246.4,413.0 243.5,427.6 C 239.8,447.1 207.7,434.1 220.9,462.3 C 228.6,471.5 241.9,476.6 255.0,478.3 C 255.2,478.3 255.4,478.3 255.6,478.4 C 260.2,479.3 265.5,479.8 271.1,479.6 C 286.3,479.1 303.3,474.0 312.4,463.1 C 325.7,434.9 293.5,447.9 289.8,428.4 C 286.0,408.8 308.7,407.8 308.7,407.8 L 405.8,407.5 C 405.8,407.5 405.2,309.2 405.2,309.2 C 405.2,309.2 404.1,286.6 384.6,290.3 C 365.1,294.1 378.1,326.2 349.9,313.0 C 339.0,303.9 333.9,286.9 333.4,271.7 C 333.2,266.1 333.7,260.8 334.6,256.2 C 334.7,256.0 334.7,255.8 334.7,255.6 C 336.4,242.4 341.5,229.1 350.7,221.5 C 356.0,219.0 359.8,218.1 362.7,218.3 C 375.1,219.3 369.5,241.0 385.4,244.1 C 403.6,247.6 405.6,228.8 405.8,226.1 L 405.8,127.7 C 405.8,127.7 308.5,128.5 308.5,128.5 C 308.5,128.5 285.8,129.5 289.6,149.1 C 293.4,168.6 325.5,155.6 312.3,183.7 C 303.2,194.6 286.1,199.7 270.9,200.3 C 265.3,200.5 260.1,200.0 255.4,199.1 C 255.2,199.0 255.0,199.0 254.8,199.0 C 241.7,197.3 228.4,192.2 220.7,183.0 C 207.5,154.8 239.6,167.8 243.4,148.3 C 247.1,129.1 225.4,127.8 224.7,127.7 L 126.5,127.7 z"/><path id="path1220" fill="url(#radialGradient1096)" fill-opacity="1" fill-rule="evenodd" stroke="#000" stroke-dasharray="none" stroke-linejoin="round" stroke-width="12.5" d="M 108.6,112.4 L 108.6,211.6 C 108.3,214.7 106.0,232.8 88.1,229.3 C 68.6,225.5 81.6,193.4 53.5,206.7 C 44.2,214.3 39.2,227.6 37.5,240.8 C 37.5,241.0 37.4,241.2 37.4,241.4 C 36.4,246.0 35.9,251.3 36.1,256.9 C 36.7,272.1 41.8,289.1 52.7,298.2 C 80.9,311.5 67.9,279.3 87.4,275.5 C 106.9,271.8 108.0,294.5 108.0,294.5 L 108.6,392.2 L 210.2,392.2 C 216.4,393.4 228.4,397.7 225.6,412.3 C 221.8,431.8 189.7,418.8 202.9,447.0 C 210.6,456.2 223.9,461.3 237.0,463.0 C 237.2,463.0 237.4,463.0 237.6,463.0 C 242.2,464.0 247.5,464.5 253.1,464.3 C 268.3,463.7 285.4,458.6 294.5,447.7 C 307.7,419.5 275.6,432.6 271.8,413.0 C 268.0,393.5 290.7,392.5 290.7,392.5 L 387.9,392.2 C 387.9,392.2 387.3,293.9 387.3,293.9 C 387.3,293.9 386.2,271.2 366.7,275.0 C 347.2,278.8 360.2,310.9 332.0,297.7 C 321.1,288.6 316.0,271.6 315.4,256.4 C 315.2,250.7 315.7,245.5 316.7,240.9 C 316.7,240.7 316.7,240.4 316.8,240.2 C 318.5,227.1 323.5,213.8 332.7,206.1 C 338.0,203.7 341.9,202.8 344.7,203.0 C 357.2,203.9 351.6,225.7 367.4,228.8 C 385.6,232.3 387.7,213.5 387.9,210.8 L 387.9,112.4 C 387.9,112.4 290.5,113.1 290.5,113.1 C 290.5,113.1 267.9,114.2 271.6,133.7 C 275.4,153.2 307.6,140.2 294.3,168.4 C 285.2,179.3 268.2,184.4 253.0,185.0 C 247.4,185.2 242.1,184.7 237.5,183.7 C 237.3,183.7 237.1,183.7 236.9,183.6 C 223.7,181.9 210.4,176.9 202.8,167.7 C 189.5,139.5 221.6,152.5 225.4,133.0 C 229.1,113.8 207.5,112.5 206.8,112.4 L 108.6,112.4 z"/></g></svg>