<svg xmlns="http://www.w3.org/2000/svg" xmlns:xlink="http://www.w3.org/1999/xlink" width="415.385" height="481.427" enable-background="new 0 0 415.385 481.427" overflow="visible" space="preserve" viewBox="0 0 415.385 481.427"><metadata><rdf:RDF xmlns:cc="http://web.resource.org/cc/" xmlns:dc="http://purl.org/dc/elements/1.1/" xmlns:rdf="http://www.w3.org/1999/02/22-rdf-syntax-ns#"><cc:Work><dc:title>Handel Cartoon Bust</dc:title><dc:description>Handel Cartoon Bust</dc:description><dc:subject><rdf:Bag><rdf:li>people</rdf:li><rdf:li>handel</rdf:li><rdf:li>music</rdf:li></rdf:Bag></dc:subject><dc:publisher><cc:Agent rdf:about="http://www.openclipart.org/"><dc:title>Open Clip Art Project</dc:title></cc:Agent></dc:publisher><dc:creator><cc:Agent rdf:about="http://web.resource.org/cc/PublicDomain"><dc:title>Gerald G.</dc:title></cc:Agent></dc:creator><dc:rights><cc:Agent rdf:about="http://web.resource.org/cc/PublicDomain"><dc:title>Public Domain</dc:title></cc:Agent></dc:rights><dc:date>2005/06/21</dc:date><dc:format>image/svg+xml</dc:format><dc:type rdf:resource="http://purl.org/dc/dcmitype/StillImage"/><cc:license rdf:resource="http://web.resource.org/cc/PublicDomain"/><dc:language>en</dc:language></cc:Work><cc:License rdf:about="http://web.resource.org/cc/PublicDomain"><cc:permits rdf:resource="http://web.resource.org/cc/Reproduction"/><cc:permits rdf:resource="http://web.resource.org/cc/Distribution"/><cc:permits rdf:resource="http://web.resource.org/cc/DerivativeWorks"/></cc:License></rdf:RDF></metadata><switch><g><g id="Layer_1"><g><path stroke="#000" stroke-miterlimit="10" stroke-width=".036" d="M97.812,288.705 c0.072,3.744-0.72,6.983-2.664,10.008c-1.908,2.952-4.32,6.516-8.784,7.776c-4.752,1.08-13.536,1.62-18.576-0.756 c-5.004-2.558-8.82-8.174-10.908-13.788c-2.16-5.616-2.592-11.988-1.584-19.514c-8.64-0.898-14.364-3.238-17.568-7.02 c-3.204-3.816-3.6-9.072-1.332-15.77c-8.856-6.623-13.86-12.492-15.156-18.036c-1.332-5.616,1.152-10.476,7.452-15.012 c-6.84-8.1-9.756-15.768-8.748-23.544c0.972-7.848,5.796-15.264,14.616-22.788c-7.272-7.272-11.268-15.192-11.988-24.048 c-0.828-9.072,3.276-20.988,7.452-28.8c4.248-7.704,9.9-13.248,17.532-17.028c-4.788-8.712-4.788-16.704,0-24.804 c4.824-8.028,14.076-15.66,28.44-23.04c0.036-10.62,2.52-18.324,7.452-23.544c5.004-5.184,12.168-7.74,22.068-7.524 c2.376-6.732,6.084-11.304,11.412-14.004c5.256-2.736,14.4-4.608,20.232-2.016c5.76,2.592,10.548,8.676,14.076,17.28 c3.312,8.424,5.4,19.476,6.12,33.3c0.972-0.036,1.764-1.908,2.376-5.76c0.504-3.96-0.756-11.016,1.08-17.28 c1.728-6.444,3.708-14.868,9.828-20.268c6.12-5.364,14.832-9.108,26.568-11.52c0.36-0.396,2.376-0.54,6.192-0.432 c3.744-0.036,11.232-2.232,16.488,0.756c5.185,3.024,10.008,8.568,14.615,17.028c9.432,1.548,16.813,3.6,22.572,6.012 c5.725,2.34,9.072,5.04,11.447,8.496c2.196,3.456,2.809,7.416,1.838,12.024c3.526,0.216,6.442,1.224,9.034,3.024 c2.558,1.656,4.5,3.96,6.119,7.488c1.584,3.492,2.558,8.136,3.205,13.788c5.795-1.692,11.195-1.404,16.488,1.26 c5.256,2.556,12.059,8.784,14.867,14.256c2.701,5.436,3.096,11.304,1.332,18.036c6.084,0.108,9.541,4.068,10.369,12.023 c0.825,7.992-1.08,19.656-5.58,35.568c4.104,1.26,7.198,4.212,9.432,9c2.195,4.86,4.68,13.824,3.707,19.548 c-1.115,5.544-4.428,9.9-10.08,13.5c3.924,3.168,6.264,6.804,7.164,11.304c0.793,4.356-0.611,10.872-2.123,15.264 c-1.584,4.356-3.924,8.028-7.164,11.016c-0.793,3.456,0.971,6.516,5.291,9.576c4.32,2.916,16.885,2.808,20.484,8.28 c3.457,5.544-1.188,18.756,0.504,24.516c1.729,5.544,8.676,3.42,9.576,8.784c0.756,5.363-6.443,17.64-4.787,22.788 c1.584,4.896,13.5,2.482,14.362,6.768c0.685,4.284-10.836,14.004-9.827,18.756c1.08,4.608,13.606,4.608,15.659,9.036 c1.837,4.428-4.428,12.24-4.5,17.028c-0.145,4.68,2.845,7.128,3.707,10.656c0.722,3.348,2.054,6.228,1.08,9.756 c-1.043,3.526-3.383,7.234-7.164,11.268c7.562,7.164,14.148,14.868,20.197,23.652c5.976,8.64,11.34,16.452,15.408,28.296 c3.959,11.844,6.66,25.596,8.244,42.084h-264.49H0.862c-1.764-9.504-1.008-21.132,2.664-35.568 c3.528-14.544,9.684-34.704,18.864-50.328c9.216-15.658,20.52-28.188,36.144-42.588c15.624-14.436,34.128-28.512,56.628-43.056 c-3.744-5.437-6.984-9.684-9.864-13.284C102.347,293.025,99.898,290.397,97.812,288.705z"/><path fill="#E3B79C" stroke="#000" stroke-miterlimit="10" stroke-width=".036" d="M133.63,356.457 c-2.844-5.832-5.508-12.492-7.992-20.556c-2.484-8.028-4.788-17.028-6.912-27.288c-5.868-7.128-11.088-13.824-15.948-20.521 c-5.004-6.768-9.252-10.008-13.032-19.296c-3.672-9.396-7.56-25.164-9.036-36.072c-1.548-11.052-0.792-21.24-0.504-29.052 c0.036-7.848,2.088-10.368,1.296-17.28c-0.9-7.092-6.948-13.248-6.084-24.3c0.792-11.124,4.14-29.376,11.16-41.544 c7.128-12.312,19.44-23.04,30.816-31.068c11.088-7.956,22.176-14.76,35.892-16.524c13.752-1.8,33.156,1.476,45.972,5.508 c12.602,3.924,21.923,9.72,29.773,17.784c7.703,7.92,12.813,18.972,16.737,29.808c3.816,10.8,6.445,24.084,6.373,34.56 c-0.18,10.368-5.614,17.748-7.164,27.288c-1.584,9.504-2.053,19.979-2.377,29.052c-0.504,8.784,0.648,14.976-0.286,23.868 c-1.152,9-3.744,21.312-5.832,29.304c-2.054,7.668-4.824,12.456-6.371,17.28c-1.656,4.752-0.865,6.695-3.457,11.268 c-2.771,4.572-9.756,10.584-12.492,15.518c-2.736,4.716,0.18,8.604-3.744,13.03c-4.14,4.536-19.007,11.448-20.448,13.5 c-1.512,1.802,7.524-0.322,11.7-2.482c4.176-2.448,10.404-6.77,13.285-11.018c2.699-4.248,0.791-9.54,3.168-13.787 c2.303-4.248,7.992-7.164,10.656-11.521c2.481-4.572,2.268-8.46,4.787-15.264c2.52-6.876,5.977-15.12,10.366-25.31 c-0.539,2.988-0.321,5.364,0.505,7.524c0.899,2.088,2.231,3.708,4.536,5.004c-4.932,8.604-10.512,18.936-17.026,31.428 c-6.519,12.456-13.683,26.532-21.781,42.805c-11.879,7.164-22.32,11.951-31.896,14.797c-9.576,2.734-17.532,2.771-24.984,1.764 C145.728,363.584,139.354,360.848,133.63,356.457z"/><path stroke="#000" stroke-miterlimit="10" stroke-width=".036" d="M133.63,259.724 c-2.7,3.276-4.968,6.48-7.2,9.757c-2.232,3.239-5.472,7.381-5.832,9.505c-0.432,1.872,1.836,3.096,3.456,2.268 c1.476-0.972,3.384-3.348,5.58-7.524c4.968-0.61,12.924-1.15,24.696-1.476c11.664-0.396,39.6-0.324,44.928-0.756 c5.04-0.648-10.26-1.26-13.824-2.521c-3.564-1.366-4.464-4.282-7.416-5.004c-3.204-0.756-7.452-0.216-10.656,0.504 c-3.204,0.648-6.084,3.708-7.956,3.492c-1.836-0.396-1.656-5.146-3.204-5.508c-1.656-0.396-3.312,2.124-6.372,3.276 c-3.24,1.115-9.36,2.664-12.24,3.238c-2.808,0.434-3.888,0.648-4.5-0.756C132.372,266.6,132.55,263.901,133.63,259.724z"/><path stroke="#000" stroke-miterlimit="10" stroke-width=".036" d="M149.832,278.516 c7.488-1.438,14.436-2.158,21.528-2.016c6.912,0.144,13.644,1.008,20.196,2.736c1.224,1.188,1.98,2.734,2.412,4.788 c0.36,2.052,0.36,4.318,0,7.234c-3.42-3.42-7.272-5.868-11.7-7.739c-4.572-1.872-9.54-2.916-14.904-3.275 c-5.472-0.433-14.004,0.972-16.992,0.756C147.418,280.676,147.238,279.848,149.832,278.516z"/><path stroke="#000" stroke-miterlimit="10" stroke-width=".036" d="M198.466,249.212 c-0.252,0.432,4.752,7.092,6.12,10.26c1.224,3.024,1.476,4.86,1.584,7.992c-0.036,3.024-1.584,9.973-1.044,10.296 c0.54,0.108,3.997-5.544,4.249-9.036c0-3.672-1.296-8.424-3.205-11.771C204.298,253.64,198.684,248.745,198.466,249.212z"/><path stroke="#000" stroke-miterlimit="10" stroke-width=".036" d="M170.818,181.893 c-0.396-2.556-2.88,10.944-3.708,17.028c-0.9,6.012-2.592,14.58-1.332,19.044c1.152,4.248,6.948,4.824,8.496,7.02 c1.512,2.268-0.576,4.14,0.54,6.012c1.116,1.62,5.796,0.864,5.832,3.996c-0.144,3.096-5.832,11.916-6.372,14.256 c-0.612,2.088,0.828,1.439,2.916-0.972c2.088-2.412,8.712-10.225,9.036-13.284c0.108-3.096-7.164-3.636-8.208-5.508 c-1.224-2.016,3.096-3.996,1.584-6.516c-1.62-2.628-9.144-2.196-10.62-9C167.506,206.984,171.035,184.448,170.818,181.893z"/><path stroke="#000" stroke-miterlimit="10" stroke-width=".036" d="M171.898,249.752 c-0.36-0.36-4.896,2.052-6.66,2.521c-1.98,0.286-3.348-0.722-4.248-0.253c-0.936,0.539-1.8,2.411-0.792,2.987 c1.044,0.36,4.788,0.288,6.912-0.504C169.02,253.497,172.188,250.113,171.898,249.752z"/><path stroke="#000" stroke-miterlimit="10" stroke-width=".036" d="M164.194,246.26 c-0.396-2.052-0.036-7.56,0.792-9.288c0.756-1.872,2.232-2.196,3.456-0.972c1.044,1.26,3.348,6.408,3.168,8.496 c-0.252,2.088-3.06,3.348-4.248,3.78C165.958,248.493,164.626,248.096,164.194,246.26z"/><path stroke="#000" stroke-miterlimit="10" stroke-width=".036" d="M151.164,239.997 c0.54-1.548,1.296-2.952,1.872-3.24c0.648-0.396,1.404-0.504,1.836,1.476c0.18,1.944,0.612,7.776-0.252,10.26 c-1.044,2.34-3.276,5.436-5.04,4.032c-1.728-1.62-4.212-9.072-5.076-12.78c-1.008-3.6-1.548-6.552-0.504-9 c1.008-2.664,4.752-1.836,6.372-6.264c1.404-4.608,1.728-19.98,2.376-20.556c0.504-0.504,1.836,12.924,1.08,17.532 c-0.864,4.392-4.536,6.552-5.58,9.54c-1.008,3.096-0.864,5.976-0.54,8.496c0.18,2.34,0.936,5.328,1.584,5.508 C149.794,245.037,150.515,241.329,151.164,239.997z"/><path stroke="#000" stroke-miterlimit="10" stroke-width=".036" d="M174.274,170.265 c1.692-4.608,4.572-8.568,8.244-12.024c3.816-3.564,7.956-6.912,14.076-8.532c5.976-1.692,14.544-1.98,21.529-1.26 c6.947,0.648,15.084,2.952,19.404,5.256c4.065,2.16,4.5,5.112,5.326,8.028c0.758,2.772,0.575,5.868-0.539,9 c-7.813-4.824-15.191-8.028-22.572-9.756c-7.451-1.8-13.932-2.016-21.528-0.504 C190.476,162.057,182.771,165.188,174.274,170.265z"/><path stroke="#000" stroke-miterlimit="10" stroke-width=".036" d="M153.431,162.165 c-6.624-8.46-13.032-13.968-19.656-16.524c-6.696-2.556-13.32-0.108-19.728,0.936c-6.516,0.9-13.572,1.908-18.54,4.572 c-5.04,2.628-9.684,6.948-11.16,11.016c-1.512,3.996-0.72,7.992,2.376,12.528c4.824-4.644,10.836-8.352,18.612-11.268 c7.704-3.024,19.188-6.084,27.36-6.264C140.758,156.98,147.526,158.601,153.431,162.165z"/><path stroke="#000" stroke-miterlimit="10" stroke-width=".036" d="M198.214,223.833 c2.052-1.404,12.241-5.364,18.325-7.992c6.047-2.772,16.199-7.812,17.279-7.776c0.793,0.108-7.129,5.652-11.951,8.28 c-4.969,2.592-13.321,5.616-17.281,6.984C200.482,224.625,196.271,224.984,198.214,223.833z"/><path stroke="#000" stroke-miterlimit="10" stroke-width=".036" d="M118.476,228.117 c-3.6-1.476-10.548-2.844-15.408-4.536c-5.004-1.944-13.824-6.804-13.824-6.264c0.072,0.612,8.136,7.164,14.076,9.792 c5.904,2.556,18,5.004,20.736,5.256C126.502,232.508,122.002,229.521,118.476,228.117z"/><path stroke="#000" stroke-miterlimit="10" stroke-width=".036" d="M226.116,272.792 c-1.549,7.596-3.099,14.148-5.041,19.8c-1.98,5.438-2.306,10.08-6.408,13.788c-4.176,3.816-10.188,6.552-18.324,8.748 c-2.88,5.58-6.156,10.332-9.828,14.256c-3.852,3.854-6.3,7.416-12.492,9.036c-6.264,1.404-17.928,2.412-24.444,0.252 c-6.48-2.304-12.096-7.522-14.364-13.032c-2.376-5.614-0.54-19.438,0.252-19.512c0.756-0.036,1.296,14.616,4.248,19.512 c2.772,4.896,6.984,8.028,12.78,9.54c5.796,1.44,14.868,2.594,21.78-1.26c6.804-4.104,12.996-11.556,18.864-22.788 c4.86-0.216,9.828-3.348,15.444-9.792C214.09,294.825,219.887,285.537,226.116,272.792z"/><path fill="silver" stroke="#000" stroke-miterlimit="10" stroke-width=".036" d="M93.274,287.445 c0.072,5.327-1.08,9.288-3.456,12.022c-2.412,2.664-6.876,3.996-10.908,3.996c-4.212,0-10.44,1.404-13.824-3.996 c-3.492-5.615-5.58-15.12-6.66-29.052c-6.912-1.188-11.772-2.808-15.12-5.004c-3.312-2.196-3.852-4.824-4.536-8.028 c-0.792-3.312-0.792-7.056,0-11.52c-5.796-2.34-9.648-5.22-11.7-8.784c-2.088-3.636-1.296-9-0.54-12.492 c0.756-3.528,2.448-6.372,5.076-8.532c-4.572-6.264-7.056-12.096-7.452-17.784c-0.468-5.796,2.196-10.908,4.788-16.02 c2.52-5.04,5.976-9.72,10.368-14.04c-6.624-5.796-10.656-11.988-12.492-19.26c-1.728-7.308-0.324-17.46,1.836-23.796 c2.016-6.336,6.084-10.044,10.116-14.04c3.96-4.068,8.388-7.56,13.572-10.332c-4.212-3.96-5.904-8.496-5.076-13.752 c0.756-5.4,4.356-12.348,9.828-17.784c5.436-5.472,12.708-10.188,22.356-14.544c-0.864-7.884-0.072-14.04,2.376-18.9 c2.34-4.932,7.524-8.136,11.952-10.008c4.428-1.872,9.072-2.16,14.364-1.008c2.124-6.84,5.364-11.592,10.116-14.256 c4.68-2.844,12.744-3.888,17.784-2.016c4.896,2.016,8.928,7.776,11.7,13.536c2.628,5.616,3.168,13.86,4.536,20.016 c1.296,6.048,2.124,13.464,3.456,16.272c1.296,2.556,2.988,2.232,4.248,0c1.08-2.34,1.368-7.272,2.664-13.248 c1.224-6.12,1.188-15.876,5.04-22.32c3.816-6.516,10.872-12.6,17.82-15.768c6.804-3.06,16.452-3.456,23.112-2.988 c6.551,0.36,12.131,1.98,16.2,5.004c3.924,3.024,6.407,7.272,7.45,13.032c6.337,0.252,11.988,1.116,16.957,2.736 c4.859,1.548,9.757,3.024,12.744,6.768c3.023,3.744,4.572,8.82,5.039,15.516c4.394-0.036,7.851,0.972,10.656,3.024 c2.629,2.16,4.393,5.436,5.832,9.252c1.438,3.6,2.412,7.776,2.916,12.528c5.688-1.224,10.512-1.188,15.156,0.252 c4.5,1.476,9.034,4.5,11.95,8.244c2.736,3.708,4.285,8.928,5.076,13.284c0.722,4.104,0.541,7.992-0.539,11.52 c4.031-0.036,6.947,1.044,8.748,3.528c1.729,2.412,1.98,6.552,1.871,11.016c-0.252,4.356-1.512,10.044-2.664,15.264 c-1.188,5.148-2.375,10.224-3.959,15.516c4.031,2.052,6.984,5.04,9.287,8.82c2.125,3.816,3.277,9.936,3.996,13.788 c0.576,3.672,1.693,5.22,0,8.532c-1.764,3.24-5.219,6.732-10.367,10.764c3.853,2.808,6.156,6.048,6.912,10.26 c0.684,4.14-0.865,9.54-2.412,14.256c-1.656,4.572-3.996,9-7.164,13.284c2.195,5.508,5.076,9.684,8.783,12.527 c3.637,2.845,9.865,2.447,13.285,4.5c3.274,1.943,5.58,2.557,6.623,7.523c1.008,4.933-2.123,17.244-0.791,21.78 c1.223,4.354,7.127-0.433,7.992,4.5c0.684,4.859-5.148,19.476-3.744,24.552c1.438,4.896,10.115,2.772,11.988,5.004 c1.584,2.124-0.396,4.248-1.621,8.028c-1.332,3.78-6.984,10.836-5.58,14.508c1.438,3.384,12.061,3.24,14.076,6.516 c1.801,3.276-1.765,9.793-2.63,13.284c-0.936,3.35-3.131,4.682-2.409,7.2c0.719,2.412,6.084,4.5,6.911,7.776 c0.757,3.238-0.686,8.783-2.377,11.771c-1.801,2.845-5.614,5.652-8.243,5.508c-2.81-0.322-5.328-3.274-7.703-6.768 c-2.377-3.563-4.5-8.101-6.373-14.04c-5.652-0.54-9.685-1.872-12.492-3.996c-2.807-2.231-3.492-6.408-3.996-8.784 c-0.539-2.412-0.143-4.248,1.045-5.508c-5.617,1.116-10.225,0.576-13.824-1.476c-3.709-2.196-7.057-6.014-7.957-11.018 c-0.971-5.075-0.18-11.376,2.377-19.044c-5.938,2.412-10.764,3.492-15.155,3.24c-4.535-0.324-8.172-2.557-10.619-4.752 c-2.306-2.269-3.168-5.616-3.168-8.496c-0.183-2.916,0.828-5.977,2.627-9.036c-5.939,3.168-10.584,4.788-14.328,5.004 c-3.816,0.108-5.363-1.728-7.992-3.996c-2.735-2.447-6.729-5.65-7.955-9.756c-1.297-4.104-1.26-8.855,0.252-14.544 c-3.709,0.252-6.442-0.216-8.496-1.26c-2.016-1.08-2.664-2.053-3.743-5.256c-1.226-3.385-3.203-7.2-3.168-14.509 c0.034-7.451,2.809-20.917,3.454-29.304c0.47-8.388-0.971-13.392-0.286-20.556c0.539-7.272,2.377-15.156,3.995-22.536 c1.584-7.452,5.761-12.96,5.58-21.78c-0.323-8.964-2.483-20.052-6.911-31.032c-4.5-11.088-9.541-25.308-19.404-34.344 c-9.974-9.036-25.812-15.552-39.6-19.152c-13.86-3.78-29.052-5.4-42.516-2.484c-13.608,3.06-27.432,13.104-37.728,20.268 c-10.26,6.984-17.136,12.492-23.148,21.528c-6.084,8.928-10.476,22.644-13.032,31.824c-2.556,9.036-2.844,15.768-2.376,22.284 c0.396,6.48,3.744,10.008,4.5,16.272c0.576,6.12-0.468,12.924-0.504,20.556c-0.144,7.524-0.432,17.1,0.252,24.552 c0.756,7.38,2.088,11.736,3.996,19.439c1.8,7.562,4.284,18.9,6.624,25.813C89.026,279.38,91.042,284.168,93.274,287.445z"/><path stroke="#000" stroke-miterlimit="10" stroke-width=".036" d="M259.774,203.564 c-0.826-0.504,4.608,6.444,5.327,11.952c0.396,5.472-2.807,20.052-1.979,20.7c0.897,0.324,7.775-12.06,7.307-17.568 C269.784,213.068,260.674,204.104,259.774,203.564z"/><path stroke="#000" stroke-miterlimit="10" stroke-width=".036" d="M271.475,197.084 c-0.862-0.18,5.076,3.816,6.841,7.956c1.618,3.996,2.446,15.804,3.313,16.128c0.684,0.144,3.168-10.836,1.475-14.868 C281.375,202.125,272.266,197.336,271.475,197.084z"/><path stroke="#000" stroke-miterlimit="10" stroke-width=".036" d="M287.784,188.552 c-0.576-0.18,3.383,2.592,4.643,5.4c1.008,2.772,1.765,10.692,2.271,10.98c0.467,0.072,2.088-7.416,0.971-10.116 C294.372,191.937,288.323,188.732,287.784,188.552z"/><path stroke="#000" stroke-miterlimit="10" stroke-width=".036" d="M270.395,262.928 c-1.045,0,7.451,3.276,10.908,7.885c3.313,4.571,8.027,18.757,9.146,18.937c1.043,0,0.467-14.292-2.847-18.72 C284.112,266.457,271.475,262.964,270.395,262.928z"/><path stroke="#000" stroke-miterlimit="10" stroke-width=".036" d="M287.567,255.621 c-0.685,0,4.932,2.124,7.271,5.256c2.269,2.952,5.221,12.492,6.084,12.636c0.648-0.07,0.289-9.468-1.908-12.491 C296.639,257.997,288.288,255.548,287.567,255.621z"/><path stroke="#000" stroke-miterlimit="10" stroke-width=".036" d="M300.85,249.932 c-0.321-0.07,2.412,1.08,3.638,2.628c1.045,1.514,2.664,6.266,3.061,6.337c0.359-0.035,0.035-4.753-0.973-6.229 C305.459,251.048,301.102,250.004,300.85,249.932z"/><path stroke="#000" stroke-miterlimit="10" stroke-width=".036" d="M314.35,298.856 c-0.756,0.071,5.545,0.757,8.605,3.023c3.131,2.304,8.928,10.44,9.756,10.404c0.539-0.252-2.664-9.146-5.725-11.412 C323.711,298.569,315.143,298.64,314.35,298.856z"/><path stroke="#000" stroke-miterlimit="10" stroke-width=".036" d="M326.807,288.632 c-0.541,0.072,3.996,0.54,6.371,2.232c2.232,1.69,6.732,7.739,7.273,7.739c0.467-0.252-2.053-6.731-4.248-8.461 C333.899,288.525,327.204,288.344,326.807,288.632z"/><path stroke="#000" stroke-miterlimit="10" stroke-width=".036" d="M255.204,108.344 c-0.721-0.036,5.256,2.088,7.811,5.112c2.521,3.024,6.156,12.672,7.021,12.816c0.719-0.108-0.217-9.9-2.664-12.852 C264.743,110.36,255.959,108.344,255.204,108.344z"/><path stroke="#000" stroke-miterlimit="10" stroke-width=".036" d="M269.387,96.176 c-0.469,0.036,3.636,1.368,5.508,3.6c1.802,2.124,4.283,8.928,4.933,9.036c0.432-0.108-0.146-6.912-1.871-9.036 C276.12,97.544,269.891,96.212,269.387,96.176z"/><path fill="silver" stroke="#000" stroke-miterlimit="10" stroke-width=".036" d="M115.416,314.876 c-4.896,2.232-11.304,6.372-19.368,12.564c-8.064,6.154-17.64,14.22-28.872,24.336c-1.08,7.38-0.108,14.04,3.456,20.268 c3.384,6.156,10.872,12.672,17.208,16.632c6.336,3.89,13.176,6.014,20.664,6.518c-0.54,5.866,0.468,10.906,3.024,15.406 c2.484,4.466,8.352,8.568,12.06,11.342c3.708,2.664,6.912,4.104,9.9,4.464c-5.148,4.248-6.876,10.69-5.184,19.476 c1.656,8.82,6.588,19.584,15.084,32.868h24.948c3.276-6.66,3.276-16.668,0-30.456c-3.42-13.968-13.716-37.152-19.8-51.912 c-6.156-14.65-11.736-25.704-16.344-35.676c-4.716-10.188-8.352-16.632-11.196-24.336 C118.188,328.628,116.278,321.644,115.416,314.876z"/><path fill="silver" stroke="#000" stroke-miterlimit="10" stroke-width=".036" d="M251.422,275.529 c-5.184,11.556-11.447,24.624-18.936,39.743c-7.488,15.191-14.148,32.797-25.813,50.293 c-11.844,17.352-26.352,34.738-44.352,53.136c2.232,4.68,4.284,10.8,6.444,18.646c1.98,7.813,5.292,20.988,6.048,28.009 c0.684,6.877,0.108,11.341-1.728,13.393h45.216c4.933-3.744,8.604-8.208,11.16-13.393c2.555-5.257,3.707-11.159,3.887-17.855 c8.679-1.584,13.718-6.408,15.519-14.616c1.69-8.278-0.037-19.584-5.187-34.452c9.974-7.956,16.093-15.336,18.504-22.716 c2.378-7.416,0.9-14.256-4.282-21.096c8.026-2.34,14.147-5.725,18.504-10.152c4.141-4.606,6.156-10.8,7.309-16.632 c1.224-5.832,1.224-11.916,0-18.252c-0.684-1.872-1.117-3.492-1.297-4.86c-0.252-1.512-0.252-2.592,0-3.636 c-3.852,1.656-7.488,2.196-11.195,1.62c-3.709-0.648-7.848-2.736-10.764-5.292c-3.025-2.736-6.012-6.948-6.877-10.548 c-0.9-3.744-0.324-7.38,1.729-11.34l-6.442-0.828L251.422,275.529z"/><path fill="#FFF" stroke="#000" stroke-miterlimit="10" stroke-width=".036" d="M136.942,360.705 c5.22,4.104,10.908,6.408,17.208,7.308c6.192,0.686,11.268-0.18,20.232-2.446c9.036-2.27,19.764-5.868,33.156-10.944 c-0.576,3.888-4.788,10.512-12.492,20.268c-7.848,9.758-19.044,22.104-34.02,37.729c-3.924-8.928-7.416-16.488-10.764-23.508 c-3.312-6.948-6.372-12.854-9.036-17.856L136.942,360.705z"/><path fill="#212121" stroke="#000" stroke-miterlimit="10" stroke-width=".036" d="M226.043,477.92 c4.535-3.888,7.596-8.028,9.467-12.563c1.765-4.572,2.197-9.396,1.297-14.616c7.199-1.729,12.313-4.429,15.48-8.532 c3.131-4.032,3.779-8.604,3.455-15.804c-0.504-7.416-2.412-16.562-6.012-27.974c6.694-4.14,11.52-8.424,14.614-12.995 c2.953-4.717,3.924-9.899,3.89-14.579c-0.035-4.752-1.332-9.072-3.89-13.394c8.461-2.844,14.438-6.948,18.504-12.168 c3.816-5.364,4.394-14.398,5.187-19.476c0.756-5.112,0.611-8.712-0.435-10.944c2.271,4.572,5.005,7.272,8.605,8.1 c3.563,0.793,7.596-0.286,12.492-3.238c-2.412,6.264-3.133,11.482-2.16,15.804c0.897,4.212,3.996,7.56,7.74,9.756 c3.707,2.124,8.313,3.204,14.219,3.24c-2.375,4.5-2.269,8.136,0.865,11.34c3.022,3.061,8.711,5.544,17.207,7.308 c0.899,5.51,2.483,10.152,4.752,13.788c2.194,3.708,5.11,6.372,8.604,8.138c3.457,1.584,7.381,2.124,12.062,1.619 c2.088,2.447,3.709,4.607,4.717,6.479c1.008,1.836,1.438,3.276,1.295,4.464c-6.623-1.656-13.463-1.116-20.664,1.62 c-7.271,2.664-15.66,6.876-22.391,14.58c-6.843,7.704-13.97,22.607-18.072,31.248c-4.285,8.64-9.217,23.364-6.445,19.872 c2.845-3.996,13.142-32.04,23.652-42.192c10.477-10.224,29.268-16.992,38.736-17.819c9.358-0.792,10.764,1.765,17.243,13.355 c6.337,11.736,13.177,30.024,20.664,55.98C349.163,478.208,287.602,478.066,226.043,477.92z"/><path fill="#212121" stroke="#000" stroke-miterlimit="10" stroke-width=".036" d="M60.73,355.016 c-0.396,7.164,0.756,13.284,3.456,18.648c2.664,5.22,5.976,9.036,12.456,12.996c6.372,3.888,14.94,7.452,25.848,10.548 c0.144,7.776,2.196,13.932,6.012,19.044c3.852,5.04,9.36,8.604,16.812,10.98c-3.276,2.556-3.528,8.1-1.296,16.632 c2.304,8.64,7.272,19.8,15.048,34.452H5.614c-0.072-19.802,2.52-37.188,7.776-53.138c5.256-16.092,15.588-29.916,23.652-41.76 C45.035,371.613,52.704,362.289,60.73,355.016z"/><path stroke="#000" stroke-miterlimit="10" stroke-width=".036" d="M219.022,208.136 c-2.628,1.872-8.712,6.516-11.879,7.956c-3.276,1.332-4.464,2.448-7.308,0c-2.988-2.736-7.596-10.548-10.08-15.12 c-2.556-4.572-5.148-7.776-4.86-11.7c0.216-4.068,2.16-7.92,6.408-11.952c4.212-4.176,14.256-11.772,18.901-11.952 c4.535-0.108,5.938,6.66,8.531,11.412c2.592,4.608,5.938,11.772,6.694,16.488c0.576,4.644-2.016,8.82-3.059,11.412 C221.292,207.057,221.471,206.265,219.022,208.136z"/><path fill="#FFF" stroke="#000" stroke-miterlimit="10" stroke-width=".036" d="M201.347,214.22 c-2.916-1.224-4.932-7.848-7.02-11.664c-2.196-3.888-5.472-7.884-6.084-11.16c-0.756-3.24-0.648-4.644,2.124-8.244 c2.88-3.78,10.404-11.952,14.652-13.536c4.032-1.548,6.769,0.468,9.755,4.536c2.881,3.996,7.272,14.292,7.922,19.368 c0.504,4.896-2.449,7.704-4.285,10.368c-1.871,2.592-3.959,3.852-6.695,5.58C208.727,211.232,204.298,215.265,201.347,214.22z"/><path stroke="#000" stroke-miterlimit="10" stroke-width=".036" d="M215.711,184.125 c-2.016-3.06-5.076-3.204-7.92-2.664c-2.916,0.396-7.308,1.332-9.144,5.292c-1.908,3.96-3.96,13.968-2.124,18.072 c1.908,3.96,9.144,6.336,13.104,5.58c3.816-0.864,8.639-6.3,9.756-10.62C220.284,195.285,217.62,187.148,215.711,184.125z"/><path fill="#FFF" stroke="#000" stroke-miterlimit="10" stroke-width=".036" d="M211.823,191.145 c-0.181-1.224-0.685-3.276-1.656-3.24c-1.188,0.036-4.392,1.908-4.751,3.24c-0.396,1.188,1.152,3.096,2.268,3.78 c1.007,0.396,2.7,0.324,3.528-0.36C211.93,193.88,211.86,192.225,211.823,191.145z"/><path stroke="#000" stroke-miterlimit="10" stroke-width=".036" d="M130.606,210.944 c-2.628,1.872-8.712,6.516-11.88,7.956c-3.276,1.332-4.464,2.448-7.308,0c-2.988-2.736-7.596-10.548-10.08-15.12 c-2.556-4.572-5.148-7.776-4.86-11.7c0.216-4.068,2.16-7.92,6.408-11.952c4.284-4.176,14.184-11.772,18.864-11.952 c4.536-0.036,5.94,6.696,8.532,11.448c2.556,4.644,6.048,11.7,6.732,16.452c0.576,4.644-2.016,8.82-3.06,11.412 C132.875,209.864,133.055,209.072,130.606,210.944z"/><path fill="#FFF" stroke="#000" stroke-miterlimit="10" stroke-width=".036" d="M112.931,217.064 c-2.916-1.26-4.932-7.884-7.02-11.7c-2.196-3.852-5.472-7.992-6.084-11.16c-0.756-3.312-0.648-4.572,2.124-8.208 c2.88-3.744,10.404-12.024,14.652-13.572c3.96-1.548,6.732,0.468,9.72,4.536c2.88,3.996,7.272,14.292,7.92,19.368 c0.468,4.896-2.376,7.704-4.248,10.368c-1.872,2.592-3.96,3.852-6.696,5.58C120.312,214.004,115.882,218.145,112.931,217.064z"/><path stroke="#000" stroke-miterlimit="10" stroke-width=".036" d="M128.59,185.96 c-2.016-3.096-5.076-3.132-7.92-2.628c-2.916,0.396-7.308,1.332-9.144,5.292c-1.908,3.96-3.96,13.968-2.124,18.072 c1.908,3.96,9.144,6.336,13.104,5.58c3.816-0.864,8.64-6.3,9.756-10.62C133.164,197.229,130.5,188.948,128.59,185.96z"/><path fill="#FFF" stroke="#000" stroke-miterlimit="10" stroke-width=".036" d="M125.208,193.088 c-0.072-1.152-0.756-3.348-1.656-3.276c-1.116,0-4.5,2.016-4.86,3.276c-0.432,1.26,1.26,3.096,2.304,3.852 c0.9,0.504,2.88,0.288,3.6-0.36C125.278,195.825,125.352,194.24,125.208,193.088z"/></g></g></g></switch></svg>