<svg xmlns="http://www.w3.org/2000/svg" xmlns:cc="http://web.resource.org/cc/" xmlns:xlink="http://www.w3.org/1999/xlink" id="svg1" width="210mm" height="297mm"><g id="layer1" display="none"><image id="image1101" width="667.474" height="261.65" x="7.093" y="751.122" xlink:href="/home/angelo/Desktop/telefono.jpg"/></g><g id="layer2" display="block"><path id="path1105" fill="#00cd00" fill-opacity="1" fill-rule="evenodd" stroke="#000" stroke-linecap="butt" stroke-linejoin="miter" stroke-miterlimit="4" stroke-opacity="1" stroke-width="0" d="M 113.9,88.2 L 128.7,88.2 L 139.9,26.2 L 90.3,26.2 C 90.3,26.2 92.0,23.8 90.3,26.2 C 31.8,166.2 86.1,250.1 86.1,250.1 C 134.0,251.2 131.0,244.7 131.0,244.7 C 125.7,188.6 119.2,189.8 119.2,189.8 C 94.4,188.6 92.0,176.2 92.0,176.2 L 98.5,99.4 C 105.0,87.6 113.9,88.2 113.9,88.2 z"/><path id="path2353" fill="none" fill-opacity=".75" fill-rule="evenodd" stroke="#00cd00" stroke-linecap="butt" stroke-linejoin="miter" stroke-miterlimit="4" stroke-opacity="1" stroke-width="3.438" d="M 158.2,248.9 C 158.2,248.9 666.2,248.9 666.2,248.9 C 688.6,250.1 683.3,229.4 683.3,229.4 L 683.3,74.0 C 683.3,52.2 663.8,53.9 663.8,53.9 L 441.1,53.9"/><text id="text2354" x="151.218" y="895.237" fill="#000" fill-opacity="1" fill-rule="nonzero" stroke="none" stroke-dashoffset="0" stroke-linecap="butt" stroke-linejoin="miter" stroke-miterlimit="4" stroke-opacity="1" stroke-width="1.333" marker="none" marker-end="none" marker-mid="none" marker-start="none" color="#000" display="block" font-family="BARTOLO" font-size="110" font-stretch="normal" font-style="normal" font-variant="normal" font-weight="normal" letter-spacing="0" space="preserve" text-anchor="start" transform="translate(23.57564,-713.0664)" visibility="visible" writing-mode="lr"><tspan id="tspan2355" x="151.218" y="895.237" stroke-dashoffset="0" marker="none" marker-end="none" marker-mid="none" marker-start="none" font-family="BARTOLO">800 000000</tspan></text><text id="text2357" x="151.218" y="895.237" fill="#000" fill-opacity="1" fill-rule="nonzero" stroke="none" stroke-dashoffset="0" stroke-linecap="butt" stroke-linejoin="miter" stroke-miterlimit="4" stroke-opacity="1" stroke-width="1.333" marker="none" marker-end="none" marker-mid="none" marker-start="none" color="#000" display="block" font-family="BARTOLO" font-size="56" font-stretch="normal" font-style="normal" font-variant="normal" font-weight="normal" letter-spacing="0" space="preserve" text-anchor="start" transform="translate(2.759786e-2,-826.2799)" visibility="visible" writing-mode="lr"><tspan id="tspan2360" x="151.218" y="895.237" stroke-dashoffset="0" marker="none" marker-end="none" marker-mid="none" marker-start="none">Numero Verde</tspan></text></g></svg>