<svg xmlns="http://www.w3.org/2000/svg" xmlns:xlink="http://www.w3.org/1999/xlink" id="svg548" width="400pt" height="400pt"><g id="g832"><path id="path588" fill="#fff" fill-rule="evenodd" stroke="#000" stroke-dasharray="none" stroke-linejoin="round" stroke-opacity="1" stroke-width="10" d="M 98.3 20.9 L 96.6 472.8 C 96.6 472.8 429.8 476.2 429.0 476.2 C 428.2 476.2 430.7 76.8 433.2 79.4 C 433.2 80.2 364.6 20.0 364.6 20.0 L 98.3 20.9 z"/><path id="path589" fill="#eeebff" fill-rule="evenodd" stroke="#000" stroke-dasharray="none" stroke-linejoin="round" stroke-opacity="1" stroke-width="10" d="M 369.6 22.6 L 368.8 81.9 L 437.5 81.9 C 440.9 76.8 373.0 24.3 369.6 22.6 z" transform="translate(-5.087504,-1.695824)"/><path id="path800" fill="#92ffff" fill-opacity=".247" fill-rule="evenodd" stroke="none" stroke-dasharray="none" stroke-linejoin="round" stroke-opacity="1" stroke-width="10" d="M 147.7,467.1 C 147.7,467.1 408.8,470.3 416.7,464.0 C 424.6,457.6 418.3,240.9 421.5,225.0 C 405.6,362.7 454.7,484.5 147.7,467.1 z"/></g></svg>