<svg xmlns="http://www.w3.org/2000/svg" fill="none" fill-rule="evenodd" stroke-linecap="round" stroke-linejoin="round" stroke-width="27.942" version="1.0" viewBox="0 0 16000 14464"><path fill="#dededd" d="M14817 8732l-496-45-87-1332 647 866-64 511z"/><path fill="#dededd" d="M14319 8659l501 45-7 56-490-45-4-56z"/><path fill="#dddcdc" d="M14321 8687l496 45-7 55-485-43-4-57z"/><path fill="#dadad9" d="M14323 8715l490 45-7 55-479-43-4-57z"/><path fill="#d9d8d8" d="M14325 8744l485 43-7 56-474-43-4-56z"/><path fill="#d6d6d5" d="M14327 8772l479 43-7 55-469-42-3-56z"/><path fill="#d5d4d4" d="M14329 8800l474 43-7 55-464-42-3-56z"/><path fill="#d3d2d2" d="M14330 8828l469 42-7 55-458-41-4-56z"/><path fill="#d2d1d1" d="M14332 8856l464 42-7 55-453-41-4-56z"/><path fill="#d0cfcf" d="M14334 8884l458 41-7 56-447-41-4-56z"/><path fill="#cfcece" d="M14336 8912l453 41-7 55-442-39-4-57z"/><path fill="#cdcccc" d="M14338 8940l447 41-7 55-437-39-3-57z"/><path fill="#cacac9" d="M14340 8969l442 39-7 56-432-39-3-56z"/><path fill="#c9c9c8" d="M14341 8997l437 39-7 55-426-38-4-56z"/><path fill="#c7c7c6" d="M14343 9025l432 39-7 55-421-38-4-56z"/><path fill="#c6c6c5" d="M14345 9053l426 38-7 56-415-38-4-56z"/><path fill="#c4c4c3" d="M14347 9081l421 38-7 55-410-37-4-56z"/><path fill="#c3c2c2" d="M14349 9109l415 38-7 55-405-37-3-56z"/><path fill="#c1c0c0" d="M14351 9137l410 37-7 56-400-36-3-57z"/><path fill="#c0c0bf" d="M14352 9165l405 37-7 55-394-35-4-57z"/><path fill="#bebebd" d="M14354 9194l400 36-7 55-389-35-4-56z"/><path fill="#bcbcbb" d="M14356 9222l394 35-7 55-383-34-4-56z"/><path fill="#bbbbba" d="M14358 9250l389 35-7 55-379-34-3-56z"/><path fill="#b9b9b8" d="M14360 9278l383 34-7 56-373-34-3-56z"/><path fill="#b9b8b7" d="M14361 9306l379 34-7 55-368-33-4-56z"/><path fill="#b7b6b5" d="M14363 9334l373 34-7 55-362-33-4-56z"/><path fill="#b6b5b4" d="M14365 9362l368 33-7 56-357-32-4-57z"/><path fill="#b4b3b2" d="M14367 9390l362 33-7 55-351-31-4-57z"/><path fill="#b3b2b1" d="M14369 9419l357 32-7 55-347-31-3-56z"/><path fill="#b1b0af" d="M14371 9447l351 31-7 56-341-31-3-56z"/><path fill="#b0afaf" d="M14372 9475l347 31-7 55-336-30-4-56z"/><path fill="#aeadad" d="M14374 9503l341 31-7 55-330-30-4-56z"/><path fill="#adacab" d="M14376 9531l336 30-7 56-325-30-4-56z"/><path fill="#acabaa" d="M14378 9559l330 30-7 55-319-29-4-56z"/><path fill="#aaa9a9" d="M14380 9587l325 30-7 55-315-29-3-56z"/><path fill="#a9a8a8" d="M14382 9615l319 29-7 56-309-28-3-57z"/><path fill="#a7a7a6" d="M14383 9643l315 29-7 55-304-27-4-57z"/><path fill="#a7a6a5" d="M14385 9672l309 28-7 55-298-27-4-56z"/><path fill="#a5a4a3" d="M14387 9700l304 27-7 55-293-26-4-56z"/><path fill="#a4a3a3" d="M14389 9728l298 27-7 55-287-26-4-56z"/><path fill="#a2a1a1" d="M14391 9756l293 26-7 56-283-26-3-56z"/><path fill="#a1a09f" d="M14393 9784l287 26-7 55-277-25-3-56z"/><path fill="#a09f9f" d="M14394 9812l283 26-7 55-272-25-4-56z"/><path fill="#9f9e9d" d="M14396 9840l277 25-7 56-266-24-4-57z"/><path fill="#9e9d9c" d="M14398 9868l272 25-7 55-261-23-4-57z"/><path fill="#9c9b9b" d="M14400 9897l266 24-7 55-255-23-4-56z"/><path fill="#9b9a9a" d="M14402 9925l261 23-7 56-251-23-3-56z"/><path fill="#9a9998" d="M14404 9953l255 23-7 55-245-22-3-56z"/><path fill="#999897" d="M14405 9981l251 23-7 55-240-22-4-56z"/><path fill="#979696" d="M14407 10009l245 22-7 56-227-21-8-8-3-49z"/><path fill="#969594" d="M14409 10037l240 22-7 55-195-17-37-39-1-21z"/><path fill="#969594" d="M14418 10066l227 21-25 195-202-216z"/><path fill="#aaa9a9" d="M14666 8273l-785-731 128-145 695 793-38 83z"/><path fill="#aaa9a9" d="M13891 7530l782 728-14 29-788-734 20-23z"/><path fill="#abaaaa" d="M13881 7542l785 731-13 29-792-738 20-22z"/><path fill="#acabaa" d="M13871 7553l788 734-13 29-795-740 20-23z"/><path fill="#adacab" d="M13861 7564l792 738-13 29-799-744 20-23z"/><path fill="#adadac" d="M13851 7576l795 740-13 29-802-747 20-22z"/><path fill="#aeadad" d="M13841 7587l799 744-14 29-805-750 20-23z"/><path fill="#afaeae" d="M13831 7598l802 747-13 29-809-753 20-23z"/><path fill="#b0afaf" d="M13821 7610l805 750-13 29-812-756 20-23z"/><path fill="#b1b0af" d="M13811 7621l809 753-13 30-816-760 20-23z"/><path fill="#b1b1b0" d="M13801 7633l812 756-13 29-819-763 20-22z"/><path fill="#b3b2b1" d="M13791 7644l816 760-14 29-822-766 20-23z"/><path fill="#b4b3b2" d="M13781 7655l819 763-13 29-827-769 21-23z"/><path fill="#b5b4b3" d="M13771 7667l822 766-13 29-830-773 21-22z"/><path fill="#b6b5b4" d="M13760 7678l827 769-14 29-833-775 20-23z"/><path fill="#b7b6b5" d="M13750 7689l830 773-13 29-837-779 20-23z"/><path fill="#b8b7b6" d="M13740 7701l833 775-13 29-840-782 20-22z"/><path fill="#b9b8b7" d="M13730 7712l837 779-13 29-844-785 20-23z"/><path fill="#b9b9b8" d="M13720 7723l840 782-13 29-847-788 20-23z"/><path fill="#babab9" d="M13710 7735l844 785-14 29-850-792 20-22z"/><path fill="#bbbbba" d="M13700 7746l847 788-13 30-854-795 20-23z"/><path fill="#bcbcbb" d="M13690 7757l850 792-13 29-857-798 20-23z"/><path fill="#bdbdbc" d="M13680 7769l854 795-14 29-860-801 20-23z"/><path fill="#bebebd" d="M13670 7780l857 798-13 29-864-804 20-23z"/><path fill="#bfbfbe" d="M13660 7792l860 801-13 29-867-808 20-22z"/><path fill="#c0c0bf" d="M13650 7803l864 804-13 29-871-810 20-23z"/><path fill="#c2c1c1" d="M13640 7814l867 808-13 29-874-814 20-23z"/><path fill="#c3c2c2" d="M13630 7826l871 810-14 29-877-817 20-22z"/><path fill="#c4c4c3" d="M13620 7837l874 814-13 29-881-820 20-23z"/><path fill="#c5c5c4" d="M13610 7848l877 817-13 30-884-824 20-23z"/><path fill="#c6c6c5" d="M13600 7860l881 820-13 29-888-827 20-22z"/><path fill="#c7c7c6" d="M13590 7871l884 824-13 29-891-830 20-23z"/><path fill="#c8c8c7" d="M13580 7882l888 827-14 29-894-833 20-23z"/><path fill="#c9c9c8" d="M13570 7894l891 830-13 29-899-836 21-23z"/><path fill="#cacac9" d="M13560 7905l894 833-13 29-902-839 21-23z"/><path fill="#cccbca" d="M13549 7917l899 836-14 29-905-843 20-22z"/><path fill="#cdcccc" d="M13539 7928l902 839-13 29-909-845 20-23z"/><path fill="#cecdcd" d="M13529 7939l905 843-13 29-912-849 20-23z"/><path fill="#cfcece" d="M13519 7951l909 845-13 30-916-853 20-22z"/><path fill="#d0cfcf" d="M13509 7962l912 849-13 29-919-855 20-23z"/><path fill="#d1d0d0" d="M13499 7973l916 853-14 29-922-859 20-23z"/><path fill="#d2d1d1" d="M13489 7985l919 855-13 29-926-862 20-22z"/><path fill="#d3d2d2" d="M13479 7996l922 859-13 29-929-865 20-23z"/><path fill="#d4d3d3" d="M13469 8007l926 862-14 29-932-868 20-23z"/><path fill="#d5d4d4" d="M13459 8019l929 865-13 29-936-872 20-22z"/><path fill="#d6d6d5" d="M13449 8030l932 868-13 29-939-874 20-23z"/><path fill="#d8d7d7" d="M13439 8041l936 872-13 29-943-878 20-23z"/><path fill="#d9d8d8" d="M13429 8053l939 874-13 29-946-880 20-23z"/><path fill="#dadad9" d="M13419 8064l943 878-14 29-949-884 20-23z"/><path fill="#dbdbdb" d="M13409 8076l946 880-13 30-953-888 20-22z"/><path fill="#dededd" d="M13399 8087l949 884-13 29-956-890 20-23z"/><path fill="#dededd" d="M13389 8098l953 888-82 179-907-1026 36-41z"/><path fill="#aaa9a9" d="M14713 8156l-682-771h209l655 759-182 12z"/><path stroke="#fff" stroke-width="15" d="M14048 7406l663 762"/><path fill="#dededd" d="M13584 7263l-495-44-87-1332 647 865-65 511z"/><path fill="#dededd" d="M13087 7190l501 46-7 55-490-44-4-57z"/><path fill="#dddcdc" d="M13089 7219l495 44-7 56-485-44-3-56z"/><path fill="#dadad9" d="M13091 7247l490 44-7 55-480-43-3-56z"/><path fill="#d9d8d8" d="M13092 7275l485 44-7 55-474-43-4-56z"/><path fill="#d6d6d5" d="M13094 7303l480 43-7 56-469-43-4-56z"/><path fill="#d5d4d4" d="M13096 7331l474 43-7 55-463-42-4-56z"/><path fill="#d3d2d2" d="M13098 7359l469 43-7 55-458-42-4-56z"/><path fill="#d2d1d1" d="M13100 7387l463 42-7 56-453-41-3-57z"/><path fill="#d0cfcf" d="M13102 7415l458 42-7 55-448-40-3-57z"/><path fill="#cfcece" d="M13103 7444l453 41-7 55-442-40-4-56z"/><path fill="#cdcccc" d="M13105 7472l448 40-7 55-437-39-4-56z"/><path fill="#cacac9" d="M13107 7500l442 40-7 55-431-39-4-56z"/><path fill="#c9c9c8" d="M13109 7528l437 39-7 56-426-39-4-56z"/><path fill="#c7c7c6" d="M13111 7556l431 39-7 55-421-38-3-56z"/><path fill="#c6c6c5" d="M13113 7584l426 39-7 55-416-38-3-56z"/><path fill="#c4c4c3" d="M13114 7612l421 38-7 56-410-37-4-57z"/><path fill="#c3c2c2" d="M13116 7640l416 38-7 55-405-36-4-57z"/><path fill="#c1c0c0" d="M13118 7669l410 37-7 55-399-36-4-56z"/><path fill="#c0c0bf" d="M13120 7697l405 36-7 56-394-36-4-56z"/><path fill="#bebebd" d="M13122 7725l399 36-7 55-389-35-3-56z"/><path fill="#bcbcbb" d="M13124 7753l394 36-7 55-384-35-3-56z"/><path fill="#bbbbba" d="M13125 7781l389 35-7 56-378-35-4-56z"/><path fill="#b9b9b8" d="M13127 7809l384 35-7 55-373-34-4-56z"/><path fill="#b9b8b7" d="M13129 7837l378 35-7 55-367-33-4-57z"/><path fill="#b7b6b5" d="M13131 7865l373 34-7 55-362-32-4-57z"/><path fill="#b6b5b4" d="M13133 7894l367 33-7 55-357-32-3-56z"/><path fill="#b4b3b2" d="M13135 7922l362 32-7 56-352-32-3-56z"/><path fill="#b3b2b1" d="M13136 7950l357 32-7 55-346-31-4-56z"/><path fill="#b1b0af" d="M13138 7978l352 32-7 55-341-31-4-56z"/><path fill="#b0afaf" d="M13140 8006l346 31-7 56-335-31-4-56z"/><path fill="#aeadad" d="M13142 8034l341 31-7 55-330-30-4-56z"/><path fill="#adacab" d="M13144 8062l335 31-7 55-325-29-3-57z"/><path fill="#acabaa" d="M13146 8090l330 30-7 56-320-29-3-57z"/><path fill="#aaa9a9" d="M13147 8119l325 29-7 55-314-28-4-56z"/><path fill="#a9a8a8" d="M13149 8147l320 29-7 55-309-28-4-56z"/><path fill="#a7a7a6" d="M13151 8175l314 28-7 56-303-28-4-56z"/><path fill="#a7a6a5" d="M13153 8203l309 28-7 55-298-27-4-56z"/><path fill="#a5a4a3" d="M13155 8231l303 28-7 55-293-27-3-56z"/><path fill="#a4a3a3" d="M13157 8259l298 27-7 55-288-26-3-56z"/><path fill="#a2a1a1" d="M13158 8287l293 27-7 55-282-25-4-57z"/><path fill="#a1a09f" d="M13160 8315l288 26-7 56-277-25-4-57z"/><path fill="#a09f9f" d="M13162 8344l282 25-7 55-271-24-4-56z"/><path fill="#9f9e9d" d="M13164 8372l277 25-7 55-266-24-4-56z"/><path fill="#9e9d9c" d="M13166 8400l271 24-7 56-261-24-3-56z"/><path fill="#9c9b9b" d="M13168 8428l266 24-7 55-256-23-3-56z"/><path fill="#9b9a9a" d="M13169 8456l261 24-7 55-250-23-4-56z"/><path fill="#9a9998" d="M13171 8484l256 23-7 56-245-23-4-56z"/><path fill="#999897" d="M13173 8512l250 23-7 55-239-21-4-57z"/><path fill="#979696" d="M13175 8540l245 23-7 55-227-21-8-8-3-49z"/><path fill="#969594" d="M13177 8569l239 21-7 56-195-18-36-39-1-20z"/><path fill="#969594" d="M13186 8597l227 21-25 195-202-216z"/><path fill="#aaa9a9" d="M13434 6804l-785-731 128-145 694 793-37 83z"/><path fill="#aaa9a9" d="M12659 6062l781 727-13 29-788-734 20-22z"/><path fill="#abaaaa" d="M12649 6073l785 731-14 29-791-737 20-23z"/><path fill="#acabaa" d="M12639 6084l788 734-13 30-796-741 21-23z"/><path fill="#adacab" d="M12629 6096l791 737-13 29-799-744 21-22z"/><path fill="#adadac" d="M12618 6107l796 741-13 29-803-747 20-23z"/><path fill="#aeadad" d="M12608 6118l799 744-13 29-806-750 20-23z"/><path fill="#afaeae" d="M12598 6130l803 747-14 29-809-753 20-23z"/><path fill="#b0afaf" d="M12588 6141l806 750-13 29-813-756 20-23z"/><path fill="#b1b0af" d="M12578 6153l809 753-13 29-816-760 20-22z"/><path fill="#b1b1b0" d="M12568 6164l813 756-14 29-819-762 20-23z"/><path fill="#b3b2b1" d="M12558 6175l816 760-13 29-823-766 20-23z"/><path fill="#b4b3b2" d="M12548 6187l819 762-13 30-826-770 20-22z"/><path fill="#b5b4b3" d="M12538 6198l823 766-13 29-830-772 20-23z"/><path fill="#b6b5b4" d="M12528 6209l826 770-13 29-833-776 20-23z"/><path fill="#b7b6b5" d="M12518 6221l830 772-14 29-836-779 20-22z"/><path fill="#b8b7b6" d="M12508 6232l833 776-13 29-840-782 20-23z"/><path fill="#b9b8b7" d="M12498 6243l836 779-13 29-843-785 20-23z"/><path fill="#b9b9b8" d="M12488 6255l840 782-13 29-847-789 20-22z"/><path fill="#babab9" d="M12478 6266l843 785-13 29-850-791 20-23z"/><path fill="#bbbbba" d="M12468 6277l847 789-14 29-853-795 20-23z"/><path fill="#bcbcbb" d="M12458 6289l850 791-13 29-857-797 20-23z"/><path fill="#bdbdbc" d="M12448 6300l853 795-13 29-860-801 20-23z"/><path fill="#bebebd" d="M12438 6312l857 797-14 30-863-805 20-22z"/><path fill="#bfbfbe" d="M12428 6323l860 801-13 29-868-807 21-23z"/><path fill="#c0c0bf" d="M12418 6334l863 805-13 29-871-811 21-23z"/><path fill="#c2c1c1" d="M12407 6346l868 807-13 29-875-814 20-22z"/><path fill="#c3c2c2" d="M12397 6357l871 811-13 29-878-817 20-23z"/><path fill="#c4c4c3" d="M12387 6368l875 814-14 29-881-820 20-23z"/><path fill="#c5c5c4" d="M12377 6380l878 817-13 29-885-824 20-22z"/><path fill="#c6c6c5" d="M12367 6391l881 820-13 29-888-826 20-23z"/><path fill="#c7c7c6" d="M12357 6402l885 824-14 29-891-830 20-23z"/><path fill="#c8c8c7" d="M12347 6414l888 826-13 30-895-833 20-23z"/><path fill="#c9c9c8" d="M12337 6425l891 830-13 29-898-836 20-23z"/><path fill="#cacac9" d="M12327 6437l895 833-13 29-902-840 20-22z"/><path fill="#cccbca" d="M12317 6448l898 836-13 29-905-842 20-23z"/><path fill="#cdcccc" d="M12307 6459l902 840-14 29-908-846 20-23z"/><path fill="#cecdcd" d="M12297 6471l905 842-13 29-912-849 20-22z"/><path fill="#cfcece" d="M12287 6482l908 846-13 29-915-852 20-23z"/><path fill="#d0cfcf" d="M12277 6493l912 849-13 29-919-855 20-23z"/><path fill="#d1d0d0" d="M12267 6505l915 852-13 29-922-859 20-22z"/><path fill="#d2d1d1" d="M12257 6516l919 855-14 30-925-862 20-23z"/><path fill="#d3d2d2" d="M12247 6527l922 859-13 29-929-865 20-23z"/><path fill="#d4d3d3" d="M12237 6539l925 862-13 29-932-869 20-22z"/><path fill="#d5d4d4" d="M12227 6550l929 865-14 29-935-871 20-23z"/><path fill="#d6d6d5" d="M12217 6561l932 869-13 29-940-875 21-23z"/><path fill="#d8d7d7" d="M12207 6573l935 871-13 29-943-877 21-23z"/><path fill="#d9d8d8" d="M12196 6584l940 875-13 29-947-881 20-23z"/><path fill="#dadad9" d="M12186 6596l943 877-13 29-950-884 20-22z"/><path fill="#dbdbdb" d="M12176 6607l947 881-14 29-953-887 20-23z"/><path fill="#dededd" d="M12166 6618l950 884-13 29-957-890 20-23z"/><path fill="#dededd" d="M12156 6630l953 887-81 180-908-1027 36-40z"/><path fill="#aaa9a9" d="M13481 6687l-683-771h210l655 759-182 12z"/><path stroke="#fff" stroke-width="15" d="M12816 5937l663 762"/><path fill="#dededd" d="M12352 5795l-496-45-86-1332 647 866-65 511z"/><path fill="#dededd" d="M11855 5722l500 45-7 55-490-44-3-56z"/><path fill="#dddcdc" d="M11856 5750l496 45-7 55-485-44-4-56z"/><path fill="#dadad9" d="M11858 5778l490 44-7 56-479-44-4-56z"/><path fill="#d9d8d8" d="M11860 5806l485 44-7 55-474-43-4-56z"/><path fill="#d6d6d5" d="M11862 5834l479 44-7 55-468-42-4-57z"/><path fill="#d5d4d4" d="M11864 5862l474 43-7 56-464-42-3-57z"/><path fill="#d3d2d2" d="M11866 5891l468 42-7 55-458-41-3-56z"/><path fill="#d2d1d1" d="M11867 5919l464 42-7 55-453-41-4-56z"/><path fill="#d0cfcf" d="M11869 5947l458 41-7 55-447-40-4-56z"/><path fill="#cfcece" d="M11871 5975l453 41-7 55-442-40-4-56z"/><path fill="#cdcccc" d="M11873 6003l447 40-7 56-437-40-3-56z"/><path fill="#cacac9" d="M11875 6031l442 40-7 55-432-39-3-56z"/><path fill="#c9c9c8" d="M11876 6059l437 40-7 55-426-38-4-57z"/><path fill="#c7c7c6" d="M11878 6087l432 39-7 56-421-38-4-57z"/><path fill="#c6c6c5" d="M11880 6116l426 38-7 55-415-37-4-56z"/><path fill="#c4c4c3" d="M11882 6144l421 38-7 55-410-37-4-56z"/><path fill="#c3c2c2" d="M11884 6172l415 37-7 56-405-37-3-56z"/><path fill="#c1c0c0" d="M11886 6200l410 37-7 55-400-36-3-56z"/><path fill="#c0c0bf" d="M11887 6228l405 37-7 55-394-36-4-56z"/><path fill="#bebebd" d="M11889 6256l400 36-7 56-389-36-4-56z"/><path fill="#bcbcbb" d="M11891 6284l394 36-7 55-383-34-4-57z"/><path fill="#bbbbba" d="M11893 6312l389 36-7 55-378-34-4-57z"/><path fill="#b9b9b8" d="M11895 6341l383 34-7 55-373-33-3-56z"/><path fill="#b9b8b7" d="M11897 6369l378 34-7 55-368-33-3-56z"/><path fill="#b7b6b5" d="M11898 6397l373 33-7 56-362-33-4-56z"/><path fill="#b6b5b4" d="M11900 6425l368 33-7 55-357-32-4-56z"/><path fill="#b4b3b2" d="M11902 6453l362 33-7 55-351-32-4-56z"/><path fill="#b3b2b1" d="M11904 6481l357 32-7 56-346-32-4-56z"/><path fill="#b1b0af" d="M11906 6509l351 32-7 55-341-30-3-57z"/><path fill="#b0afaf" d="M11908 6537l346 32-7 55-336-30-3-57z"/><path fill="#aeadad" d="M11909 6566l341 30-7 56-330-30-4-56z"/><path fill="#adacab" d="M11911 6594l336 30-7 55-325-29-4-56z"/><path fill="#acabaa" d="M11913 6622l330 30-7 55-319-29-4-56z"/><path fill="#aaa9a9" d="M11915 6650l325 29-7 56-314-29-4-56z"/><path fill="#a9a8a8" d="M11917 6678l319 29-7 55-309-28-3-56z"/><path fill="#a7a7a6" d="M11919 6706l314 29-7 55-304-28-3-56z"/><path fill="#a7a6a5" d="M11920 6734l309 28-7 55-298-26-4-57z"/><path fill="#a5a4a3" d="M11922 6762l304 28-7 55-293-26-4-57z"/><path fill="#a4a3a3" d="M11924 6791l298 26-7 56-287-26-4-56z"/><path fill="#a2a1a1" d="M11926 6819l293 26-7 55-282-25-4-56z"/><path fill="#a1a09f" d="M11928 6847l287 26-7 55-277-25-3-56z"/><path fill="#a09f9f" d="M11930 6875l282 25-7 56-272-25-3-56z"/><path fill="#9f9e9d" d="M11931 6903l277 25-7 55-266-24-4-56z"/><path fill="#9e9d9c" d="M11933 6931l272 25-7 55-261-24-4-56z"/><path fill="#9c9b9b" d="M11935 6959l266 24-7 56-255-23-4-57z"/><path fill="#9b9a9a" d="M11937 6987l261 24-7 55-250-22-4-57z"/><path fill="#9a9998" d="M11939 7016l255 23-7 55-245-22-3-56z"/><path fill="#999897" d="M11941 7044l250 22-7 56-240-22-3-56z"/><path fill="#979696" d="M11942 7072l245 22-7 55-227-20-7-8-4-49z"/><path fill="#969594" d="M11944 7100l240 22-7 55-195-18-36-38-2-21z"/><path fill="#969594" d="M11953 7129l227 20-24 195-203-215z"/><path fill="#aaa9a9" d="M12201 5335l-785-731 128-144 695 792-38 83z"/><path fill="#aaa9a9" d="M11426 4593l782 728-13 29-789-734 20-23z"/><path fill="#abaaaa" d="M11416 4604l785 731-13 29-792-737 20-23z"/><path fill="#acabaa" d="M11406 4616l789 734-14 29-795-741 20-22z"/><path fill="#adacab" d="M11396 4627l792 737-13 29-799-743 20-23z"/><path fill="#adadac" d="M11386 4638l795 741-13 29-802-747 20-23z"/><path fill="#aeadad" d="M11376 4650l799 743-13 30-806-750 20-23z"/><path fill="#afaeae" d="M11366 4661l802 747-13 29-809-753 20-23z"/><path fill="#b0afaf" d="M11356 4673l806 750-14 29-812-757 20-22z"/><path fill="#b1b0af" d="M11346 4684l809 753-13 29-816-759 20-23z"/><path fill="#b1b1b0" d="M11336 4695l812 757-13 29-819-763 20-23z"/><path fill="#b3b2b1" d="M11326 4707l816 759-14 29-822-766 20-22z"/><path fill="#b4b3b2" d="M11316 4718l819 763-13 29-826-769 20-23z"/><path fill="#b5b4b3" d="M11306 4729l822 766-13 29-829-772 20-23z"/><path fill="#b6b5b4" d="M11296 4741l826 769-13 29-834-776 21-22z"/><path fill="#b7b6b5" d="M11286 4752l829 772-13 30-837-779 21-23z"/><path fill="#b8b7b6" d="M11275 4763l834 776-14 29-840-782 20-23z"/><path fill="#b9b8b7" d="M11265 4775l837 779-13 29-844-786 20-22z"/><path fill="#b9b9b8" d="M11255 4786l840 782-13 29-847-788 20-23z"/><path fill="#babab9" d="M11245 4797l844 786-14 29-850-792 20-23z"/><path fill="#bbbbba" d="M11235 4809l847 788-13 29-854-794 20-23z"/><path fill="#bcbcbb" d="M11225 4820l850 792-13 29-857-798 20-23z"/><path fill="#bdbdbc" d="M11215 4832l854 794-13 29-861-801 20-22z"/><path fill="#bebebd" d="M11205 4843l857 798-13 29-864-804 20-23z"/><path fill="#bfbfbe" d="M11195 4854l861 801-14 29-867-807 20-23z"/><path fill="#c0c0bf" d="M11185 4866l864 804-13 29-871-811 20-22z"/><path fill="#c2c1c1" d="M11175 4877l867 807-13 30-874-814 20-23z"/><path fill="#c3c2c2" d="M11165 4888l871 811-13 29-878-817 20-23z"/><path fill="#c4c4c3" d="M11155 4900l874 814-13 29-881-821 20-22z"/><path fill="#c5c5c4" d="M11145 4911l878 817-14 29-884-823 20-23z"/><path fill="#c6c6c5" d="M11135 4922l881 821-13 29-888-827 20-23z"/><path fill="#c7c7c6" d="M11125 4934l884 823-13 29-891-829 20-23z"/><path fill="#c8c8c7" d="M11115 4945l888 827-14 29-894-833 20-23z"/><path fill="#c9c9c8" d="M11105 4957l891 829-13 29-898-836 20-22z"/><path fill="#cacac9" d="M11095 4968l894 833-13 29-901-839 20-23z"/><path fill="#cccbca" d="M11085 4979l898 836-13 30-905-843 20-23z"/><path fill="#cdcccc" d="M11075 4991l901 839-13 29-909-846 21-22z"/><path fill="#cecdcd" d="M11065 5002l905 843-14 29-912-849 21-23z"/><path fill="#cfcece" d="M11054 5013l909 846-13 29-916-852 20-23z"/><path fill="#d0cfcf" d="M11044 5025l912 849-13 29-919-856 20-22z"/><path fill="#d1d0d0" d="M11034 5036l916 852-14 29-922-858 20-23z"/><path fill="#d2d1d1" d="M11024 5047l919 856-13 29-926-862 20-23z"/><path fill="#d3d2d2" d="M11014 5059l922 858-13 29-929-865 20-22z"/><path fill="#d4d3d3" d="M11004 5070l926 862-13 29-933-868 20-23z"/><path fill="#d5d4d4" d="M10994 5081l929 865-13 30-936-872 20-23z"/><path fill="#d6d6d5" d="M10984 5093l933 868-14 29-939-874 20-23z"/><path fill="#d8d7d7" d="M10974 5104l936 872-13 29-943-878 20-23z"/><path fill="#d9d8d8" d="M10964 5116l939 874-13 29-946-881 20-22z"/><path fill="#dadad9" d="M10954 5127l943 878-13 29-950-884 20-23z"/><path fill="#dbdbdb" d="M10944 5138l946 881-13 29-953-887 20-23z"/><path fill="#dededd" d="M10934 5150l950 884-14 29-956-891 20-22z"/><path fill="#dededd" d="M10924 5161l953 887-82 180-907-1027 36-40z"/><path fill="#aaa9a9" d="M12248 5218l-682-771h209l655 759-182 12z"/><path stroke="#fff" stroke-width="15" d="M11583 4468l663 763"/><path fill="#fff" fill-rule="nonzero" d="M14253 8348l-5859 2475-55-50 5897-2512 17 87z"/><path fill="#dededd" d="M11119 4326l-495-45-87-1332 647 866-65 511z"/><path fill="#dededd" d="M10622 4253l501 45-7 56-490-45-4-56z"/><path fill="#dddcdc" d="M10624 4281l495 45-7 55-484-43-4-57z"/><path fill="#dadad9" d="M10626 4309l490 45-7 55-480-43-3-57z"/><path fill="#d9d8d8" d="M10628 4338l484 43-7 56-474-43-3-56z"/><path fill="#d6d6d5" d="M10629 4366l480 43-7 55-469-42-4-56z"/><path fill="#d5d4d4" d="M10631 4394l474 43-7 55-463-42-4-56z"/><path fill="#d3d2d2" d="M10633 4422l469 42-7 56-458-42-4-56z"/><path fill="#d2d1d1" d="M10635 4450l463 42-7 55-452-41-4-56z"/><path fill="#d0cfcf" d="M10637 4478l458 42-7 55-448-41-3-56z"/><path fill="#cfcece" d="M10639 4506l452 41-7 55-442-39-3-57z"/><path fill="#cdcccc" d="M10640 4534l448 41-7 55-437-39-4-57z"/><path fill="#cacac9" d="M10642 4563l442 39-7 56-431-39-4-56z"/><path fill="#c9c9c8" d="M10644 4591l437 39-7 55-426-38-4-56z"/><path fill="#c7c7c6" d="M10646 4619l431 39-7 55-420-38-4-56z"/><path fill="#c6c6c5" d="M10648 4647l426 38-7 56-416-38-3-56z"/><path fill="#c4c4c3" d="M10650 4675l420 38-7 55-410-37-3-56z"/><path fill="#c3c2c2" d="M10651 4703l416 38-7 55-405-37-4-56z"/><path fill="#c1c0c0" d="M10653 4731l410 37-7 56-399-36-4-57z"/><path fill="#c0c0bf" d="M10655 4759l405 37-7 55-394-35-4-57z"/><path fill="#bebebd" d="M10657 4788l399 36-7 55-388-35-4-56z"/><path fill="#bcbcbb" d="M10659 4816l394 35-7 56-384-35-3-56z"/><path fill="#bbbbba" d="M10661 4844l388 35-7 55-378-34-3-56z"/><path fill="#b9b9b8" d="M10662 4872l384 35-7 55-373-34-4-56z"/><path fill="#b9b8b7" d="M10664 4900l378 34-7 55-367-33-4-56z"/><path fill="#b7b6b5" d="M10666 4928l373 34-7 55-362-33-4-56z"/><path fill="#b6b5b4" d="M10668 4956l367 33-7 56-356-32-4-57z"/><path fill="#b4b3b2" d="M10670 4984l362 33-7 55-352-31-3-57z"/><path fill="#b3b2b1" d="M10672 5013l356 32-7 55-346-31-3-56z"/><path fill="#b1b0af" d="M10673 5041l352 31-7 56-341-31-4-56z"/><path fill="#b0afaf" d="M10675 5069l346 31-7 55-335-30-4-56z"/><path fill="#aeadad" d="M10677 5097l341 31-7 55-330-30-4-56z"/><path fill="#adacab" d="M10679 5125l335 30-7 56-324-30-4-56z"/><path fill="#acabaa" d="M10681 5153l330 30-7 55-320-29-3-56z"/><path fill="#aaa9a9" d="M10683 5181l324 30-7 55-314-28-3-57z"/><path fill="#a9a8a8" d="M10684 5209l320 29-7 56-309-28-4-57z"/><path fill="#a7a7a6" d="M10686 5238l314 28-7 55-303-27-4-56z"/><path fill="#a7a6a5" d="M10688 5266l309 28-7 55-298-27-4-56z"/><path fill="#a5a4a3" d="M10690 5294l303 27-7 55-292-26-4-56z"/><path fill="#a4a3a3" d="M10692 5322l298 27-7 55-288-26-3-56z"/><path fill="#a2a1a1" d="M10694 5350l292 26-7 56-282-26-3-56z"/><path fill="#a1a09f" d="M10695 5378l288 26-7 55-277-25-4-56z"/><path fill="#a09f9f" d="M10697 5406l282 26-7 55-271-24-4-57z"/><path fill="#9f9e9d" d="M10699 5434l277 25-7 56-266-24-4-57z"/><path fill="#9e9d9c" d="M10701 5463l271 24-7 55-260-23-4-56z"/><path fill="#9c9b9b" d="M10703 5491l266 24-7 55-256-23-3-56z"/><path fill="#9b9a9a" d="M10705 5519l260 23-7 56-250-23-3-56z"/><path fill="#9a9998" d="M10706 5547l256 23-7 55-245-22-4-56z"/><path fill="#999897" d="M10708 5575l250 23-7 55-239-22-4-56z"/><path fill="#979696" d="M10710 5603l245 22-7 56-227-21-8-8-3-49z"/><path fill="#969594" d="M10712 5631l239 22-7 55-195-17-36-39-1-21z"/><path fill="#969594" d="M10721 5660l227 21-25 195-202-216z"/><path fill="#aaa9a9" d="M10969 3867l-785-731 128-145 695 793-38 83z"/><path fill="#aaa9a9" d="M10194 3124l781 728-13 29-788-734 20-23z"/><path fill="#abaaaa" d="M10184 3136l785 731-13 29-792-738 20-22z"/><path fill="#acabaa" d="M10174 3147l788 734-13 29-795-740 20-23z"/><path fill="#adacab" d="M10164 3158l792 738-14 29-798-744 20-23z"/><path fill="#adadac" d="M10154 3170l795 740-13 29-803-747 21-22z"/><path fill="#aeadad" d="M10144 3181l798 744-13 29-806-750 21-23z"/><path fill="#afaeae" d="M10133 3192l803 747-14 29-809-753 20-23z"/><path fill="#b0afaf" d="M10123 3204l806 750-13 29-813-756 20-23z"/><path fill="#b1b0af" d="M10113 3215l809 753-13 30-816-760 20-23z"/><path fill="#b1b1b0" d="M10103 3227l813 756-13 29-820-763 20-22z"/><path fill="#b3b2b1" d="M10093 3238l816 760-13 29-823-766 20-23z"/><path fill="#b4b3b2" d="M10083 3249l820 763-14 29-826-769 20-23z"/><path fill="#b5b4b3" d="M10073 3261l823 766-13 29-830-773 20-22z"/><path fill="#b6b5b4" d="M10063 3272l826 769-13 29-833-775 20-23z"/><path fill="#b7b6b5" d="M10053 3283l830 773-13 29-837-779 20-23z"/><path fill="#b8b7b6" d="M10043 3295l833 775-13 29-840-782 20-22z"/><path fill="#b9b8b7" d="M10033 3306l837 779-14 29-843-785 20-23z"/><path fill="#b9b9b8" d="M10023 3317l840 782-13 30-847-789 20-23z"/><path fill="#babab9" d="M10013 3329l843 785-13 29-850-791 20-23z"/><path fill="#bbbbba" d="M10003 3340l847 789-14 29-853-795 20-23z"/><path fill="#bcbcbb" d="M9993 3352l850 791-13 29-857-798 20-22z"/><path fill="#bdbdbc" d="M9983 3363l853 795-13 29-860-801 20-23z"/><path fill="#bebebd" d="M9973 3374l857 798-13 29-864-804 20-23z"/><path fill="#bfbfbe" d="M9963 3386l860 801-13 29-867-808 20-22z"/><path fill="#c0c0bf" d="M9953 3397l864 804-14 29-870-810 20-23z"/><path fill="#c2c1c1" d="M9943 3408l867 808-13 29-874-814 20-23z"/><path fill="#c3c2c2" d="M9933 3420l870 810-13 29-878-817 21-22z"/><path fill="#c4c4c3" d="M9923 3431l874 814-14 29-881-820 21-23z"/><path fill="#c5c5c4" d="M9912 3442l878 817-13 30-885-824 20-23z"/><path fill="#c6c6c5" d="M9902 3454l881 820-13 29-888-827 20-22z"/><path fill="#c7c7c6" d="M9892 3465l885 824-13 29-892-830 20-23z"/><path fill="#c8c8c7" d="M9882 3476l888 827-13 29-895-833 20-23z"/><path fill="#c9c9c8" d="M9872 3488l892 830-14 29-898-836 20-23z"/><path fill="#cacac9" d="M9862 3499l895 833-13 29-902-839 20-23z"/><path fill="#cccbca" d="M9852 3511l898 836-13 29-905-843 20-22z"/><path fill="#cdcccc" d="M9842 3522l902 839-13 29-909-845 20-23z"/><path fill="#cecdcd" d="M9832 3533l905 843-13 29-912-849 20-23z"/><path fill="#cfcece" d="M9822 3545l909 845-14 30-915-853 20-22z"/><path fill="#d0cfcf" d="M9812 3556l912 849-13 29-919-855 20-23z"/><path fill="#d1d0d0" d="M9802 3567l915 853-13 29-922-859 20-23z"/><path fill="#d2d1d1" d="M9792 3579l919 855-14 29-925-862 20-22z"/><path fill="#d3d2d2" d="M9782 3590l922 859-13 29-929-865 20-23z"/><path fill="#d4d3d3" d="M9772 3601l925 862-13 29-932-868 20-23z"/><path fill="#d5d4d4" d="M9762 3613l929 865-13 29-936-871 20-23z"/><path fill="#d6d6d5" d="M9752 3624l932 868-13 29-939-874 20-23z"/><path fill="#d8d7d7" d="M9742 3636l936 871-14 29-942-878 20-22z"/><path fill="#d9d8d8" d="M9732 3647l939 874-13 29-946-880 20-23z"/><path fill="#dadad9" d="M9722 3658l942 878-13 29-950-884 21-23z"/><path fill="#dbdbdb" d="M9712 3670l946 880-14 30-953-888 21-22z"/><path fill="#dededd" d="M9701 3681l950 884-13 29-957-890 20-23z"/><path fill="#dededd" d="M9691 3692l953 888-81 179-907-1026 35-41z"/><path fill="#aaa9a9" d="M11016 3750l-683-771h210l655 759-182 12z"/><path stroke="#fff" stroke-width="15" d="M10351 3000l663 762"/><path fill="#dededd" d="M9704 2894l-496-45-86-1332 647 866-65 511z"/><path fill="#dededd" d="M9207 2821l500 45-7 56-490-45-3-56z"/><path fill="#dddcdc" d="M9208 2849l496 45-7 55-485-43-4-57z"/><path fill="#dadad9" d="M9210 2877l490 45-7 55-479-43-4-57z"/><path fill="#d9d8d8" d="M9212 2906l485 43-7 56-474-43-4-56z"/><path fill="#d6d6d5" d="M9214 2934l479 43-7 55-468-42-4-56z"/><path fill="#d5d4d4" d="M9216 2962l474 43-7 55-464-42-3-56z"/><path fill="#d3d2d2" d="M9218 2990l468 42-7 55-458-41-3-56z"/><path fill="#d2d1d1" d="M9219 3018l464 42-7 55-453-41-4-56z"/><path fill="#d0cfcf" d="M9221 3046l458 41-7 56-447-41-4-56z"/><path fill="#cfcece" d="M9223 3074l453 41-7 55-442-40-4-56z"/><path fill="#cdcccc" d="M9225 3102l447 41-7 55-436-39-4-57z"/><path fill="#cacac9" d="M9227 3130l442 40-7 56-432-39-3-57z"/><path fill="#c9c9c8" d="M9229 3159l436 39-7 55-426-38-3-56z"/><path fill="#c7c7c6" d="M9230 3187l432 39-7 55-421-38-4-56z"/><path fill="#c6c6c5" d="M9232 3215l426 38-7 56-415-38-4-56z"/><path fill="#c4c4c3" d="M9234 3243l421 38-7 55-410-37-4-56z"/><path fill="#c3c2c2" d="M9236 3271l415 38-7 55-405-37-3-56z"/><path fill="#c1c0c0" d="M9238 3299l410 37-7 56-400-36-3-57z"/><path fill="#c0c0bf" d="M9239 3327l405 37-7 55-394-35-4-57z"/><path fill="#bebebd" d="M9241 3356l400 36-7 55-389-35-4-56z"/><path fill="#bcbcbb" d="M9243 3384l394 35-7 55-383-34-4-56z"/><path fill="#bbbbba" d="M9245 3412l389 35-7 55-378-34-4-56z"/><path fill="#b9b9b8" d="M9247 3440l383 34-7 56-373-34-3-56z"/><path fill="#b9b8b7" d="M9249 3468l378 34-7 55-368-33-3-56z"/><path fill="#b7b6b5" d="M9250 3496l373 34-7 55-362-33-4-56z"/><path fill="#b6b5b4" d="M9252 3524l368 33-7 56-357-32-4-57z"/><path fill="#b4b3b2" d="M9254 3552l362 33-7 55-351-31-4-57z"/><path fill="#b3b2b1" d="M9256 3581l357 32-7 55-346-31-4-56z"/><path fill="#b1b0af" d="M9258 3609l351 31-7 56-341-31-3-56z"/><path fill="#b0afaf" d="M9260 3637l346 31-7 55-336-30-3-56z"/><path fill="#aeadad" d="M9261 3665l341 31-7 55-330-30-4-56z"/><path fill="#adacab" d="M9263 3693l336 30-7 56-325-30-4-56z"/><path fill="#acabaa" d="M9265 3721l330 30-7 55-319-29-4-56z"/><path fill="#aaa9a9" d="M9267 3749l325 30-7 55-314-28-4-57z"/><path fill="#a9a8a8" d="M9269 3777l319 29-7 56-309-28-3-57z"/><path fill="#a7a7a6" d="M9271 3806l314 28-7 55-304-27-3-56z"/><path fill="#a7a6a5" d="M9272 3834l309 28-7 55-298-27-4-56z"/><path fill="#a5a4a3" d="M9274 3862l304 27-7 55-293-26-4-56z"/><path fill="#a4a3a3" d="M9276 3890l298 27-7 55-287-26-4-56z"/><path fill="#a2a1a1" d="M9278 3918l293 26-7 56-282-26-4-56z"/><path fill="#a1a09f" d="M9280 3946l287 26-7 55-277-25-3-56z"/><path fill="#a09f9f" d="M9282 3974l282 26-7 55-272-25-3-56z"/><path fill="#9f9e9d" d="M9283 4002l277 25-7 56-266-24-4-57z"/><path fill="#9e9d9c" d="M9285 4030l272 25-7 55-261-23-4-57z"/><path fill="#9c9b9b" d="M9287 4059l266 24-7 55-255-23-4-56z"/><path fill="#9b9a9a" d="M9289 4087l261 23-7 56-250-23-4-56z"/><path fill="#9a9998" d="M9291 4115l255 23-7 55-245-22-3-56z"/><path fill="#999897" d="M9293 4143l250 23-7 55-240-22-3-56z"/><path fill="#979696" d="M9294 4171l245 22-7 56-227-21-7-8-4-49z"/><path fill="#969594" d="M9296 4199l240 22-7 55-195-17-36-39-2-21z"/><path fill="#969594" d="M9305 4228l227 21-24 195-203-216z"/><path fill="#aaa9a9" d="M9553 2435l-785-731 128-145 695 793-38 83z"/><path fill="#aaa9a9" d="M8778 1692l782 728-13 29-789-734 20-23z"/><path fill="#abaaaa" d="M8768 1704l785 731-13 29-792-738 20-22z"/><path fill="#acabaa" d="M8758 1715l789 734-14 29-795-740 20-23z"/><path fill="#adacab" d="M8748 1726l792 738-13 29-799-744 20-23z"/><path fill="#adadac" d="M8738 1738l795 740-13 29-802-747 20-22z"/><path fill="#aeadad" d="M8728 1749l799 744-13 29-806-750 20-23z"/><path fill="#afaeae" d="M8718 1760l802 747-13 29-809-753 20-23z"/><path fill="#b0afaf" d="M8708 1772l806 750-14 29-812-756 20-23z"/><path fill="#b1b0af" d="M8698 1783l809 753-13 30-816-760 20-23z"/><path fill="#b1b1b0" d="M8688 1795l812 756-13 29-819-763 20-22z"/><path fill="#b3b2b1" d="M8678 1806l816 760-14 29-822-766 20-23z"/><path fill="#b4b3b2" d="M8668 1817l819 763-13 29-826-769 20-23z"/><path fill="#b5b4b3" d="M8658 1829l822 766-13 29-829-773 20-22z"/><path fill="#b6b5b4" d="M8648 1840l826 769-13 29-833-775 20-23z"/><path fill="#b7b6b5" d="M8638 1851l829 773-13 29-837-779 21-23z"/><path fill="#b8b7b6" d="M8628 1863l833 775-14 29-840-782 21-22z"/><path fill="#b9b8b7" d="M8617 1874l837 779-13 29-844-785 20-23z"/><path fill="#b9b9b8" d="M8607 1885l840 782-13 29-847-788 20-23z"/><path fill="#babab9" d="M8597 1897l844 785-14 29-850-792 20-22z"/><path fill="#bbbbba" d="M8587 1908l847 788-13 30-854-795 20-23z"/><path fill="#bcbcbb" d="M8577 1919l850 792-13 29-857-798 20-23z"/><path fill="#bdbdbc" d="M8567 1931l854 795-13 29-861-801 20-23z"/><path fill="#bebebd" d="M8557 1942l857 798-13 29-864-804 20-23z"/><path fill="#bfbfbe" d="M8547 1954l861 801-14 29-867-808 20-22z"/><path fill="#c0c0bf" d="M8537 1965l864 804-13 29-871-810 20-23z"/><path fill="#c2c1c1" d="M8527 1976l867 808-13 29-874-814 20-23z"/><path fill="#c3c2c2" d="M8517 1988l871 810-13 29-878-817 20-22z"/><path fill="#c4c4c3" d="M8507 1999l874 814-13 29-881-820 20-23z"/><path fill="#c5c5c4" d="M8497 2010l878 817-14 30-884-824 20-23z"/><path fill="#c6c6c5" d="M8487 2022l881 820-13 29-888-827 20-22z"/><path fill="#c7c7c6" d="M8477 2033l884 824-13 29-891-830 20-23z"/><path fill="#c8c8c7" d="M8467 2044l888 827-14 29-894-833 20-23z"/><path fill="#c9c9c8" d="M8457 2056l891 830-13 29-898-836 20-23z"/><path fill="#cacac9" d="M8447 2067l894 833-13 29-901-839 20-23z"/><path fill="#cccbca" d="M8437 2079l898 836-13 29-905-843 20-22z"/><path fill="#cdcccc" d="M8427 2090l901 839-13 29-909-845 21-23z"/><path fill="#cecdcd" d="M8417 2101l905 843-14 29-912-849 21-23z"/><path fill="#cfcece" d="M8406 2113l909 845-13 29-916-852 20-22z"/><path fill="#d0cfcf" d="M8396 2124l912 849-13 29-919-855 20-23z"/><path fill="#d1d0d0" d="M8386 2135l916 852-14 30-922-859 20-23z"/><path fill="#d2d1d1" d="M8376 2147l919 855-13 29-926-862 20-22z"/><path fill="#d3d2d2" d="M8366 2158l922 859-13 29-929-865 20-23z"/><path fill="#d4d3d3" d="M8356 2169l926 862-13 29-933-868 20-23z"/><path fill="#d5d4d4" d="M8346 2181l929 865-13 29-936-872 20-22z"/><path fill="#d6d6d5" d="M8336 2192l933 868-14 29-939-874 20-23z"/><path fill="#d8d7d7" d="M8326 2203l936 872-13 29-943-878 20-23z"/><path fill="#d9d8d8" d="M8316 2215l939 874-13 29-946-880 20-23z"/><path fill="#dadad9" d="M8306 2226l943 878-13 29-950-884 20-23z"/><path fill="#dbdbdb" d="M8296 2238l946 880-13 30-953-888 20-22z"/><path fill="#dededd" d="M8286 2249l950 884-14 29-956-890 20-23z"/><path fill="#dededd" d="M8276 2260l953 888-82 179-907-1026 36-41z"/><path fill="#aaa9a9" d="M9600 2318l-682-772h209l655 760-182 12z"/><path stroke="#fff" stroke-width="15" d="M8935 1568l663 762"/><path fill="#72706f" d="M6965 1872l-4174 2853-711-770 4885-2083z"/><path fill="#72706f" d="M2670 4594l3467-2369 1656-706-4882 3336-241-261z"/><path fill="#737170" d="M2791 4725l4174-2853 989-421 97 105-5020 3430-240-261z"/><path fill="#757473" d="M2911 4855l4882-3336 161-68 217 235-5019 3430-241-261z"/><path fill="#777574" d="M3031 4986l5020-3430 241 261-5020 3430-241-261z"/><path fill="#797776" d="M3152 5116l5019-3430 241 261-5019 3430-241-261z"/><path fill="#7a7878" d="M3272 5247l5020-3430 240 261-5019 3430-241-261z"/><path fill="#7c7b7a" d="M3393 5377l5019-3430 241 261-5020 3430-240-261z"/><path fill="#7e7d7c" d="M3513 5508l5019-3430 241 261-5019 3430-241-261z"/><path fill="#7f7e7d" d="M3633 5638l5020-3430 240 262-5019 3430-241-262z"/><path fill="#828080" d="M3754 5769l5019-3430 241 261-5020 3430-240-261z"/><path fill="#838281" d="M3874 5900l5019-3430 241 261-5019 3430-241-261z"/><path fill="#858483" d="M3994 6030l5020-3430 241 261-5020 3430-241-261z"/><path fill="#878685" d="M4115 6161l5019-3430 241 261-5019 3430-241-261z"/><path fill="#888787" d="M4235 6291l5020-3430 240 261-5019 3430-241-261z"/><path fill="#8b8989" d="M4356 6422l5019-3430 241 261-5020 3430-240-261z"/><path fill="#8c8b8a" d="M4476 6552l5019-3430 241 261-5019 3430-241-261z"/><path fill="#8e8d8d" d="M4596 6683l5020-3430 241 261-5020 3430-241-261z"/><path fill="#91908f" d="M4717 6813l5019-3430 241 261-5019 3430-241-261z"/><path fill="#929190" d="M4837 6944l5020-3430 240 261-5019 3430-241-261z"/><path fill="#949393" d="M4958 7074l5019-3430 241 261-5020 3430-240-261z"/><path fill="#969594" d="M5078 7205l5019-3430 241 261-5019 3430-241-261z"/><path fill="#989797" d="M5198 7335l5020-3430 241 261-5020 3430-241-261z"/><path fill="#9b9a99" d="M5319 7466l5019-3430 241 261-5019 3430-241-261z"/><path fill="#9c9b9b" d="M5439 7596l5020-3430 240 262-5019 3429-241-261z"/><path fill="#9f9e9d" d="M5560 7727l5019-3430 241 261-5020 3430-240-261z"/><path fill="#a09f9f" d="M5680 7857l5019-3429 241 261-5019 3430-241-262z"/><path fill="#a2a1a1" d="M5800 7988l5020-3430 240 261-5019 3430-241-261z"/><path fill="#a4a3a3" d="M5921 8119l5019-3430 241 261-5020 3430-240-261z"/><path fill="#a7a6a5" d="M6041 8249l5019-3430 241 261-5019 3430-241-261z"/><path fill="#a9a8a8" d="M6161 8380l5020-3430 241 261-5020 3430-241-261z"/><path fill="#abaaaa" d="M6282 8510l5019-3430 241 261-5019 3430-241-261z"/><path fill="#adadac" d="M6402 8641l5020-3430 240 261-5019 3430-241-261z"/><path fill="#afaeae" d="M6523 8771l5019-3430 241 261-5020 3430-240-261z"/><path fill="#b1b1b0" d="M6643 8902l5019-3430 241 261-5019 3430-241-261z"/><path fill="#b5b4b3" d="M6763 9032l5020-3430 241 261-5020 3430-241-261z"/><path fill="#b7b6b5" d="M6884 9163l5019-3430 241 261-5019 3430-241-261z"/><path fill="#b9b9b8" d="M7004 9293l5020-3430 240 261-5019 3430-241-261z"/><path fill="#bbbbba" d="M7125 9424l5019-3430 241 261-5020 3430-240-261z"/><path fill="#bebebd" d="M7245 9554l5019-3430 241 261-5019 3430-241-261z"/><path fill="#c1c0c0" d="M7365 9685l5020-3430 241 261-5020 3430-241-261z"/><path fill="#c3c2c2" d="M7486 9815l5019-3430 241 262-5019 3429-241-261z"/><path fill="#c6c6c5" d="M7606 9946l5020-3430 240 261-5019 3430-241-261z"/><path fill="#c8c8c7" d="M7727 10076l5019-3429 241 261-5020 3430-240-262z"/><path fill="#cccbca" d="M7847 10207l5019-3430 241 261-5019 3430-241-261z"/><path fill="#cfcece" d="M7967 10338l5020-3430 240 261-5019 3430-241-261z"/><path fill="#d1d0d0" d="M8088 10468l5019-3430 241 261-5020 3430-240-261z"/><path fill="#d4d3d3" d="M8208 10599l5019-3430 241 261-4504 3078-603 257-153-166z"/><path fill="#d6d6d5" d="M8328 10729l5020-3430 241 261-3797 2595-1431 610-33-36z"/><path fill="#dadad9" d="M8964 10508l4504-3078 241 261-3090 2111-1655 706z"/><path fill="#dededd" d="M9792 10155l3797-2595 240 261-2382 1628-1655 706z"/><path fill="#dededd" d="M10619 9802l3090-2111 526 570-3616 1541z"/><path fill="#969594" d="M14244 9887l-459-1341 468-198v1535l-9 4z"/><path fill="#969594" d="M13887 8503l366 1068v312l-111 48-459-1342 204-86z"/><path fill="#969595" d="M13785 8546l459 1341-204 89-459-1343 204-87z"/><path fill="#989797" d="M13683 8589l459 1342-203 89-460-1344 204-87z"/><path fill="#999897" d="M13581 8633l459 1343-203 89-460-1346 204-86z"/><path fill="#9b9a99" d="M13479 8676l460 1344-204 89-460-1347 204-86z"/><path fill="#9b9a9a" d="M13377 8719l460 1346-203 89-461-1349 204-86z"/><path fill="#9d9c9b" d="M13275 8762l460 1347-203 90-461-1350 204-87z"/><path fill="#9e9d9c" d="M13173 8805l461 1349-204 89-462-1351 205-87z"/><path fill="#9f9e9e" d="M13071 8849l461 1350-203 89-463-1353 205-86z"/><path fill="#a09f9f" d="M12968 8892l462 1351-203 89-463-1354 204-86z"/><path fill="#a2a1a0" d="M12866 8935l463 1353-204 89-463-1355 204-87z"/><path fill="#a3a2a2" d="M12764 8978l463 1354-203 89-464-1356 204-87z"/><path fill="#a4a3a3" d="M12662 9022l463 1355-203 89-464-1358 204-86z"/><path fill="#a6a5a4" d="M12560 9065l464 1356-204 89-464-1359 204-86z"/><path fill="#a7a6a5" d="M12458 9108l464 1358-203 89-465-1361 204-86z"/><path fill="#a8a8a7" d="M12356 9151l464 1359-203 90-465-1362 204-87z"/><path fill="#a9a8a8" d="M12254 9194l465 1361-203 89-467-1363 205-87z"/><path fill="#abaaaa" d="M12152 9238l465 1362-203 89-467-1365 205-86z"/><path fill="#acabaa" d="M12049 9281l467 1363-204 89-467-1366 204-86z"/><path fill="#adadac" d="M11947 9324l467 1365-203 89-468-1367 204-87z"/><path fill="#afaeae" d="M11845 9367l467 1366-203 89-468-1368 204-87z"/><path fill="#b0afaf" d="M11743 9411l468 1367-204 89-468-1370 204-86z"/><path fill="#b1b1b0" d="M11641 9454l468 1368-203 89-469-1371 204-86z"/><path fill="#b3b2b1" d="M11539 9497l468 1370-203 89-469-1373 204-86z"/><path fill="#b5b4b3" d="M11437 9540l469 1371-204 90-470-1374 205-87z"/><path fill="#b6b5b4" d="M11335 9583l469 1373-203 89-471-1375 205-87z"/><path fill="#b8b7b6" d="M11232 9627l470 1374-203 89-471-1377 204-86z"/><path fill="#b9b8b7" d="M11130 9670l471 1375-204 89-471-1378 204-86z"/><path fill="#babab9" d="M11028 9713l471 1377-203 89-472-1380 204-86z"/><path fill="#bbbbba" d="M10926 9756l471 1378-203 89-472-1380 204-87z"/><path fill="#bdbdbc" d="M10824 9799l472 1380-204 89-472-1382 204-87z"/><path fill="#bfbfbe" d="M10722 9843l472 1380-203 90-473-1384 204-86z"/><path fill="#c0c0bf" d="M10620 9886l472 1382-203 89-473-1385 204-86z"/><path fill="#c2c1c1" d="M10518 9929l473 1384-204 89-474-1386 205-87z"/><path fill="#c3c2c2" d="M10416 9972l473 1385-203 89-475-1387 205-87z"/><path fill="#c5c5c4" d="M10313 10016l474 1386-203 89-475-1389 204-86z"/><path fill="#c6c6c5" d="M10211 10059l475 1387-204 89-475-1390 204-86z"/><path fill="#c8c8c7" d="M10109 10102l475 1389-203 89-476-1392 204-86z"/><path fill="#c9c9c8" d="M10007 10145l475 1390-203 89-476-1392 204-87z"/><path fill="#cccbca" d="M9905 10188l476 1392-204 89-476-1394 204-87z"/><path fill="#cecdcd" d="M9803 10232l476 1392-203 90-477-1396 204-86z"/><path fill="#cfcece" d="M9701 10275l476 1394-203 89-477-1397 204-86z"/><path fill="#d1d0d0" d="M9599 10318l477 1396-203 89-479-1399 205-86z"/><path fill="#d2d1d1" d="M9497 10361l477 1397-203 89-479-1399 205-87z"/><path fill="#d4d3d3" d="M9394 10404l479 1399-204 89-479-1401 204-87z"/><path fill="#d5d4d4" d="M9292 10448l479 1399-203 89-480-1402 204-86z"/><path fill="#d8d7d7" d="M9190 10491l479 1401-203 89-480-1404 204-86z"/><path fill="#d9d8d8" d="M9088 10534l480 1402-204 90-480-1405 204-87z"/><path fill="#dbdbdb" d="M8986 10577l480 1404-203 89-481-1406 204-87z"/><path fill="#dededd" d="M8884 10621l480 1405-203 89-481-1408 204-86z"/><path fill="#dededd" d="M8782 10664l481 1406-868 381v-1623l387-164z"/><path fill="#c2c1c1" d="M3300 5399l-798 781-408-440-58-1707 1264 1366z"/><path fill="#c2c1c1" d="M2387 6056l799-780 229 247-798 781-230-248z"/><path fill="#c1c0c0" d="M2502 6180l798-781 230 248-799 781-229-248z"/><path fill="#c0c0bf" d="M2617 6304l798-781 229 248-798 780-229-247z"/><path fill="#bfbfbe" d="M2731 6428l799-781 229 248-798 780-230-247z"/><path fill="#bebebd" d="M2846 6551l798-780 230 248-798 780-230-248z"/><path fill="#bdbdbc" d="M2961 6675l798-780 229 248-798 780-229-248z"/><path fill="#bcbcbb" d="M3076 6799l798-780 229 247-798 780-229-247z"/><path fill="#bbbbba" d="M3190 6923l798-780 230 247-798 780-230-247z"/><path fill="#babab9" d="M3305 7046l798-780 229 248-797 780-230-248z"/><path fill="#b9b9b8" d="M3420 7170l798-780 229 248-798 780-229-248z"/><path fill="#b9b8b7" d="M3535 7294l797-780 229 248-797 779-229-247z"/><path fill="#b8b7b6" d="M3649 7418l798-780 229 248-797 779-230-247z"/><path fill="#b7b6b5" d="M3764 7541l797-779 230 248-797 779-230-248z"/><path fill="#b6b5b4" d="M3879 7665l797-779 229 247-796 779-230-247z"/><path fill="#b5b4b3" d="M3994 7789l797-779 229 247-797 779-229-247z"/><path fill="#b4b3b2" d="M4109 7912l796-779 230 248-797 779-229-248z"/><path fill="#b3b2b1" d="M4223 8036l797-779 229 248-796 779-230-248z"/><path fill="#b1b1b0" d="M4338 8160l797-779 229 248-796 778-230-247z"/><path fill="#b1b0af" d="M4453 8284l796-779 230 248-797 778-229-247z"/><path fill="#b0afaf" d="M4568 8407l796-778 229 248-796 778-229-248z"/><path fill="#afaeae" d="M4682 8531l797-778 229 247-796 779-230-248z"/><path fill="#aeadad" d="M4797 8655l796-778 230 247-796 778-230-247z"/><path fill="#adadac" d="M4912 8779l796-779 229 248-796 778-229-247z"/><path fill="#adacab" d="M5027 8902l796-778 229 248-796 778-229-248z"/><path fill="#acabaa" d="M5141 9026l796-778 229 248-795 777-230-247z"/><path fill="#aaa9a9" d="M5256 9150l796-778 229 248-795 777-230-247z"/><path fill="#a9a8a8" d="M5371 9273l795-777 230 248-795 777-230-248z"/><path fill="#a8a8a7" d="M5486 9397l795-777 229 247-795 778-229-248z"/><path fill="#a7a7a6" d="M5601 9521l795-777 229 247-795 777-229-247z"/><path fill="#a7a6a5" d="M5715 9645l795-778 230 248-795 777-230-247z"/><path fill="#a6a5a4" d="M5830 9768l795-777 229 248-794 777-230-248z"/><path fill="#a5a4a3" d="M5945 9892l795-777 229 248-795 777-229-248z"/><path fill="#a4a3a3" d="M6060 10016l794-777 230 248-795 776-229-247z"/><path fill="#a3a2a2" d="M6174 10140l795-777 229 248-794 776-230-247z"/><path fill="#a2a1a1" d="M6289 10263l795-776 229 247-794 777-230-248z"/><path fill="#a2a1a0" d="M6404 10387l794-776 229 247-794 777-229-248z"/><path fill="#a1a09f" d="M6519 10511l794-777 229 248-794 776-229-247z"/><path fill="#a09f9f" d="M6633 10635l794-777 230 248-794 776-230-247z"/><path fill="#9f9e9e" d="M6748 10758l794-776 229 248-793 776-230-248z"/><path fill="#9f9e9d" d="M6863 10882l794-776 229 248-793 775-230-247z"/><path fill="#9e9d9c" d="M6978 11006l793-776 230 248-794 775-229-247z"/><path fill="#9d9c9b" d="M7093 11129l793-775 229 247-793 776-229-248z"/><path fill="#9c9b9b" d="M7207 11253l794-775 229 247-793 776-230-248z"/><path fill="#9b9a9a" d="M7322 11377l793-776 205 221v51l-768 751-230-247z"/><path fill="#9b9a99" d="M7437 11501l793-776 90 97v287l-654 639-229-247z"/><path fill="#9a9998" d="M7552 11624l768-751v472l-539 527-229-248z"/><path fill="#999897" d="M7666 11748l654-639v472l-424 415-230-248z"/><path fill="#989797" d="M7781 11872l539-527v472l-309 302-230-247z"/><path fill="#979696" d="M7896 11996l424-415v472l-195 190-229-247z"/><path fill="#969594" d="M8011 12119l309-302v472l-80 78-229-248z"/><path fill="#969594" d="M8125 12243l195-190v399h-1l-194-209z"/><path fill="#1f1a17" d="M2069 5044v-143l6247 6612 2 109-6249-6578z"/><path fill="#1f1a17" d="M8394 11631v-100l5858-2435v58l-5858 2477z"/><path fill="#dededd" d="M7599 11321l-997-346-9-102-8-94-5-83-3-71v-58l1-23 1-20 3-16 3-12 4-8 2-2 3-1 24-4 33-6 41-5 46-6 105-13 111-13 107-12 90-10 62-6 24-3 895 927-533-13z"/><path fill="#dededd" d="M6596 10916l1182 409-357-9-813-281-3-31-3-30-6-58z"/><path fill="#dededd" d="M6602 10975l997 346-239-6h-3l-5 5-2 3-4 10-4 14-728-252-3-31-6-60-3-29z"/><path fill="#dededd" d="M6608 11035l813 281-61-1h-3l-2 1-2 2-2 3-3 7-3 9-3 13-3 15-2 17-2 20-715-248-9-90-3-29z"/><path fill="#dededd" d="M6614 11095l728 252-3 21-3 25-3 31-2 34-704-244-4-30-3-31-6-58z"/><path fill="#dddcdc" d="M6620 11154l715 248-2 24-2 27-1 30-1 32-695-241-4-31-3-30-4-29-3-30z"/><path fill="#dddcdc" d="M6627 11214l704 244-1 26-1 27v30l-1 31-688-238-3-31-4-30-3-30-3-29z"/><path fill="#dddcdc" d="M6634 11274l695 241v26l-1 28v60l-681-235-3-31-4-30-3-30-3-29z"/><path fill="#dddcdc" d="M6640 11334l688 238v85l1 30-674-234-8-60-3-30-4-29z"/><path fill="#dbdbdb" d="M6647 11394l681 235v28l1 28v30l1 30-668-232-4-30-3-30-4-30-4-29z"/><path fill="#dbdbdb" d="M6655 11453l674 234v28l1 28v30l1 30-662-230-3-30-8-60-3-30z"/><path fill="#dbdbdb" d="M6662 11513l668 232v28l1 29v29l1 30-655-227-4-31-4-30-3-30-4-30z"/><path fill="#dbdbdb" d="M6669 11573l662 230v28l2 58 1 30-650-225-3-30-4-31-8-60z"/><path fill="#dadad9" d="M6677 11634l655 227 1 28 2 58 1 30-644-223-8-60-3-30-4-30z"/><path fill="#dadad9" d="M6684 11694l650 225 1 28 2 58 1 30-638-221-16-120z"/><path fill="#dadad9" d="M6692 11754l644 223 4 116-632-219-16-120z"/><path fill="#d9d8d8" d="M6700 11814l638 221 2 58 2 29 1 30-628-218-3-30-12-90z"/><path fill="#d9d8d8" d="M6708 11874l632 219 2 29 1 29 1 30 1 29-622-215-4-30-4-31-3-30-4-30z"/><path fill="#d9d8d8" d="M6715 11934l628 218 2 58 2 29 1 29-617-213-12-90-4-31z"/><path fill="#d9d8d8" d="M6723 11995l622 215 2 29 2 58 2 30-611-212-8-60-5-30-4-30z"/><path fill="#d8d7d7" d="M6731 12055l617 213 1 30 2 29 2 58-605-210-12-90-5-30z"/><path fill="#d8d7d7" d="M6740 12115l611 212 2 58 2 30 1 29-600-208-12-90-4-31z"/><path fill="#d8d7d7" d="M6748 12175l605 210 2 30 1 29 2 29 1 29-595-206-12-90-4-31z"/><path fill="#d8d7d7" d="M6756 12236l600 208 2 29 1 29 2 30 1 29-589-205-5-29-4-30-4-31-4-30z"/><path fill="#d6d6d5" d="M6764 12296l595 206 2 30 1 29 2 29 1 29-584-202-8-60-5-30-4-31z"/><path fill="#d6d6d5" d="M6773 12356l589 205 2 29 1 30 4 58-580-201-12-90-4-31z"/><path fill="#d6d6d5" d="M6781 12417l584 202 2 30 2 29 1 30 2 28-574-198-4-30-5-30-4-30-4-31z"/><path fill="#d5d4d4" d="M6789 12477l580 201 1 30 2 29 1 29 2 29-569-197-4-29-4-30-4-31-5-31z"/><path fill="#d5d4d4" d="M6798 12538l574 198 1 30 2 30 2 29 1 28-563-195-4-29-4-30-5-30-4-31z"/><path fill="#d5d4d4" d="M6806 12598l569 197 2 30 1 30 2 29 1 28-557-193-5-29-4-30-4-31-5-31z"/><path fill="#d5d4d4" d="M6815 12658l563 195 2 31 1 30 2 29 2 28-553-192-4-29-4-30-5-30-4-32z"/><path fill="#d4d3d3" d="M6824 12719l557 193 2 31 2 30 1 28 2 28-547-189-4-29-5-30-8-62z"/><path fill="#d4d3d3" d="M6832 12779l553 192 1 31 2 30 1 28 2 28-541-188-4-28-5-30-4-31-5-32z"/><path fill="#d4d3d3" d="M6841 12840l547 189 1 32 2 30 1 29 2 26-536-185-4-28-4-30-4-31-5-32z"/><path fill="#d4d3d3" d="M6850 12900l541 188 2 33 1 30 1 28 1 26-529-184-4-27-4-29-4-31-5-34z"/><path fill="#d3d2d2" d="M6858 12961l536 185 2 36 1 32 1 27v22l-522-181-4-26-4-28-4-32-6-35z"/><path fill="#d3d2d2" d="M6867 13021l529 184 2 38 1 29-1 17-1 6-325-88-187-64-3-20-4-27-5-34-6-41z"/><path fill="#d3d2d2" d="M6876 13082l522 181 1 14-1 10v6l-1 2-510-138v-5l-2-14-4-24-5-32z"/><path fill="#d2d1d1" d="M6885 13143l187 64-185-50v-3l-2-11z"/><path stroke="#fff" stroke-width="7" d="M6585 10497l765 821"/><path fill="#c2c1c1" d="M7422 13286l38-23-31-1934-82 7 75 1950z"/><path fill="#838281" d="M7384 11330l750 16-14 70-717 67-19-153z"/><path fill="#dededd" d="M6275 9914l-998-345-9-103-7-94-6-83-2-71-1-30v-27l1-24 2-20 2-16 3-12 2-4 2-3 3-3 2-1 25-4 33-6 40-5 47-6 104-13 112-13 106-12 90-10 63-6 23-3 895 927-532-13z"/><path fill="#dededd" d="M5272 9509l1181 409-357-8-813-282-3-31-3-30-3-29-2-29z"/><path fill="#dededd" d="M5277 9569l998 345-240-6-3 1-2 1-2 3-3 3-4 10-3 14-729-252-3-31-3-30-6-58z"/><path fill="#dededd" d="M5283 9628l813 282-61-2h-2l-2 1-2 2-2 3-4 7-3 10-3 12-3 15-2 17-2 20-714-248-4-30-6-60-3-29z"/><path fill="#dededd" d="M5289 9688l729 252-4 21-3 25-3 31-1 34-705-244-6-60-4-30-3-29z"/><path fill="#dddcdc" d="M5296 9747l714 248-2 24-1 27-1 30-1 32-696-241-4-31-3-30-3-29-3-30z"/><path fill="#dddcdc" d="M5302 9807l705 244-2 26v28l-1 29v31l-688-238-4-31-3-30-3-29-4-30z"/><path fill="#dddcdc" d="M5309 9867l696 241-1 27v87l-681-235-4-31-3-30-4-30-3-29z"/><path fill="#dddcdc" d="M5316 9927l688 238v115l-674-233-4-31-3-30-4-30-3-29z"/><path fill="#dbdbdb" d="M5323 9987l681 235v86l1 30-668-231-3-31-8-60-3-29z"/><path fill="#dbdbdb" d="M5330 10047l674 233v28l2 58v30l-661-229-4-31-4-30-3-30-4-29z"/><path fill="#dbdbdb" d="M5337 10107l668 231 1 28v29l1 29 1 30-656-227-4-31-3-30-4-30-4-29z"/><path fill="#dbdbdb" d="M5345 10167l661 229 1 28 1 29v29l1 30-649-225-12-90-3-30z"/><path fill="#dadad9" d="M5352 10227l656 227v28l2 58 1 30-644-223-3-30-12-90z"/><path fill="#dadad9" d="M5360 10287l649 225 1 28 1 29 1 30 1 29-638-221-8-60-3-30-4-30z"/><path fill="#dadad9" d="M5367 10347l644 223 2 58 2 29 1 29-633-219-16-120z"/><path fill="#d9d8d8" d="M5375 10407l638 221 2 29 2 58 1 30-627-218-16-120z"/><path fill="#d9d8d8" d="M5383 10467l633 219 2 58 1 30 2 29-622-215-8-60-4-31-4-30z"/><path fill="#d9d8d8" d="M5391 10527l627 218 1 29 2 29 2 58-616-213-12-90-4-31z"/><path fill="#d9d8d8" d="M5399 10588l622 215 2 58 2 30 1 29-611-212-16-120z"/><path fill="#d8d7d7" d="M5407 10648l616 213 2 30 2 58 2 29-606-210-4-29-4-31-8-60z"/><path fill="#d8d7d7" d="M5415 10708l611 212 1 29 2 29 1 30 2 29-601-208-12-90-4-31z"/><path fill="#d8d7d7" d="M5423 10768l606 210 1 30 2 29 1 29 2 29-595-206-4-30-5-30-4-30-4-31z"/><path fill="#d8d7d7" d="M5431 10829l601 208 1 29 2 30 1 29 2 29-590-205-4-29-4-30-4-31-5-30z"/><path fill="#d6d6d5" d="M5440 10889l595 206 1 30 2 29 1 29 2 29-585-202-12-90-4-31z"/><path fill="#d6d6d5" d="M5448 10949l590 205 1 29 2 30 1 29 2 29-579-201-4-29-5-30-8-62z"/><path fill="#d6d6d5" d="M5456 11010l585 202 1 30 2 30 2 29 1 28-574-198-12-90-5-31z"/><path fill="#d5d4d4" d="M5465 11070l579 201 2 30 1 29 2 29 1 29-568-197-4-29-5-30-8-62z"/><path fill="#d5d4d4" d="M5473 11131l574 198 2 30 1 30 4 58-564-195-12-90-5-31z"/><path fill="#d5d4d4" d="M5482 11191l568 197 4 60 1 29 2 28-558-193-4-29-4-30-5-31-4-31z"/><path fill="#d5d4d4" d="M5490 11252l564 195 1 30 2 30 1 29 2 28-552-192-5-29-4-29-4-31-5-31z"/><path fill="#d4d3d3" d="M5499 11312l558 193 1 31 2 30 2 28 1 28-547-189-4-29-4-30-5-30-4-32z"/><path fill="#d4d3d3" d="M5508 11372l552 192 2 31 1 30 2 28 1 28-541-188-4-28-4-30-5-31-4-32z"/><path fill="#d4d3d3" d="M5516 11433l547 189 2 32 1 30 2 29 1 26-535-185-4-28-4-30-5-31-5-32z"/><path fill="#d4d3d3" d="M5525 11493l541 188 2 33 1 30 2 28 1 26-529-184-4-27-5-29-4-31-5-34z"/><path fill="#d3d2d2" d="M5534 11554l535 185 2 37 1 31 1 27 1 22-522-181-4-25-4-29-5-32-5-35z"/><path fill="#d3d2d2" d="M5543 11614l529 184 1 38 1 29v17l-1 6-326-88-186-64-3-20-4-27-5-34-6-41z"/><path fill="#d3d2d2" d="M5552 11675l522 181v24l-1 6v2l-510-137-1-5-2-15-4-24-4-32z"/><path fill="#d2d1d1" d="M5561 11736l186 64-184-49-1-4-1-11z"/><path stroke="#fff" stroke-width="7" d="M5260 9090l765 821"/><path fill="#c2c1c1" d="M6097 11879l39-23-32-1934-81 7 74 1950z"/><path fill="#838281" d="M6059 9923l750 16-13 70-718 67-19-153z"/><path fill="#dededd" d="M4934 8505l-997-345-10-103-7-93-5-83-3-71v-58l1-24 1-20 3-15 3-12 2-5 2-3 2-2 3-1 24-5 33-5 41-6 46-6 105-13 111-13 107-11 90-10 62-7 24-2 895 926-533-13z"/><path fill="#dededd" d="M3931 8101l1182 409-357-9-813-282-9-90-3-28z"/><path fill="#dededd" d="M3937 8160l997 345-239-6-3 1-2 1-3 3-2 4-4 10-4 13-728-252-3-31-3-30-6-58z"/><path fill="#dededd" d="M3943 8219l813 282-61-2-3 1-2 1-4 4-3 7-3 10-3 12-3 15-2 18-2 19-715-247-3-31-3-30-3-29-3-30z"/><path fill="#dededd" d="M3949 8279l728 252-3 21-3 26-3 30-2 34-704-244-4-30-6-60-3-29z"/><path fill="#dddcdc" d="M3955 8339l715 247-2 25-2 27-1 29-1 32-696-241-6-60-4-30-3-29z"/><path fill="#dddcdc" d="M3962 8398l704 244-1 26-1 28v29l-1 31-688-238-3-30-4-30-6-60z"/><path fill="#dddcdc" d="M3968 8458l696 241v27l-1 28v60l-681-236-3-30-4-30-3-30-4-30z"/><path fill="#dddcdc" d="M3975 8518l688 238v85l1 30-674-233-8-60-3-30-4-30z"/><path fill="#dbdbdb" d="M3982 8578l681 236v27l1 29v29l1 30-668-231-4-30-3-30-8-60z"/><path fill="#dbdbdb" d="M3990 8638l674 233v57l1 29 1 30-662-229-4-30-3-30-4-30-3-30z"/><path fill="#dbdbdb" d="M3997 8698l668 231v28l1 29v29l1 30-655-227-12-90-3-30z"/><path fill="#dbdbdb" d="M4004 8758l662 229v28l2 58 1 30-650-225-4-30-3-30-8-60z"/><path fill="#dadad9" d="M4012 8818l655 227 1 29 1 28 1 30 1 29-644-223-12-90-3-30z"/><path fill="#dadad9" d="M4019 8878l650 225 4 116-638-221-16-120z"/><path fill="#dadad9" d="M4027 8938l644 223 3 87 1 30-632-219-4-31-12-90z"/><path fill="#d9d8d8" d="M4035 8998l638 221 2 58 1 30 2 29-628-217-4-30-3-30-4-30-4-31z"/><path fill="#d9d8d8" d="M4043 9059l632 219 1 29 2 29 2 58-622-215-12-90-3-30z"/><path fill="#d9d8d8" d="M4050 9119l628 217 2 58 2 29 1 30-617-214-16-120z"/><path fill="#d9d8d8" d="M4058 9179l622 215 2 30 2 58 2 29-611-211-5-30-4-30-4-31-4-30z"/><path fill="#d8d7d7" d="M4066 9239l617 214 1 29 2 29 1 29 1 30-605-210-12-90-5-31z"/><path fill="#d8d7d7" d="M4075 9300l611 211 1 29 1 30 2 29 1 29-600-208-16-120z"/><path fill="#d8d7d7" d="M4083 9360l605 210 2 29 1 29 2 30 1 29-595-207-4-29-4-30-4-31-4-30z"/><path fill="#d8d7d7" d="M4091 9420l600 208 2 30 1 29 2 29 1 29-589-204-5-30-8-60-4-31z"/><path fill="#d6d6d5" d="M4099 9480l595 207 2 29 1 30 2 29 1 29-584-203-8-60-5-30-4-31z"/><path fill="#d6d6d5" d="M4108 9541l589 204 2 30 1 29 4 58-580-200-12-90-4-31z"/><path fill="#d6d6d5" d="M4116 9601l584 203 2 29 2 30 1 29 2 29-574-199-4-30-5-30-4-30-4-31z"/><path fill="#d5d4d4" d="M4124 9662l580 200 1 30 2 30 1 29 2 28-569-197-4-29-8-60-5-31z"/><path fill="#d5d4d4" d="M4133 9722l574 199 1 30 4 58 1 29-563-195-4-30-5-29-8-62z"/><path fill="#d5d4d4" d="M4141 9782l569 197 2 31 1 29 2 29 1 29-558-194-4-29-8-60-5-32z"/><path fill="#d5d4d4" d="M4150 9843l563 195 2 30 1 30 2 29 2 28-553-191-4-29-4-30-5-31-4-31z"/><path fill="#d4d3d3" d="M4158 9903l558 194 4 60 1 29 2 28-547-190-4-29-5-29-4-31-5-32z"/><path fill="#d4d3d3" d="M4167 9964l553 191 1 31 2 30 1 29 2 27-541-187-5-29-4-29-4-31-5-32z"/><path fill="#d4d3d3" d="M4176 10024l547 190 1 31 2 31 1 28 2 27-536-186-4-28-4-29-4-31-5-33z"/><path fill="#d4d3d3" d="M4185 10085l541 187 1 33 2 31 1 28 1 25-529-183-4-27-4-30-5-31-4-33z"/><path fill="#d3d2d2" d="M4193 10145l536 186 1 36 2 32 1 26v22l-522-181-4-25-4-29-4-32-6-35z"/><path fill="#d3d2d2" d="M4202 10206l529 183 2 39 1 28-1 18-1 5-326-87-186-65-3-19-4-27-5-34-6-41z"/><path fill="#d3d2d2" d="M4211 10266l522 181 1 14-1 10v6l-1 2-510-137v-5l-3-15-3-23-5-33z"/><path fill="#d2d1d1" d="M4220 10327l186 65-184-50v-4l-2-11z"/><path stroke="#fff" stroke-width="7" d="M3920 7681l765 822"/><path fill="#c2c1c1" d="M4757 10471l38-23-31-1934-82 6 75 1951z"/><path fill="#838281" d="M4719 8514l750 17-14 70-717 67-19-154z"/><path fill="#dededd" d="M3658 7161l-997-345-10-103-7-94-5-83-3-70v-58l1-24 1-20 3-16 3-12 2-4 4-6 3-1 24-4 33-5 41-6 46-6 105-13 111-13 107-12 90-9 62-7 24-2 895 926-533-13z"/><path fill="#dededd" d="M2655 6756l1182 409-357-8-813-282-9-90-3-29z"/><path fill="#dededd" d="M2661 6816l997 345-239-6-3 1-2 1-3 3-2 3-4 10-4 14-728-252-3-31-3-30-6-58z"/><path fill="#dededd" d="M2667 6875l813 282-61-2-3 1-4 2-2 3-3 7-3 10-3 12-3 15-2 17-2 20-715-248-9-90-3-29z"/><path fill="#dededd" d="M2673 6935l728 252-3 21-3 26-3 30-2 34-704-244-4-30-6-60-3-29z"/><path fill="#dddcdc" d="M2679 6994l715 248-2 24-2 27-1 30-1 32-696-241-6-60-4-30-3-30z"/><path fill="#dddcdc" d="M2686 7054l704 244-1 26-1 28v29l-1 31-688-238-3-30-4-31-3-29-3-30z"/><path fill="#dddcdc" d="M2692 7114l696 241v27l-1 28v60l-681-236-3-31-4-30-3-29-4-30z"/><path fill="#dddcdc" d="M2699 7174l688 238v85l1 30-674-233-4-31-4-30-3-29-4-30z"/><path fill="#dbdbdb" d="M2706 7234l681 236v27l1 29v59l-667-231-4-31-4-30-3-30-4-29z"/><path fill="#dbdbdb" d="M2714 7294l674 233v57l1 29 1 30-662-229-4-30-3-31-4-29-3-30z"/><path fill="#dbdbdb" d="M2721 7354l667 231 1 28 1 29v29l1 30-655-227-12-90-3-30z"/><path fill="#dbdbdb" d="M2728 7414l662 229v28l2 58 1 30-650-225-4-30-3-30-8-60z"/><path fill="#dadad9" d="M2736 7474l655 227 1 28 2 58 1 30-644-223-12-90-3-30z"/><path fill="#dadad9" d="M2743 7534l650 225 1 29 1 28 1 30 1 29-638-221-16-120z"/><path fill="#dadad9" d="M2751 7594l644 223 4 116-632-219-16-120z"/><path fill="#d9d8d8" d="M2759 7654l638 221 3 87 2 30-628-217-4-30-3-31-8-60z"/><path fill="#d9d8d8" d="M2767 7714l632 219 1 29 2 30 2 58-622-215-12-90-3-31z"/><path fill="#d9d8d8" d="M2774 7775l628 217 3 87 2 30-617-214-16-120z"/><path fill="#d9d8d8" d="M2782 7835l622 215 1 29 2 29 1 30 2 29-611-212-5-30-12-90z"/><path fill="#d8d7d7" d="M2790 7895l617 214 1 29 2 29 2 58-605-209-8-60-5-31-4-30z"/><path fill="#d8d7d7" d="M2799 7955l611 212 1 29 1 30 2 29 1 29-600-208-12-90-4-31z"/><path fill="#d8d7d7" d="M2807 8016l605 209 2 30 1 29 2 29 1 29-595-206-16-120z"/><path fill="#d8d7d7" d="M2815 8076l600 208 2 29 1 30 2 29 1 29-590-204-8-60-4-31-4-30z"/><path fill="#d6d6d5" d="M2823 8136l595 206 2 30 1 29 2 30 1 28-584-202-8-60-5-30-4-31z"/><path fill="#d6d6d5" d="M2831 8197l590 204 2 30 1 29 4 58-580-201-4-29-4-30-4-31-5-30z"/><path fill="#d6d6d5" d="M2840 8257l584 202 4 60 1 29 2 29-574-199-4-30-5-30-4-30-4-31z"/><path fill="#d5d4d4" d="M2848 8317l580 201 1 30 2 29 1 30 2 28-569-197-4-29-4-30-4-31-5-31z"/><path fill="#d5d4d4" d="M2857 8378l574 199 1 30 4 58 1 29-563-195-4-30-5-30-4-30-4-31z"/><path fill="#d5d4d4" d="M2865 8438l569 197 2 30 1 30 2 29 1 28-558-193-4-29-4-30-4-31-5-31z"/><path fill="#d5d4d4" d="M2874 8499l563 195 2 30 1 30 2 29 1 28-552-191-4-29-4-30-5-31-4-31z"/><path fill="#d4d3d3" d="M2882 8559l558 193 2 31 2 30 1 29 2 27-547-189-4-29-5-30-4-30-5-32z"/><path fill="#d4d3d3" d="M2891 8620l552 191 2 31 2 30 1 29 2 27-541-187-5-29-8-60-5-32z"/><path fill="#d4d3d3" d="M2900 8680l547 189 1 32 2 30 1 29 2 26-536-185-4-28-4-29-4-31-5-33z"/><path fill="#d4d3d3" d="M2909 8741l541 187 1 33 2 31 1 28 1 25-529-183-4-28-4-29-5-31-4-33z"/><path fill="#d3d2d2" d="M2917 8801l536 185 1 37 2 31 1 27v22l-522-181-4-25-4-29-4-32-6-35z"/><path fill="#d3d2d2" d="M2926 8862l529 183 2 38v46l-1 6-326-88-186-64-3-20-4-27-5-34-6-40z"/><path fill="#d3d2d2" d="M2935 8922l522 181 1 14-1 10v6l-1 2-510-137v-5l-3-15-3-24-5-32z"/><path fill="#d2d1d1" d="M2944 8983l186 64-184-49v-4l-2-11z"/><path stroke="#fff" stroke-width="7" d="M2644 6337l765 821"/><path fill="#c2c1c1" d="M3481 9126l38-23-31-1934-82 7 75 1950z"/><path fill="#838281" d="M3443 7170l750 16-14 70-717 68-19-154z"/><path fill="#dededd" d="M2436 5838l-997-345-10-103-7-93-5-83-3-71-1-31v-27l1-24 2-19 2-16 4-12 2-5 2-3 2-2 3-1 24-5 33-5 40-6 47-6 105-13 111-13 106-11 153-17 23-2 895 926-532-13z"/><path fill="#dededd" d="M1433 5434l1181 409-357-9-813-282-6-60-2-30-3-28z"/><path fill="#dededd" d="M1439 5493l997 345-240-6-2 1-3 1-2 3-2 4-4 10-4 13-728-252-4-30-3-31-3-29-2-29z"/><path fill="#dededd" d="M1444 5552l813 282-61-2-4 2-4 4-4 7-3 10-3 12-2 15-3 18-2 19-714-247-3-31-4-30-3-29-3-30z"/><path fill="#dededd" d="M1451 5612l728 252-4 21-3 26-2 30-2 34-705-244-9-90-3-29z"/><path fill="#dddcdc" d="M1457 5672l714 247-2 25-1 27-1 29-1 32-696-241-3-30-4-30-3-30-3-29z"/><path fill="#dddcdc" d="M1463 5731l705 244-1 26-1 28-1 29v31l-688-238-4-30-6-60-4-30z"/><path fill="#dddcdc" d="M1470 5791l696 241-1 27v88l-681-236-4-30-3-30-4-30-3-30z"/><path fill="#dddcdc" d="M1477 5851l688 238v115l-674-233-3-30-8-60-3-30z"/><path fill="#dbdbdb" d="M1484 5911l681 236v56l1 29v30l-668-231-3-30-4-30-3-30-4-30z"/><path fill="#dbdbdb" d="M1491 5971l674 233 1 28v29l1 29v30l-661-229-8-60-3-30-4-30z"/><path fill="#dbdbdb" d="M1498 6031l668 231 1 28v29l1 29 1 30-656-227-3-30-12-90z"/><path fill="#dbdbdb" d="M1506 6091l661 229 1 28 1 29 1 30 1 29-650-225-8-60-3-30-4-30z"/><path fill="#dadad9" d="M1513 6151l656 227 1 29 1 28 1 30 1 29-644-223-16-120z"/><path fill="#dadad9" d="M1521 6211l650 225 4 116-639-221-4-30-3-30-8-60z"/><path fill="#dadad9" d="M1529 6271l644 223 3 87 1 30-633-219-4-30-4-31-4-30-3-30z"/><path fill="#d9d8d8" d="M1536 6331l639 221 2 58 1 30 1 29-627-217-12-90-4-31z"/><path fill="#d9d8d8" d="M1544 6392l633 219 2 58 2 29 1 29-622-215-16-120z"/><path fill="#d9d8d8" d="M1552 6452l627 217 2 29 1 29 1 30 1 29-616-214-16-120z"/><path fill="#d9d8d8" d="M1560 6512l622 215 1 30 1 29 2 29 1 29-611-211-8-60-4-31-4-30z"/><path fill="#d8d7d7" d="M1568 6572l616 214 2 29 1 29 2 29 1 30-606-210-12-90-4-31z"/><path fill="#d8d7d7" d="M1576 6633l611 211 2 30 1 29 2 29 1 29-600-208-5-30-12-90z"/><path fill="#d8d7d7" d="M1584 6693l606 210 2 29 1 29 1 30 2 29-595-206-8-60-5-31-4-30z"/><path fill="#d8d7d7" d="M1593 6753l600 208 1 30 2 29 1 29 2 29-590-204-12-90-4-31z"/><path fill="#d6d6d5" d="M1601 6814l595 206 1 29 2 30 2 29 1 29-584-203-5-29-4-30-4-31-4-30z"/><path fill="#d6d6d5" d="M1609 6874l590 204 2 30 1 29 2 29 1 29-579-200-8-60-5-30-4-31z"/><path fill="#d6d6d5" d="M1618 6934l584 203 2 30 1 29 2 29 1 29-574-199-4-29-4-31-4-30-4-31z"/><path fill="#d5d4d4" d="M1626 6995l579 200 2 30 1 30 2 29 2 28-569-196-8-60-5-30-4-31z"/><path fill="#d5d4d4" d="M1634 7055l574 199 2 30 2 29 1 29 2 29-563-195-5-29-4-30-4-31-5-31z"/><path fill="#d5d4d4" d="M1643 7116l569 196 1 31 2 29 1 29 2 29-558-194-4-29-4-30-5-30-4-31z"/><path fill="#d5d4d4" d="M1652 7176l563 195 1 30 2 30 2 29 1 28-552-191-4-29-5-30-8-62z"/><path fill="#d4d3d3" d="M1660 7236l558 194 2 30 1 30 2 29 1 28-546-190-5-28-4-30-4-31-5-32z"/><path fill="#d4d3d3" d="M1669 7297l552 191 2 31 1 30 2 29 1 27-541-187-8-58-5-31-4-32z"/><path fill="#d4d3d3" d="M1678 7357l546 190 2 32 2 30 1 28 1 27-535-186-4-28-4-29-5-31-4-33z"/><path fill="#d4d3d3" d="M1686 7418l541 187 2 33 2 31 1 28 1 25-529-183-4-27-4-30-5-31-5-33z"/><path fill="#d3d2d2" d="M1695 7478l535 186 2 36 1 32 1 27 1 21-522-181-4-25-4-29-5-32-5-35z"/><path fill="#d3d2d2" d="M1704 7539l529 183 2 39v46l-1 5-326-88-186-64-3-19-4-27-5-34-6-41z"/><path fill="#d3d2d2" d="M1713 7599l522 181v30l-1 2-510-137-1-5-2-15-3-23-5-33z"/><path fill="#d2d1d1" d="M1722 7660l186 64-184-49-1-4-1-11z"/><path stroke="#fff" stroke-width="7" d="M1422 5014l765 822"/><path fill="#c2c1c1" d="M2259 7804l38-23-32-1934-81 6 75 1951z"/><path fill="#838281" d="M2221 5847l749 17-13 70-718 67-18-154z"/><path fill="#fff" fill-rule="nonzero" d="M2135 3991l6227 6789-46 42-6226-6789 45-42z"/><path fill="#fff" fill-rule="nonzero" d="M8387 10802v1650h-62v-1650h62z"/></svg>