<svg xmlns="http://www.w3.org/2000/svg" xmlns:cc="http://web.resource.org/cc/" xmlns:xlink="http://www.w3.org/1999/xlink" id="svg1" width="77.351" height="73.35" viewBox="0 0 58 55"><defs id="defs5"><linearGradient id="linearGradient8582"><stop id="stop8583" offset="0" stop-color="#000" stop-opacity="1"/><stop id="stop8584" offset="1" stop-color="#fff" stop-opacity="0"/></linearGradient><radialGradient id="radialGradient8586" cx="75.315" cy="26.101" r="20.225" fx="75.315" fy="26.101" gradientTransform="matrix(1.525292,0.000000,0.000000,0.959565,-82.70198,13.23033)" gradientUnits="userSpaceOnUse" xlink:href="#linearGradient8582"/><radialGradient id="radialGradient8588" cx="75.315" cy="26.101" r="20.225" fx="75.315" fy="26.101" gradientTransform="matrix(1.525292,0.000000,0.000000,0.959565,-76.52933,11.43827)" gradientUnits="userSpaceOnUse" xlink:href="#linearGradient8582"/></defs><path id="path7955" fill="url(#radialGradient8586)" fill-opacity="1" stroke="none" stroke-miterlimit="4" stroke-width="4.099" d="M 29.1,18.9 C 15.9,20.9 5.7,30.9 2.7,39.9 C 1.3,43.9 -0.1,48.9 4.2,52.9 C 13.0,58.9 36.4,57.9 48.1,56.9 C 52.5,55.9 58.4,54.9 61.3,51.9 C 64.2,47.9 62.7,42.9 61.3,38.9 C 56.9,29.9 45.2,17.9 29.1,18.9 z"/><path id="selection_to_path" fill="#ffbe39" fill-opacity="1" stroke="#000" stroke-dasharray="none" stroke-miterlimit="4" stroke-width="4.099" d="M 27.0,6.6 C 18.0,8.6 11.0,18.6 9.0,27.6 C 8.0,31.6 7.0,36.6 10.0,40.6 C 16.0,46.6 32.0,45.6 40.0,44.6 C 43.0,43.6 47.0,42.6 49.0,39.6 C 51.0,35.6 50.0,30.6 49.0,26.6 C 46.0,17.6 38.0,5.6 27.0,6.6 z"/><path id="path6087" fill="#fff" fill-opacity=".808" stroke="none" stroke-dashoffset="0" stroke-linecap="butt" stroke-linejoin="miter" stroke-miterlimit="4" stroke-opacity="1" stroke-width=".566" d="M 25.0,17.3 C 25.5,14.2 30.9,14.8 30.8,17.4 C 31.0,21.2 30.5,26.3 29.3,29.3 C 29.0,31.3 26.9,31.6 26.4,29.3 C 25.6,27.2 24.4,22.5 25.0,17.3 z"/><path id="rect1708" fill="#000" fill-opacity="1" stroke="#000" stroke-dashoffset="0" stroke-linecap="butt" stroke-linejoin="miter" stroke-miterlimit="4" stroke-opacity="1" stroke-width=".566" d="M 26.7,17.1 C 27.2,14.0 32.6,14.6 32.5,17.2 C 32.6,21.1 32.2,26.1 31.0,29.2 C 30.7,31.1 28.6,31.4 28.1,29.2 C 27.3,27.0 26.1,22.3 26.7,17.1 z"/><path id="path6088" fill="#fff" fill-opacity=".675" stroke="none" stroke-dashoffset="0" stroke-linecap="butt" stroke-linejoin="miter" stroke-miterlimit="4" stroke-opacity="1" stroke-width=".87" d="M 31.2 35.8 A 2.6 2.6 0 1 1 25.9,35.8 A 2.6 2.6 0 1 1 31.2 35.8 z" transform="matrix(0.996362,0.000000,0.000000,0.996362,-0.532422,-0.339695)"/><path id="path2956" fill="#000" fill-opacity="1" stroke="#000" stroke-dashoffset="0" stroke-linecap="butt" stroke-linejoin="miter" stroke-miterlimit="4" stroke-opacity="1" stroke-width=".87" d="M 31.2 35.8 A 2.6 2.6 0 1 1 25.9,35.8 A 2.6 2.6 0 1 1 31.2 35.8 z" transform="matrix(0.996362,0.000000,0.000000,0.996362,1.142414,-0.524115)"/><path id="path7332" fill="#fff" fill-opacity=".838" stroke="none" stroke-miterlimit="4" stroke-width="4.099" d="M 27.6,9.2 C 18.6,11.2 13.5,19.5 11.5,28.5 C 10.5,32.5 9.7,35.4 12.7,39.3 C 13.7,40.2 17.0,41.5 18.7,41.8 C 17.5,41.4 13.5,39.4 12.8,38.2 C 11.2,34.9 11.3,32.3 12.2,29.6 C 14.2,20.6 18.1,13.5 27.1,10.1 C 29.7,9.8 31.6,10.2 33.8,11.2 C 31.0,9.5 30.9,8.9 27.6,9.2 z"/></svg>