<svg xmlns="http://www.w3.org/2000/svg" xmlns:xlink="http://www.w3.org/1999/xlink" width="448.15" height="667.005" enable-background="new 0 0 448.15 667.005" overflow="visible" space="preserve" viewBox="0 0 448.15 667.005"><switch><g><g id="Layer_1"><polygon fill="#FFF" stroke="#000" points="22.55 .502 22.55 34.501 22.55 37.502 273.55 36.502 272.55 1.502"/><polygon fill="#FFF" stroke="#000" points="22.55 37.502 273.55 33.502 260.55 54.502 28.55 54.502"/><polygon fill="#FFF" stroke="#000" points="200.55 40.502 202.55 260.502 210.55 259.502 209.55 39.502"/><path fill="#FFF" stroke="#000" d="M210.5,259.5"/><path fill="#FFF" stroke="#000" d="M205.5,251.0c-30.2,1.1-28.5,102.3,1,100 C221.5,349.8,232.5,250.0,205.5,251.0z"/><path fill="#FFF" stroke="#000" d="M202.5,261.5c-16,1-11,83,1,83S220.5,260.3,202.5,261.5z"/><polygon fill="#FFF" stroke="#000" points="75.55 154.502 134.55 53.502 157.55 51.502 74.55 199.502"/><polygon fill="#FFF" stroke="#000" points="46.55 53.502 49.55 545.502 2.55 645.502 .55 666.502 446.55 664.502 447.629 637.577 362.55 535.502 75.55 539.502 75.55 54.502"/><polyline fill="#FFF" stroke="#000" points=".55 666.502 446.55 664.502 447.629 637.577 3.652 639.077 .652 663.076"/><polyline fill="#FFF" stroke="#000" points="75.55 539.502 75.648 603.079 50.149 603.079 49.55 545.502"/></g></g></switch></svg>