<svg xmlns="http://www.w3.org/2000/svg" xmlns:cc="http://web.resource.org/cc/" xmlns:xlink="http://www.w3.org/1999/xlink" id="svg4844" width="400" height="400"><defs id="defs4846"><linearGradient id="linearGradient7858"><stop id="stop7859" offset="0" stop-color="#543900" stop-opacity="1"/><stop id="stop7860" offset="1" stop-color="#543900" stop-opacity="0"/></linearGradient><linearGradient id="linearGradient6295"><stop id="stop6296" offset="0" stop-color="#ff0" stop-opacity="1"/><stop id="stop6297" offset="1" stop-color="#c59700" stop-opacity="1"/></linearGradient><radialGradient id="radialGradient7174" cx="1.152" cy="1.133" r="1.723" fx="1.225" fy="1.123" spreadMethod="pad" xlink:href="#linearGradient6295"/><radialGradient id="radialGradient7175" cx="1.612" cy=".723" r="2.248" fx="1.707" fy=".71" gradientTransform="scale(0.719129,1.390572)" spreadMethod="pad" xlink:href="#linearGradient6295"/><radialGradient id="radialGradient7176" cx="1.476" cy=".163" r="2.023" fx="1.561" fy=".151" gradientTransform="scale(0.806747,1.239546)" spreadMethod="pad" xlink:href="#linearGradient6295"/><radialGradient id="radialGradient7177" cx="1.117" cy=".04" r="1.871" fx="1.196" fy=".03" gradientTransform="scale(0.972295,1.028494)" spreadMethod="pad" xlink:href="#linearGradient6295"/><radialGradient id="radialGradient7178" cx=".782" cy="-.185" r="1.864" fx=".861" fy="-.195" gradientTransform="scale(1.367201,0.731421)" spreadMethod="pad" xlink:href="#linearGradient6295"/><radialGradient id="radialGradient7179" cx="1.2" cy="-1.903" r="3.628" fx="1.353" fy="-1.924" gradientTransform="scale(1.503104,0.665290)" spreadMethod="pad" xlink:href="#linearGradient6295"/><radialGradient id="radialGradient7180" cx=".373" cy="-.208" r="2.068" fx=".46" fy="-.22" gradientTransform="scale(1.825395,0.547827)" spreadMethod="pad" xlink:href="#linearGradient6295"/><radialGradient id="radialGradient7181" cx=".01" cy="-2.025" r="3.505" fx=".158" fy="-2.045" gradientTransform="scale(1.921818,0.520341)" spreadMethod="pad" xlink:href="#linearGradient6295"/><radialGradient id="radialGradient7182" cx="-.119" cy="-.906" r="2.587" fx="-.01" fy="-.921" gradientTransform="scale(1.760762,0.567936)" spreadMethod="pad" xlink:href="#linearGradient6295"/><radialGradient id="radialGradient7183" cx="-.095" cy="-.164" r="2.021" fx="-.009" fy="-.175" gradientTransform="scale(1.602715,0.623941)" spreadMethod="pad" xlink:href="#linearGradient6295"/><radialGradient id="radialGradient7184" cx="-.307" cy="-.233" r="2.038" fx="-.221" fy="-.245" gradientTransform="scale(1.270309,0.787210)" spreadMethod="pad" xlink:href="#linearGradient6295"/><radialGradient id="radialGradient7185" cx="-.276" cy="-.05" r="2.087" fx="-.188" fy="-.062" gradientTransform="scale(0.929242,1.076147)" spreadMethod="pad" xlink:href="#linearGradient6295"/><radialGradient id="radialGradient7186" cx="-.244" cy=".268" r="2.146" fx="-.153" fy=".255" gradientTransform="scale(0.745902,1.340659)" spreadMethod="pad" xlink:href="#linearGradient6295"/><radialGradient id="radialGradient7187" cx="-.363" cy="1.257" r="1.893" fx="-.283" fy="1.246" gradientTransform="scale(0.975868,1.024728)" spreadMethod="pad" xlink:href="#linearGradient6295"/><radialGradient id="radialGradient7188" cx="-.332" cy=".877" r="2.192" fx="-.24" fy=".864" gradientTransform="scale(0.723610,1.381960)" spreadMethod="pad" xlink:href="#linearGradient6295"/><radialGradient id="radialGradient7189" cx="-.18" cy="1.485" r="1.617" fx="-.112" fy="1.475" gradientTransform="scale(1.252443,0.798439)" spreadMethod="pad" xlink:href="#linearGradient6295"/><radialGradient id="radialGradient7190" cx="-.026" cy="1.937" r="1.671" fx=".044" fy="1.927" gradientTransform="scale(1.557255,0.642156)" spreadMethod="pad" xlink:href="#linearGradient6295"/><radialGradient id="radialGradient7191" cx=".275" cy="2.768" r="2.231" fx=".369" fy="2.755" gradientTransform="scale(2.209011,0.452691)" spreadMethod="pad" xlink:href="#linearGradient6295"/><radialGradient id="radialGradient7192" cx=".619" cy="1.948" r="1.711" fx=".691" fy="1.938" gradientTransform="scale(1.616685,0.618550)" spreadMethod="pad" xlink:href="#linearGradient6295"/><radialGradient id="radialGradient7193" cx=".878" cy="1.442" r="1.646" fx=".948" fy="1.433" gradientTransform="scale(1.264154,0.791043)" spreadMethod="pad" xlink:href="#linearGradient6295"/><radialGradient id="radialGradient7838" cx="1.072" cy="1.023" r="1.481" fx="1.104" fy="1.057" xlink:href="#linearGradient7858"/><radialGradient id="radialGradient7839" cx="1.507" cy=".579" r="1.933" fx="1.55" fy=".624" gradientTransform="scale(0.719129,1.390572)" xlink:href="#linearGradient7858"/><radialGradient id="radialGradient7840" cx="1.382" cy=".033" r="1.739" fx="1.42" fy=".074" gradientTransform="scale(0.806747,1.239546)" xlink:href="#linearGradient7858"/><radialGradient id="radialGradient7841" cx="1.03" cy="-.079" r="1.609" fx="1.065" fy="-.042" gradientTransform="scale(0.972295,1.028494)" xlink:href="#linearGradient7858"/><radialGradient id="radialGradient7842" cx=".695" cy="-.304" r="1.602" fx=".73" fy="-.266" gradientTransform="scale(1.367201,0.731421)" xlink:href="#linearGradient7858"/><radialGradient id="radialGradient7843" cx="1.031" cy="-2.135" r="3.119" fx="1.099" fy="-2.063" gradientTransform="scale(1.503104,0.665290)" xlink:href="#linearGradient7858"/><radialGradient id="radialGradient7844" cx=".276" cy="-.34" r="1.778" fx=".315" fy="-.299" gradientTransform="scale(1.825395,0.547827)" xlink:href="#linearGradient7858"/><radialGradient id="radialGradient7845" cx="-.153" cy="-2.249" r="3.014" fx="-.088" fy="-2.179" gradientTransform="scale(1.921818,0.520341)" xlink:href="#linearGradient7858"/><radialGradient id="radialGradient7846" cx="-.24" cy="-1.071" r="2.225" fx="-.191" fy="-1.02" gradientTransform="scale(1.760762,0.567936)" xlink:href="#linearGradient7858"/><radialGradient id="radialGradient7847" cx="-.189" cy="-.293" r="1.738" fx="-.151" fy="-.252" gradientTransform="scale(1.602715,0.623941)" xlink:href="#linearGradient7858"/><radialGradient id="radialGradient7848" cx="-.402" cy="-.364" r="1.753" fx="-.364" fy="-.323" gradientTransform="scale(1.270309,0.787210)" xlink:href="#linearGradient7858"/><radialGradient id="radialGradient7849" cx="-.373" cy="-.183" r="1.794" fx="-.334" fy="-.142" gradientTransform="scale(0.929242,1.076147)" xlink:href="#linearGradient7858"/><radialGradient id="radialGradient7850" cx="-.344" cy=".131" r="1.845" fx="-.304" fy=".174" gradientTransform="scale(0.745902,1.340659)" xlink:href="#linearGradient7858"/><radialGradient id="radialGradient7851" cx="-.451" cy="1.136" r="1.627" fx="-.416" fy="1.173" gradientTransform="scale(0.975868,1.024728)" xlink:href="#linearGradient7858"/><radialGradient id="radialGradient7852" cx="-.434" cy=".737" r="1.884" fx="-.393" fy=".781" gradientTransform="scale(0.723610,1.381960)" xlink:href="#linearGradient7858"/><radialGradient id="radialGradient7853" cx="-.256" cy="1.381" r="1.39" fx="-.225" fy="1.414" gradientTransform="scale(1.252443,0.798439)" xlink:href="#linearGradient7858"/><radialGradient id="radialGradient7854" cx="-.104" cy="1.83" r="1.437" fx="-.073" fy="1.863" gradientTransform="scale(1.557255,0.642156)" xlink:href="#linearGradient7858"/><radialGradient id="radialGradient7855" cx=".171" cy="2.625" r="1.918" fx=".213" fy="2.67" gradientTransform="scale(2.209011,0.452691)" xlink:href="#linearGradient7858"/><radialGradient id="radialGradient7856" cx=".539" cy="1.839" r="1.471" fx=".571" fy="1.873" gradientTransform="scale(1.616685,0.618550)" xlink:href="#linearGradient7858"/><radialGradient id="radialGradient7857" cx=".801" cy="1.337" r="1.415" fx=".832" fy="1.37" gradientTransform="scale(1.264154,0.791043)" xlink:href="#linearGradient7858"/></defs><path id="path6319" fill="#543900" fill-opacity="1" fill-rule="evenodd" stroke="none" stroke-dashoffset="0" stroke-linecap="butt" stroke-linejoin="miter" stroke-miterlimit="4" stroke-opacity="1" stroke-width="1.25" d="M 175.2,154.9 C 172.9,161.7 170.4,168.7 161.8,165.6 C 162.6,177.4 150.3,180.3 148.3,190.9 C 139.8,200.3 167.5,205.1 163.3,216.1 C 171.2,222.8 184.3,214.9 191.4,221.5 C 198.2,210.3 218.1,220.4 214.9,203.8 C 201.4,195.3 230.6,178.9 218.0,173.3 C 199.6,181.9 218.3,145.2 209.6,155.7 C 204.4,166.4 186.7,160.2 183.2,153.7 C 181.7,161.4 181.1,161.3 175.2,154.9 z"/><path id="path6299" fill="url(#radialGradient7193)" fill-opacity="1" fill-rule="evenodd" stroke="url(#radialGradient7857)" stroke-dasharray="none" stroke-dashoffset="0" stroke-linecap="butt" stroke-linejoin="miter" stroke-miterlimit="4" stroke-opacity="1" stroke-width="2.5" d="M 167.6,168.6 C 154.9,151.6 143.6,133.4 129.9,117.1 C 117.3,107.9 108.9,90.6 93.5,87.0 C 84.1,86.2 69.1,77.8 72.6,93.7 C 74.0,107.4 85.5,119.3 94.7,129.4 C 104.3,139.7 114.5,149.3 126.8,156.3 C 138.4,164.0 150.0,171.8 161.7,179.5 C 168.3,179.6 168.3,173.4 167.6,168.6 z"/><path id="path6300" fill="url(#radialGradient7192)" fill-opacity="1" fill-rule="evenodd" stroke="url(#radialGradient7856)" stroke-dasharray="none" stroke-dashoffset="0" stroke-linecap="butt" stroke-linejoin="miter" stroke-miterlimit="4" stroke-opacity="1" stroke-width="2.5" d="M 168.6,167.6 C 181.7,173.1 180.1,150.5 175.4,143.5 C 169.4,125.9 163.6,108.2 157.3,90.6 C 148.7,80.5 143.6,66.7 132.6,59.1 C 125.4,54.9 108.6,41.7 109.6,58.5 C 104.2,72.2 111.8,85.1 117.0,97.6 C 122.2,109.4 132.7,117.0 139.5,127.7 C 149.2,141.0 158.9,154.3 168.6,167.6 z"/><path id="path6301" fill="url(#radialGradient7191)" fill-opacity="1" fill-rule="evenodd" stroke="url(#radialGradient7855)" stroke-dasharray="none" stroke-dashoffset="0" stroke-linecap="butt" stroke-linejoin="miter" stroke-miterlimit="4" stroke-opacity="1" stroke-width="2.5" d="M 178.8,158.2 C 187.6,169.2 186.0,145.9 189.2,141.1 C 192.4,128.1 197.3,115.2 194.6,101.7 C 193.5,84.8 192.6,67.8 187.2,51.6 C 184.5,43.5 174.1,29.3 168.1,42.2 C 159.5,50.0 158.9,62.8 157.9,73.7 C 154.9,88.0 161.0,101.1 165.5,114.4 C 169.9,128.4 175.7,142.2 178.8,156.4 C 178.8,157.0 178.8,158.2 178.8,158.2 z"/><path id="path6302" fill="url(#radialGradient7190)" fill-opacity="1" fill-rule="evenodd" stroke="url(#radialGradient7854)" stroke-dasharray="none" stroke-dashoffset="0" stroke-linecap="butt" stroke-linejoin="miter" stroke-miterlimit="4" stroke-opacity="1" stroke-width="2.5" d="M 185.8,157.5 C 191.1,168.0 206.2,165.2 209.8,154.8 C 224.2,137.5 238.0,119.7 249.9,100.5 C 256.4,93.0 258.5,83.4 260.5,73.9 C 263.7,65.5 259.8,52.3 255.1,47.9 C 247.3,50.4 240.1,43.0 234.7,52.8 C 224.2,61.3 217.0,73.3 210.2,84.8 C 201.9,103.2 193.7,121.8 190.1,141.8 C 188.7,147.1 187.2,152.2 185.8,157.5 z"/><path id="path6303" fill="url(#radialGradient7189)" fill-opacity="1" fill-rule="evenodd" stroke="url(#radialGradient7853)" stroke-dasharray="none" stroke-dashoffset="0" stroke-linecap="butt" stroke-linejoin="miter" stroke-miterlimit="4" stroke-opacity="1" stroke-width="2.5" d="M 206.9,162.4 C 203.9,170.4 206.3,176.2 215.7,174.7 C 225.3,175.0 232.4,166.1 240.9,162.3 C 253.5,154.4 265.1,144.8 275.2,134.0 C 284.0,120.4 296.2,108.7 300.6,92.7 C 302.6,86.6 308.8,78.4 297.7,79.9 C 284.5,75.0 273.7,85.6 262.5,90.9 C 252.8,97.7 244.8,106.8 239.3,117.3 C 229.1,130.5 217.4,142.5 208.6,156.7 C 208.0,158.6 207.5,160.5 206.9,162.4 z"/><path id="path6304" fill="url(#radialGradient7188)" fill-opacity="1" fill-rule="evenodd" stroke="url(#radialGradient7852)" stroke-dasharray="none" stroke-dashoffset="0" stroke-linecap="butt" stroke-linejoin="miter" stroke-miterlimit="4" stroke-opacity="1" stroke-width="2.5" d="M 220.2,174.3 C 210.2,175.5 213.2,188.4 222.7,183.2 C 238.2,181.7 253.8,180.7 269.2,183.3 C 283.2,182.7 298.4,184.0 311.2,177.4 C 323.1,173.4 334.1,165.5 340.8,155.1 C 341.4,143.7 322.3,149.4 314.3,145.6 C 302.9,144.8 294.1,156.1 282.4,156.8 C 261.5,162.1 241.4,170.1 220.2,174.3 z"/><path id="path6305" fill="url(#radialGradient7187)" fill-opacity="1" fill-rule="evenodd" stroke="url(#radialGradient7851)" stroke-dasharray="none" stroke-dashoffset="0" stroke-linecap="butt" stroke-linejoin="miter" stroke-miterlimit="4" stroke-opacity="1" stroke-width="2.5" d="M 222.3,174.3 C 244.5,169.7 265.8,161.5 287.1,154.1 C 302.8,150.4 315.4,140.1 327.5,130.1 C 330.1,121.5 335.2,111.8 322.2,111.7 C 310.4,110.3 298.4,116.4 288.2,121.9 C 276.2,124.8 275.3,138.5 265.4,144.1 C 252.0,155.5 237.1,164.8 222.3,174.3 z"/><path id="path6306" fill="url(#radialGradient7186)" fill-opacity="1" fill-rule="evenodd" stroke="url(#radialGradient7850)" stroke-dasharray="none" stroke-dashoffset="0" stroke-linecap="butt" stroke-linejoin="miter" stroke-miterlimit="4" stroke-opacity="1" stroke-width="2.5" d="M 213.9,184.1 C 231.9,182.8 249.9,179.0 267.9,182.6 C 284.4,184.6 300.9,188.8 315.0,198.0 C 324.4,200.1 341.7,214.0 324.3,218.1 C 314.9,221.8 304.5,222.0 294.6,222.2 C 275.4,219.5 256.0,217.4 237.4,211.4 C 227.0,208.4 216.1,204.4 208.0,197.1 C 202.7,191.1 209.9,187.8 213.9,184.1 z"/><path id="path6307" fill="url(#radialGradient7185)" fill-opacity="1" fill-rule="evenodd" stroke="url(#radialGradient7849)" stroke-dasharray="none" stroke-dashoffset="0" stroke-linecap="butt" stroke-linejoin="miter" stroke-miterlimit="4" stroke-opacity="1" stroke-width="2.5" d="M 300.9,224.1 C 310.7,230.5 321.0,252.2 303.6,253.9 C 289.4,254.6 274.3,253.5 262.3,244.9 C 249.1,237.2 234.8,230.7 222.8,221.1 C 217.7,216.2 204.5,207.3 212.4,200.3 C 224.3,208.2 238.0,211.5 251.7,214.8 C 268.0,218.4 284.5,220.9 300.9,224.1 z"/><path id="path6308" fill="url(#radialGradient7184)" fill-opacity="1" fill-rule="evenodd" stroke="url(#radialGradient7848)" stroke-dasharray="none" stroke-dashoffset="0" stroke-linecap="butt" stroke-linejoin="miter" stroke-miterlimit="4" stroke-opacity="1" stroke-width="2.5" d="M 279.1,252.9 C 287.4,261.9 295.3,280.5 285.3,288.7 C 272.8,287.2 255.9,287.0 250.6,273.0 C 246.0,261.1 242.6,248.3 233.7,238.6 C 228.2,230.4 216.1,215.4 213.8,212.0 C 221.1,220.5 229.8,227.5 240.0,232.2 C 251.7,238.5 262.9,246.3 274.9,252.0 C 276.3,252.3 277.7,252.6 279.1,252.9 z"/><path id="path6309" fill="url(#radialGradient7183)" fill-opacity="1" fill-rule="evenodd" stroke="url(#radialGradient7847)" stroke-dasharray="none" stroke-dashoffset="0" stroke-linecap="butt" stroke-linejoin="miter" stroke-miterlimit="4" stroke-opacity="1" stroke-width="2.5" d="M 252.5,277.4 C 250.6,286.8 255.7,299.6 247.4,306.3 C 233.4,307.2 223.3,294.3 216.7,283.5 C 208.7,270.4 200.9,257.1 197.0,242.2 C 194.4,232.5 191.4,221.8 192.6,212.1 C 204.1,200.6 216.5,213.9 222.6,224.2 C 231.0,235.7 242.5,245.6 246.1,259.9 C 248.2,265.7 250.3,271.6 252.5,277.4 z"/><path id="path6310" fill="url(#radialGradient7182)" fill-opacity="1" fill-rule="evenodd" stroke="url(#radialGradient7846)" stroke-dasharray="none" stroke-dashoffset="0" stroke-linecap="butt" stroke-linejoin="miter" stroke-miterlimit="4" stroke-opacity="1" stroke-width="2.5" d="M 233.5,302.7 C 235.1,312.1 230.5,331.3 217.8,325.5 C 204.7,324.9 203.6,308.2 197.3,299.3 C 194.9,290.1 191.5,280.4 192.2,270.8 C 194.9,261.6 196.3,251.9 196.5,242.4 C 201.6,259.1 210.8,274.0 219.9,288.8 C 224.0,293.9 229.2,297.9 233.5,302.7 z"/><path id="path6311" fill="url(#radialGradient7181)" fill-opacity="1" fill-rule="evenodd" stroke="url(#radialGradient7845)" stroke-dasharray="none" stroke-dashoffset="0" stroke-linecap="butt" stroke-linejoin="miter" stroke-miterlimit="4" stroke-opacity="1" stroke-width="2.5" d="M 209.0,321.6 C 206.2,329.4 198.2,346.8 190.3,334.7 C 183.3,324.6 181.2,313.1 182.3,301.0 C 182.0,290.7 188.3,281.8 190.1,271.8 C 193.4,285.4 196.3,299.3 203.8,311.3 C 205.6,314.8 207.3,318.2 209.0,321.6 z"/><path id="path6312" fill="url(#radialGradient7180)" fill-opacity="1" fill-rule="evenodd" stroke="url(#radialGradient7844)" stroke-dasharray="none" stroke-dashoffset="0" stroke-linecap="butt" stroke-linejoin="miter" stroke-miterlimit="4" stroke-opacity="1" stroke-width="2.5" d="M 196.4,239.6 C 194.1,255.8 192.5,272.4 185.0,287.3 C 179.5,299.6 172.3,315.8 159.4,320.1 C 147.6,323.0 146.8,302.9 145.3,294.8 C 146.2,278.3 147.0,260.7 156.5,246.5 C 162.1,235.1 167.7,223.7 173.2,212.2 C 184.1,206.6 193.8,213.3 193.0,225.2 C 194.2,230.0 195.3,234.8 196.4,239.6 z"/><path id="path6313" fill="url(#radialGradient7179)" fill-opacity="1" fill-rule="evenodd" stroke="url(#radialGradient7843)" stroke-dasharray="none" stroke-dashoffset="0" stroke-linecap="butt" stroke-linejoin="miter" stroke-miterlimit="4" stroke-opacity="1" stroke-width="2.5" d="M 145.2,301.3 C 138.1,306.8 131.2,315.2 121.5,314.7 C 109.1,311.8 113.9,292.0 124.5,288.8 C 133.8,283.9 144.9,265.9 148.3,265.0 C 146.4,277.0 144.3,289.1 145.2,301.3 z"/><path id="path6314" fill="url(#radialGradient7178)" fill-opacity="1" fill-rule="evenodd" stroke="url(#radialGradient7842)" stroke-dasharray="none" stroke-dashoffset="0" stroke-linecap="butt" stroke-linejoin="miter" stroke-miterlimit="4" stroke-opacity="1" stroke-width="2.5" d="M 173.2,210.8 C 160.9,234.8 152.2,261.1 133.6,281.2 C 126.6,290.1 115.3,293.7 106.6,300.6 C 92.1,303.8 94.9,287.2 98.9,279.0 C 101.5,268.2 106.0,257.6 112.6,248.7 C 124.2,243.3 135.7,237.3 144.6,227.9 C 153.5,223.4 163.3,206.1 173.2,210.8 z"/><path id="path6315" fill="url(#radialGradient7177)" fill-opacity="1" fill-rule="evenodd" stroke="url(#radialGradient7841)" stroke-dasharray="none" stroke-dashoffset="0" stroke-linecap="butt" stroke-linejoin="miter" stroke-miterlimit="4" stroke-opacity="1" stroke-width="2.5" d="M 169.0,207.3 C 155.9,218.5 143.7,230.9 129.8,241.2 C 111.3,248.7 92.8,258.1 72.3,257.7 C 66.2,257.8 53.2,258.6 61.8,249.6 C 66.4,237.1 77.1,228.4 87.3,220.4 C 98.3,213.4 108.7,205.2 121.6,201.8 C 132.9,196.4 145.5,194.6 157.8,194.4 C 162.8,196.6 167.7,201.9 169.0,207.3 z"/><path id="path6316" fill="url(#radialGradient7176)" fill-opacity="1" fill-rule="evenodd" stroke="url(#radialGradient7840)" stroke-dasharray="none" stroke-dashoffset="0" stroke-linecap="butt" stroke-linejoin="miter" stroke-miterlimit="4" stroke-opacity="1" stroke-width="2.5" d="M 70.8,233.9 C 58.3,235.3 38.5,235.4 31.5,224.8 C 38.5,217.1 47.7,210.4 57.0,205.4 C 71.2,199.9 85.4,194.0 100.7,192.2 C 115.2,189.9 129.9,187.8 144.5,187.4 C 154.0,184.1 160.3,197.2 147.3,194.3 C 127.4,194.8 110.3,206.9 93.4,216.1 C 85.8,222.0 78.1,227.8 70.8,233.9 z"/><path id="path6317" fill="url(#radialGradient7175)" fill-opacity="1" fill-rule="evenodd" stroke="url(#radialGradient7839)" stroke-dasharray="none" stroke-dashoffset="0" stroke-linecap="butt" stroke-linejoin="miter" stroke-miterlimit="4" stroke-opacity="1" stroke-width="2.5" d="M 91.8,193.3 C 81.8,192.8 71.6,192.2 62.6,187.1 C 52.5,183.2 43.4,177.0 35.0,170.3 C 29.3,157.6 50.7,154.6 59.7,156.0 C 76.3,155.9 93.2,156.2 109.7,158.6 C 126.2,166.0 143.3,172.8 158.0,183.5 C 161.5,195.6 142.7,185.0 135.6,188.3 C 120.9,188.0 106.4,191.3 91.8,193.3 z"/><path id="path6318" fill="url(#radialGradient7174)" fill-opacity="1" fill-rule="evenodd" stroke="url(#radialGradient7838)" stroke-dasharray="none" stroke-dashoffset="0" stroke-linecap="butt" stroke-linejoin="miter" stroke-miterlimit="4" stroke-opacity="1" stroke-width="2.5" d="M 85.5,155.4 C 74.6,149.0 61.6,145.0 53.9,134.3 C 48.0,129.7 36.8,110.7 51.1,112.4 C 63.3,116.6 82.8,107.3 87.2,122.6 C 95.8,132.3 104.8,142.4 115.7,149.6 C 130.8,159.0 145.8,168.7 160.6,178.5 C 160.5,192.1 146.6,173.7 140.0,173.0 C 127.1,168.9 116.3,158.3 102.9,157.2 C 97.1,156.9 91.2,156.5 85.5,155.4 z"/></svg>